<?xml version="1.0" encoding="UTF-8" standalone="no"?>
<!DOCTYPE svg PUBLIC "-//W3C//DTD SVG 1.1//EN"
 "http://www.w3.org/Graphics/SVG/1.1/DTD/svg11.dtd">
<!-- Generated by graphviz version 12.2.1 (20241206.2353)
 -->
<!-- Title: mcp2515_setRegister Pages: 1 -->
<svg width="511pt" height="104pt"
 viewBox="0.00 0.00 510.75 104.00" xmlns="http://www.w3.org/2000/svg" xmlns:xlink="http://www.w3.org/1999/xlink">
<g id="graph0" class="graph" transform="scale(1 1) rotate(0) translate(4 100)">
<title>mcp2515_setRegister</title>
<!-- Node1 -->
<g id="Node000001" class="node">
<title>Node1</title>
<g id="a_Node000001"><a xlink:title="Setea un registro.">
<polygon fill="#999999" stroke="#666666" points="502.75,-58 391.5,-58 391.5,-38 502.75,-38 502.75,-58"/>
<text text-anchor="middle" x="447.12" y="-44.5" font-family="Helvetica,sans-Serif" font-size="10.00">mcp2515_setRegister</text>
</a>
</g>
</g>
<!-- Node2 -->
<g id="Node000002" class="node">
<title>Node2</title>
<g id="a_Node000002"><a xlink:href="mcp2515_8c.html#a584ccc859e4ab5430492f526cd77c0ed" target="_top" xlink:title="Limpia las banderas de interrupcion.">
<polygon fill="white" stroke="#666666" points="355.5,-96 232.25,-96 232.25,-76 355.5,-76 355.5,-96"/>
<text text-anchor="middle" x="293.88" y="-82.5" font-family="Helvetica,sans-Serif" font-size="10.00">mcp2515_clearInterrupts</text>
</a>
</g>
</g>
<!-- Node1&#45;&gt;Node2 -->
<g id="edge1_Node000001_Node000002" class="edge">
<title>Node1&#45;&gt;Node2</title>
<g id="a_edge1_Node000001_Node000002"><a xlink:title=" ">
<path fill="none" stroke="#63b8ff" d="M393.4,-61.25C374.75,-65.93 354.06,-71.13 336.47,-75.55"/>
<polygon fill="#63b8ff" stroke="#63b8ff" points="394.08,-64.68 402.93,-58.85 392.38,-57.9 394.08,-64.68"/>
</a>
</g>
</g>
<!-- Node4 -->
<g id="Node000004" class="node">
<title>Node4</title>
<g id="a_Node000004"><a xlink:href="mcp2515_8c.html#a21cb40a7513567cb455ce296ef0bbe4b" target="_top" xlink:title="Resetea el modulo.">
<polygon fill="white" stroke="#666666" points="335.25,-58 252.5,-58 252.5,-38 335.25,-38 335.25,-58"/>
<text text-anchor="middle" x="293.88" y="-44.5" font-family="Helvetica,sans-Serif" font-size="10.00">mcp2515_reset</text>
</a>
</g>
</g>
<!-- Node1&#45;&gt;Node4 -->
<g id="edge3_Node000001_Node000004" class="edge">
<title>Node1&#45;&gt;Node4</title>
<g id="a_edge3_Node000001_Node000004"><a xlink:title=" ">
<path fill="none" stroke="#63b8ff" d="M379.69,-48C364.61,-48 349.03,-48 335.4,-48"/>
<polygon fill="#63b8ff" stroke="#63b8ff" points="379.58,-51.5 389.58,-48 379.58,-44.5 379.58,-51.5"/>
</a>
</g>
</g>
<!-- Node7 -->
<g id="Node000007" class="node">
<title>Node7</title>
<g id="a_Node000007"><a xlink:href="mcp2515_8c.html#a376a8574dcdafeeac264e1b652333d58" target="_top" xlink:title="Setea el baud rate.">
<polygon fill="white" stroke="#666666" points="345.38,-20 242.38,-20 242.38,0 345.38,0 345.38,-20"/>
<text text-anchor="middle" x="293.88" y="-6.5" font-family="Helvetica,sans-Serif" font-size="10.00">mcp2515_setBitrate</text>
</a>
</g>
</g>
<!-- Node1&#45;&gt;Node7 -->
<g id="edge6_Node000001_Node000007" class="edge">
<title>Node1&#45;&gt;Node7</title>
<g id="a_edge6_Node000001_Node000007"><a xlink:title=" ">
<path fill="none" stroke="#63b8ff" d="M393.4,-34.75C374.75,-30.07 354.06,-24.87 336.47,-20.45"/>
<polygon fill="#63b8ff" stroke="#63b8ff" points="392.38,-38.1 402.93,-37.15 394.08,-31.32 392.38,-38.1"/>
</a>
</g>
</g>
<!-- Node3 -->
<g id="Node000003" class="node">
<title>Node3</title>
<g id="a_Node000003"><a xlink:href="mcp2515_8c.html#aeb679de4c34c365123f989fab92b9b71" target="_top" xlink:title="Limpia la bandera de overflow de los buffers de rx.">
<polygon fill="white" stroke="#666666" points="196.25,-96 73,-96 73,-76 196.25,-76 196.25,-96"/>
<text text-anchor="middle" x="134.62" y="-82.5" font-family="Helvetica,sans-Serif" font-size="10.00">mcp2515_clearRXnOVR</text>
</a>
</g>
</g>
<!-- Node2&#45;&gt;Node3 -->
<g id="edge2_Node000002_Node000003" class="edge">
<title>Node2&#45;&gt;Node3</title>
<g id="a_edge2_Node000002_Node000003"><a xlink:title=" ">
<path fill="none" stroke="#63b8ff" d="M220.73,-86C212.64,-86 204.45,-86 196.52,-86"/>
<polygon fill="#63b8ff" stroke="#63b8ff" points="220.56,-89.5 230.56,-86 220.56,-82.5 220.56,-89.5"/>
</a>
</g>
</g>
<!-- Node5 -->
<g id="Node000005" class="node">
<title>Node5</title>
<g id="a_Node000005"><a xlink:href="main_8c.html#a3df11f7015b4a015c6b468941125de20" target="_top" xlink:title="Inicializacion de perifericos.">
<polygon fill="white" stroke="#666666" points="174.12,-39 95.12,-39 95.12,-19 174.12,-19 174.12,-39"/>
<text text-anchor="middle" x="134.62" y="-25.5" font-family="Helvetica,sans-Serif" font-size="10.00">perifericos_init</text>
</a>
</g>
</g>
<!-- Node4&#45;&gt;Node5 -->
<g id="edge4_Node000004_Node000005" class="edge">
<title>Node4&#45;&gt;Node5</title>
<g id="a_edge4_Node000004_Node000005"><a xlink:title=" ">
<path fill="none" stroke="#63b8ff" d="M241.01,-41.73C219.28,-39.11 194.45,-36.11 174.36,-33.68"/>
<polygon fill="#63b8ff" stroke="#63b8ff" points="240.53,-45.2 250.88,-42.93 241.37,-38.25 240.53,-45.2"/>
</a>
</g>
</g>
<!-- Node6 -->
<g id="Node000006" class="node">
<title>Node6</title>
<g id="a_Node000006"><a xlink:href="main_8c.html#a840291bc02cba5474a4cb46a9b9566fe" target="_top" xlink:title="Main.">
<polygon fill="white" stroke="#666666" points="37,-39 0,-39 0,-19 37,-19 37,-39"/>
<text text-anchor="middle" x="18.5" y="-25.5" font-family="Helvetica,sans-Serif" font-size="10.00">main</text>
</a>
</g>
</g>
<!-- Node5&#45;&gt;Node6 -->
<g id="edge5_Node000005_Node000006" class="edge">
<title>Node5&#45;&gt;Node6</title>
<g id="a_edge5_Node000005_Node000006"><a xlink:title=" ">
<path fill="none" stroke="#63b8ff" d="M83.44,-29C66.93,-29 49.65,-29 37.22,-29"/>
<polygon fill="#63b8ff" stroke="#63b8ff" points="83.16,-32.5 93.16,-29 83.16,-25.5 83.16,-32.5"/>
</a>
</g>
</g>
<!-- Node7&#45;&gt;Node5 -->
<g id="edge7_Node000007_Node000005" class="edge">
<title>Node7&#45;&gt;Node5</title>
<g id="a_edge7_Node000007_Node000005"><a xlink:title=" ">
<path fill="none" stroke="#63b8ff" d="M230.92,-17.49C211.88,-19.79 191.46,-22.25 174.43,-24.31"/>
<polygon fill="#63b8ff" stroke="#63b8ff" points="231.24,-20.97 240.75,-16.3 230.4,-14.02 231.24,-20.97"/>
</a>
</g>
</g>
</g>
</svg>
