<?xml version="1.0" encoding="UTF-8" standalone="no"?>
<!DOCTYPE svg PUBLIC "-//W3C//DTD SVG 1.1//EN"
 "http://www.w3.org/Graphics/SVG/1.1/DTD/svg11.dtd">
<!-- Generated by graphviz version 12.2.1 (20241206.2353)
 -->
<!-- Title: perifericos_init Pages: 1 -->
<!--zoomable 366 -->

<svg id="main" version="1.1" xmlns="http://www.w3.org/2000/svg" xmlns:xlink="http://www.w3.org/1999/xlink" xml:space="preserve" onload="init(evt)">

<style type="text/css"><![CDATA[
.node, .edge {opacity: 0.7;}
.node.selected, .edge.selected {opacity: 1;}
.edge:hover path { stroke: red; }
.edge:hover polygon { stroke: red; fill: red; }
]]></style>

<defs>
  <circle id="rim" cx="0" cy="0" r="7"/>
  <circle id="rim2" cx="0" cy="0" r="3.5"/>
  <g id="zoomPlus">
    <use xlink:href="#rim" fill="#404040"><set attributeName="fill" to="#808080" begin="zoomplus.mouseover" end="zoomplus.mouseout"/></use>
    <path d="M-4,0h8M0,-4v8" fill="none" stroke="white" stroke-width="1.5" pointer-events="none"/>
  </g>
  <g id="zoomMin">
    <use xlink:href="#rim" fill="#404040"><set attributeName="fill" to="#808080" begin="zoomminus.mouseover" end="zoomminus.mouseout"/></use>
    <path d="M-4,0h8" fill="none" stroke="white" stroke-width="1.5" pointer-events="none"/>
  </g>
  <g id="arrowUp" transform="translate(30 24)">
    <use xlink:href="#rim"/>
    <path pointer-events="none" fill="none" stroke="white" stroke-width="1.5" d="M0,-3.0v7 M-2.5,-0.5L0,-3.0L2.5,-0.5"/>
  </g>
  <g id="arrowRight" transform="rotate(90) translate(36 -43)">
    <use xlink:href="#rim"/>
    <path pointer-events="none" fill="none" stroke="white" stroke-width="1.5" d="M0,-3.0v7 M-2.5,-0.5L0,-3.0L2.5,-0.5"/>
  </g>
  <g id="arrowDown" transform="rotate(180) translate(-30 -48)">
    <use xlink:href="#rim"/>
    <path pointer-events="none" fill="none" stroke="white" stroke-width="1.5" d="M0,-3.0v7 M-2.5,-0.5L0,-3.0L2.5,-0.5"/>
  </g>
  <g id="arrowLeft" transform="rotate(270) translate(-36 17)">
    <use xlink:href="#rim"/>
    <path pointer-events="none" fill="none" stroke="white" stroke-width="1.5" d="M0,-3.0v7 M-2.5,-0.5L0,-3.0L2.5,-0.5"/>
  </g>
  <g id="resetDef">
    <use xlink:href="#rim2" fill="#404040"><set attributeName="fill" to="#808080" begin="reset.mouseover" end="reset.mouseout"/></use>
  </g>
</defs>
<script type="application/ecmascript">
var viewWidth = 971;
var viewHeight = 366;
var sectionId = 'dynsection-4';
</script>
<script type="application/ecmascript" xlink:href="svg.min.js"/>
<svg id="graph" class="graph">
<g id="viewport">
<title>perifericos_init</title>
<!-- Node1 -->
<g id="Node000001" class="node">
<title>Node1</title>
<g id="a_Node000001"><a xlink:title="Inicializacion de perifericos.">
<polygon fill="#999999" stroke="#666666" points="79,-167.88 0,-167.88 0,-147.88 79,-147.88 79,-167.88"/>
<text text-anchor="middle" x="39.5" y="-154.38" font-family="Helvetica,sans-Serif" font-size="10.00">perifericos_init</text>
</a>
</g>
</g>
<!-- Node2 -->
<g id="Node000002" class="node">
<title>Node2</title>
<g id="a_Node000002"><a xlink:href="mcp2515_8c.html#a21cb40a7513567cb455ce296ef0bbe4b" target="_top" xlink:title="Resetea el modulo.">
<polygon fill="white" stroke="#666666" points="221.38,-167.88 138.62,-167.88 138.62,-147.88 221.38,-147.88 221.38,-167.88"/>
<text text-anchor="middle" x="180" y="-154.38" font-family="Helvetica,sans-Serif" font-size="10.00">mcp2515_reset</text>
</a>
</g>
</g>
<!-- Node1&#45;&gt;Node2 -->
<g id="edge1_Node000001_Node000002" class="edge">
<title>Node1&#45;&gt;Node2</title>
<g id="a_edge1_Node000001_Node000002"><a xlink:title=" ">
<path fill="none" stroke="#63b8ff" d="M79.45,-157.88C94.26,-157.88 111.37,-157.88 127.18,-157.88"/>
<polygon fill="#63b8ff" stroke="#63b8ff" points="126.9,-161.38 136.9,-157.88 126.9,-154.38 126.9,-161.38"/>
</a>
</g>
</g>
<!-- Node15 -->
<g id="Node000015" class="node">
<title>Node15</title>
<g id="a_Node000015"><a xlink:href="mcp2515_8c.html#a376a8574dcdafeeac264e1b652333d58" target="_top" xlink:title="Setea el baud rate.">
<polygon fill="white" stroke="#666666" points="392.62,-319.88 289.62,-319.88 289.62,-299.88 392.62,-299.88 392.62,-319.88"/>
<text text-anchor="middle" x="341.12" y="-306.38" font-family="Helvetica,sans-Serif" font-size="10.00">mcp2515_setBitrate</text>
</a>
</g>
</g>
<!-- Node1&#45;&gt;Node15 -->
<g id="edge28_Node000001_Node000015" class="edge">
<title>Node1&#45;&gt;Node15</title>
<g id="a_edge28_Node000001_Node000015"><a xlink:title=" ">
<path fill="none" stroke="#63b8ff" d="M58.58,-168.33C98.2,-191.06 195.95,-246.11 281,-285.88 287.8,-289.06 295.14,-292.23 302.26,-295.19"/>
<polygon fill="#63b8ff" stroke="#63b8ff" points="300.81,-298.38 311.39,-298.9 303.44,-291.89 300.81,-298.38"/>
</a>
</g>
</g>
<!-- Node16 -->
<g id="Node000016" class="node">
<title>Node16</title>
<g id="a_Node000016"><a xlink:href="mcp2515_8c.html#ab5403fd588f8558b6b3031e9cee0b35e" target="_top" xlink:title="Setea el modo normal de trabajo.">
<polygon fill="white" stroke="#666666" points="245,-53.88 115,-53.88 115,-33.88 245,-33.88 245,-53.88"/>
<text text-anchor="middle" x="180" y="-40.38" font-family="Helvetica,sans-Serif" font-size="10.00">mcp2515_setNormalMode</text>
</a>
</g>
</g>
<!-- Node1&#45;&gt;Node16 -->
<g id="edge31_Node000001_Node000016" class="edge">
<title>Node1&#45;&gt;Node16</title>
<g id="a_edge31_Node000001_Node000016"><a xlink:title=" ">
<path fill="none" stroke="#63b8ff" d="M52.79,-147.76C76.45,-128.29 128.56,-85.4 157.88,-61.26"/>
<polygon fill="#63b8ff" stroke="#63b8ff" points="159.87,-64.16 165.37,-55.1 155.42,-58.75 159.87,-64.16"/>
</a>
</g>
</g>
<!-- Node3 -->
<g id="Node000003" class="node">
<title>Node3</title>
<g id="a_Node000003"><a xlink:href="mcp2515_8c.html#ae85a49925cc5c6fd1b15522434dc51ce" target="_top" xlink:title="Finaliza la comunicacion spi.">
<polygon fill="white" stroke="#666666" points="960.62,-205.88 912.38,-205.88 912.38,-185.88 960.62,-185.88 960.62,-205.88"/>
<text text-anchor="middle" x="936.5" y="-192.38" font-family="Helvetica,sans-Serif" font-size="10.00">endSPI</text>
</a>
</g>
</g>
<!-- Node2&#45;&gt;Node3 -->
<g id="edge2_Node000002_Node000003" class="edge">
<title>Node2&#45;&gt;Node3</title>
<g id="a_edge2_Node000002_Node000003"><a xlink:title=" ">
<path fill="none" stroke="#63b8ff" d="M183.5,-168.28C191.51,-199.07 219.68,-290.08 281,-328.88 363.47,-381.06 402.16,-347.88 499.75,-347.88 499.75,-347.88 499.75,-347.88 656.88,-347.88 767.25,-347.88 875.48,-254.82 917.35,-214.33"/>
<polygon fill="#63b8ff" stroke="#63b8ff" points="919.72,-216.9 924.39,-207.39 914.81,-211.92 919.72,-216.9"/>
</a>
</g>
</g>
<!-- Node4 -->
<g id="Node000004" class="node">
<title>Node4</title>
<g id="a_Node000004"><a xlink:href="mcp2515_8c.html#a93c2df6a52fa046c073256f50d96b930" target="_top" xlink:title="Funciones publicas.">
<polygon fill="white" stroke="#666666" points="378,-167.88 304.25,-167.88 304.25,-147.88 378,-147.88 378,-167.88"/>
<text text-anchor="middle" x="341.12" y="-154.38" font-family="Helvetica,sans-Serif" font-size="10.00">mcp2515_init</text>
</a>
</g>
</g>
<!-- Node2&#45;&gt;Node4 -->
<g id="edge3_Node000002_Node000004" class="edge">
<title>Node2&#45;&gt;Node4</title>
<g id="a_edge3_Node000002_Node000004"><a xlink:title=" ">
<path fill="none" stroke="#63b8ff" d="M221.57,-157.88C243.21,-157.88 269.96,-157.88 292.58,-157.88"/>
<polygon fill="#63b8ff" stroke="#63b8ff" points="292.46,-161.38 302.46,-157.88 292.46,-154.38 292.46,-161.38"/>
</a>
</g>
</g>
<!-- Node5 -->
<g id="Node000005" class="node">
<title>Node5</title>
<g id="a_Node000005"><a xlink:href="mcp2515_8c.html#ac3bc690a1b8ef1495f5fbb57eab28eaf" target="_top" xlink:title="Modifica un registro en particular.">
<polygon fill="white" stroke="#666666" points="874.5,-129.88 747.5,-129.88 747.5,-109.88 874.5,-109.88 874.5,-129.88"/>
<text text-anchor="middle" x="811" y="-116.38" font-family="Helvetica,sans-Serif" font-size="10.00">mcp2515_modifyRegister</text>
</a>
</g>
</g>
<!-- Node2&#45;&gt;Node5 -->
<g id="edge4_Node000002_Node000005" class="edge">
<title>Node2&#45;&gt;Node5</title>
<g id="a_edge4_Node000002_Node000005"><a xlink:title=" ">
<path fill="none" stroke="#63b8ff" d="M200.62,-168.33C220.3,-178.19 251.81,-192.26 281,-197.88 404.96,-221.75 440.01,-199.23 564.25,-176.88 582.87,-173.53 688.27,-148.74 754.85,-132.98"/>
<polygon fill="#63b8ff" stroke="#63b8ff" points="755.59,-136.4 764.52,-130.69 753.98,-129.59 755.59,-136.4"/>
</a>
</g>
</g>
<!-- Node6 -->
<g id="Node000006" class="node">
<title>Node6</title>
<g id="a_Node000006"><a xlink:href="mcp2515_8c.html#afea997d2aa89cc2831bff10e34198bd8" target="_top" xlink:title="Funciones privadas.">
<polygon fill="white" stroke="#666666" points="962.5,-91.88 910.5,-91.88 910.5,-71.88 962.5,-71.88 962.5,-91.88"/>
<text text-anchor="middle" x="936.5" y="-78.38" font-family="Helvetica,sans-Serif" font-size="10.00">startSPI</text>
</a>
</g>
</g>
<!-- Node2&#45;&gt;Node6 -->
<g id="edge27_Node000002_Node000006" class="edge">
<title>Node2&#45;&gt;Node6</title>
<g id="a_edge27_Node000002_Node000006"><a xlink:title=" ">
<path fill="none" stroke="#63b8ff" d="M187.53,-147.57C205.38,-119.73 255.38,-44.16 281,-29.88 366.43,17.73 401.94,-5.88 499.75,-5.88 499.75,-5.88 499.75,-5.88 656.88,-5.88 755.83,-5.88 780.83,-20.98 874.5,-52.88 885.18,-56.52 896.45,-61.51 906.35,-66.34"/>
<polygon fill="#63b8ff" stroke="#63b8ff" points="904.61,-69.38 915.12,-70.75 907.76,-63.13 904.61,-69.38"/>
</a>
</g>
</g>
<!-- Node7 -->
<g id="Node000007" class="node">
<title>Node7</title>
<g id="a_Node000007"><a xlink:href="mcp2515_8c.html#a1dcd2d88901952184ce8297e1c5c6bf6" target="_top" xlink:title="Lee un solo registro a la vez.">
<polygon fill="white" stroke="#666666" points="869.25,-91.88 752.75,-91.88 752.75,-71.88 869.25,-71.88 869.25,-91.88"/>
<text text-anchor="middle" x="811" y="-78.38" font-family="Helvetica,sans-Serif" font-size="10.00">mcp2515_readRegister</text>
</a>
</g>
</g>
<!-- Node2&#45;&gt;Node7 -->
<g id="edge7_Node000002_Node000007" class="edge">
<title>Node2&#45;&gt;Node7</title>
<g id="a_edge7_Node000002_Node000007"><a xlink:title=" ">
<path fill="none" stroke="#63b8ff" d="M187.72,-147.54C201.95,-126.72 237.41,-80.28 281,-62.88 448.72,4.09 670.66,-42.95 764.75,-68.43"/>
<polygon fill="#63b8ff" stroke="#63b8ff" points="763.55,-71.73 774.12,-71.02 765.41,-64.98 763.55,-71.73"/>
</a>
</g>
</g>
<!-- Node8 -->
<g id="Node000008" class="node">
<title>Node8</title>
<g id="a_Node000008"><a xlink:href="mcp2515_8c.html#adb0e9467c52bdc0cef5bb689dd3b996f" target="_top" xlink:title="Se configura el filtro.">
<polygon fill="white" stroke="#666666" points="389.25,-129.88 293,-129.88 293,-109.88 389.25,-109.88 389.25,-129.88"/>
<text text-anchor="middle" x="341.12" y="-116.38" font-family="Helvetica,sans-Serif" font-size="10.00">mcp2515_setFilter</text>
</a>
</g>
</g>
<!-- Node2&#45;&gt;Node8 -->
<g id="edge10_Node000002_Node000008" class="edge">
<title>Node2&#45;&gt;Node8</title>
<g id="a_edge10_Node000002_Node000008"><a xlink:title=" ">
<path fill="none" stroke="#63b8ff" d="M221.57,-148.19C240.92,-143.57 264.37,-137.97 285.29,-132.97"/>
<polygon fill="#63b8ff" stroke="#63b8ff" points="285.9,-136.43 294.81,-130.7 284.27,-129.62 285.9,-136.43"/>
</a>
</g>
</g>
<!-- Node12 -->
<g id="Node000012" class="node">
<title>Node12</title>
<g id="a_Node000012"><a xlink:href="mcp2515_8c.html#a06105d6f139b5a81ffc4650b634f9cfe" target="_top" xlink:title="Setea multiples registros.">
<polygon fill="white" stroke="#666666" points="559,-129.88 442.5,-129.88 442.5,-109.88 559,-109.88 559,-129.88"/>
<text text-anchor="middle" x="500.75" y="-116.38" font-family="Helvetica,sans-Serif" font-size="10.00">mcp2515_setRegisters</text>
</a>
</g>
</g>
<!-- Node2&#45;&gt;Node12 -->
<g id="edge26_Node000002_Node000012" class="edge">
<title>Node2&#45;&gt;Node12</title>
<g id="a_edge26_Node000002_Node000012"><a xlink:title=" ">
<path fill="none" stroke="#63b8ff" d="M208.42,-168.28C251.44,-182.88 336.55,-204.71 401.25,-176.88 422.62,-167.69 417.46,-151.11 437.25,-138.88 439.66,-137.39 442.19,-136.01 444.79,-134.74"/>
<polygon fill="#63b8ff" stroke="#63b8ff" points="445.93,-138.06 453.74,-130.91 443.17,-131.63 445.93,-138.06"/>
</a>
</g>
</g>
<!-- Node13 -->
<g id="Node000013" class="node">
<title>Node13</title>
<g id="a_Node000013"><a xlink:href="mcp2515_8c.html#a34318296cf509afa4e66aeffdbeb0f6d" target="_top" xlink:title="Setea el filtro y la mascara. Se configuran dichos datos en los registros del propio modulo.">
<polygon fill="white" stroke="#666666" points="401.25,-91.88 281,-91.88 281,-71.88 401.25,-71.88 401.25,-91.88"/>
<text text-anchor="middle" x="341.12" y="-78.38" font-family="Helvetica,sans-Serif" font-size="10.00">mcp2515_setFilterMask</text>
</a>
</g>
</g>
<!-- Node2&#45;&gt;Node13 -->
<g id="edge19_Node000002_Node000013" class="edge">
<title>Node2&#45;&gt;Node13</title>
<g id="a_edge19_Node000002_Node000013"><a xlink:title=" ">
<path fill="none" stroke="#63b8ff" d="M196.75,-147.53C216.01,-135.21 249.91,-114.56 281,-100.88 284.77,-99.22 288.74,-97.63 292.76,-96.13"/>
<polygon fill="#63b8ff" stroke="#63b8ff" points="293.72,-99.5 301.98,-92.87 291.39,-92.9 293.72,-99.5"/>
</a>
</g>
</g>
<!-- Node14 -->
<g id="Node000014" class="node">
<title>Node14</title>
<g id="a_Node000014"><a xlink:href="mcp2515_8c.html#aa1ab73089d5c9bfb753aaa1b3b3f8d28" target="_top" xlink:title="Setea un registro.">
<polygon fill="white" stroke="#666666" points="711.5,-281.88 600.25,-281.88 600.25,-261.88 711.5,-261.88 711.5,-281.88"/>
<text text-anchor="middle" x="655.88" y="-268.38" font-family="Helvetica,sans-Serif" font-size="10.00">mcp2515_setRegister</text>
</a>
</g>
</g>
<!-- Node2&#45;&gt;Node14 -->
<g id="edge23_Node000002_Node000014" class="edge">
<title>Node2&#45;&gt;Node14</title>
<g id="a_edge23_Node000002_Node000014"><a xlink:title=" ">
<path fill="none" stroke="#63b8ff" d="M201.38,-168.37C214.67,-175.8 231.91,-186.6 245,-198.88 264.71,-217.37 257.29,-234.91 281,-247.88 332.28,-275.94 495.88,-276.43 588.78,-274.23"/>
<polygon fill="#63b8ff" stroke="#63b8ff" points="588.6,-277.73 598.51,-273.98 588.42,-270.74 588.6,-277.73"/>
</a>
</g>
</g>
<!-- Node5&#45;&gt;Node3 -->
<g id="edge5_Node000005_Node000003" class="edge">
<title>Node5&#45;&gt;Node3</title>
<g id="a_edge5_Node000005_Node000003"><a xlink:title=" ">
<path fill="none" stroke="#63b8ff" d="M828.91,-130.29C849.61,-143.02 884.88,-164.73 909.14,-179.66"/>
<polygon fill="#63b8ff" stroke="#63b8ff" points="907.15,-182.54 917.5,-184.8 910.82,-176.58 907.15,-182.54"/>
</a>
</g>
</g>
<!-- Node5&#45;&gt;Node6 -->
<g id="edge6_Node000005_Node000006" class="edge">
<title>Node5&#45;&gt;Node6</title>
<g id="a_edge6_Node000005_Node000006"><a xlink:title=" ">
<path fill="none" stroke="#63b8ff" d="M846.4,-109.47C855.54,-106.69 865.39,-103.68 874.5,-100.88 882.59,-98.39 891.28,-95.7 899.49,-93.14"/>
<polygon fill="#63b8ff" stroke="#63b8ff" points="900.33,-96.54 908.84,-90.23 898.25,-89.86 900.33,-96.54"/>
</a>
</g>
</g>
<!-- Node7&#45;&gt;Node3 -->
<g id="edge8_Node000007_Node000003" class="edge">
<title>Node7&#45;&gt;Node3</title>
<g id="a_edge8_Node000007_Node000003"><a xlink:title=" ">
<path fill="none" stroke="#63b8ff" d="M859.49,-92.34C864.84,-94.65 869.98,-97.46 874.5,-100.88 900.07,-120.22 917.87,-153.64 927.39,-175.24"/>
<polygon fill="#63b8ff" stroke="#63b8ff" points="924.05,-176.32 931.13,-184.2 930.51,-173.62 924.05,-176.32"/>
</a>
</g>
</g>
<!-- Node7&#45;&gt;Node6 -->
<g id="edge9_Node000007_Node000006" class="edge">
<title>Node7&#45;&gt;Node6</title>
<g id="a_edge9_Node000007_Node000006"><a xlink:title=" ">
<path fill="none" stroke="#63b8ff" d="M869.41,-81.88C879.51,-81.88 889.76,-81.88 899.09,-81.88"/>
<polygon fill="#63b8ff" stroke="#63b8ff" points="898.8,-85.38 908.8,-81.88 898.8,-78.38 898.8,-85.38"/>
</a>
</g>
</g>
<!-- Node9 -->
<g id="Node000009" class="node">
<title>Node9</title>
<g id="a_Node000009"><a xlink:href="mcp2515_8c.html#aed2f12d8207c7b34f82733dbccdb3c76" target="_top" xlink:title="Configura el id para una accion en particular.">
<polygon fill="white" stroke="#666666" points="551.5,-91.88 450,-91.88 450,-71.88 551.5,-71.88 551.5,-91.88"/>
<text text-anchor="middle" x="500.75" y="-78.38" font-family="Helvetica,sans-Serif" font-size="10.00">mcp2515_prepareId</text>
</a>
</g>
</g>
<!-- Node8&#45;&gt;Node9 -->
<g id="edge11_Node000008_Node000009" class="edge">
<title>Node8&#45;&gt;Node9</title>
<g id="a_edge11_Node000008_Node000009"><a xlink:title=" ">
<path fill="none" stroke="#63b8ff" d="M385.61,-109.39C404.05,-104.95 425.73,-99.72 445.22,-95.02"/>
<polygon fill="#63b8ff" stroke="#63b8ff" points="446.03,-98.43 454.93,-92.68 444.39,-91.62 446.03,-98.43"/>
</a>
</g>
</g>
<!-- Node10 -->
<g id="Node000010" class="node">
<title>Node10</title>
<g id="a_Node000010"><a xlink:href="mcp2515_8c.html#a0a1c3cc8b486dbd55ff9d2d011694fa6" target="_top" xlink:title="Setea el modo de configuracion.">
<polygon fill="white" stroke="#666666" points="564.25,-167.88 437.25,-167.88 437.25,-147.88 564.25,-147.88 564.25,-167.88"/>
<text text-anchor="middle" x="500.75" y="-154.38" font-family="Helvetica,sans-Serif" font-size="10.00">mcp2515_setConfigMode</text>
</a>
</g>
</g>
<!-- Node8&#45;&gt;Node10 -->
<g id="edge12_Node000008_Node000010" class="edge">
<title>Node8&#45;&gt;Node10</title>
<g id="a_edge12_Node000008_Node000010"><a xlink:title=" ">
<path fill="none" stroke="#63b8ff" d="M385.61,-130.36C404.05,-134.81 425.73,-140.04 445.22,-144.73"/>
<polygon fill="#63b8ff" stroke="#63b8ff" points="444.39,-148.13 454.93,-147.07 446.03,-141.33 444.39,-148.13"/>
</a>
</g>
</g>
<!-- Node8&#45;&gt;Node12 -->
<g id="edge16_Node000008_Node000012" class="edge">
<title>Node8&#45;&gt;Node12</title>
<g id="a_edge16_Node000008_Node000012"><a xlink:title=" ">
<path fill="none" stroke="#63b8ff" d="M389.42,-119.88C402.51,-119.88 417,-119.88 431.04,-119.88"/>
<polygon fill="#63b8ff" stroke="#63b8ff" points="430.67,-123.38 440.67,-119.88 430.67,-116.38 430.67,-123.38"/>
</a>
</g>
</g>
<!-- Node11 -->
<g id="Node000011" class="node">
<title>Node11</title>
<g id="a_Node000011"><a xlink:href="mcp2515_8c.html#aa8f4e44a2081362f25ff79e24d4bf6cb" target="_top" xlink:title="Seteado el modo de trabajo.">
<polygon fill="white" stroke="#666666" points="705.12,-129.88 606.62,-129.88 606.62,-109.88 705.12,-109.88 705.12,-129.88"/>
<text text-anchor="middle" x="655.88" y="-116.38" font-family="Helvetica,sans-Serif" font-size="10.00">mcp2515_setMode</text>
</a>
</g>
</g>
<!-- Node10&#45;&gt;Node11 -->
<g id="edge13_Node000010_Node000011" class="edge">
<title>Node10&#45;&gt;Node11</title>
<g id="a_edge13_Node000010_Node000011"><a xlink:title=" ">
<path fill="none" stroke="#63b8ff" d="M544,-147.39C561.82,-142.97 582.77,-137.77 601.64,-133.09"/>
<polygon fill="#63b8ff" stroke="#63b8ff" points="602.43,-136.5 611.3,-130.69 600.75,-129.71 602.43,-136.5"/>
</a>
</g>
</g>
<!-- Node11&#45;&gt;Node5 -->
<g id="edge14_Node000011_Node000005" class="edge">
<title>Node11&#45;&gt;Node5</title>
<g id="a_edge14_Node000011_Node000005"><a xlink:title=" ">
<path fill="none" stroke="#63b8ff" d="M705.32,-119.88C714.94,-119.88 725.24,-119.88 735.49,-119.88"/>
<polygon fill="#63b8ff" stroke="#63b8ff" points="735.49,-123.38 745.49,-119.88 735.49,-116.38 735.49,-123.38"/>
</a>
</g>
</g>
<!-- Node11&#45;&gt;Node7 -->
<g id="edge15_Node000011_Node000007" class="edge">
<title>Node11&#45;&gt;Node7</title>
<g id="a_edge15_Node000011_Node000007"><a xlink:title=" ">
<path fill="none" stroke="#63b8ff" d="M699.12,-109.39C716.95,-104.97 737.9,-99.77 756.76,-95.09"/>
<polygon fill="#63b8ff" stroke="#63b8ff" points="757.56,-98.5 766.42,-92.69 755.87,-91.71 757.56,-98.5"/>
</a>
</g>
</g>
<!-- Node12&#45;&gt;Node3 -->
<g id="edge17_Node000012_Node000003" class="edge">
<title>Node12&#45;&gt;Node3</title>
<g id="a_edge17_Node000012_Node000003"><a xlink:title=" ">
<path fill="none" stroke="#63b8ff" d="M554.87,-130.35C569.56,-133.18 585.51,-136.21 600.25,-138.88 709.71,-158.74 839.67,-180.25 900.65,-190.21"/>
<polygon fill="#63b8ff" stroke="#63b8ff" points="899.97,-193.65 910.4,-191.81 901.09,-186.74 899.97,-193.65"/>
</a>
</g>
</g>
<!-- Node12&#45;&gt;Node6 -->
<g id="edge18_Node000012_Node000006" class="edge">
<title>Node12&#45;&gt;Node6</title>
<g id="a_edge18_Node000012_Node000006"><a xlink:title=" ">
<path fill="none" stroke="#63b8ff" d="M535.51,-109.46C582.49,-95.57 670.48,-71.69 747.5,-62.88 803.58,-56.46 818.7,-54.39 874.5,-62.88 882.62,-64.11 891.15,-66.23 899.18,-68.6"/>
<polygon fill="#63b8ff" stroke="#63b8ff" points="898.05,-71.92 908.64,-71.62 900.17,-65.25 898.05,-71.92"/>
</a>
</g>
</g>
<!-- Node13&#45;&gt;Node9 -->
<g id="edge20_Node000013_Node000009" class="edge">
<title>Node13&#45;&gt;Node9</title>
<g id="a_edge20_Node000013_Node000009"><a xlink:title=" ">
<path fill="none" stroke="#63b8ff" d="M401.72,-81.88C413.67,-81.88 426.26,-81.88 438.28,-81.88"/>
<polygon fill="#63b8ff" stroke="#63b8ff" points="438.08,-85.38 448.08,-81.88 438.08,-78.38 438.08,-85.38"/>
</a>
</g>
</g>
<!-- Node13&#45;&gt;Node10 -->
<g id="edge21_Node000013_Node000010" class="edge">
<title>Node13&#45;&gt;Node10</title>
<g id="a_edge21_Node000013_Node000010"><a xlink:title=" ">
<path fill="none" stroke="#63b8ff" d="M383.71,-92.3C389.82,-94.66 395.87,-97.49 401.25,-100.88 420.94,-113.27 417.46,-126.64 437.25,-138.88 439.66,-140.37 442.19,-141.74 444.79,-143.02"/>
<polygon fill="#63b8ff" stroke="#63b8ff" points="443.17,-146.13 453.74,-146.85 445.93,-139.7 443.17,-146.13"/>
</a>
</g>
</g>
<!-- Node13&#45;&gt;Node12 -->
<g id="edge22_Node000013_Node000012" class="edge">
<title>Node13&#45;&gt;Node12</title>
<g id="a_edge22_Node000013_Node000012"><a xlink:title=" ">
<path fill="none" stroke="#63b8ff" d="M385.61,-92.36C404.05,-96.81 425.73,-102.04 445.22,-106.73"/>
<polygon fill="#63b8ff" stroke="#63b8ff" points="444.39,-110.13 454.93,-109.07 446.03,-103.33 444.39,-110.13"/>
</a>
</g>
</g>
<!-- Node14&#45;&gt;Node3 -->
<g id="edge24_Node000014_Node000003" class="edge">
<title>Node14&#45;&gt;Node3</title>
<g id="a_edge24_Node000014_Node000003"><a xlink:title=" ">
<path fill="none" stroke="#63b8ff" d="M695.32,-261.39C749.87,-246.51 848.87,-219.51 901.11,-205.26"/>
<polygon fill="#63b8ff" stroke="#63b8ff" points="901.93,-208.66 910.66,-202.66 900.09,-201.91 901.93,-208.66"/>
</a>
</g>
</g>
<!-- Node14&#45;&gt;Node6 -->
<g id="edge25_Node000014_Node000006" class="edge">
<title>Node14&#45;&gt;Node6</title>
<g id="a_edge25_Node000014_Node000006"><a xlink:title=" ">
<path fill="none" stroke="#63b8ff" d="M686.38,-261.46C694.86,-257.8 703.88,-253.24 711.5,-247.88 730.53,-234.49 729.14,-224.16 747.5,-209.88 798.54,-170.18 822.27,-177.01 874.5,-138.88 890.17,-127.44 906.13,-112.37 917.8,-100.61"/>
<polygon fill="#63b8ff" stroke="#63b8ff" points="920.29,-103.06 924.75,-93.45 915.27,-98.19 920.29,-103.06"/>
</a>
</g>
</g>
<!-- Node15&#45;&gt;Node10 -->
<g id="edge29_Node000015_Node000010" class="edge">
<title>Node15&#45;&gt;Node10</title>
<g id="a_edge29_Node000015_Node000010"><a xlink:title=" ">
<path fill="none" stroke="#63b8ff" d="M352.96,-299.43C379.52,-273.82 448.12,-207.67 481.27,-175.7"/>
<polygon fill="#63b8ff" stroke="#63b8ff" points="483.4,-178.51 488.17,-169.05 478.54,-173.47 483.4,-178.51"/>
</a>
</g>
</g>
<!-- Node15&#45;&gt;Node14 -->
<g id="edge30_Node000015_Node000014" class="edge">
<title>Node15&#45;&gt;Node14</title>
<g id="a_edge30_Node000015_Node000014"><a xlink:title=" ">
<path fill="none" stroke="#63b8ff" d="M392.93,-305.06C438,-300.62 505.6,-293.57 564.25,-285.88 572.17,-284.84 580.47,-283.67 588.69,-282.46"/>
<polygon fill="#63b8ff" stroke="#63b8ff" points="588.95,-285.96 598.32,-281.02 587.91,-279.04 588.95,-285.96"/>
</a>
</g>
</g>
<!-- Node16&#45;&gt;Node11 -->
<g id="edge32_Node000016_Node000011" class="edge">
<title>Node16&#45;&gt;Node11</title>
<g id="a_edge32_Node000016_Node000011"><a xlink:title=" ">
<path fill="none" stroke="#63b8ff" d="M245.47,-37.31C323.07,-31.61 456.4,-28.87 564.25,-62.88 590.57,-71.18 616.85,-89.03 634.28,-102.56"/>
<polygon fill="#63b8ff" stroke="#63b8ff" points="631.82,-105.07 641.81,-108.59 636.2,-99.61 631.82,-105.07"/>
</a>
</g>
</g>
</g>
</svg>

<g id="navigator" transform="translate(0 0)" fill="#404254">
  <rect fill="#f2f5e9" fill-opacity="0.5" stroke="#606060" stroke-width=".5" x="0" y="0" width="60" height="60"/>
  <use id="zoomplus" xlink:href="#zoomPlus" x="17" y="9" onmousedown="handleZoom(evt,'in')"/>
  <use id="zoomminus" xlink:href="#zoomMin" x="42" y="9" onmousedown="handleZoom(evt,'out')"/>
  <use id="reset" xlink:href="#resetDef" x="30" y="36" onmousedown="handleReset()"/>
   <use id="arrowup" xlink:href="#arrowUp" x="0" y="0" onmousedown="handlePan(0,-1)"/>
  <use id="arrowright" xlink:href="#arrowRight" x="0" y="0" onmousedown="handlePan(1,0)"/>
  <use id="arrowdown" xlink:href="#arrowDown" x="0" y="0" onmousedown="handlePan(0,1)"/>
  <use id="arrowleft" xlink:href="#arrowLeft" x="0" y="0" onmousedown="handlePan(-1,0)"/>
</g>
<svg viewBox="0 0 15 15" width="100%" height="30px" preserveAspectRatio="xMaxYMin meet">
 <g id="arrow_out" transform="scale(0.3 0.3)">
  <a xlink:href="main_8c_a3df11f7015b4a015c6b468941125de20_cgraph_org.svg" target="_base">
   <rect id="button" ry="5" rx="5" y="6" x="6" height="38" width="38"
        fill="#f2f5e9" fill-opacity="0.5" stroke="#606060" stroke-width="1.0"/>
   <path id="arrow"
     d="M 11.500037,31.436501 C 11.940474,20.09759 22.043105,11.32322 32.158766,21.979434 L 37.068811,17.246167 C 37.068811,17.246167 37.088388,32 37.088388,32 L 22.160133,31.978069 C 22.160133,31.978069 26.997745,27.140456 26.997745,27.140456 C 18.528582,18.264221 13.291696,25.230495 11.500037,31.436501 z"
     style="fill:#404040;"/>
  </a>
 </g>
</svg>

<style type='text/css'>
<![CDATA[
[data-mouse-over-selected='false'] { opacity: 0.7; }
[data-mouse-over-selected='true']  { opacity: 1.0; }
]]>
</style>
<script type="application/ecmascript"><![CDATA[
document.addEventListener('DOMContentLoaded', (event) => {
  highlightEdges();
  highlightAdjacentNodes();
});
]]></script>
</svg>
