<?xml version="1.0" encoding="UTF-8" standalone="no"?>
<!DOCTYPE svg PUBLIC "-//W3C//DTD SVG 1.1//EN"
 "http://www.w3.org/Graphics/SVG/1.1/DTD/svg11.dtd">
<!-- Generated by graphviz version 12.2.1 (20241206.2353)
 -->
<!-- Title: canmsg_escritura Pages: 1 -->
<svg width="722pt" height="142pt"
 viewBox="0.00 0.00 721.75 142.00" xmlns="http://www.w3.org/2000/svg" xmlns:xlink="http://www.w3.org/1999/xlink">
<g id="graph0" class="graph" transform="scale(1 1) rotate(0) translate(4 138)">
<title>canmsg_escritura</title>
<!-- Node1 -->
<g id="Node000001" class="node">
<title>Node1</title>
<g id="a_Node000001"><a xlink:title="Escritura de mensajes tipo CAN.">
<polygon fill="#999999" stroke="#666666" points="93.25,-115 0,-115 0,-95 93.25,-95 93.25,-115"/>
<text text-anchor="middle" x="46.62" y="-101.5" font-family="Helvetica,sans-Serif" font-size="10.00">canmsg_escritura</text>
</a>
</g>
</g>
<!-- Node2 -->
<g id="Node000002" class="node">
<title>Node2</title>
<g id="a_Node000002"><a xlink:href="mcp2515_8c.html#a4139b924c04d5aa72c132ccd16f05437" target="_top" xlink:title="Envio de mensaje.">
<polygon fill="white" stroke="#666666" points="251,-115 129.25,-115 129.25,-95 251,-95 251,-115"/>
<text text-anchor="middle" x="190.12" y="-101.5" font-family="Helvetica,sans-Serif" font-size="10.00">mcp2515_sendMessage</text>
</a>
</g>
</g>
<!-- Node1&#45;&gt;Node2 -->
<g id="edge1_Node000001_Node000002" class="edge">
<title>Node1&#45;&gt;Node2</title>
<g id="a_edge1_Node000001_Node000002"><a xlink:title=" ">
<path fill="none" stroke="#63b8ff" d="M93.57,-105C101.24,-105 109.37,-105 117.51,-105"/>
<polygon fill="#63b8ff" stroke="#63b8ff" points="117.47,-108.5 127.47,-105 117.47,-101.5 117.47,-108.5"/>
</a>
</g>
</g>
<!-- Node3 -->
<g id="Node000003" class="node">
<title>Node3</title>
<g id="a_Node000003"><a xlink:href="mcp2515_8c.html#a1dcd2d88901952184ce8297e1c5c6bf6" target="_top" xlink:title="Lee un solo registro a la vez.">
<polygon fill="white" stroke="#666666" points="620.5,-134 504,-134 504,-114 620.5,-114 620.5,-134"/>
<text text-anchor="middle" x="562.25" y="-120.5" font-family="Helvetica,sans-Serif" font-size="10.00">mcp2515_readRegister</text>
</a>
</g>
</g>
<!-- Node2&#45;&gt;Node3 -->
<g id="edge2_Node000002_Node000003" class="edge">
<title>Node2&#45;&gt;Node3</title>
<g id="a_edge2_Node000002_Node000003"><a xlink:title=" ">
<path fill="none" stroke="#63b8ff" d="M251.42,-108.09C317.49,-111.49 423.27,-116.92 492.52,-120.47"/>
<polygon fill="#63b8ff" stroke="#63b8ff" points="492.05,-123.95 502.22,-120.97 492.41,-116.96 492.05,-123.95"/>
</a>
</g>
</g>
<!-- Node6 -->
<g id="Node000006" class="node">
<title>Node6</title>
<g id="a_Node000006"><a xlink:href="mcp2515_8c.html#a4733cdbc41bfeb798df55ab500ba76ee" target="_top" xlink:title="Envio de mensaje con el buffer.">
<polygon fill="white" stroke="#666666" points="462.75,-96 287,-96 287,-76 462.75,-76 462.75,-96"/>
<text text-anchor="middle" x="374.88" y="-82.5" font-family="Helvetica,sans-Serif" font-size="10.00">mcp2515_sendMessageWithBufferId</text>
</a>
</g>
</g>
<!-- Node2&#45;&gt;Node6 -->
<g id="edge5_Node000002_Node000006" class="edge">
<title>Node2&#45;&gt;Node6</title>
<g id="a_edge5_Node000002_Node000006"><a xlink:title=" ">
<path fill="none" stroke="#63b8ff" d="M251.47,-98.73C259.26,-97.92 267.39,-97.07 275.6,-96.22"/>
<polygon fill="#63b8ff" stroke="#63b8ff" points="275.72,-99.72 285.31,-95.21 275,-92.76 275.72,-99.72"/>
</a>
</g>
</g>
<!-- Node4 -->
<g id="Node000004" class="node">
<title>Node4</title>
<g id="a_Node000004"><a xlink:href="mcp2515_8c.html#ae85a49925cc5c6fd1b15522434dc51ce" target="_top" xlink:title="Finaliza la comunicacion spi.">
<polygon fill="white" stroke="#666666" points="711.88,-115 663.62,-115 663.62,-95 711.88,-95 711.88,-115"/>
<text text-anchor="middle" x="687.75" y="-101.5" font-family="Helvetica,sans-Serif" font-size="10.00">endSPI</text>
</a>
</g>
</g>
<!-- Node3&#45;&gt;Node4 -->
<g id="edge3_Node000003_Node000004" class="edge">
<title>Node3&#45;&gt;Node4</title>
<g id="a_edge3_Node000003_Node000004"><a xlink:title=" ">
<path fill="none" stroke="#63b8ff" d="M620.66,-115.17C631.41,-113.51 642.33,-111.83 652.12,-110.33"/>
<polygon fill="#63b8ff" stroke="#63b8ff" points="652.56,-113.8 661.92,-108.82 651.5,-106.88 652.56,-113.8"/>
</a>
</g>
</g>
<!-- Node5 -->
<g id="Node000005" class="node">
<title>Node5</title>
<g id="a_Node000005"><a xlink:href="mcp2515_8c.html#afea997d2aa89cc2831bff10e34198bd8" target="_top" xlink:title="Funciones privadas.">
<polygon fill="white" stroke="#666666" points="713.75,-77 661.75,-77 661.75,-57 713.75,-57 713.75,-77"/>
<text text-anchor="middle" x="687.75" y="-63.5" font-family="Helvetica,sans-Serif" font-size="10.00">startSPI</text>
</a>
</g>
</g>
<!-- Node3&#45;&gt;Node5 -->
<g id="edge4_Node000003_Node000005" class="edge">
<title>Node3&#45;&gt;Node5</title>
<g id="a_edge4_Node000003_Node000005"><a xlink:title=" ">
<path fill="none" stroke="#63b8ff" d="M603.17,-113.57C610.8,-111.11 618.62,-108.23 625.75,-105 638.8,-99.08 652.42,-90.82 663.47,-83.52"/>
<polygon fill="#63b8ff" stroke="#63b8ff" points="665.25,-86.54 671.55,-78.02 661.31,-80.75 665.25,-86.54"/>
</a>
</g>
</g>
<!-- Node6&#45;&gt;Node3 -->
<g id="edge10_Node000006_Node000003" class="edge">
<title>Node6&#45;&gt;Node3</title>
<g id="a_edge10_Node000006_Node000003"><a xlink:title=" ">
<path fill="none" stroke="#63b8ff" d="M427.02,-96.48C449.31,-101.05 475.64,-106.45 499.04,-111.25"/>
<polygon fill="#63b8ff" stroke="#63b8ff" points="498.29,-114.67 508.79,-113.25 499.7,-107.81 498.29,-114.67"/>
</a>
</g>
</g>
<!-- Node7 -->
<g id="Node000007" class="node">
<title>Node7</title>
<g id="a_Node000007"><a xlink:href="mcp2515_8c.html#ac3bc690a1b8ef1495f5fbb57eab28eaf" target="_top" xlink:title="Modifica un registro en particular.">
<polygon fill="white" stroke="#666666" points="625.75,-96 498.75,-96 498.75,-76 625.75,-76 625.75,-96"/>
<text text-anchor="middle" x="562.25" y="-82.5" font-family="Helvetica,sans-Serif" font-size="10.00">mcp2515_modifyRegister</text>
</a>
</g>
</g>
<!-- Node6&#45;&gt;Node7 -->
<g id="edge6_Node000006_Node000007" class="edge">
<title>Node6&#45;&gt;Node7</title>
<g id="a_edge6_Node000006_Node000007"><a xlink:title=" ">
<path fill="none" stroke="#63b8ff" d="M463.13,-86C471.15,-86 479.21,-86 487.1,-86"/>
<polygon fill="#63b8ff" stroke="#63b8ff" points="486.97,-89.5 496.97,-86 486.97,-82.5 486.97,-89.5"/>
</a>
</g>
</g>
<!-- Node8 -->
<g id="Node000008" class="node">
<title>Node8</title>
<g id="a_Node000008"><a xlink:href="mcp2515_8c.html#aed2f12d8207c7b34f82733dbccdb3c76" target="_top" xlink:title="Configura el id para una accion en particular.">
<polygon fill="white" stroke="#666666" points="613,-20 511.5,-20 511.5,0 613,0 613,-20"/>
<text text-anchor="middle" x="562.25" y="-6.5" font-family="Helvetica,sans-Serif" font-size="10.00">mcp2515_prepareId</text>
</a>
</g>
</g>
<!-- Node6&#45;&gt;Node8 -->
<g id="edge9_Node000006_Node000008" class="edge">
<title>Node6&#45;&gt;Node8</title>
<g id="a_edge9_Node000006_Node000008"><a xlink:title=" ">
<path fill="none" stroke="#63b8ff" d="M395.94,-75.64C419.97,-63.48 461.62,-43.18 498.75,-29 503.41,-27.22 508.3,-25.5 513.22,-23.85"/>
<polygon fill="#63b8ff" stroke="#63b8ff" points="514.06,-27.26 522.51,-20.87 511.91,-20.6 514.06,-27.26"/>
</a>
</g>
</g>
<!-- Node9 -->
<g id="Node000009" class="node">
<title>Node9</title>
<g id="a_Node000009"><a xlink:href="mcp2515_8c.html#a06105d6f139b5a81ffc4650b634f9cfe" target="_top" xlink:title="Setea multiples registros.">
<polygon fill="white" stroke="#666666" points="620.5,-58 504,-58 504,-38 620.5,-38 620.5,-58"/>
<text text-anchor="middle" x="562.25" y="-44.5" font-family="Helvetica,sans-Serif" font-size="10.00">mcp2515_setRegisters</text>
</a>
</g>
</g>
<!-- Node6&#45;&gt;Node9 -->
<g id="edge11_Node000006_Node000009" class="edge">
<title>Node6&#45;&gt;Node9</title>
<g id="a_edge11_Node000006_Node000009"><a xlink:title=" ">
<path fill="none" stroke="#63b8ff" d="M427.02,-75.52C449.31,-70.95 475.64,-65.55 499.04,-60.75"/>
<polygon fill="#63b8ff" stroke="#63b8ff" points="499.7,-64.19 508.79,-58.75 498.29,-57.33 499.7,-64.19"/>
</a>
</g>
</g>
<!-- Node7&#45;&gt;Node4 -->
<g id="edge7_Node000007_Node000004" class="edge">
<title>Node7&#45;&gt;Node4</title>
<g id="a_edge7_Node000007_Node000004"><a xlink:title=" ">
<path fill="none" stroke="#63b8ff" d="M626.09,-95.67C634.97,-97.03 643.83,-98.4 651.92,-99.64"/>
<polygon fill="#63b8ff" stroke="#63b8ff" points="651.23,-103.08 661.65,-101.14 652.29,-96.16 651.23,-103.08"/>
</a>
</g>
</g>
<!-- Node7&#45;&gt;Node5 -->
<g id="edge8_Node000007_Node000005" class="edge">
<title>Node7&#45;&gt;Node5</title>
<g id="a_edge8_Node000007_Node000005"><a xlink:title=" ">
<path fill="none" stroke="#63b8ff" d="M626.09,-76.33C634.3,-75.07 642.48,-73.81 650.06,-72.64"/>
<polygon fill="#63b8ff" stroke="#63b8ff" points="650.54,-76.11 659.9,-71.13 649.48,-69.19 650.54,-76.11"/>
</a>
</g>
</g>
<!-- Node9&#45;&gt;Node4 -->
<g id="edge12_Node000009_Node000004" class="edge">
<title>Node9&#45;&gt;Node4</title>
<g id="a_edge12_Node000009_Node000004"><a xlink:title=" ">
<path fill="none" stroke="#63b8ff" d="M603.17,-58.43C610.8,-60.89 618.62,-63.77 625.75,-67 638.8,-72.92 652.42,-81.18 663.47,-88.48"/>
<polygon fill="#63b8ff" stroke="#63b8ff" points="661.31,-91.25 671.55,-93.98 665.25,-85.46 661.31,-91.25"/>
</a>
</g>
</g>
<!-- Node9&#45;&gt;Node5 -->
<g id="edge13_Node000009_Node000005" class="edge">
<title>Node9&#45;&gt;Node5</title>
<g id="a_edge13_Node000009_Node000005"><a xlink:title=" ">
<path fill="none" stroke="#63b8ff" d="M620.66,-56.83C630.76,-58.39 641.01,-59.96 650.34,-61.4"/>
<polygon fill="#63b8ff" stroke="#63b8ff" points="649.65,-64.83 660.07,-62.89 650.72,-57.91 649.65,-64.83"/>
</a>
</g>
</g>
</g>
</svg>
