<?xml version="1.0" encoding="UTF-8" standalone="no"?>
<!DOCTYPE svg PUBLIC "-//W3C//DTD SVG 1.1//EN"
 "http://www.w3.org/Graphics/SVG/1.1/DTD/svg11.dtd">
<!-- Generated by graphviz version 12.2.1 (20241206.2353)
 -->
<!-- Title: MensajeCAN/source/main.c Pages: 1 -->
<svg width="797pt" height="140pt"
 viewBox="0.00 0.00 796.50 140.00" xmlns="http://www.w3.org/2000/svg" xmlns:xlink="http://www.w3.org/1999/xlink">
<g id="graph0" class="graph" transform="scale(1 1) rotate(0) translate(4 136)">
<title>MensajeCAN/source/main.c</title>
<!-- Node1 -->
<g id="Node000001" class="node">
<title>Node1</title>
<g id="a_Node000001"><a xlink:title="Se encarga de enviar mensajes CAN cada 500 ms.">
<polygon fill="#999999" stroke="#666666" points="407.12,-132 268.12,-132 268.12,-112 407.12,-112 407.12,-132"/>
<text text-anchor="middle" x="337.62" y="-118.5" font-family="Helvetica,sans-Serif" font-size="10.00">MensajeCAN/source/main.c</text>
</a>
</g>
</g>
<!-- Node2 -->
<g id="Node000002" class="node">
<title>Node2</title>
<g id="a_Node000002"><a xlink:title=" ">
<polygon fill="#e0e0e0" stroke="#999999" points="45.25,-76 0,-76 0,-56 45.25,-56 45.25,-76"/>
<text text-anchor="middle" x="22.62" y="-62.5" font-family="Helvetica,sans-Serif" font-size="10.00">stdio.h</text>
</a>
</g>
</g>
<!-- Node1&#45;&gt;Node2 -->
<g id="edge1_Node000001_Node000002" class="edge">
<title>Node1&#45;&gt;Node2</title>
<g id="a_edge1_Node000001_Node000002"><a xlink:title=" ">
<path fill="none" stroke="#63b8ff" d="M267.71,-112.19C212.76,-104.74 134.12,-92.92 56.55,-76.2"/>
<polygon fill="#63b8ff" stroke="#63b8ff" points="57.61,-72.85 47.09,-74.14 56.12,-79.69 57.61,-72.85"/>
</a>
</g>
</g>
<!-- Node3 -->
<g id="Node000003" class="node">
<title>Node3</title>
<g id="a_Node000003"><a xlink:title=" ">
<polygon fill="#e0e0e0" stroke="#999999" points="111.75,-76 63.5,-76 63.5,-56 111.75,-56 111.75,-76"/>
<text text-anchor="middle" x="87.62" y="-62.5" font-family="Helvetica,sans-Serif" font-size="10.00">board.h</text>
</a>
</g>
</g>
<!-- Node1&#45;&gt;Node3 -->
<g id="edge2_Node000001_Node000003" class="edge">
<title>Node1&#45;&gt;Node3</title>
<g id="a_edge2_Node000001_Node000003"><a xlink:title=" ">
<path fill="none" stroke="#63b8ff" d="M287.44,-111.51C245.83,-103.43 184.88,-91.13 123.2,-76.51"/>
<polygon fill="#63b8ff" stroke="#63b8ff" points="124.1,-73.13 113.56,-74.21 122.47,-79.94 124.1,-73.13"/>
</a>
</g>
</g>
<!-- Node4 -->
<g id="Node000004" class="node">
<title>Node4</title>
<g id="a_Node000004"><a xlink:title=" ">
<polygon fill="#e0e0e0" stroke="#999999" points="201.38,-76 129.88,-76 129.88,-56 201.38,-56 201.38,-76"/>
<text text-anchor="middle" x="165.62" y="-62.5" font-family="Helvetica,sans-Serif" font-size="10.00">peripherals.h</text>
</a>
</g>
</g>
<!-- Node1&#45;&gt;Node4 -->
<g id="edge3_Node000001_Node000004" class="edge">
<title>Node1&#45;&gt;Node4</title>
<g id="a_edge3_Node000001_Node000004"><a xlink:title=" ">
<path fill="none" stroke="#63b8ff" d="M307.66,-111.59C279.72,-102.82 237.79,-89.66 206.73,-79.9"/>
<polygon fill="#63b8ff" stroke="#63b8ff" points="207.85,-76.59 197.26,-76.93 205.76,-83.27 207.85,-76.59"/>
</a>
</g>
</g>
<!-- Node5 -->
<g id="Node000005" class="node">
<title>Node5</title>
<g id="a_Node000005"><a xlink:title=" ">
<polygon fill="#e0e0e0" stroke="#999999" points="280.12,-76 219.12,-76 219.12,-56 280.12,-56 280.12,-76"/>
<text text-anchor="middle" x="249.62" y="-62.5" font-family="Helvetica,sans-Serif" font-size="10.00">pin_mux.h</text>
</a>
</g>
</g>
<!-- Node1&#45;&gt;Node5 -->
<g id="edge4_Node000001_Node000005" class="edge">
<title>Node1&#45;&gt;Node5</title>
<g id="a_edge4_Node000001_Node000005"><a xlink:title=" ">
<path fill="none" stroke="#63b8ff" d="M322.3,-111.59C309.13,-103.51 289.89,-91.71 274.52,-82.27"/>
<polygon fill="#63b8ff" stroke="#63b8ff" points="276.72,-79.52 266.36,-77.27 273.06,-85.48 276.72,-79.52"/>
</a>
</g>
</g>
<!-- Node6 -->
<g id="Node000006" class="node">
<title>Node6</title>
<g id="a_Node000006"><a xlink:title=" ">
<polygon fill="#e0e0e0" stroke="#999999" points="377.12,-76 298.12,-76 298.12,-56 377.12,-56 377.12,-76"/>
<text text-anchor="middle" x="337.62" y="-62.5" font-family="Helvetica,sans-Serif" font-size="10.00">clock_config.h</text>
</a>
</g>
</g>
<!-- Node1&#45;&gt;Node6 -->
<g id="edge5_Node000001_Node000006" class="edge">
<title>Node1&#45;&gt;Node6</title>
<g id="a_edge5_Node000001_Node000006"><a xlink:title=" ">
<path fill="none" stroke="#63b8ff" d="M337.62,-111.59C337.62,-105.01 337.62,-95.96 337.62,-87.73"/>
<polygon fill="#63b8ff" stroke="#63b8ff" points="341.13,-87.81 337.63,-77.81 334.13,-87.81 341.13,-87.81"/>
</a>
</g>
</g>
<!-- Node7 -->
<g id="Node000007" class="node">
<title>Node7</title>
<g id="a_Node000007"><a xlink:title=" ">
<polygon fill="#e0e0e0" stroke="#999999" points="461.75,-76 395.5,-76 395.5,-56 461.75,-56 461.75,-76"/>
<text text-anchor="middle" x="428.62" y="-62.5" font-family="Helvetica,sans-Serif" font-size="10.00">MKL46Z4.h</text>
</a>
</g>
</g>
<!-- Node1&#45;&gt;Node7 -->
<g id="edge6_Node000001_Node000007" class="edge">
<title>Node1&#45;&gt;Node7</title>
<g id="a_edge6_Node000001_Node000007"><a xlink:title=" ">
<path fill="none" stroke="#63b8ff" d="M353.48,-111.59C367.09,-103.51 386.99,-91.71 402.89,-82.27"/>
<polygon fill="#63b8ff" stroke="#63b8ff" points="404.53,-85.37 411.35,-77.25 400.96,-79.35 404.53,-85.37"/>
</a>
</g>
</g>
<!-- Node8 -->
<g id="Node000008" class="node">
<title>Node8</title>
<g id="a_Node000008"><a xlink:title=" ">
<polygon fill="#e0e0e0" stroke="#999999" points="585.25,-76 480,-76 480,-56 585.25,-56 585.25,-76"/>
<text text-anchor="middle" x="532.62" y="-62.5" font-family="Helvetica,sans-Serif" font-size="10.00">fsl_debug_console.h</text>
</a>
</g>
</g>
<!-- Node1&#45;&gt;Node8 -->
<g id="edge7_Node000001_Node000008" class="edge">
<title>Node1&#45;&gt;Node8</title>
<g id="a_edge7_Node000001_Node000008"><a xlink:title=" ">
<path fill="none" stroke="#63b8ff" d="M371.59,-111.59C403.69,-102.71 452.06,-89.31 487.41,-79.52"/>
<polygon fill="#63b8ff" stroke="#63b8ff" points="488.23,-82.93 496.93,-76.88 486.36,-76.18 488.23,-82.93"/>
</a>
</g>
</g>
<!-- Node9 -->
<g id="Node000009" class="node">
<title>Node9</title>
<g id="a_Node000009"><a xlink:title=" ">
<polygon fill="#e0e0e0" stroke="#999999" points="640.12,-76 603.12,-76 603.12,-56 640.12,-56 640.12,-76"/>
<text text-anchor="middle" x="621.62" y="-62.5" font-family="Helvetica,sans-Serif" font-size="10.00">spi.h</text>
</a>
</g>
</g>
<!-- Node1&#45;&gt;Node9 -->
<g id="edge8_Node000001_Node000009" class="edge">
<title>Node1&#45;&gt;Node9</title>
<g id="a_edge8_Node000001_Node000009"><a xlink:title=" ">
<path fill="none" stroke="#63b8ff" d="M407.48,-111.63C456.86,-104.36 524.73,-93.04 592.05,-76.38"/>
<polygon fill="#63b8ff" stroke="#63b8ff" points="592.54,-79.86 601.38,-74.02 590.83,-73.07 592.54,-79.86"/>
</a>
</g>
</g>
<!-- Node10 -->
<g id="Node000010" class="node">
<title>Node10</title>
<g id="a_Node000010"><a xlink:href="mcp2515_8h.html" target="_top" xlink:title="Liberia del modulo CAN MCP2515, utilizada para la placa de desarrollo KL46Z.">
<polygon fill="white" stroke="#666666" points="722.62,-76 658.62,-76 658.62,-56 722.62,-56 722.62,-76"/>
<text text-anchor="middle" x="690.62" y="-62.5" font-family="Helvetica,sans-Serif" font-size="10.00">mcp2515.h</text>
</a>
</g>
</g>
<!-- Node1&#45;&gt;Node10 -->
<g id="edge9_Node000001_Node000010" class="edge">
<title>Node1&#45;&gt;Node10</title>
<g id="a_edge9_Node000001_Node000010"><a xlink:title=" ">
<path fill="none" stroke="#63b8ff" d="M407.56,-112.39C468.35,-104.58 559.03,-92.11 647.15,-76.34"/>
<polygon fill="#63b8ff" stroke="#63b8ff" points="647.73,-79.79 656.95,-74.57 646.49,-72.9 647.73,-79.79"/>
</a>
</g>
</g>
<!-- Node11 -->
<g id="Node000011" class="node">
<title>Node11</title>
<g id="a_Node000011"><a xlink:title=" ">
<polygon fill="#e0e0e0" stroke="#999999" points="648.62,-20 608.62,-20 608.62,0 648.62,0 648.62,-20"/>
<text text-anchor="middle" x="628.62" y="-6.5" font-family="Helvetica,sans-Serif" font-size="10.00">can.h</text>
</a>
</g>
</g>
<!-- Node10&#45;&gt;Node11 -->
<g id="edge10_Node000010_Node000011" class="edge">
<title>Node10&#45;&gt;Node11</title>
<g id="a_edge10_Node000010_Node000011"><a xlink:title=" ">
<path fill="none" stroke="#63b8ff" d="M679.83,-55.59C671.02,-47.93 658.37,-36.91 647.85,-27.75"/>
<polygon fill="#63b8ff" stroke="#63b8ff" points="650.28,-25.22 640.44,-21.29 645.68,-30.5 650.28,-25.22"/>
</a>
</g>
</g>
<!-- Node12 -->
<g id="Node000012" class="node">
<title>Node12</title>
<g id="a_Node000012"><a xlink:title=" ">
<polygon fill="#e0e0e0" stroke="#999999" points="714.75,-20 666.5,-20 666.5,0 714.75,0 714.75,-20"/>
<text text-anchor="middle" x="690.62" y="-6.5" font-family="Helvetica,sans-Serif" font-size="10.00">stdint.h</text>
</a>
</g>
</g>
<!-- Node10&#45;&gt;Node12 -->
<g id="edge11_Node000010_Node000012" class="edge">
<title>Node10&#45;&gt;Node12</title>
<g id="a_edge11_Node000010_Node000012"><a xlink:title=" ">
<path fill="none" stroke="#63b8ff" d="M690.62,-55.59C690.62,-49.01 690.62,-39.96 690.62,-31.73"/>
<polygon fill="#63b8ff" stroke="#63b8ff" points="694.13,-31.81 690.63,-21.81 687.13,-31.81 694.13,-31.81"/>
</a>
</g>
</g>
<!-- Node13 -->
<g id="Node000013" class="node">
<title>Node13</title>
<g id="a_Node000013"><a xlink:title=" ">
<polygon fill="#e0e0e0" stroke="#999999" points="788.5,-20 732.75,-20 732.75,0 788.5,0 788.5,-20"/>
<text text-anchor="middle" x="760.62" y="-6.5" font-family="Helvetica,sans-Serif" font-size="10.00">stdbool.h</text>
</a>
</g>
</g>
<!-- Node10&#45;&gt;Node13 -->
<g id="edge12_Node000010_Node000013" class="edge">
<title>Node10&#45;&gt;Node13</title>
<g id="a_edge12_Node000010_Node000013"><a xlink:title=" ">
<path fill="none" stroke="#63b8ff" d="M702.82,-55.59C712.96,-47.77 727.62,-36.46 739.64,-27.19"/>
<polygon fill="#63b8ff" stroke="#63b8ff" points="741.59,-30.1 747.37,-21.22 737.32,-24.56 741.59,-30.1"/>
</a>
</g>
</g>
</g>
</svg>
