<?xml version="1.0" encoding="UTF-8" standalone="no"?>
<!DOCTYPE svg PUBLIC "-//W3C//DTD SVG 1.1//EN"
 "http://www.w3.org/Graphics/SVG/1.1/DTD/svg11.dtd">
<!-- Generated by graphviz version 12.2.1 (20241206.2353)
 -->
<!-- Title: main Pages: 1 -->
<!--zoomable 479 -->

<svg id="main" version="1.1" xmlns="http://www.w3.org/2000/svg" xmlns:xlink="http://www.w3.org/1999/xlink" xml:space="preserve" onload="init(evt)">

<style type="text/css"><![CDATA[
.node, .edge {opacity: 0.7;}
.node.selected, .edge.selected {opacity: 1;}
.edge:hover path { stroke: red; }
.edge:hover polygon { stroke: red; fill: red; }
]]></style>

<defs>
  <circle id="rim" cx="0" cy="0" r="7"/>
  <circle id="rim2" cx="0" cy="0" r="3.5"/>
  <g id="zoomPlus">
    <use xlink:href="#rim" fill="#404040"><set attributeName="fill" to="#808080" begin="zoomplus.mouseover" end="zoomplus.mouseout"/></use>
    <path d="M-4,0h8M0,-4v8" fill="none" stroke="white" stroke-width="1.5" pointer-events="none"/>
  </g>
  <g id="zoomMin">
    <use xlink:href="#rim" fill="#404040"><set attributeName="fill" to="#808080" begin="zoomminus.mouseover" end="zoomminus.mouseout"/></use>
    <path d="M-4,0h8" fill="none" stroke="white" stroke-width="1.5" pointer-events="none"/>
  </g>
  <g id="arrowUp" transform="translate(30 24)">
    <use xlink:href="#rim"/>
    <path pointer-events="none" fill="none" stroke="white" stroke-width="1.5" d="M0,-3.0v7 M-2.5,-0.5L0,-3.0L2.5,-0.5"/>
  </g>
  <g id="arrowRight" transform="rotate(90) translate(36 -43)">
    <use xlink:href="#rim"/>
    <path pointer-events="none" fill="none" stroke="white" stroke-width="1.5" d="M0,-3.0v7 M-2.5,-0.5L0,-3.0L2.5,-0.5"/>
  </g>
  <g id="arrowDown" transform="rotate(180) translate(-30 -48)">
    <use xlink:href="#rim"/>
    <path pointer-events="none" fill="none" stroke="white" stroke-width="1.5" d="M0,-3.0v7 M-2.5,-0.5L0,-3.0L2.5,-0.5"/>
  </g>
  <g id="arrowLeft" transform="rotate(270) translate(-36 17)">
    <use xlink:href="#rim"/>
    <path pointer-events="none" fill="none" stroke="white" stroke-width="1.5" d="M0,-3.0v7 M-2.5,-0.5L0,-3.0L2.5,-0.5"/>
  </g>
  <g id="resetDef">
    <use xlink:href="#rim2" fill="#404040"><set attributeName="fill" to="#808080" begin="reset.mouseover" end="reset.mouseout"/></use>
  </g>
</defs>
<script type="application/ecmascript">
var viewWidth = 1113;
var viewHeight = 479;
var sectionId = 'dynsection-3';
</script>
<script type="application/ecmascript" xlink:href="svg.min.js"/>
<svg id="graph" class="graph">
<g id="viewport">
<title>main</title>
<!-- Node1 -->
<g id="Node000001" class="node">
<title>Node1</title>
<g id="a_Node000001"><a xlink:title="Main.">
<polygon fill="#999999" stroke="#666666" points="37,-225.06 0,-225.06 0,-205.06 37,-205.06 37,-225.06"/>
<text text-anchor="middle" x="18.5" y="-211.56" font-family="Helvetica,sans-Serif" font-size="10.00">main</text>
</a>
</g>
</g>
<!-- Node2 -->
<g id="Node000002" class="node">
<title>Node2</title>
<g id="a_Node000002"><a xlink:href="main_8c.html#ae3697afe652e8273e37aac8f55c48276" target="_top" xlink:title="Escritura de mensajes tipo CAN.">
<polygon fill="white" stroke="#666666" points="166.25,-291.06 73,-291.06 73,-271.06 166.25,-271.06 166.25,-291.06"/>
<text text-anchor="middle" x="119.62" y="-277.56" font-family="Helvetica,sans-Serif" font-size="10.00">canmsg_escritura</text>
</a>
</g>
</g>
<!-- Node1&#45;&gt;Node2 -->
<g id="edge1_Node000001_Node000002" class="edge">
<title>Node1&#45;&gt;Node2</title>
<g id="a_edge1_Node000001_Node000002"><a xlink:title=" ">
<path fill="none" stroke="#63b8ff" d="M34.99,-225.37C50.61,-235.77 74.98,-252 93.4,-264.26"/>
<polygon fill="#63b8ff" stroke="#63b8ff" points="91.4,-267.13 101.66,-269.76 95.27,-261.31 91.4,-267.13"/>
</a>
</g>
</g>
<!-- Node11 -->
<g id="Node000011" class="node">
<title>Node11</title>
<g id="a_Node000011"><a xlink:href="main_8c.html#a3df11f7015b4a015c6b468941125de20" target="_top" xlink:title="Inicializacion de perifericos.">
<polygon fill="white" stroke="#666666" points="159.12,-206.06 80.12,-206.06 80.12,-186.06 159.12,-186.06 159.12,-206.06"/>
<text text-anchor="middle" x="119.62" y="-192.56" font-family="Helvetica,sans-Serif" font-size="10.00">perifericos_init</text>
</a>
</g>
</g>
<!-- Node1&#45;&gt;Node11 -->
<g id="edge15_Node000001_Node000011" class="edge">
<title>Node1&#45;&gt;Node11</title>
<g id="a_edge15_Node000001_Node000011"><a xlink:title=" ">
<path fill="none" stroke="#63b8ff" d="M37.22,-211.66C46.08,-209.96 57.28,-207.82 68.52,-205.66"/>
<polygon fill="#63b8ff" stroke="#63b8ff" points="69.04,-209.12 78.21,-203.8 67.73,-202.25 69.04,-209.12"/>
</a>
</g>
</g>
<!-- Node3 -->
<g id="Node000003" class="node">
<title>Node3</title>
<g id="a_Node000003"><a xlink:href="mcp2515_8c.html#a4139b924c04d5aa72c132ccd16f05437" target="_top" xlink:title="Envio de mensaje.">
<polygon fill="white" stroke="#666666" points="328.12,-367.06 206.38,-367.06 206.38,-347.06 328.12,-347.06 328.12,-367.06"/>
<text text-anchor="middle" x="267.25" y="-353.56" font-family="Helvetica,sans-Serif" font-size="10.00">mcp2515_sendMessage</text>
</a>
</g>
</g>
<!-- Node2&#45;&gt;Node3 -->
<g id="edge2_Node000002_Node000003" class="edge">
<title>Node2&#45;&gt;Node3</title>
<g id="a_edge2_Node000002_Node000003"><a xlink:title=" ">
<path fill="none" stroke="#63b8ff" d="M140.57,-291.47C165.41,-304.43 208.05,-326.68 236.69,-341.63"/>
<polygon fill="#63b8ff" stroke="#63b8ff" points="234.72,-344.55 245.21,-346.07 237.96,-338.35 234.72,-344.55"/>
</a>
</g>
</g>
<!-- Node4 -->
<g id="Node000004" class="node">
<title>Node4</title>
<g id="a_Node000004"><a xlink:href="mcp2515_8c.html#a1dcd2d88901952184ce8297e1c5c6bf6" target="_top" xlink:title="Lee un solo registro a la vez.">
<polygon fill="white" stroke="#666666" points="1012,-367.06 895.5,-367.06 895.5,-347.06 1012,-347.06 1012,-367.06"/>
<text text-anchor="middle" x="953.75" y="-353.56" font-family="Helvetica,sans-Serif" font-size="10.00">mcp2515_readRegister</text>
</a>
</g>
</g>
<!-- Node3&#45;&gt;Node4 -->
<g id="edge3_Node000003_Node000004" class="edge">
<title>Node3&#45;&gt;Node4</title>
<g id="a_edge3_Node000003_Node000004"><a xlink:title=" ">
<path fill="none" stroke="#63b8ff" d="M282.6,-367.38C301.26,-380.1 335.37,-401.02 368.25,-409.06 578.07,-460.35 644.59,-461 854.25,-409.06 881.78,-402.24 910.09,-386.17 929.25,-373.68"/>
<polygon fill="#63b8ff" stroke="#63b8ff" points="931.04,-376.7 937.39,-368.22 927.13,-370.89 931.04,-376.7"/>
</a>
</g>
</g>
<!-- Node7 -->
<g id="Node000007" class="node">
<title>Node7</title>
<g id="a_Node000007"><a xlink:href="mcp2515_8c.html#a4733cdbc41bfeb798df55ab500ba76ee" target="_top" xlink:title="Envio de mensaje con el buffer.">
<polygon fill="white" stroke="#666666" points="544,-367.06 368.25,-367.06 368.25,-347.06 544,-347.06 544,-367.06"/>
<text text-anchor="middle" x="456.12" y="-353.56" font-family="Helvetica,sans-Serif" font-size="10.00">mcp2515_sendMessageWithBufferId</text>
</a>
</g>
</g>
<!-- Node3&#45;&gt;Node7 -->
<g id="edge6_Node000003_Node000007" class="edge">
<title>Node3&#45;&gt;Node7</title>
<g id="a_edge6_Node000003_Node000007"><a xlink:title=" ">
<path fill="none" stroke="#63b8ff" d="M328.41,-357.06C337.46,-357.06 346.98,-357.06 356.59,-357.06"/>
<polygon fill="#63b8ff" stroke="#63b8ff" points="356.35,-360.56 366.35,-357.06 356.35,-353.56 356.35,-360.56"/>
</a>
</g>
</g>
<!-- Node5 -->
<g id="Node000005" class="node">
<title>Node5</title>
<g id="a_Node000005"><a xlink:href="mcp2515_8c.html#ae85a49925cc5c6fd1b15522434dc51ce" target="_top" xlink:title="Finaliza la comunicacion spi.">
<polygon fill="white" stroke="#666666" points="1103.38,-329.06 1055.12,-329.06 1055.12,-309.06 1103.38,-309.06 1103.38,-329.06"/>
<text text-anchor="middle" x="1079.25" y="-315.56" font-family="Helvetica,sans-Serif" font-size="10.00">endSPI</text>
</a>
</g>
</g>
<!-- Node4&#45;&gt;Node5 -->
<g id="edge4_Node000004_Node000005" class="edge">
<title>Node4&#45;&gt;Node5</title>
<g id="a_edge4_Node000004_Node000005"><a xlink:title=" ">
<path fill="none" stroke="#63b8ff" d="M988.82,-346.57C1006.04,-341.27 1026.88,-334.86 1044.11,-329.56"/>
<polygon fill="#63b8ff" stroke="#63b8ff" points="1044.86,-332.99 1053.39,-326.71 1042.8,-326.3 1044.86,-332.99"/>
</a>
</g>
</g>
<!-- Node6 -->
<g id="Node000006" class="node">
<title>Node6</title>
<g id="a_Node000006"><a xlink:href="mcp2515_8c.html#afea997d2aa89cc2831bff10e34198bd8" target="_top" xlink:title="Funciones privadas.">
<polygon fill="white" stroke="#666666" points="1105.25,-234.06 1053.25,-234.06 1053.25,-214.06 1105.25,-214.06 1105.25,-234.06"/>
<text text-anchor="middle" x="1079.25" y="-220.56" font-family="Helvetica,sans-Serif" font-size="10.00">startSPI</text>
</a>
</g>
</g>
<!-- Node4&#45;&gt;Node6 -->
<g id="edge5_Node000004_Node000006" class="edge">
<title>Node4&#45;&gt;Node6</title>
<g id="a_edge5_Node000004_Node000006"><a xlink:title=" ">
<path fill="none" stroke="#63b8ff" d="M965.63,-346.78C978.31,-334.68 999.76,-313.85 1017.25,-295.06 1033.24,-277.88 1050.59,-257.5 1062.69,-242.99"/>
<polygon fill="#63b8ff" stroke="#63b8ff" points="1065.16,-245.49 1068.85,-235.56 1059.77,-241.02 1065.16,-245.49"/>
</a>
</g>
</g>
<!-- Node7&#45;&gt;Node4 -->
<g id="edge11_Node000007_Node000004" class="edge">
<title>Node7&#45;&gt;Node4</title>
<g id="a_edge11_Node000007_Node000004"><a xlink:title=" ">
<path fill="none" stroke="#63b8ff" d="M544.31,-357.06C641.03,-357.06 795.13,-357.06 883.81,-357.06"/>
<polygon fill="#63b8ff" stroke="#63b8ff" points="883.57,-360.56 893.57,-357.06 883.57,-353.56 883.57,-360.56"/>
</a>
</g>
</g>
<!-- Node8 -->
<g id="Node000008" class="node">
<title>Node8</title>
<g id="a_Node000008"><a xlink:href="mcp2515_8c.html#ac3bc690a1b8ef1495f5fbb57eab28eaf" target="_top" xlink:title="Modifica un registro en particular.">
<polygon fill="white" stroke="#666666" points="1017.25,-234.06 890.25,-234.06 890.25,-214.06 1017.25,-214.06 1017.25,-234.06"/>
<text text-anchor="middle" x="953.75" y="-220.56" font-family="Helvetica,sans-Serif" font-size="10.00">mcp2515_modifyRegister</text>
</a>
</g>
</g>
<!-- Node7&#45;&gt;Node8 -->
<g id="edge7_Node000007_Node000008" class="edge">
<title>Node7&#45;&gt;Node8</title>
<g id="a_edge7_Node000007_Node000008"><a xlink:title=" ">
<path fill="none" stroke="#63b8ff" d="M508.13,-346.6C558.83,-335.94 638.67,-318.39 707,-300.06 779.23,-280.68 862.12,-254.13 910.81,-238.09"/>
<polygon fill="#63b8ff" stroke="#63b8ff" points="911.72,-241.48 920.11,-235.01 909.52,-234.83 911.72,-241.48"/>
</a>
</g>
</g>
<!-- Node9 -->
<g id="Node000009" class="node">
<title>Node9</title>
<g id="a_Node000009"><a xlink:href="mcp2515_8c.html#aed2f12d8207c7b34f82733dbccdb3c76" target="_top" xlink:title="Configura el id para una accion en particular.">
<polygon fill="white" stroke="#666666" points="694.25,-253.06 592.75,-253.06 592.75,-233.06 694.25,-233.06 694.25,-253.06"/>
<text text-anchor="middle" x="643.5" y="-239.56" font-family="Helvetica,sans-Serif" font-size="10.00">mcp2515_prepareId</text>
</a>
</g>
</g>
<!-- Node7&#45;&gt;Node9 -->
<g id="edge10_Node000007_Node000009" class="edge">
<title>Node7&#45;&gt;Node9</title>
<g id="a_edge10_Node000007_Node000009"><a xlink:title=" ">
<path fill="none" stroke="#63b8ff" d="M475.61,-346.63C493.81,-335.99 522,-318.46 544,-300.06 561.85,-285.13 560.21,-274.29 580,-262.06 582.41,-260.57 584.94,-259.19 587.54,-257.92"/>
<polygon fill="#63b8ff" stroke="#63b8ff" points="588.68,-261.24 596.49,-254.08 585.92,-254.8 588.68,-261.24"/>
</a>
</g>
</g>
<!-- Node10 -->
<g id="Node000010" class="node">
<title>Node10</title>
<g id="a_Node000010"><a xlink:href="mcp2515_8c.html#a06105d6f139b5a81ffc4650b634f9cfe" target="_top" xlink:title="Setea multiples registros.">
<polygon fill="white" stroke="#666666" points="701.75,-291.06 585.25,-291.06 585.25,-271.06 701.75,-271.06 701.75,-291.06"/>
<text text-anchor="middle" x="643.5" y="-277.56" font-family="Helvetica,sans-Serif" font-size="10.00">mcp2515_setRegisters</text>
</a>
</g>
</g>
<!-- Node7&#45;&gt;Node10 -->
<g id="edge12_Node000007_Node000010" class="edge">
<title>Node7&#45;&gt;Node10</title>
<g id="a_edge12_Node000007_Node000010"><a xlink:title=" ">
<path fill="none" stroke="#63b8ff" d="M507.99,-346.59C520.13,-343.12 532.81,-338.67 544,-333.06 562.11,-323.96 562.35,-315.02 580,-305.06 586.11,-301.61 592.82,-298.45 599.5,-295.64"/>
<polygon fill="#63b8ff" stroke="#63b8ff" points="600.47,-299.02 608.47,-292.07 597.89,-292.51 600.47,-299.02"/>
</a>
</g>
</g>
<!-- Node8&#45;&gt;Node5 -->
<g id="edge8_Node000008_Node000005" class="edge">
<title>Node8&#45;&gt;Node5</title>
<g id="a_edge8_Node000008_Node000005"><a xlink:title=" ">
<path fill="none" stroke="#63b8ff" d="M967.97,-234.22C988.93,-250.35 1030.07,-281.99 1055.74,-301.75"/>
<polygon fill="#63b8ff" stroke="#63b8ff" points="1053.49,-304.43 1063.55,-307.75 1057.76,-298.88 1053.49,-304.43"/>
</a>
</g>
</g>
<!-- Node8&#45;&gt;Node6 -->
<g id="edge9_Node000008_Node000006" class="edge">
<title>Node8&#45;&gt;Node6</title>
<g id="a_edge9_Node000008_Node000006"><a xlink:title=" ">
<path fill="none" stroke="#63b8ff" d="M1017.59,-224.06C1025.8,-224.06 1033.98,-224.06 1041.56,-224.06"/>
<polygon fill="#63b8ff" stroke="#63b8ff" points="1041.38,-227.56 1051.38,-224.06 1041.38,-220.56 1041.38,-227.56"/>
</a>
</g>
</g>
<!-- Node10&#45;&gt;Node5 -->
<g id="edge13_Node000010_Node000005" class="edge">
<title>Node10&#45;&gt;Node5</title>
<g id="a_edge13_Node000010_Node000005"><a xlink:title=" ">
<path fill="none" stroke="#63b8ff" d="M702.23,-289.95C715.59,-291.82 729.78,-293.65 743,-295.06 852.34,-306.73 982.36,-314.22 1043.37,-317.36"/>
<polygon fill="#63b8ff" stroke="#63b8ff" points="1042.95,-320.85 1053.11,-317.86 1043.3,-313.86 1042.95,-320.85"/>
</a>
</g>
</g>
<!-- Node10&#45;&gt;Node6 -->
<g id="edge14_Node000010_Node000006" class="edge">
<title>Node10&#45;&gt;Node6</title>
<g id="a_edge14_Node000010_Node000006"><a xlink:title=" ">
<path fill="none" stroke="#63b8ff" d="M702.19,-278.76C775.91,-275.01 907.16,-265.58 1017.25,-243.06 1025.47,-241.38 1034.15,-239.03 1042.31,-236.56"/>
<polygon fill="#63b8ff" stroke="#63b8ff" points="1043.11,-239.98 1051.58,-233.62 1040.99,-233.31 1043.11,-239.98"/>
</a>
</g>
</g>
<!-- Node12 -->
<g id="Node000012" class="node">
<title>Node12</title>
<g id="a_Node000012"><a xlink:href="mcp2515_8c.html#a21cb40a7513567cb455ce296ef0bbe4b" target="_top" xlink:title="Resetea el modulo.">
<polygon fill="white" stroke="#666666" points="308.62,-244.06 225.88,-244.06 225.88,-224.06 308.62,-224.06 308.62,-244.06"/>
<text text-anchor="middle" x="267.25" y="-230.56" font-family="Helvetica,sans-Serif" font-size="10.00">mcp2515_reset</text>
</a>
</g>
</g>
<!-- Node11&#45;&gt;Node12 -->
<g id="edge16_Node000011_Node000012" class="edge">
<title>Node11&#45;&gt;Node12</title>
<g id="a_edge16_Node000011_Node000012"><a xlink:title=" ">
<path fill="none" stroke="#63b8ff" d="M159.27,-206.14C176.36,-210.6 196.71,-215.91 215.05,-220.7"/>
<polygon fill="#63b8ff" stroke="#63b8ff" points="214.13,-224.07 224.69,-223.21 215.9,-217.3 214.13,-224.07"/>
</a>
</g>
</g>
<!-- Node19 -->
<g id="Node000019" class="node">
<title>Node19</title>
<g id="a_Node000019"><a xlink:href="mcp2515_8c.html#a376a8574dcdafeeac264e1b652333d58" target="_top" xlink:title="Setea el baud rate.">
<polygon fill="white" stroke="#666666" points="507.62,-101.06 404.62,-101.06 404.62,-81.06 507.62,-81.06 507.62,-101.06"/>
<text text-anchor="middle" x="456.12" y="-87.56" font-family="Helvetica,sans-Serif" font-size="10.00">mcp2515_setBitrate</text>
</a>
</g>
</g>
<!-- Node11&#45;&gt;Node19 -->
<g id="edge37_Node000011_Node000019" class="edge">
<title>Node11&#45;&gt;Node19</title>
<g id="a_edge37_Node000011_Node000019"><a xlink:title=" ">
<path fill="none" stroke="#63b8ff" d="M140.34,-185.68C156.61,-177.4 180.5,-165.93 202.25,-158.06 266.5,-134.8 342.58,-115.73 394.39,-103.97"/>
<polygon fill="#63b8ff" stroke="#63b8ff" points="394.92,-107.44 403.91,-101.83 393.38,-100.61 394.92,-107.44"/>
</a>
</g>
</g>
<!-- Node20 -->
<g id="Node000020" class="node">
<title>Node20</title>
<g id="a_Node000020"><a xlink:href="mcp2515_8c.html#ab5403fd588f8558b6b3031e9cee0b35e" target="_top" xlink:title="Setea el modo normal de trabajo.">
<polygon fill="white" stroke="#666666" points="332.25,-187.06 202.25,-187.06 202.25,-167.06 332.25,-167.06 332.25,-187.06"/>
<text text-anchor="middle" x="267.25" y="-173.56" font-family="Helvetica,sans-Serif" font-size="10.00">mcp2515_setNormalMode</text>
</a>
</g>
</g>
<!-- Node11&#45;&gt;Node20 -->
<g id="edge40_Node000011_Node000020" class="edge">
<title>Node11&#45;&gt;Node20</title>
<g id="a_edge40_Node000011_Node000020"><a xlink:title=" ">
<path fill="none" stroke="#63b8ff" d="M159.27,-191.02C168.96,-189.75 179.7,-188.35 190.52,-186.94"/>
<polygon fill="#63b8ff" stroke="#63b8ff" points="190.83,-190.43 200.29,-185.66 189.93,-183.49 190.83,-190.43"/>
</a>
</g>
</g>
<!-- Node12&#45;&gt;Node4 -->
<g id="edge20_Node000012_Node000004" class="edge">
<title>Node12&#45;&gt;Node4</title>
<g id="a_edge20_Node000012_Node000004"><a xlink:title=" ">
<path fill="none" stroke="#63b8ff" d="M274.84,-244.55C294.79,-276.15 354.06,-368.7 368.25,-376.06 456.15,-421.66 749.45,-386.74 884.11,-367.53"/>
<polygon fill="#63b8ff" stroke="#63b8ff" points="884.57,-371 893.97,-366.1 883.57,-364.07 884.57,-371"/>
</a>
</g>
</g>
<!-- Node12&#45;&gt;Node5 -->
<g id="edge17_Node000012_Node000005" class="edge">
<title>Node12&#45;&gt;Node5</title>
<g id="a_edge17_Node000012_Node000005"><a xlink:title=" ">
<path fill="none" stroke="#63b8ff" d="M274.72,-244.32C286.4,-262.91 311.7,-303.41 332.25,-338.06 348.7,-365.79 342.59,-381.52 368.25,-401.06 468.34,-477.27 516.7,-471.06 642.5,-471.06 642.5,-471.06 642.5,-471.06 799.62,-471.06 905.16,-471.06 929.06,-434.03 1017.25,-376.06 1033.82,-365.17 1050.1,-349.64 1061.67,-337.54"/>
<polygon fill="#63b8ff" stroke="#63b8ff" points="1063.91,-340.26 1068.16,-330.56 1058.79,-335.49 1063.91,-340.26"/>
</a>
</g>
</g>
<!-- Node12&#45;&gt;Node6 -->
<g id="edge36_Node000012_Node000006" class="edge">
<title>Node12&#45;&gt;Node6</title>
<g id="a_edge36_Node000012_Node000006"><a xlink:title=" ">
<path fill="none" stroke="#63b8ff" d="M295.77,-223.69C308.64,-217.51 323.12,-208.43 332.25,-196.06 372.72,-141.25 317.25,-92.23 368.25,-47.06 460.11,34.31 519.78,-15.06 642.5,-15.06 642.5,-15.06 642.5,-15.06 799.62,-15.06 903.63,-15.06 940.69,-30.67 1017.25,-101.06 1047.68,-129.04 1064.88,-175.56 1072.8,-202.66"/>
<polygon fill="#63b8ff" stroke="#63b8ff" points="1069.39,-203.43 1075.41,-212.15 1076.14,-201.58 1069.39,-203.43"/>
</a>
</g>
</g>
<!-- Node12&#45;&gt;Node8 -->
<g id="edge19_Node000012_Node000008" class="edge">
<title>Node12&#45;&gt;Node8</title>
<g id="a_edge19_Node000012_Node000008"><a xlink:title=" ">
<path fill="none" stroke="#63b8ff" d="M284.05,-223.7C303.1,-211.88 336.52,-193.28 368.25,-186.06 578.87,-138.13 641.9,-146.52 854.25,-186.06 877.75,-190.43 902.87,-200.21 921.86,-208.75"/>
<polygon fill="#63b8ff" stroke="#63b8ff" points="920.35,-211.91 930.9,-212.95 923.3,-205.56 920.35,-211.91"/>
</a>
</g>
</g>
<!-- Node12&#45;&gt;Node10 -->
<g id="edge35_Node000012_Node000010" class="edge">
<title>Node12&#45;&gt;Node10</title>
<g id="a_edge35_Node000012_Node000010"><a xlink:title=" ">
<path fill="none" stroke="#63b8ff" d="M279.11,-244.43C296.36,-260.09 331.79,-289.11 368.25,-300.06 445.44,-323.23 540.13,-307.57 595.64,-294.22"/>
<polygon fill="#63b8ff" stroke="#63b8ff" points="596.21,-297.68 605.07,-291.87 594.52,-290.89 596.21,-297.68"/>
</a>
</g>
</g>
<!-- Node13 -->
<g id="Node000013" class="node">
<title>Node13</title>
<g id="a_Node000013"><a xlink:href="mcp2515_8c.html#a93c2df6a52fa046c073256f50d96b930" target="_top" xlink:title="Funciones publicas.">
<polygon fill="white" stroke="#666666" points="493,-291.06 419.25,-291.06 419.25,-271.06 493,-271.06 493,-291.06"/>
<text text-anchor="middle" x="456.12" y="-277.56" font-family="Helvetica,sans-Serif" font-size="10.00">mcp2515_init</text>
</a>
</g>
</g>
<!-- Node12&#45;&gt;Node13 -->
<g id="edge18_Node000012_Node000013" class="edge">
<title>Node12&#45;&gt;Node13</title>
<g id="a_edge18_Node000012_Node000013"><a xlink:title=" ">
<path fill="none" stroke="#63b8ff" d="M303.75,-244.54C322.81,-250.02 346.73,-256.7 368.25,-262.06 381.11,-265.26 395.12,-268.45 408.05,-271.28"/>
<polygon fill="#63b8ff" stroke="#63b8ff" points="407.1,-274.66 417.61,-273.34 408.57,-267.81 407.1,-274.66"/>
</a>
</g>
</g>
<!-- Node14 -->
<g id="Node000014" class="node">
<title>Node14</title>
<g id="a_Node000014"><a xlink:href="mcp2515_8c.html#adb0e9467c52bdc0cef5bb689dd3b996f" target="_top" xlink:title="Se configura el filtro.">
<polygon fill="white" stroke="#666666" points="504.25,-215.06 408,-215.06 408,-195.06 504.25,-195.06 504.25,-215.06"/>
<text text-anchor="middle" x="456.12" y="-201.56" font-family="Helvetica,sans-Serif" font-size="10.00">mcp2515_setFilter</text>
</a>
</g>
</g>
<!-- Node12&#45;&gt;Node14 -->
<g id="edge21_Node000012_Node000014" class="edge">
<title>Node12&#45;&gt;Node14</title>
<g id="a_edge21_Node000012_Node000014"><a xlink:title=" ">
<path fill="none" stroke="#63b8ff" d="M308.8,-227.76C334.48,-223.78 368.11,-218.56 396.65,-214.13"/>
<polygon fill="#63b8ff" stroke="#63b8ff" points="396.88,-217.64 406.23,-212.65 395.81,-210.72 396.88,-217.64"/>
</a>
</g>
</g>
<!-- Node17 -->
<g id="Node000017" class="node">
<title>Node17</title>
<g id="a_Node000017"><a xlink:href="mcp2515_8c.html#a34318296cf509afa4e66aeffdbeb0f6d" target="_top" xlink:title="Setea el filtro y la mascara. Se configuran dichos datos en los registros del propio modulo.">
<polygon fill="white" stroke="#666666" points="516.25,-253.06 396,-253.06 396,-233.06 516.25,-233.06 516.25,-253.06"/>
<text text-anchor="middle" x="456.12" y="-239.56" font-family="Helvetica,sans-Serif" font-size="10.00">mcp2515_setFilterMask</text>
</a>
</g>
</g>
<!-- Node12&#45;&gt;Node17 -->
<g id="edge28_Node000012_Node000017" class="edge">
<title>Node12&#45;&gt;Node17</title>
<g id="a_edge28_Node000012_Node000017"><a xlink:title=" ">
<path fill="none" stroke="#63b8ff" d="M308.8,-236.01C330.96,-237.08 359.04,-238.43 384.66,-239.66"/>
<polygon fill="#63b8ff" stroke="#63b8ff" points="384.18,-243.14 394.34,-240.13 384.52,-236.15 384.18,-243.14"/>
</a>
</g>
</g>
<!-- Node18 -->
<g id="Node000018" class="node">
<title>Node18</title>
<g id="a_Node000018"><a xlink:href="mcp2515_8c.html#aa1ab73089d5c9bfb753aaa1b3b3f8d28" target="_top" xlink:title="Setea un registro.">
<polygon fill="white" stroke="#666666" points="854.25,-101.06 743,-101.06 743,-81.06 854.25,-81.06 854.25,-101.06"/>
<text text-anchor="middle" x="798.62" y="-87.56" font-family="Helvetica,sans-Serif" font-size="10.00">mcp2515_setRegister</text>
</a>
</g>
</g>
<!-- Node12&#45;&gt;Node18 -->
<g id="edge32_Node000012_Node000018" class="edge">
<title>Node12&#45;&gt;Node18</title>
<g id="a_edge32_Node000012_Node000018"><a xlink:title=" ">
<path fill="none" stroke="#63b8ff" d="M295.21,-223.66C308.1,-217.44 322.76,-208.32 332.25,-196.06 367.38,-150.68 322.36,-106.52 368.25,-72.06 424.09,-30.12 627.82,-59.67 733.32,-78.58"/>
<polygon fill="#63b8ff" stroke="#63b8ff" points="732.5,-81.99 742.96,-80.34 733.75,-75.1 732.5,-81.99"/>
</a>
</g>
</g>
<!-- Node14&#45;&gt;Node9 -->
<g id="edge22_Node000014_Node000009" class="edge">
<title>Node14&#45;&gt;Node9</title>
<g id="a_edge22_Node000014_Node000009"><a xlink:title=" ">
<path fill="none" stroke="#63b8ff" d="M504.38,-214.74C527.73,-219.53 556.19,-225.36 581.19,-230.49"/>
<polygon fill="#63b8ff" stroke="#63b8ff" points="580.43,-233.91 590.93,-232.49 581.83,-227.05 580.43,-233.91"/>
</a>
</g>
</g>
<!-- Node14&#45;&gt;Node10 -->
<g id="edge27_Node000014_Node000010" class="edge">
<title>Node14&#45;&gt;Node10</title>
<g id="a_edge27_Node000014_Node000010"><a xlink:title=" ">
<path fill="none" stroke="#63b8ff" d="M504.52,-210.14C517.89,-212.95 532.03,-217.3 544,-224.06 564.26,-235.49 560.21,-249.82 580,-262.06 582.41,-263.54 584.94,-264.92 587.54,-266.2"/>
<polygon fill="#63b8ff" stroke="#63b8ff" points="585.92,-269.31 596.49,-270.03 588.68,-262.88 585.92,-269.31"/>
</a>
</g>
</g>
<!-- Node15 -->
<g id="Node000015" class="node">
<title>Node15</title>
<g id="a_Node000015"><a xlink:href="mcp2515_8c.html#a0a1c3cc8b486dbd55ff9d2d011694fa6" target="_top" xlink:title="Setea el modo de configuracion.">
<polygon fill="white" stroke="#666666" points="707,-215.06 580,-215.06 580,-195.06 707,-195.06 707,-215.06"/>
<text text-anchor="middle" x="643.5" y="-201.56" font-family="Helvetica,sans-Serif" font-size="10.00">mcp2515_setConfigMode</text>
</a>
</g>
</g>
<!-- Node14&#45;&gt;Node15 -->
<g id="edge23_Node000014_Node000015" class="edge">
<title>Node14&#45;&gt;Node15</title>
<g id="a_edge23_Node000014_Node000015"><a xlink:title=" ">
<path fill="none" stroke="#63b8ff" d="M504.38,-205.06C523.75,-205.06 546.63,-205.06 568.14,-205.06"/>
<polygon fill="#63b8ff" stroke="#63b8ff" points="568.07,-208.56 578.07,-205.06 568.07,-201.56 568.07,-208.56"/>
</a>
</g>
</g>
<!-- Node16 -->
<g id="Node000016" class="node">
<title>Node16</title>
<g id="a_Node000016"><a xlink:href="mcp2515_8c.html#aa8f4e44a2081362f25ff79e24d4bf6cb" target="_top" xlink:title="Seteado el modo de trabajo.">
<polygon fill="white" stroke="#666666" points="847.88,-215.06 749.38,-215.06 749.38,-195.06 847.88,-195.06 847.88,-215.06"/>
<text text-anchor="middle" x="798.62" y="-201.56" font-family="Helvetica,sans-Serif" font-size="10.00">mcp2515_setMode</text>
</a>
</g>
</g>
<!-- Node15&#45;&gt;Node16 -->
<g id="edge24_Node000015_Node000016" class="edge">
<title>Node15&#45;&gt;Node16</title>
<g id="a_edge24_Node000015_Node000016"><a xlink:title=" ">
<path fill="none" stroke="#63b8ff" d="M707.22,-205.06C717.43,-205.06 727.97,-205.06 738.09,-205.06"/>
<polygon fill="#63b8ff" stroke="#63b8ff" points="737.78,-208.56 747.78,-205.06 737.78,-201.56 737.78,-208.56"/>
</a>
</g>
</g>
<!-- Node16&#45;&gt;Node4 -->
<g id="edge26_Node000016_Node000004" class="edge">
<title>Node16&#45;&gt;Node4</title>
<g id="a_edge26_Node000016_Node000004"><a xlink:title=" ">
<path fill="none" stroke="#63b8ff" d="M810.15,-215.5C835.84,-241.01 902.03,-306.71 934.39,-338.83"/>
<polygon fill="#63b8ff" stroke="#63b8ff" points="931.92,-341.31 941.48,-345.87 936.85,-336.34 931.92,-341.31"/>
</a>
</g>
</g>
<!-- Node16&#45;&gt;Node8 -->
<g id="edge25_Node000016_Node000008" class="edge">
<title>Node16&#45;&gt;Node8</title>
<g id="a_edge25_Node000016_Node000008"><a xlink:title=" ">
<path fill="none" stroke="#63b8ff" d="M848.07,-211.07C857.79,-212.27 868.21,-213.57 878.57,-214.85"/>
<polygon fill="#63b8ff" stroke="#63b8ff" points="877.89,-218.3 888.25,-216.05 878.76,-211.35 877.89,-218.3"/>
</a>
</g>
</g>
<!-- Node17&#45;&gt;Node9 -->
<g id="edge29_Node000017_Node000009" class="edge">
<title>Node17&#45;&gt;Node9</title>
<g id="a_edge29_Node000017_Node000009"><a xlink:title=" ">
<path fill="none" stroke="#63b8ff" d="M516.54,-243.06C537.18,-243.06 560.36,-243.06 581.16,-243.06"/>
<polygon fill="#63b8ff" stroke="#63b8ff" points="580.92,-246.56 590.92,-243.06 580.92,-239.56 580.92,-246.56"/>
</a>
</g>
</g>
<!-- Node17&#45;&gt;Node10 -->
<g id="edge31_Node000017_Node000010" class="edge">
<title>Node17&#45;&gt;Node10</title>
<g id="a_edge31_Node000017_Node000010"><a xlink:title=" ">
<path fill="none" stroke="#63b8ff" d="M508.27,-253.54C530.56,-258.11 556.89,-263.51 580.29,-268.31"/>
<polygon fill="#63b8ff" stroke="#63b8ff" points="579.54,-271.72 590.04,-270.3 580.95,-264.87 579.54,-271.72"/>
</a>
</g>
</g>
<!-- Node17&#45;&gt;Node15 -->
<g id="edge30_Node000017_Node000015" class="edge">
<title>Node17&#45;&gt;Node15</title>
<g id="a_edge30_Node000017_Node000015"><a xlink:title=" ">
<path fill="none" stroke="#63b8ff" d="M508.27,-232.57C530.56,-228 556.89,-222.61 580.29,-217.81"/>
<polygon fill="#63b8ff" stroke="#63b8ff" points="580.95,-221.25 590.04,-215.81 579.54,-214.39 580.95,-221.25"/>
</a>
</g>
</g>
<!-- Node18&#45;&gt;Node5 -->
<g id="edge33_Node000018_Node000005" class="edge">
<title>Node18&#45;&gt;Node5</title>
<g id="a_edge33_Node000018_Node000005"><a xlink:title=" ">
<path fill="none" stroke="#63b8ff" d="M826.96,-101.5C835.89,-105.32 845.71,-109.97 854.25,-115.06 871.66,-125.44 873.05,-132.33 890.25,-143.06 943.55,-176.29 972.02,-161.48 1017.25,-205.06 1044.62,-231.42 1062.46,-272.77 1071.42,-297.76"/>
<polygon fill="#63b8ff" stroke="#63b8ff" points="1068.07,-298.8 1074.61,-307.14 1074.7,-296.54 1068.07,-298.8"/>
</a>
</g>
</g>
<!-- Node18&#45;&gt;Node6 -->
<g id="edge34_Node000018_Node000006" class="edge">
<title>Node18&#45;&gt;Node6</title>
<g id="a_edge34_Node000018_Node000006"><a xlink:title=" ">
<path fill="none" stroke="#63b8ff" d="M854.67,-97.73C900.99,-105.36 967.45,-121.19 1017.25,-153.06 1037.69,-166.14 1055.03,-188.11 1065.94,-204.15"/>
<polygon fill="#63b8ff" stroke="#63b8ff" points="1062.94,-205.95 1071.32,-212.42 1068.8,-202.13 1062.94,-205.95"/>
</a>
</g>
</g>
<!-- Node19&#45;&gt;Node15 -->
<g id="edge38_Node000019_Node000015" class="edge">
<title>Node19&#45;&gt;Node15</title>
<g id="a_edge38_Node000019_Node000015"><a xlink:title=" ">
<path fill="none" stroke="#63b8ff" d="M473.9,-101.38C506.22,-121.25 577.32,-164.97 616.07,-188.8"/>
<polygon fill="#63b8ff" stroke="#63b8ff" points="613.99,-191.63 624.34,-193.89 617.65,-185.67 613.99,-191.63"/>
</a>
</g>
</g>
<!-- Node19&#45;&gt;Node18 -->
<g id="edge39_Node000019_Node000018" class="edge">
<title>Node19&#45;&gt;Node18</title>
<g id="a_edge39_Node000019_Node000018"><a xlink:title=" ">
<path fill="none" stroke="#63b8ff" d="M508.1,-91.06C567.52,-91.06 665.89,-91.06 731.23,-91.06"/>
<polygon fill="#63b8ff" stroke="#63b8ff" points="731.11,-94.56 741.11,-91.06 731.11,-87.56 731.11,-94.56"/>
</a>
</g>
</g>
<!-- Node20&#45;&gt;Node16 -->
<g id="edge41_Node000020_Node000016" class="edge">
<title>Node20&#45;&gt;Node16</title>
<g id="a_edge41_Node000020_Node000016"><a xlink:title=" ">
<path fill="none" stroke="#63b8ff" d="M332.44,-174.65C418.14,-172.29 574.53,-170.95 707,-186.06 719.35,-187.47 732.51,-189.76 744.86,-192.27"/>
<polygon fill="#63b8ff" stroke="#63b8ff" points="743.94,-195.65 754.45,-194.31 745.39,-188.81 743.94,-195.65"/>
</a>
</g>
</g>
</g>
</svg>

<g id="navigator" transform="translate(0 0)" fill="#404254">
  <rect fill="#f2f5e9" fill-opacity="0.5" stroke="#606060" stroke-width=".5" x="0" y="0" width="60" height="60"/>
  <use id="zoomplus" xlink:href="#zoomPlus" x="17" y="9" onmousedown="handleZoom(evt,'in')"/>
  <use id="zoomminus" xlink:href="#zoomMin" x="42" y="9" onmousedown="handleZoom(evt,'out')"/>
  <use id="reset" xlink:href="#resetDef" x="30" y="36" onmousedown="handleReset()"/>
   <use id="arrowup" xlink:href="#arrowUp" x="0" y="0" onmousedown="handlePan(0,-1)"/>
  <use id="arrowright" xlink:href="#arrowRight" x="0" y="0" onmousedown="handlePan(1,0)"/>
  <use id="arrowdown" xlink:href="#arrowDown" x="0" y="0" onmousedown="handlePan(0,1)"/>
  <use id="arrowleft" xlink:href="#arrowLeft" x="0" y="0" onmousedown="handlePan(-1,0)"/>
</g>
<svg viewBox="0 0 15 15" width="100%" height="30px" preserveAspectRatio="xMaxYMin meet">
 <g id="arrow_out" transform="scale(0.3 0.3)">
  <a xlink:href="main_8c_a840291bc02cba5474a4cb46a9b9566fe_cgraph_org.svg" target="_base">
   <rect id="button" ry="5" rx="5" y="6" x="6" height="38" width="38"
        fill="#f2f5e9" fill-opacity="0.5" stroke="#606060" stroke-width="1.0"/>
   <path id="arrow"
     d="M 11.500037,31.436501 C 11.940474,20.09759 22.043105,11.32322 32.158766,21.979434 L 37.068811,17.246167 C 37.068811,17.246167 37.088388,32 37.088388,32 L 22.160133,31.978069 C 22.160133,31.978069 26.997745,27.140456 26.997745,27.140456 C 18.528582,18.264221 13.291696,25.230495 11.500037,31.436501 z"
     style="fill:#404040;"/>
  </a>
 </g>
</svg>

<style type='text/css'>
<![CDATA[
[data-mouse-over-selected='false'] { opacity: 0.7; }
[data-mouse-over-selected='true']  { opacity: 1.0; }
]]>
</style>
<script type="application/ecmascript"><![CDATA[
document.addEventListener('DOMContentLoaded', (event) => {
  highlightEdges();
  highlightAdjacentNodes();
});
]]></script>
</svg>
