<?xml version="1.0" encoding="UTF-8" standalone="no"?>
<!DOCTYPE svg PUBLIC "-//W3C//DTD SVG 1.1//EN"
 "http://www.w3.org/Graphics/SVG/1.1/DTD/svg11.dtd">
<!-- Generated by graphviz version 12.2.1 (20241206.2353)
 -->
<!-- Title: mcp2515_setFilterMask Pages: 1 -->
<svg width="677pt" height="104pt"
 viewBox="0.00 0.00 676.75 104.00" xmlns="http://www.w3.org/2000/svg" xmlns:xlink="http://www.w3.org/1999/xlink">
<g id="graph0" class="graph" transform="scale(1 1) rotate(0) translate(4 100)">
<title>mcp2515_setFilterMask</title>
<!-- Node1 -->
<g id="Node000001" class="node">
<title>Node1</title>
<g id="a_Node000001"><a xlink:title="Setea el filtro y la mascara. Se configuran dichos datos en los registros del propio modulo.">
<polygon fill="#999999" stroke="#666666" points="120.25,-58 0,-58 0,-38 120.25,-38 120.25,-58"/>
<text text-anchor="middle" x="60.12" y="-44.5" font-family="Helvetica,sans-Serif" font-size="10.00">mcp2515_setFilterMask</text>
</a>
</g>
</g>
<!-- Node2 -->
<g id="Node000002" class="node">
<title>Node2</title>
<g id="a_Node000002"><a xlink:href="mcp2515_8c.html#aed2f12d8207c7b34f82733dbccdb3c76" target="_top" xlink:title="Configura el id para una accion en particular.">
<polygon fill="white" stroke="#666666" points="270.5,-96 169,-96 169,-76 270.5,-76 270.5,-96"/>
<text text-anchor="middle" x="219.75" y="-82.5" font-family="Helvetica,sans-Serif" font-size="10.00">mcp2515_prepareId</text>
</a>
</g>
</g>
<!-- Node1&#45;&gt;Node2 -->
<g id="edge1_Node000001_Node000002" class="edge">
<title>Node1&#45;&gt;Node2</title>
<g id="a_edge1_Node000001_Node000002"><a xlink:title=" ">
<path fill="none" stroke="#63b8ff" d="M104.61,-58.48C123.05,-62.93 144.73,-68.16 164.22,-72.85"/>
<polygon fill="#63b8ff" stroke="#63b8ff" points="163.39,-76.25 173.93,-75.2 165.03,-69.45 163.39,-76.25"/>
</a>
</g>
</g>
<!-- Node3 -->
<g id="Node000003" class="node">
<title>Node3</title>
<g id="a_Node000003"><a xlink:href="mcp2515_8c.html#a0a1c3cc8b486dbd55ff9d2d011694fa6" target="_top" xlink:title="Setea el modo de configuracion.">
<polygon fill="white" stroke="#666666" points="283.25,-58 156.25,-58 156.25,-38 283.25,-38 283.25,-58"/>
<text text-anchor="middle" x="219.75" y="-44.5" font-family="Helvetica,sans-Serif" font-size="10.00">mcp2515_setConfigMode</text>
</a>
</g>
</g>
<!-- Node1&#45;&gt;Node3 -->
<g id="edge2_Node000001_Node000003" class="edge">
<title>Node1&#45;&gt;Node3</title>
<g id="a_edge2_Node000001_Node000003"><a xlink:title=" ">
<path fill="none" stroke="#63b8ff" d="M120.72,-48C128.54,-48 136.63,-48 144.65,-48"/>
<polygon fill="#63b8ff" stroke="#63b8ff" points="144.41,-51.5 154.41,-48 144.41,-44.5 144.41,-51.5"/>
</a>
</g>
</g>
<!-- Node9 -->
<g id="Node000009" class="node">
<title>Node9</title>
<g id="a_Node000009"><a xlink:href="mcp2515_8c.html#a06105d6f139b5a81ffc4650b634f9cfe" target="_top" xlink:title="Setea multiples registros.">
<polygon fill="white" stroke="#666666" points="575.5,-20 459,-20 459,0 575.5,0 575.5,-20"/>
<text text-anchor="middle" x="517.25" y="-6.5" font-family="Helvetica,sans-Serif" font-size="10.00">mcp2515_setRegisters</text>
</a>
</g>
</g>
<!-- Node1&#45;&gt;Node9 -->
<g id="edge10_Node000001_Node000009" class="edge">
<title>Node1&#45;&gt;Node9</title>
<g id="a_edge10_Node000001_Node000009"><a xlink:title=" ">
<path fill="none" stroke="#63b8ff" d="M106.39,-37.57C122.1,-34.32 139.87,-31.06 156.25,-29 257.05,-16.34 374.75,-12.1 447.4,-10.69"/>
<polygon fill="#63b8ff" stroke="#63b8ff" points="447.21,-14.19 457.15,-10.51 447.09,-7.19 447.21,-14.19"/>
</a>
</g>
</g>
<!-- Node4 -->
<g id="Node000004" class="node">
<title>Node4</title>
<g id="a_Node000004"><a xlink:href="mcp2515_8c.html#aa8f4e44a2081362f25ff79e24d4bf6cb" target="_top" xlink:title="Seteado el modo de trabajo.">
<polygon fill="white" stroke="#666666" points="417.75,-58 319.25,-58 319.25,-38 417.75,-38 417.75,-58"/>
<text text-anchor="middle" x="368.5" y="-44.5" font-family="Helvetica,sans-Serif" font-size="10.00">mcp2515_setMode</text>
</a>
</g>
</g>
<!-- Node3&#45;&gt;Node4 -->
<g id="edge3_Node000003_Node000004" class="edge">
<title>Node3&#45;&gt;Node4</title>
<g id="a_edge3_Node000003_Node000004"><a xlink:title=" ">
<path fill="none" stroke="#63b8ff" d="M283.41,-48C291.37,-48 299.49,-48 307.41,-48"/>
<polygon fill="#63b8ff" stroke="#63b8ff" points="307.29,-51.5 317.29,-48 307.29,-44.5 307.29,-51.5"/>
</a>
</g>
</g>
<!-- Node5 -->
<g id="Node000005" class="node">
<title>Node5</title>
<g id="a_Node000005"><a xlink:href="mcp2515_8c.html#ac3bc690a1b8ef1495f5fbb57eab28eaf" target="_top" xlink:title="Modifica un registro en particular.">
<polygon fill="white" stroke="#666666" points="580.75,-58 453.75,-58 453.75,-38 580.75,-38 580.75,-58"/>
<text text-anchor="middle" x="517.25" y="-44.5" font-family="Helvetica,sans-Serif" font-size="10.00">mcp2515_modifyRegister</text>
</a>
</g>
</g>
<!-- Node4&#45;&gt;Node5 -->
<g id="edge4_Node000004_Node000005" class="edge">
<title>Node4&#45;&gt;Node5</title>
<g id="a_edge4_Node000004_Node000005"><a xlink:title=" ">
<path fill="none" stroke="#63b8ff" d="M417.96,-48C425.68,-48 433.81,-48 441.96,-48"/>
<polygon fill="#63b8ff" stroke="#63b8ff" points="441.94,-51.5 451.94,-48 441.94,-44.5 441.94,-51.5"/>
</a>
</g>
</g>
<!-- Node8 -->
<g id="Node000008" class="node">
<title>Node8</title>
<g id="a_Node000008"><a xlink:href="mcp2515_8c.html#a1dcd2d88901952184ce8297e1c5c6bf6" target="_top" xlink:title="Lee un solo registro a la vez.">
<polygon fill="white" stroke="#666666" points="575.5,-96 459,-96 459,-76 575.5,-76 575.5,-96"/>
<text text-anchor="middle" x="517.25" y="-82.5" font-family="Helvetica,sans-Serif" font-size="10.00">mcp2515_readRegister</text>
</a>
</g>
</g>
<!-- Node4&#45;&gt;Node8 -->
<g id="edge7_Node000004_Node000008" class="edge">
<title>Node4&#45;&gt;Node8</title>
<g id="a_edge7_Node000004_Node000008"><a xlink:title=" ">
<path fill="none" stroke="#63b8ff" d="M409.99,-58.48C426.99,-62.89 446.96,-68.06 464.98,-72.72"/>
<polygon fill="#63b8ff" stroke="#63b8ff" points="463.87,-76.05 474.43,-75.17 465.63,-69.28 463.87,-76.05"/>
</a>
</g>
</g>
<!-- Node6 -->
<g id="Node000006" class="node">
<title>Node6</title>
<g id="a_Node000006"><a xlink:href="mcp2515_8c.html#ae85a49925cc5c6fd1b15522434dc51ce" target="_top" xlink:title="Finaliza la comunicacion spi.">
<polygon fill="white" stroke="#666666" points="666.88,-77 618.62,-77 618.62,-57 666.88,-57 666.88,-77"/>
<text text-anchor="middle" x="642.75" y="-63.5" font-family="Helvetica,sans-Serif" font-size="10.00">endSPI</text>
</a>
</g>
</g>
<!-- Node5&#45;&gt;Node6 -->
<g id="edge5_Node000005_Node000006" class="edge">
<title>Node5&#45;&gt;Node6</title>
<g id="a_edge5_Node000005_Node000006"><a xlink:title=" ">
<path fill="none" stroke="#63b8ff" d="M581.09,-57.67C589.97,-59.03 598.83,-60.4 606.92,-61.64"/>
<polygon fill="#63b8ff" stroke="#63b8ff" points="606.23,-65.08 616.65,-63.14 607.29,-58.16 606.23,-65.08"/>
</a>
</g>
</g>
<!-- Node7 -->
<g id="Node000007" class="node">
<title>Node7</title>
<g id="a_Node000007"><a xlink:href="mcp2515_8c.html#afea997d2aa89cc2831bff10e34198bd8" target="_top" xlink:title="Funciones privadas.">
<polygon fill="white" stroke="#666666" points="668.75,-39 616.75,-39 616.75,-19 668.75,-19 668.75,-39"/>
<text text-anchor="middle" x="642.75" y="-25.5" font-family="Helvetica,sans-Serif" font-size="10.00">startSPI</text>
</a>
</g>
</g>
<!-- Node5&#45;&gt;Node7 -->
<g id="edge6_Node000005_Node000007" class="edge">
<title>Node5&#45;&gt;Node7</title>
<g id="a_edge6_Node000005_Node000007"><a xlink:title=" ">
<path fill="none" stroke="#63b8ff" d="M581.09,-38.33C589.3,-37.07 597.48,-35.81 605.06,-34.64"/>
<polygon fill="#63b8ff" stroke="#63b8ff" points="605.54,-38.11 614.9,-33.13 604.48,-31.19 605.54,-38.11"/>
</a>
</g>
</g>
<!-- Node8&#45;&gt;Node6 -->
<g id="edge8_Node000008_Node000006" class="edge">
<title>Node8&#45;&gt;Node6</title>
<g id="a_edge8_Node000008_Node000006"><a xlink:title=" ">
<path fill="none" stroke="#63b8ff" d="M575.66,-77.17C586.41,-75.51 597.33,-73.83 607.12,-72.33"/>
<polygon fill="#63b8ff" stroke="#63b8ff" points="607.56,-75.8 616.92,-70.82 606.5,-68.88 607.56,-75.8"/>
</a>
</g>
</g>
<!-- Node8&#45;&gt;Node7 -->
<g id="edge9_Node000008_Node000007" class="edge">
<title>Node8&#45;&gt;Node7</title>
<g id="a_edge9_Node000008_Node000007"><a xlink:title=" ">
<path fill="none" stroke="#63b8ff" d="M558.17,-75.57C565.8,-73.11 573.62,-70.23 580.75,-67 593.8,-61.08 607.42,-52.82 618.47,-45.52"/>
<polygon fill="#63b8ff" stroke="#63b8ff" points="620.25,-48.54 626.55,-40.02 616.31,-42.75 620.25,-48.54"/>
</a>
</g>
</g>
<!-- Node9&#45;&gt;Node6 -->
<g id="edge11_Node000009_Node000006" class="edge">
<title>Node9&#45;&gt;Node6</title>
<g id="a_edge11_Node000009_Node000006"><a xlink:title=" ">
<path fill="none" stroke="#63b8ff" d="M558.17,-20.43C565.8,-22.89 573.62,-25.77 580.75,-29 593.8,-34.92 607.42,-43.18 618.47,-50.48"/>
<polygon fill="#63b8ff" stroke="#63b8ff" points="616.31,-53.25 626.55,-55.98 620.25,-47.46 616.31,-53.25"/>
</a>
</g>
</g>
<!-- Node9&#45;&gt;Node7 -->
<g id="edge12_Node000009_Node000007" class="edge">
<title>Node9&#45;&gt;Node7</title>
<g id="a_edge12_Node000009_Node000007"><a xlink:title=" ">
<path fill="none" stroke="#63b8ff" d="M575.66,-18.83C585.76,-20.39 596.01,-21.96 605.34,-23.4"/>
<polygon fill="#63b8ff" stroke="#63b8ff" points="604.65,-26.83 615.07,-24.89 605.72,-19.91 604.65,-26.83"/>
</a>
</g>
</g>
</g>
</svg>
