<?xml version="1.0" encoding="UTF-8" standalone="no"?>
<!DOCTYPE svg PUBLIC "-//W3C//DTD SVG 1.1//EN"
 "http://www.w3.org/Graphics/SVG/1.1/DTD/svg11.dtd">
<!-- Generated by graphviz version 12.2.1 (20241206.2353)
 -->
<!-- Title: mcp2515_sendMessage Pages: 1 -->
<!--zoomable 142 -->

<svg id="main" version="1.1" xmlns="http://www.w3.org/2000/svg" xmlns:xlink="http://www.w3.org/1999/xlink" xml:space="preserve" onload="init(evt)">

<style type="text/css"><![CDATA[
.node, .edge {opacity: 0.7;}
.node.selected, .edge.selected {opacity: 1;}
.edge:hover path { stroke: red; }
.edge:hover polygon { stroke: red; fill: red; }
]]></style>

<defs>
  <circle id="rim" cx="0" cy="0" r="7"/>
  <circle id="rim2" cx="0" cy="0" r="3.5"/>
  <g id="zoomPlus">
    <use xlink:href="#rim" fill="#404040"><set attributeName="fill" to="#808080" begin="zoomplus.mouseover" end="zoomplus.mouseout"/></use>
    <path d="M-4,0h8M0,-4v8" fill="none" stroke="white" stroke-width="1.5" pointer-events="none"/>
  </g>
  <g id="zoomMin">
    <use xlink:href="#rim" fill="#404040"><set attributeName="fill" to="#808080" begin="zoomminus.mouseover" end="zoomminus.mouseout"/></use>
    <path d="M-4,0h8" fill="none" stroke="white" stroke-width="1.5" pointer-events="none"/>
  </g>
  <g id="arrowUp" transform="translate(30 24)">
    <use xlink:href="#rim"/>
    <path pointer-events="none" fill="none" stroke="white" stroke-width="1.5" d="M0,-3.0v7 M-2.5,-0.5L0,-3.0L2.5,-0.5"/>
  </g>
  <g id="arrowRight" transform="rotate(90) translate(36 -43)">
    <use xlink:href="#rim"/>
    <path pointer-events="none" fill="none" stroke="white" stroke-width="1.5" d="M0,-3.0v7 M-2.5,-0.5L0,-3.0L2.5,-0.5"/>
  </g>
  <g id="arrowDown" transform="rotate(180) translate(-30 -48)">
    <use xlink:href="#rim"/>
    <path pointer-events="none" fill="none" stroke="white" stroke-width="1.5" d="M0,-3.0v7 M-2.5,-0.5L0,-3.0L2.5,-0.5"/>
  </g>
  <g id="arrowLeft" transform="rotate(270) translate(-36 17)">
    <use xlink:href="#rim"/>
    <path pointer-events="none" fill="none" stroke="white" stroke-width="1.5" d="M0,-3.0v7 M-2.5,-0.5L0,-3.0L2.5,-0.5"/>
  </g>
  <g id="resetDef">
    <use xlink:href="#rim2" fill="#404040"><set attributeName="fill" to="#808080" begin="reset.mouseover" end="reset.mouseout"/></use>
  </g>
</defs>
<script type="application/ecmascript">
var viewWidth = 593;
var viewHeight = 142;
var sectionId = 'dynsection-33';
</script>
<script type="application/ecmascript" xlink:href="svg.min.js"/>
<svg id="graph" class="graph">
<g id="viewport">
<title>mcp2515_sendMessage</title>
<!-- Node1 -->
<g id="Node000001" class="node">
<title>Node1</title>
<g id="a_Node000001"><a xlink:title="Envio de mensaje.">
<polygon fill="#999999" stroke="#666666" points="121.75,-115 0,-115 0,-95 121.75,-95 121.75,-115"/>
<text text-anchor="middle" x="60.88" y="-101.5" font-family="Helvetica,sans-Serif" font-size="10.00">mcp2515_sendMessage</text>
</a>
</g>
</g>
<!-- Node2 -->
<g id="Node000002" class="node">
<title>Node2</title>
<g id="a_Node000002"><a xlink:href="mcp2515_8c.html#a1dcd2d88901952184ce8297e1c5c6bf6" target="_top" xlink:title="Lee un solo registro a la vez.">
<polygon fill="white" stroke="#666666" points="491.25,-134 374.75,-134 374.75,-114 491.25,-114 491.25,-134"/>
<text text-anchor="middle" x="433" y="-120.5" font-family="Helvetica,sans-Serif" font-size="10.00">mcp2515_readRegister</text>
</a>
</g>
</g>
<!-- Node1&#45;&gt;Node2 -->
<g id="edge1_Node000001_Node000002" class="edge">
<title>Node1&#45;&gt;Node2</title>
<g id="a_edge1_Node000001_Node000002"><a xlink:title=" ">
<path fill="none" stroke="#63b8ff" d="M122.17,-108.09C188.24,-111.49 294.02,-116.92 363.27,-120.47"/>
<polygon fill="#63b8ff" stroke="#63b8ff" points="362.8,-123.95 372.97,-120.97 363.16,-116.96 362.8,-123.95"/>
</a>
</g>
</g>
<!-- Node5 -->
<g id="Node000005" class="node">
<title>Node5</title>
<g id="a_Node000005"><a xlink:href="mcp2515_8c.html#a4733cdbc41bfeb798df55ab500ba76ee" target="_top" xlink:title="Envio de mensaje con el buffer.">
<polygon fill="white" stroke="#666666" points="333.5,-96 157.75,-96 157.75,-76 333.5,-76 333.5,-96"/>
<text text-anchor="middle" x="245.62" y="-82.5" font-family="Helvetica,sans-Serif" font-size="10.00">mcp2515_sendMessageWithBufferId</text>
</a>
</g>
</g>
<!-- Node1&#45;&gt;Node5 -->
<g id="edge4_Node000001_Node000005" class="edge">
<title>Node1&#45;&gt;Node5</title>
<g id="a_edge4_Node000001_Node000005"><a xlink:title=" ">
<path fill="none" stroke="#63b8ff" d="M122.22,-98.73C130.01,-97.92 138.14,-97.07 146.35,-96.22"/>
<polygon fill="#63b8ff" stroke="#63b8ff" points="146.47,-99.72 156.06,-95.21 145.75,-92.76 146.47,-99.72"/>
</a>
</g>
</g>
<!-- Node3 -->
<g id="Node000003" class="node">
<title>Node3</title>
<g id="a_Node000003"><a xlink:href="mcp2515_8c.html#ae85a49925cc5c6fd1b15522434dc51ce" target="_top" xlink:title="Finaliza la comunicacion spi.">
<polygon fill="white" stroke="#666666" points="582.62,-115 534.38,-115 534.38,-95 582.62,-95 582.62,-115"/>
<text text-anchor="middle" x="558.5" y="-101.5" font-family="Helvetica,sans-Serif" font-size="10.00">endSPI</text>
</a>
</g>
</g>
<!-- Node2&#45;&gt;Node3 -->
<g id="edge2_Node000002_Node000003" class="edge">
<title>Node2&#45;&gt;Node3</title>
<g id="a_edge2_Node000002_Node000003"><a xlink:title=" ">
<path fill="none" stroke="#63b8ff" d="M491.41,-115.17C502.16,-113.51 513.08,-111.83 522.87,-110.33"/>
<polygon fill="#63b8ff" stroke="#63b8ff" points="523.31,-113.8 532.67,-108.82 522.25,-106.88 523.31,-113.8"/>
</a>
</g>
</g>
<!-- Node4 -->
<g id="Node000004" class="node">
<title>Node4</title>
<g id="a_Node000004"><a xlink:href="mcp2515_8c.html#afea997d2aa89cc2831bff10e34198bd8" target="_top" xlink:title="Funciones privadas.">
<polygon fill="white" stroke="#666666" points="584.5,-77 532.5,-77 532.5,-57 584.5,-57 584.5,-77"/>
<text text-anchor="middle" x="558.5" y="-63.5" font-family="Helvetica,sans-Serif" font-size="10.00">startSPI</text>
</a>
</g>
</g>
<!-- Node2&#45;&gt;Node4 -->
<g id="edge3_Node000002_Node000004" class="edge">
<title>Node2&#45;&gt;Node4</title>
<g id="a_edge3_Node000002_Node000004"><a xlink:title=" ">
<path fill="none" stroke="#63b8ff" d="M473.92,-113.57C481.55,-111.11 489.37,-108.23 496.5,-105 509.55,-99.08 523.17,-90.82 534.22,-83.52"/>
<polygon fill="#63b8ff" stroke="#63b8ff" points="536,-86.54 542.3,-78.02 532.06,-80.75 536,-86.54"/>
</a>
</g>
</g>
<!-- Node5&#45;&gt;Node2 -->
<g id="edge9_Node000005_Node000002" class="edge">
<title>Node5&#45;&gt;Node2</title>
<g id="a_edge9_Node000005_Node000002"><a xlink:title=" ">
<path fill="none" stroke="#63b8ff" d="M297.77,-96.48C320.06,-101.05 346.39,-106.45 369.79,-111.25"/>
<polygon fill="#63b8ff" stroke="#63b8ff" points="369.04,-114.67 379.54,-113.25 370.45,-107.81 369.04,-114.67"/>
</a>
</g>
</g>
<!-- Node6 -->
<g id="Node000006" class="node">
<title>Node6</title>
<g id="a_Node000006"><a xlink:href="mcp2515_8c.html#ac3bc690a1b8ef1495f5fbb57eab28eaf" target="_top" xlink:title="Modifica un registro en particular.">
<polygon fill="white" stroke="#666666" points="496.5,-96 369.5,-96 369.5,-76 496.5,-76 496.5,-96"/>
<text text-anchor="middle" x="433" y="-82.5" font-family="Helvetica,sans-Serif" font-size="10.00">mcp2515_modifyRegister</text>
</a>
</g>
</g>
<!-- Node5&#45;&gt;Node6 -->
<g id="edge5_Node000005_Node000006" class="edge">
<title>Node5&#45;&gt;Node6</title>
<g id="a_edge5_Node000005_Node000006"><a xlink:title=" ">
<path fill="none" stroke="#63b8ff" d="M333.88,-86C341.9,-86 349.96,-86 357.85,-86"/>
<polygon fill="#63b8ff" stroke="#63b8ff" points="357.72,-89.5 367.72,-86 357.72,-82.5 357.72,-89.5"/>
</a>
</g>
</g>
<!-- Node7 -->
<g id="Node000007" class="node">
<title>Node7</title>
<g id="a_Node000007"><a xlink:href="mcp2515_8c.html#aed2f12d8207c7b34f82733dbccdb3c76" target="_top" xlink:title="Configura el id para una accion en particular.">
<polygon fill="white" stroke="#666666" points="483.75,-20 382.25,-20 382.25,0 483.75,0 483.75,-20"/>
<text text-anchor="middle" x="433" y="-6.5" font-family="Helvetica,sans-Serif" font-size="10.00">mcp2515_prepareId</text>
</a>
</g>
</g>
<!-- Node5&#45;&gt;Node7 -->
<g id="edge8_Node000005_Node000007" class="edge">
<title>Node5&#45;&gt;Node7</title>
<g id="a_edge8_Node000005_Node000007"><a xlink:title=" ">
<path fill="none" stroke="#63b8ff" d="M266.69,-75.64C290.72,-63.48 332.37,-43.18 369.5,-29 374.16,-27.22 379.05,-25.5 383.97,-23.85"/>
<polygon fill="#63b8ff" stroke="#63b8ff" points="384.81,-27.26 393.26,-20.87 382.66,-20.6 384.81,-27.26"/>
</a>
</g>
</g>
<!-- Node8 -->
<g id="Node000008" class="node">
<title>Node8</title>
<g id="a_Node000008"><a xlink:href="mcp2515_8c.html#a06105d6f139b5a81ffc4650b634f9cfe" target="_top" xlink:title="Setea multiples registros.">
<polygon fill="white" stroke="#666666" points="491.25,-58 374.75,-58 374.75,-38 491.25,-38 491.25,-58"/>
<text text-anchor="middle" x="433" y="-44.5" font-family="Helvetica,sans-Serif" font-size="10.00">mcp2515_setRegisters</text>
</a>
</g>
</g>
<!-- Node5&#45;&gt;Node8 -->
<g id="edge10_Node000005_Node000008" class="edge">
<title>Node5&#45;&gt;Node8</title>
<g id="a_edge10_Node000005_Node000008"><a xlink:title=" ">
<path fill="none" stroke="#63b8ff" d="M297.77,-75.52C320.06,-70.95 346.39,-65.55 369.79,-60.75"/>
<polygon fill="#63b8ff" stroke="#63b8ff" points="370.45,-64.19 379.54,-58.75 369.04,-57.33 370.45,-64.19"/>
</a>
</g>
</g>
<!-- Node6&#45;&gt;Node3 -->
<g id="edge6_Node000006_Node000003" class="edge">
<title>Node6&#45;&gt;Node3</title>
<g id="a_edge6_Node000006_Node000003"><a xlink:title=" ">
<path fill="none" stroke="#63b8ff" d="M496.84,-95.67C505.72,-97.03 514.58,-98.4 522.67,-99.64"/>
<polygon fill="#63b8ff" stroke="#63b8ff" points="521.98,-103.08 532.4,-101.14 523.04,-96.16 521.98,-103.08"/>
</a>
</g>
</g>
<!-- Node6&#45;&gt;Node4 -->
<g id="edge7_Node000006_Node000004" class="edge">
<title>Node6&#45;&gt;Node4</title>
<g id="a_edge7_Node000006_Node000004"><a xlink:title=" ">
<path fill="none" stroke="#63b8ff" d="M496.84,-76.33C505.05,-75.07 513.23,-73.81 520.81,-72.64"/>
<polygon fill="#63b8ff" stroke="#63b8ff" points="521.29,-76.11 530.65,-71.13 520.23,-69.19 521.29,-76.11"/>
</a>
</g>
</g>
<!-- Node8&#45;&gt;Node3 -->
<g id="edge11_Node000008_Node000003" class="edge">
<title>Node8&#45;&gt;Node3</title>
<g id="a_edge11_Node000008_Node000003"><a xlink:title=" ">
<path fill="none" stroke="#63b8ff" d="M473.92,-58.43C481.55,-60.89 489.37,-63.77 496.5,-67 509.55,-72.92 523.17,-81.18 534.22,-88.48"/>
<polygon fill="#63b8ff" stroke="#63b8ff" points="532.06,-91.25 542.3,-93.98 536,-85.46 532.06,-91.25"/>
</a>
</g>
</g>
<!-- Node8&#45;&gt;Node4 -->
<g id="edge12_Node000008_Node000004" class="edge">
<title>Node8&#45;&gt;Node4</title>
<g id="a_edge12_Node000008_Node000004"><a xlink:title=" ">
<path fill="none" stroke="#63b8ff" d="M491.41,-56.83C501.51,-58.39 511.76,-59.96 521.09,-61.4"/>
<polygon fill="#63b8ff" stroke="#63b8ff" points="520.4,-64.83 530.82,-62.89 521.47,-57.91 520.4,-64.83"/>
</a>
</g>
</g>
</g>
</svg>

<g id="navigator" transform="translate(0 0)" fill="#404254">
  <rect fill="#f2f5e9" fill-opacity="0.5" stroke="#606060" stroke-width=".5" x="0" y="0" width="60" height="60"/>
  <use id="zoomplus" xlink:href="#zoomPlus" x="17" y="9" onmousedown="handleZoom(evt,'in')"/>
  <use id="zoomminus" xlink:href="#zoomMin" x="42" y="9" onmousedown="handleZoom(evt,'out')"/>
  <use id="reset" xlink:href="#resetDef" x="30" y="36" onmousedown="handleReset()"/>
   <use id="arrowup" xlink:href="#arrowUp" x="0" y="0" onmousedown="handlePan(0,-1)"/>
  <use id="arrowright" xlink:href="#arrowRight" x="0" y="0" onmousedown="handlePan(1,0)"/>
  <use id="arrowdown" xlink:href="#arrowDown" x="0" y="0" onmousedown="handlePan(0,1)"/>
  <use id="arrowleft" xlink:href="#arrowLeft" x="0" y="0" onmousedown="handlePan(-1,0)"/>
</g>
<svg viewBox="0 0 15 15" width="100%" height="30px" preserveAspectRatio="xMaxYMin meet">
 <g id="arrow_out" transform="scale(0.3 0.3)">
  <a xlink:href="mcp2515_8c_a4139b924c04d5aa72c132ccd16f05437_cgraph_org.svg" target="_base">
   <rect id="button" ry="5" rx="5" y="6" x="6" height="38" width="38"
        fill="#f2f5e9" fill-opacity="0.5" stroke="#606060" stroke-width="1.0"/>
   <path id="arrow"
     d="M 11.500037,31.436501 C 11.940474,20.09759 22.043105,11.32322 32.158766,21.979434 L 37.068811,17.246167 C 37.068811,17.246167 37.088388,32 37.088388,32 L 22.160133,31.978069 C 22.160133,31.978069 26.997745,27.140456 26.997745,27.140456 C 18.528582,18.264221 13.291696,25.230495 11.500037,31.436501 z"
     style="fill:#404040;"/>
  </a>
 </g>
</svg>

<style type='text/css'>
<![CDATA[
[data-mouse-over-selected='false'] { opacity: 0.7; }
[data-mouse-over-selected='true']  { opacity: 1.0; }
]]>
</style>
<script type="application/ecmascript"><![CDATA[
document.addEventListener('DOMContentLoaded', (event) => {
  highlightEdges();
  highlightAdjacentNodes();
});
]]></script>
</svg>
