<?xml version="1.0" encoding="UTF-8" standalone="no"?>
<!DOCTYPE svg PUBLIC "-//W3C//DTD SVG 1.1//EN"
 "http://www.w3.org/Graphics/SVG/1.1/DTD/svg11.dtd">
<!-- Generated by graphviz version 12.2.1 (20241206.2353)
 -->
<!-- Title: endSPI Pages: 1 -->
<svg width="1137pt" height="960pt"
 viewBox="0.00 0.00 1136.50 959.80" xmlns="http://www.w3.org/2000/svg" xmlns:xlink="http://www.w3.org/1999/xlink">
<g id="graph0" class="graph" transform="scale(1 1) rotate(0) translate(4 955.8)">
<title>endSPI</title>
<!-- Node1 -->
<g id="Node000001" class="node">
<title>Node1</title>
<g id="a_Node000001"><a xlink:title="Finaliza la comunicacion spi.">
<polygon fill="#999999" stroke="#666666" points="1128.5,-590.8 1080.25,-590.8 1080.25,-570.8 1128.5,-570.8 1128.5,-590.8"/>
<text text-anchor="middle" x="1104.38" y="-577.3" font-family="Helvetica,sans-Serif" font-size="10.00">endSPI</text>
</a>
</g>
</g>
<!-- Node2 -->
<g id="Node000002" class="node">
<title>Node2</title>
<g id="a_Node000002"><a xlink:href="mcp2515_8c.html#adab84b04c3e872a779e0b50cd6f939be" target="_top" xlink:title="Obtiene los estados solicitados de lectura.">
<polygon fill="white" stroke="#666666" points="1032.25,-913.8 929.25,-913.8 929.25,-893.8 1032.25,-893.8 1032.25,-913.8"/>
<text text-anchor="middle" x="980.75" y="-900.3" font-family="Helvetica,sans-Serif" font-size="10.00">mcp2515_getStatus</text>
</a>
</g>
</g>
<!-- Node1&#45;&gt;Node2 -->
<g id="edge1_Node000001_Node000002" class="edge">
<title>Node1&#45;&gt;Node2</title>
<g id="a_edge1_Node000001_Node000002"><a xlink:title=" ">
<path fill="none" stroke="#63b8ff" d="M1095.51,-601.68C1071.98,-664.18 1002.66,-848.27 985.58,-893.62"/>
<polygon fill="#63b8ff" stroke="#63b8ff" points="1098.68,-603.19 1098.93,-592.59 1092.13,-600.72 1098.68,-603.19"/>
</a>
</g>
</g>
<!-- Node5 -->
<g id="Node000005" class="node">
<title>Node5</title>
<g id="a_Node000005"><a xlink:href="mcp2515_8c.html#ac3bc690a1b8ef1495f5fbb57eab28eaf" target="_top" xlink:title="Modifica un registro en particular.">
<polygon fill="white" stroke="#666666" points="1044.25,-723.8 917.25,-723.8 917.25,-703.8 1044.25,-703.8 1044.25,-723.8"/>
<text text-anchor="middle" x="980.75" y="-710.3" font-family="Helvetica,sans-Serif" font-size="10.00">mcp2515_modifyRegister</text>
</a>
</g>
</g>
<!-- Node1&#45;&gt;Node5 -->
<g id="edge4_Node000001_Node000005" class="edge">
<title>Node1&#45;&gt;Node5</title>
<g id="a_edge4_Node000001_Node000005"><a xlink:title=" ">
<path fill="none" stroke="#63b8ff" d="M1092.05,-601.01C1081.2,-619.36 1063.65,-646.55 1044.25,-666.8 1030.44,-681.21 1011.88,-694.56 998.58,-703.33"/>
<polygon fill="#63b8ff" stroke="#63b8ff" points="1095.04,-602.84 1097,-592.42 1088.98,-599.34 1095.04,-602.84"/>
</a>
</g>
</g>
<!-- Node12 -->
<g id="Node000012" class="node">
<title>Node12</title>
<g id="a_Node000012"><a xlink:href="mcp2515_8c.html#a21cb40a7513567cb455ce296ef0bbe4b" target="_top" xlink:title="Resetea el modulo.">
<polygon fill="white" stroke="#666666" points="308.62,-400.8 225.88,-400.8 225.88,-380.8 308.62,-380.8 308.62,-400.8"/>
<text text-anchor="middle" x="267.25" y="-387.3" font-family="Helvetica,sans-Serif" font-size="10.00">mcp2515_reset</text>
</a>
</g>
</g>
<!-- Node1&#45;&gt;Node12 -->
<g id="edge48_Node000001_Node000012" class="edge">
<title>Node1&#45;&gt;Node12</title>
<g id="a_edge48_Node000001_Node000012"><a xlink:title=" ">
<path fill="none" stroke="#63b8ff" d="M1084.09,-563.3C1047.49,-531.13 964.16,-462.77 881.25,-428.8 679.97,-346.33 410.22,-371.17 308.94,-384.66"/>
<polygon fill="#63b8ff" stroke="#63b8ff" points="1081.43,-565.62 1091.23,-569.65 1086.09,-560.39 1081.43,-565.62"/>
</a>
</g>
</g>
<!-- Node28 -->
<g id="Node000028" class="node">
<title>Node28</title>
<g id="a_Node000028"><a xlink:href="mcp2515_8c.html#a1dcd2d88901952184ce8297e1c5c6bf6" target="_top" xlink:title="Lee un solo registro a la vez.">
<polygon fill="white" stroke="#666666" points="1039,-343.8 922.5,-343.8 922.5,-323.8 1039,-323.8 1039,-343.8"/>
<text text-anchor="middle" x="980.75" y="-330.3" font-family="Helvetica,sans-Serif" font-size="10.00">mcp2515_readRegister</text>
</a>
</g>
</g>
<!-- Node1&#45;&gt;Node28 -->
<g id="edge33_Node000001_Node000028" class="edge">
<title>Node1&#45;&gt;Node28</title>
<g id="a_edge33_Node000001_Node000028"><a xlink:title=" ">
<path fill="none" stroke="#63b8ff" d="M1099.98,-559.42C1093.54,-523.46 1077.17,-449.56 1044.25,-395.8 1031.32,-374.68 1009.73,-355.46 995.61,-344.19"/>
<polygon fill="#63b8ff" stroke="#63b8ff" points="1096.47,-559.69 1101.6,-568.96 1103.37,-558.52 1096.47,-559.69"/>
</a>
</g>
</g>
<!-- Node35 -->
<g id="Node000035" class="node">
<title>Node35</title>
<g id="a_Node000035"><a xlink:href="mcp2515_8c.html#a560b6de316a626011c27ae51cafaac11" target="_top" xlink:title="Lee multiples registros a la vez.">
<polygon fill="white" stroke="#666666" points="1041.62,-657.8 919.88,-657.8 919.88,-637.8 1041.62,-637.8 1041.62,-657.8"/>
<text text-anchor="middle" x="980.75" y="-644.3" font-family="Helvetica,sans-Serif" font-size="10.00">mcp2515_readRegisters</text>
</a>
</g>
</g>
<!-- Node1&#45;&gt;Node35 -->
<g id="edge46_Node000001_Node000035" class="edge">
<title>Node1&#45;&gt;Node35</title>
<g id="a_edge46_Node000001_Node000035"><a xlink:title=" ">
<path fill="none" stroke="#63b8ff" d="M1074.53,-596.69C1051.67,-609.28 1020.38,-626.52 1000.62,-637.4"/>
<polygon fill="#63b8ff" stroke="#63b8ff" points="1075.98,-599.89 1083.05,-592 1072.6,-593.76 1075.98,-599.89"/>
</a>
</g>
</g>
<!-- Node36 -->
<g id="Node000036" class="node">
<title>Node36</title>
<g id="a_Node000036"><a xlink:href="mcp2515_8c.html#aa1ab73089d5c9bfb753aaa1b3b3f8d28" target="_top" xlink:title="Setea un registro.">
<polygon fill="white" stroke="#666666" points="1036.38,-134.8 925.12,-134.8 925.12,-114.8 1036.38,-114.8 1036.38,-134.8"/>
<text text-anchor="middle" x="980.75" y="-121.3" font-family="Helvetica,sans-Serif" font-size="10.00">mcp2515_setRegister</text>
</a>
</g>
</g>
<!-- Node1&#45;&gt;Node36 -->
<g id="edge49_Node000001_Node000036" class="edge">
<title>Node1&#45;&gt;Node36</title>
<g id="a_edge49_Node000001_Node000036"><a xlink:title=" ">
<path fill="none" stroke="#63b8ff" d="M1099.33,-559.23C1090.64,-513.72 1068.95,-404.65 1044.25,-314.8 1025.11,-245.15 995.81,-163.25 985.5,-134.99"/>
<polygon fill="#63b8ff" stroke="#63b8ff" points="1095.85,-559.65 1101.15,-568.82 1102.73,-558.35 1095.85,-559.65"/>
</a>
</g>
</g>
<!-- Node38 -->
<g id="Node000038" class="node">
<title>Node38</title>
<g id="a_Node000038"><a xlink:href="mcp2515_8c.html#a06105d6f139b5a81ffc4650b634f9cfe" target="_top" xlink:title="Setea multiples registros.">
<polygon fill="white" stroke="#666666" points="1039,-590.8 922.5,-590.8 922.5,-570.8 1039,-570.8 1039,-590.8"/>
<text text-anchor="middle" x="980.75" y="-577.3" font-family="Helvetica,sans-Serif" font-size="10.00">mcp2515_setRegisters</text>
</a>
</g>
</g>
<!-- Node1&#45;&gt;Node38 -->
<g id="edge54_Node000001_Node000038" class="edge">
<title>Node1&#45;&gt;Node38</title>
<g id="a_edge54_Node000001_Node000038"><a xlink:title=" ">
<path fill="none" stroke="#63b8ff" d="M1068.59,-580.8C1059.48,-580.8 1049.41,-580.8 1039.45,-580.8"/>
<polygon fill="#63b8ff" stroke="#63b8ff" points="1068.41,-584.3 1078.41,-580.8 1068.41,-577.3 1068.41,-584.3"/>
</a>
</g>
</g>
<!-- Node3 -->
<g id="Node000003" class="node">
<title>Node3</title>
<g id="a_Node000003"><a xlink:href="mcp2515_8c.html#a679684df91e2a18e578e81c7be7af67f" target="_top" xlink:title="Chequea la recepcion de los datos.">
<polygon fill="white" stroke="#666666" points="855,-951.8 731.75,-951.8 731.75,-931.8 855,-931.8 855,-951.8"/>
<text text-anchor="middle" x="793.38" y="-938.3" font-family="Helvetica,sans-Serif" font-size="10.00">mcp2515_checkReceive</text>
</a>
</g>
</g>
<!-- Node2&#45;&gt;Node3 -->
<g id="edge2_Node000002_Node000003" class="edge">
<title>Node2&#45;&gt;Node3</title>
<g id="a_edge2_Node000002_Node000003"><a xlink:title=" ">
<path fill="none" stroke="#63b8ff" d="M918.12,-916.43C894.49,-921.27 867.81,-926.74 845.29,-931.36"/>
<polygon fill="#63b8ff" stroke="#63b8ff" points="918.52,-919.92 927.61,-914.48 917.11,-913.06 918.52,-919.92"/>
</a>
</g>
</g>
<!-- Node4 -->
<g id="Node000004" class="node">
<title>Node4</title>
<g id="a_Node000004"><a xlink:href="mcp2515_8c.html#a98f361e58e9c16ec15a1469172a80547" target="_top" xlink:title="Lee mensajes tipo CAN.">
<polygon fill="white" stroke="#666666" points="656.75,-685.8 537.25,-685.8 537.25,-665.8 656.75,-665.8 656.75,-685.8"/>
<text text-anchor="middle" x="597" y="-672.3" font-family="Helvetica,sans-Serif" font-size="10.00">mcp2515_readMessage</text>
</a>
</g>
</g>
<!-- Node2&#45;&gt;Node4 -->
<g id="edge3_Node000002_Node000004" class="edge">
<title>Node2&#45;&gt;Node4</title>
<g id="a_edge3_Node000002_Node000004"><a xlink:title=" ">
<path fill="none" stroke="#63b8ff" d="M917.71,-915.8C858.25,-923.79 768.5,-926.29 705.5,-884.8 632.07,-836.43 606.09,-721.39 599.71,-686.2"/>
<polygon fill="#63b8ff" stroke="#63b8ff" points="917.91,-919.31 927.31,-914.42 916.91,-912.38 917.91,-919.31"/>
</a>
</g>
</g>
<!-- Node6 -->
<g id="Node000006" class="node">
<title>Node6</title>
<g id="a_Node000006"><a xlink:href="mcp2515_8c.html#a29c3f045ae54f41059e8b85009cb1b87" target="_top" xlink:title="Limpia la bandera de errif.">
<polygon fill="white" stroke="#666666" points="849.75,-837.8 737,-837.8 737,-817.8 849.75,-817.8 849.75,-837.8"/>
<text text-anchor="middle" x="793.38" y="-824.3" font-family="Helvetica,sans-Serif" font-size="10.00">mcp2515_clearERRIF</text>
</a>
</g>
</g>
<!-- Node5&#45;&gt;Node6 -->
<g id="edge5_Node000005_Node000006" class="edge">
<title>Node5&#45;&gt;Node6</title>
<g id="a_edge5_Node000005_Node000006"><a xlink:title=" ">
<path fill="none" stroke="#63b8ff" d="M965.11,-733.33C947.63,-755.2 916.31,-790.04 881.25,-808.8 871.72,-813.9 860.91,-817.63 850.23,-820.36"/>
<polygon fill="#63b8ff" stroke="#63b8ff" points="967.83,-735.53 971.21,-725.49 962.31,-731.24 967.83,-735.53"/>
</a>
</g>
</g>
<!-- Node7 -->
<g id="Node000007" class="node">
<title>Node7</title>
<g id="a_Node000007"><a xlink:href="mcp2515_8c.html#a8e585c2aec2c8e21b9d8a57e2a7be2ac" target="_top" xlink:title="Limpia la bandera de merr.">
<polygon fill="white" stroke="#666666" points="849.38,-799.8 737.38,-799.8 737.38,-779.8 849.38,-779.8 849.38,-799.8"/>
<text text-anchor="middle" x="793.38" y="-786.3" font-family="Helvetica,sans-Serif" font-size="10.00">mcp2515_clearMERR</text>
</a>
</g>
</g>
<!-- Node5&#45;&gt;Node7 -->
<g id="edge6_Node000005_Node000007" class="edge">
<title>Node5&#45;&gt;Node7</title>
<g id="a_edge6_Node000005_Node000007"><a xlink:title=" ">
<path fill="none" stroke="#63b8ff" d="M955.64,-730.6C936.32,-743.34 908.11,-760.38 881.25,-770.8 871.32,-774.65 860.43,-777.8 849.82,-780.36"/>
<polygon fill="#63b8ff" stroke="#63b8ff" points="957.53,-733.54 963.87,-725.06 953.62,-727.74 957.53,-733.54"/>
</a>
</g>
</g>
<!-- Node8 -->
<g id="Node000008" class="node">
<title>Node8</title>
<g id="a_Node000008"><a xlink:href="mcp2515_8c.html#ae96902bcbdb6e764a65cbe35f942dd7a" target="_top" xlink:title="Limpia la bandera de overflow de los buffer de rx.">
<polygon fill="white" stroke="#666666" points="867,-495.8 719.75,-495.8 719.75,-475.8 867,-475.8 867,-495.8"/>
<text text-anchor="middle" x="793.38" y="-482.3" font-family="Helvetica,sans-Serif" font-size="10.00">mcp2515_clearRXnOVRFlags</text>
</a>
</g>
</g>
<!-- Node5&#45;&gt;Node8 -->
<g id="edge7_Node000005_Node000008" class="edge">
<title>Node5&#45;&gt;Node8</title>
<g id="a_edge7_Node000005_Node000008"><a xlink:title=" ">
<path fill="none" stroke="#63b8ff" d="M949.64,-697.49C937.87,-689.68 925.29,-679.28 917.25,-666.8 877.3,-604.8 933.49,-556.86 881.25,-504.8 877.2,-500.76 872.51,-497.5 867.45,-494.87"/>
<polygon fill="#63b8ff" stroke="#63b8ff" points="947.59,-700.34 957.94,-702.64 951.29,-694.39 947.59,-700.34"/>
</a>
</g>
</g>
<!-- Node10 -->
<g id="Node000010" class="node">
<title>Node10</title>
<g id="a_Node000010"><a xlink:href="mcp2515_8c.html#a71b19c089b2853a6f8615d64a3991e3d" target="_top" xlink:title="Limpia las banderas de interrupcion de tx.">
<polygon fill="white" stroke="#666666" points="861.38,-761.8 725.38,-761.8 725.38,-741.8 861.38,-741.8 861.38,-761.8"/>
<text text-anchor="middle" x="793.38" y="-748.3" font-family="Helvetica,sans-Serif" font-size="10.00">mcp2515_clearTXInterrupts</text>
</a>
</g>
</g>
<!-- Node5&#45;&gt;Node10 -->
<g id="edge9_Node000005_Node000010" class="edge">
<title>Node5&#45;&gt;Node10</title>
<g id="a_edge9_Node000005_Node000010"><a xlink:title=" ">
<path fill="none" stroke="#63b8ff" d="M917.37,-726.58C893.95,-731.39 867.62,-736.78 845.35,-741.35"/>
<polygon fill="#63b8ff" stroke="#63b8ff" points="918.03,-730.02 927.12,-724.59 916.62,-723.16 918.03,-730.02"/>
</a>
</g>
</g>
<!-- Node11 -->
<g id="Node000011" class="node">
<title>Node11</title>
<g id="a_Node000011"><a xlink:href="mcp2515_8c.html#a5a56a5809b74e255e306caa97853dd13" target="_top" xlink:title="Lee mensaje con el buffer indicado.">
<polygon fill="white" stroke="#666666" points="880.12,-685.8 706.62,-685.8 706.62,-665.8 880.12,-665.8 880.12,-685.8"/>
<text text-anchor="middle" x="793.38" y="-672.3" font-family="Helvetica,sans-Serif" font-size="10.00">mcp2515_readMessageWithBufferId</text>
</a>
</g>
</g>
<!-- Node5&#45;&gt;Node11 -->
<g id="edge10_Node000005_Node000011" class="edge">
<title>Node5&#45;&gt;Node11</title>
<g id="a_edge10_Node000005_Node000011"><a xlink:title=" ">
<path fill="none" stroke="#63b8ff" d="M917.37,-701.01C893.95,-696.21 867.62,-690.81 845.35,-686.25"/>
<polygon fill="#63b8ff" stroke="#63b8ff" points="916.62,-704.43 927.12,-703.01 918.03,-697.57 916.62,-704.43"/>
</a>
</g>
</g>
<!-- Node5&#45;&gt;Node12 -->
<g id="edge12_Node000005_Node000012" class="edge">
<title>Node5&#45;&gt;Node12</title>
<g id="a_edge12_Node000005_Node000012"><a xlink:title=" ">
<path fill="none" stroke="#63b8ff" d="M905.42,-716.48C794.57,-719.5 591.77,-721.01 524.5,-694.8 380.43,-638.66 292.29,-448.01 272.51,-401.23"/>
<polygon fill="#63b8ff" stroke="#63b8ff" points="905.43,-719.98 915.32,-716.19 905.23,-712.98 905.43,-719.98"/>
</a>
</g>
</g>
<!-- Node15 -->
<g id="Node000015" class="node">
<title>Node15</title>
<g id="a_Node000015"><a xlink:href="mcp2515_8c.html#a4733cdbc41bfeb798df55ab500ba76ee" target="_top" xlink:title="Envio de mensaje con el buffer.">
<polygon fill="white" stroke="#666666" points="881.25,-457.8 705.5,-457.8 705.5,-437.8 881.25,-437.8 881.25,-457.8"/>
<text text-anchor="middle" x="793.38" y="-444.3" font-family="Helvetica,sans-Serif" font-size="10.00">mcp2515_sendMessageWithBufferId</text>
</a>
</g>
</g>
<!-- Node5&#45;&gt;Node15 -->
<g id="edge15_Node000005_Node000015" class="edge">
<title>Node5&#45;&gt;Node15</title>
<g id="a_edge15_Node000005_Node000015"><a xlink:title=" ">
<path fill="none" stroke="#63b8ff" d="M949.14,-697.48C937.4,-689.71 924.98,-679.35 917.25,-666.8 869.88,-589.9 943.91,-531.84 881.25,-466.8 878.04,-463.46 874.38,-460.65 870.44,-458.28"/>
<polygon fill="#63b8ff" stroke="#63b8ff" points="947.08,-700.32 957.43,-702.59 950.76,-694.37 947.08,-700.32"/>
</a>
</g>
</g>
<!-- Node18 -->
<g id="Node000018" class="node">
<title>Node18</title>
<g id="a_Node000018"><a xlink:href="mcp2515_8c.html#a0838ae4e7ae0ec6c7fe78138350c3b11" target="_top" xlink:title="Hay que ver que hace.">
<polygon fill="white" stroke="#666666" points="846,-875.8 740.75,-875.8 740.75,-855.8 846,-855.8 846,-875.8"/>
<text text-anchor="middle" x="793.38" y="-862.3" font-family="Helvetica,sans-Serif" font-size="10.00">mcp2515_setClkOut</text>
</a>
</g>
</g>
<!-- Node5&#45;&gt;Node18 -->
<g id="edge19_Node000005_Node000018" class="edge">
<title>Node5&#45;&gt;Node18</title>
<g id="a_edge19_Node000005_Node000018"><a xlink:title=" ">
<path fill="none" stroke="#63b8ff" d="M970.56,-734.13C956.04,-763.82 924.89,-818.56 881.25,-846.8 870.88,-853.51 858.51,-857.88 846.4,-860.72"/>
<polygon fill="#63b8ff" stroke="#63b8ff" points="973.55,-735.99 974.65,-725.46 967.22,-733.01 973.55,-735.99"/>
</a>
</g>
</g>
<!-- Node19 -->
<g id="Node000019" class="node">
<title>Node19</title>
<g id="a_Node000019"><a xlink:href="mcp2515_8c.html#aa8f4e44a2081362f25ff79e24d4bf6cb" target="_top" xlink:title="Seteado el modo de trabajo.">
<polygon fill="white" stroke="#666666" points="842.62,-533.8 744.12,-533.8 744.12,-513.8 842.62,-513.8 842.62,-533.8"/>
<text text-anchor="middle" x="793.38" y="-520.3" font-family="Helvetica,sans-Serif" font-size="10.00">mcp2515_setMode</text>
</a>
</g>
</g>
<!-- Node5&#45;&gt;Node19 -->
<g id="edge20_Node000005_Node000019" class="edge">
<title>Node5&#45;&gt;Node19</title>
<g id="a_edge20_Node000005_Node000019"><a xlink:title=" ">
<path fill="none" stroke="#63b8ff" d="M954.79,-696.92C942.94,-688.44 928.86,-677.68 917.25,-666.8 869,-621.59 820.39,-558.69 802.03,-534.17"/>
<polygon fill="#63b8ff" stroke="#63b8ff" points="952.68,-699.72 962.88,-702.59 956.7,-693.99 952.68,-699.72"/>
</a>
</g>
</g>
<!-- Node9 -->
<g id="Node000009" class="node">
<title>Node9</title>
<g id="a_Node000009"><a xlink:href="mcp2515_8c.html#aeb679de4c34c365123f989fab92b9b71" target="_top" xlink:title="Limpia la bandera de overflow de los buffers de rx.">
<polygon fill="white" stroke="#666666" points="658.62,-115.8 535.38,-115.8 535.38,-95.8 658.62,-95.8 658.62,-115.8"/>
<text text-anchor="middle" x="597" y="-102.3" font-family="Helvetica,sans-Serif" font-size="10.00">mcp2515_clearRXnOVR</text>
</a>
</g>
</g>
<!-- Node8&#45;&gt;Node9 -->
<g id="edge8_Node000008_Node000009" class="edge">
<title>Node8&#45;&gt;Node9</title>
<g id="a_edge8_Node000008_Node000009"><a xlink:title=" ">
<path fill="none" stroke="#63b8ff" d="M710.36,-471.44C708.64,-470.01 707.02,-468.47 705.5,-466.8 614.09,-366.02 735.66,-281.68 669.5,-162.8 657.84,-141.85 635.06,-125.78 618.34,-116.13"/>
<polygon fill="#63b8ff" stroke="#63b8ff" points="708.12,-474.15 718.39,-476.76 711.99,-468.32 708.12,-474.15"/>
</a>
</g>
</g>
<!-- Node11&#45;&gt;Node4 -->
<g id="edge11_Node000011_Node000004" class="edge">
<title>Node11&#45;&gt;Node4</title>
<g id="a_edge11_Node000011_Node000004"><a xlink:title=" ">
<path fill="none" stroke="#63b8ff" d="M694.91,-675.8C681.95,-675.8 669,-675.8 656.98,-675.8"/>
<polygon fill="#63b8ff" stroke="#63b8ff" points="694.76,-679.3 704.76,-675.8 694.76,-672.3 694.76,-679.3"/>
</a>
</g>
</g>
<!-- Node13 -->
<g id="Node000013" class="node">
<title>Node13</title>
<g id="a_Node000013"><a xlink:href="main_8c.html#a3df11f7015b4a015c6b468941125de20" target="_top" xlink:title="Inicializacion de perifericos.">
<polygon fill="white" stroke="#666666" points="159.12,-239.8 80.12,-239.8 80.12,-219.8 159.12,-219.8 159.12,-239.8"/>
<text text-anchor="middle" x="119.62" y="-226.3" font-family="Helvetica,sans-Serif" font-size="10.00">perifericos_init</text>
</a>
</g>
</g>
<!-- Node12&#45;&gt;Node13 -->
<g id="edge13_Node000012_Node000013" class="edge">
<title>Node12&#45;&gt;Node13</title>
<g id="a_edge13_Node000012_Node000013"><a xlink:title=" ">
<path fill="none" stroke="#63b8ff" d="M249.81,-372.62C219.21,-338.79 154.42,-267.16 130.11,-240.28"/>
<polygon fill="#63b8ff" stroke="#63b8ff" points="246.82,-374.53 256.13,-379.6 252.01,-369.84 246.82,-374.53"/>
</a>
</g>
</g>
<!-- Node14 -->
<g id="Node000014" class="node">
<title>Node14</title>
<g id="a_Node000014"><a xlink:href="main_8c.html#a840291bc02cba5474a4cb46a9b9566fe" target="_top" xlink:title="Main.">
<polygon fill="white" stroke="#666666" points="37,-201.8 0,-201.8 0,-181.8 37,-181.8 37,-201.8"/>
<text text-anchor="middle" x="18.5" y="-188.3" font-family="Helvetica,sans-Serif" font-size="10.00">main</text>
</a>
</g>
</g>
<!-- Node13&#45;&gt;Node14 -->
<g id="edge14_Node000013_Node000014" class="edge">
<title>Node13&#45;&gt;Node14</title>
<g id="a_edge14_Node000013_Node000014"><a xlink:title=" ">
<path fill="none" stroke="#63b8ff" d="M80.77,-215.29C65.87,-209.57 49.46,-203.28 37.38,-198.65"/>
<polygon fill="#63b8ff" stroke="#63b8ff" points="79.27,-218.46 89.86,-218.77 81.78,-211.92 79.27,-218.46"/>
</a>
</g>
</g>
<!-- Node16 -->
<g id="Node000016" class="node">
<title>Node16</title>
<g id="a_Node000016"><a xlink:href="mcp2515_8c.html#a4139b924c04d5aa72c132ccd16f05437" target="_top" xlink:title="Envio de mensaje.">
<polygon fill="white" stroke="#666666" points="657.88,-191.8 536.12,-191.8 536.12,-171.8 657.88,-171.8 657.88,-191.8"/>
<text text-anchor="middle" x="597" y="-178.3" font-family="Helvetica,sans-Serif" font-size="10.00">mcp2515_sendMessage</text>
</a>
</g>
</g>
<!-- Node15&#45;&gt;Node16 -->
<g id="edge16_Node000015_Node000016" class="edge">
<title>Node15&#45;&gt;Node16</title>
<g id="a_edge16_Node000015_Node000016"><a xlink:title=" ">
<path fill="none" stroke="#63b8ff" d="M773.68,-429.39C755.33,-410.86 727.03,-381.06 705.5,-352.8 661.73,-295.33 618.79,-219.62 603.69,-192.24"/>
<polygon fill="#63b8ff" stroke="#63b8ff" points="771.2,-431.86 780.75,-436.45 776.15,-426.9 771.2,-431.86"/>
</a>
</g>
</g>
<!-- Node17 -->
<g id="Node000017" class="node">
<title>Node17</title>
<g id="a_Node000017"><a xlink:href="main_8c.html#ae3697afe652e8273e37aac8f55c48276" target="_top" xlink:title="Escritura de mensajes tipo CAN.">
<polygon fill="white" stroke="#666666" points="166.25,-182.8 73,-182.8 73,-162.8 166.25,-162.8 166.25,-182.8"/>
<text text-anchor="middle" x="119.62" y="-169.3" font-family="Helvetica,sans-Serif" font-size="10.00">canmsg_escritura</text>
</a>
</g>
</g>
<!-- Node16&#45;&gt;Node17 -->
<g id="edge17_Node000016_Node000017" class="edge">
<title>Node16&#45;&gt;Node17</title>
<g id="a_edge17_Node000016_Node000017"><a xlink:title=" ">
<path fill="none" stroke="#63b8ff" d="M524.41,-180.44C425.41,-178.57 249.55,-175.24 166.49,-173.67"/>
<polygon fill="#63b8ff" stroke="#63b8ff" points="524.22,-183.94 534.28,-180.63 524.35,-176.94 524.22,-183.94"/>
</a>
</g>
</g>
<!-- Node17&#45;&gt;Node14 -->
<g id="edge18_Node000017_Node000014" class="edge">
<title>Node17&#45;&gt;Node14</title>
<g id="a_edge18_Node000017_Node000014"><a xlink:title=" ">
<path fill="none" stroke="#63b8ff" d="M61.38,-183.77C52.64,-185.44 44.23,-187.06 37.26,-188.39"/>
<polygon fill="#63b8ff" stroke="#63b8ff" points="61.9,-187.23 71.06,-181.91 60.58,-180.36 61.9,-187.23"/>
</a>
</g>
</g>
<!-- Node20 -->
<g id="Node000020" class="node">
<title>Node20</title>
<g id="a_Node000020"><a xlink:href="mcp2515_8c.html#a0a1c3cc8b486dbd55ff9d2d011694fa6" target="_top" xlink:title="Setea el modo de configuracion.">
<polygon fill="white" stroke="#666666" points="660.5,-419.8 533.5,-419.8 533.5,-399.8 660.5,-399.8 660.5,-419.8"/>
<text text-anchor="middle" x="597" y="-406.3" font-family="Helvetica,sans-Serif" font-size="10.00">mcp2515_setConfigMode</text>
</a>
</g>
</g>
<!-- Node19&#45;&gt;Node20 -->
<g id="edge21_Node000019_Node000020" class="edge">
<title>Node19&#45;&gt;Node20</title>
<g id="a_edge21_Node000019_Node000020"><a xlink:title=" ">
<path fill="none" stroke="#63b8ff" d="M732.75,-518.33C722.93,-515.39 713.4,-511.08 705.5,-504.8 676.25,-481.53 698.23,-452.71 669.5,-428.8 665.35,-425.35 660.64,-422.52 655.67,-420.2"/>
<polygon fill="#63b8ff" stroke="#63b8ff" points="731.86,-521.72 742.41,-520.74 733.55,-514.93 731.86,-521.72"/>
</a>
</g>
</g>
<!-- Node24 -->
<g id="Node000024" class="node">
<title>Node24</title>
<g id="a_Node000024"><a xlink:href="mcp2515_8c.html#a24629fc99e83c9f097a0d24629dcae79" target="_top" xlink:title="Setea el modo de solo escucha.">
<polygon fill="white" stroke="#666666" points="669.5,-495.8 524.5,-495.8 524.5,-475.8 669.5,-475.8 669.5,-495.8"/>
<text text-anchor="middle" x="597" y="-482.3" font-family="Helvetica,sans-Serif" font-size="10.00">mcp2515_setListenOnlyMode</text>
</a>
</g>
</g>
<!-- Node19&#45;&gt;Node24 -->
<g id="edge28_Node000019_Node000024" class="edge">
<title>Node19&#45;&gt;Node24</title>
<g id="a_edge28_Node000019_Node000024"><a xlink:title=" ">
<path fill="none" stroke="#63b8ff" d="M732.62,-512.12C706.69,-507.05 676.56,-501.16 651.39,-496.24"/>
<polygon fill="#63b8ff" stroke="#63b8ff" points="731.86,-515.53 742.34,-514.02 733.2,-508.66 731.86,-515.53"/>
</a>
</g>
</g>
<!-- Node25 -->
<g id="Node000025" class="node">
<title>Node25</title>
<g id="a_Node000025"><a xlink:href="mcp2515_8c.html#a4d44b1c2e0ad790988f8821b12fc8c80" target="_top" xlink:title="Setea el modo de loopback.">
<polygon fill="white" stroke="#666666" points="667.25,-457.8 526.75,-457.8 526.75,-437.8 667.25,-437.8 667.25,-457.8"/>
<text text-anchor="middle" x="597" y="-444.3" font-family="Helvetica,sans-Serif" font-size="10.00">mcp2515_setLoopbackMode</text>
</a>
</g>
</g>
<!-- Node19&#45;&gt;Node25 -->
<g id="edge29_Node000019_Node000025" class="edge">
<title>Node19&#45;&gt;Node25</title>
<g id="a_edge29_Node000019_Node000025"><a xlink:title=" ">
<path fill="none" stroke="#63b8ff" d="M732.92,-515.78C723.39,-513.1 713.91,-509.54 705.5,-504.8 685.24,-493.36 689.5,-478.68 669.5,-466.8 663.76,-463.39 657.4,-460.58 650.91,-458.27"/>
<polygon fill="#63b8ff" stroke="#63b8ff" points="732.06,-519.17 742.6,-518.16 733.73,-512.37 732.06,-519.17"/>
</a>
</g>
</g>
<!-- Node26 -->
<g id="Node000026" class="node">
<title>Node26</title>
<g id="a_Node000026"><a xlink:href="mcp2515_8c.html#ab5403fd588f8558b6b3031e9cee0b35e" target="_top" xlink:title="Setea el modo normal de trabajo.">
<polygon fill="white" stroke="#666666" points="332.25,-277.8 202.25,-277.8 202.25,-257.8 332.25,-257.8 332.25,-277.8"/>
<text text-anchor="middle" x="267.25" y="-264.3" font-family="Helvetica,sans-Serif" font-size="10.00">mcp2515_setNormalMode</text>
</a>
</g>
</g>
<!-- Node19&#45;&gt;Node26 -->
<g id="edge30_Node000019_Node000026" class="edge">
<title>Node19&#45;&gt;Node26</title>
<g id="a_edge30_Node000019_Node000026"><a xlink:title=" ">
<path fill="none" stroke="#63b8ff" d="M732.98,-519.5C722.89,-516.48 713.2,-511.83 705.5,-504.8 666.27,-468.97 707.23,-428.21 669.5,-390.8 577.67,-299.73 420.28,-275.82 332.39,-269.71"/>
<polygon fill="#63b8ff" stroke="#63b8ff" points="731.99,-522.87 742.54,-521.83 733.65,-516.06 731.99,-522.87"/>
</a>
</g>
</g>
<!-- Node27 -->
<g id="Node000027" class="node">
<title>Node27</title>
<g id="a_Node000027"><a xlink:href="mcp2515_8c.html#a9eeb6e5089676520f1f243d43b25bd0b" target="_top" xlink:title="Setea el modo sleep.">
<polygon fill="white" stroke="#666666" points="658.62,-533.8 535.38,-533.8 535.38,-513.8 658.62,-513.8 658.62,-533.8"/>
<text text-anchor="middle" x="597" y="-520.3" font-family="Helvetica,sans-Serif" font-size="10.00">mcp2515_setSleepMode</text>
</a>
</g>
</g>
<!-- Node19&#45;&gt;Node27 -->
<g id="edge32_Node000019_Node000027" class="edge">
<title>Node19&#45;&gt;Node27</title>
<g id="a_edge32_Node000019_Node000027"><a xlink:title=" ">
<path fill="none" stroke="#63b8ff" d="M732.63,-523.8C709.2,-523.8 682.34,-523.8 658.8,-523.8"/>
<polygon fill="#63b8ff" stroke="#63b8ff" points="732.31,-527.3 742.31,-523.8 732.31,-520.3 732.31,-527.3"/>
</a>
</g>
</g>
<!-- Node21 -->
<g id="Node000021" class="node">
<title>Node21</title>
<g id="a_Node000021"><a xlink:href="mcp2515_8c.html#a376a8574dcdafeeac264e1b652333d58" target="_top" xlink:title="Setea el baud rate.">
<polygon fill="white" stroke="#666666" points="479.88,-210.8 376.88,-210.8 376.88,-190.8 479.88,-190.8 479.88,-210.8"/>
<text text-anchor="middle" x="428.38" y="-197.3" font-family="Helvetica,sans-Serif" font-size="10.00">mcp2515_setBitrate</text>
</a>
</g>
</g>
<!-- Node20&#45;&gt;Node21 -->
<g id="edge22_Node000020_Node000021" class="edge">
<title>Node20&#45;&gt;Node21</title>
<g id="a_edge22_Node000020_Node000021"><a xlink:title=" ">
<path fill="none" stroke="#63b8ff" d="M580.62,-390.51C546.23,-347.37 464.08,-244.32 437.69,-211.22"/>
<polygon fill="#63b8ff" stroke="#63b8ff" points="577.82,-392.61 586.79,-398.25 583.3,-388.25 577.82,-392.61"/>
</a>
</g>
</g>
<!-- Node22 -->
<g id="Node000022" class="node">
<title>Node22</title>
<g id="a_Node000022"><a xlink:href="mcp2515_8c.html#adb0e9467c52bdc0cef5bb689dd3b996f" target="_top" xlink:title="Se configura el filtro.">
<polygon fill="white" stroke="#666666" points="476.5,-457.8 380.25,-457.8 380.25,-437.8 476.5,-437.8 476.5,-457.8"/>
<text text-anchor="middle" x="428.38" y="-444.3" font-family="Helvetica,sans-Serif" font-size="10.00">mcp2515_setFilter</text>
</a>
</g>
</g>
<!-- Node20&#45;&gt;Node22 -->
<g id="edge24_Node000020_Node000022" class="edge">
<title>Node20&#45;&gt;Node22</title>
<g id="a_edge24_Node000020_Node000022"><a xlink:title=" ">
<path fill="none" stroke="#63b8ff" d="M539.07,-422.78C518.23,-427.53 494.94,-432.84 475.2,-437.35"/>
<polygon fill="#63b8ff" stroke="#63b8ff" points="539.58,-426.25 548.55,-420.62 538.02,-419.43 539.58,-426.25"/>
</a>
</g>
</g>
<!-- Node23 -->
<g id="Node000023" class="node">
<title>Node23</title>
<g id="a_Node000023"><a xlink:href="mcp2515_8c.html#a34318296cf509afa4e66aeffdbeb0f6d" target="_top" xlink:title="Setea el filtro y la mascara. Se configuran dichos datos en los registros del propio modulo.">
<polygon fill="white" stroke="#666666" points="488.5,-419.8 368.25,-419.8 368.25,-399.8 488.5,-399.8 488.5,-419.8"/>
<text text-anchor="middle" x="428.38" y="-406.3" font-family="Helvetica,sans-Serif" font-size="10.00">mcp2515_setFilterMask</text>
</a>
</g>
</g>
<!-- Node20&#45;&gt;Node23 -->
<g id="edge26_Node000020_Node000023" class="edge">
<title>Node20&#45;&gt;Node23</title>
<g id="a_edge26_Node000020_Node000023"><a xlink:title=" ">
<path fill="none" stroke="#63b8ff" d="M521.67,-409.8C510.7,-409.8 499.51,-409.8 488.88,-409.8"/>
<polygon fill="#63b8ff" stroke="#63b8ff" points="521.49,-413.3 531.49,-409.8 521.49,-406.3 521.49,-413.3"/>
</a>
</g>
</g>
<!-- Node21&#45;&gt;Node13 -->
<g id="edge23_Node000021_Node000013" class="edge">
<title>Node21&#45;&gt;Node13</title>
<g id="a_edge23_Node000021_Node000013"><a xlink:title=" ">
<path fill="none" stroke="#63b8ff" d="M365.26,-206.67C303.74,-212.49 211.42,-221.21 159.57,-226.12"/>
<polygon fill="#63b8ff" stroke="#63b8ff" points="365.24,-210.19 374.87,-205.76 364.59,-203.22 365.24,-210.19"/>
</a>
</g>
</g>
<!-- Node22&#45;&gt;Node12 -->
<g id="edge25_Node000022_Node000012" class="edge">
<title>Node22&#45;&gt;Node12</title>
<g id="a_edge25_Node000022_Node000012"><a xlink:title=" ">
<path fill="none" stroke="#63b8ff" d="M383,-433.82C378.01,-432.16 373.01,-430.47 368.25,-428.8 343.01,-419.95 314.52,-409.04 294.43,-401.17"/>
<polygon fill="#63b8ff" stroke="#63b8ff" points="381.78,-437.1 392.38,-436.88 383.96,-430.45 381.78,-437.1"/>
</a>
</g>
</g>
<!-- Node23&#45;&gt;Node12 -->
<g id="edge27_Node000023_Node000012" class="edge">
<title>Node23&#45;&gt;Node12</title>
<g id="a_edge27_Node000023_Node000012"><a xlink:title=" ">
<path fill="none" stroke="#63b8ff" d="M356.83,-401.37C340.36,-399.41 323.36,-397.38 308.71,-395.63"/>
<polygon fill="#63b8ff" stroke="#63b8ff" points="356.28,-404.83 366.62,-402.54 357.11,-397.88 356.28,-404.83"/>
</a>
</g>
</g>
<!-- Node26&#45;&gt;Node13 -->
<g id="edge31_Node000026_Node000013" class="edge">
<title>Node26&#45;&gt;Node13</title>
<g id="a_edge31_Node000026_Node000013"><a xlink:title=" ">
<path fill="none" stroke="#63b8ff" d="M215,-254.42C196.73,-249.66 176.47,-244.37 159.42,-239.92"/>
<polygon fill="#63b8ff" stroke="#63b8ff" points="214.05,-257.79 224.61,-256.93 215.82,-251.02 214.05,-257.79"/>
</a>
</g>
</g>
<!-- Node28&#45;&gt;Node11 -->
<g id="edge41_Node000028_Node000011" class="edge">
<title>Node28&#45;&gt;Node11</title>
<g id="a_edge41_Node000028_Node000011"><a xlink:title=" ">
<path fill="none" stroke="#63b8ff" d="M971.21,-354.31C955.14,-392.3 918.66,-475.84 881.25,-542.8 854.75,-590.23 817.59,-643.42 801.87,-665.42"/>
<polygon fill="#63b8ff" stroke="#63b8ff" points="974.28,-356.02 974.93,-345.45 967.83,-353.31 974.28,-356.02"/>
</a>
</g>
</g>
<!-- Node28&#45;&gt;Node12 -->
<g id="edge42_Node000028_Node000012" class="edge">
<title>Node28&#45;&gt;Node12</title>
<g id="a_edge42_Node000028_Node000012"><a xlink:title=" ">
<path fill="none" stroke="#63b8ff" d="M924,-346.37C910.11,-349 895.2,-351.4 881.25,-352.8 654.38,-375.59 593.19,-320.52 368.25,-357.8 341.74,-362.19 312.7,-372.42 292.78,-380.33"/>
<polygon fill="#63b8ff" stroke="#63b8ff" points="924.27,-349.88 933.4,-344.52 922.92,-343.01 924.27,-349.88"/>
</a>
</g>
</g>
<!-- Node28&#45;&gt;Node15 -->
<g id="edge44_Node000028_Node000015" class="edge">
<title>Node28&#45;&gt;Node15</title>
<g id="a_edge44_Node000028_Node000015"><a xlink:title=" ">
<path fill="none" stroke="#63b8ff" d="M953.43,-349.98C914.75,-373.77 843.64,-417.5 811.25,-437.42"/>
<polygon fill="#63b8ff" stroke="#63b8ff" points="955,-353.13 961.68,-344.91 951.33,-347.16 955,-353.13"/>
</a>
</g>
</g>
<!-- Node28&#45;&gt;Node16 -->
<g id="edge43_Node000028_Node000016" class="edge">
<title>Node28&#45;&gt;Node16</title>
<g id="a_edge43_Node000028_Node000016"><a xlink:title=" ">
<path fill="none" stroke="#63b8ff" d="M971.27,-313.06C957.49,-282.38 927.08,-225.85 881.25,-200.8 811.94,-162.92 718.42,-165.02 658.15,-171.89"/>
<polygon fill="#63b8ff" stroke="#63b8ff" points="967.97,-314.24 975.14,-322.04 974.4,-311.47 967.97,-314.24"/>
</a>
</g>
</g>
<!-- Node28&#45;&gt;Node19 -->
<g id="edge45_Node000028_Node000019" class="edge">
<title>Node28&#45;&gt;Node19</title>
<g id="a_edge45_Node000028_Node000019"><a xlink:title=" ">
<path fill="none" stroke="#63b8ff" d="M973.72,-355.14C962.19,-391.84 933.41,-466.62 881.25,-504.8 870.16,-512.91 856.28,-517.68 842.89,-520.45"/>
<polygon fill="#63b8ff" stroke="#63b8ff" points="977.03,-356.29 976.54,-345.71 970.32,-354.29 977.03,-356.29"/>
</a>
</g>
</g>
<!-- Node29 -->
<g id="Node000029" class="node">
<title>Node29</title>
<g id="a_Node000029"><a xlink:href="mcp2515_8c.html#ab5e2dbab71fce64be2696e8901312f7e" target="_top" xlink:title="Chequa el contador de error de recepcion.">
<polygon fill="white" stroke="#666666" points="853.88,-267.8 732.88,-267.8 732.88,-247.8 853.88,-247.8 853.88,-267.8"/>
<text text-anchor="middle" x="793.38" y="-254.3" font-family="Helvetica,sans-Serif" font-size="10.00">mcp2515_errorCountRX</text>
</a>
</g>
</g>
<!-- Node28&#45;&gt;Node29 -->
<g id="edge34_Node000028_Node000029" class="edge">
<title>Node28&#45;&gt;Node29</title>
<g id="a_edge34_Node000028_Node000029"><a xlink:title=" ">
<path fill="none" stroke="#63b8ff" d="M955.64,-316.99C936.32,-304.25 908.11,-287.21 881.25,-276.8 872.61,-273.45 863.25,-270.62 853.98,-268.27"/>
<polygon fill="#63b8ff" stroke="#63b8ff" points="953.62,-319.86 963.87,-322.54 957.53,-314.05 953.62,-319.86"/>
</a>
</g>
</g>
<!-- Node30 -->
<g id="Node000030" class="node">
<title>Node30</title>
<g id="a_Node000030"><a xlink:href="mcp2515_8c.html#aab193cc15f237a1ca714ddd1338455c0" target="_top" xlink:title="Chequea el contador de error de transmision.">
<polygon fill="white" stroke="#666666" points="853.12,-229.8 733.62,-229.8 733.62,-209.8 853.12,-209.8 853.12,-229.8"/>
<text text-anchor="middle" x="793.38" y="-216.3" font-family="Helvetica,sans-Serif" font-size="10.00">mcp2515_errorCountTX</text>
</a>
</g>
</g>
<!-- Node28&#45;&gt;Node30 -->
<g id="edge35_Node000028_Node000030" class="edge">
<title>Node28&#45;&gt;Node30</title>
<g id="a_edge35_Node000028_Node000030"><a xlink:title=" ">
<path fill="none" stroke="#63b8ff" d="M965.11,-314.27C947.63,-292.39 916.31,-257.56 881.25,-238.8 872.67,-234.21 863.06,-230.73 853.43,-228.09"/>
<polygon fill="#63b8ff" stroke="#63b8ff" points="962.31,-316.36 971.21,-322.1 967.83,-312.06 962.31,-316.36"/>
</a>
</g>
</g>
<!-- Node31 -->
<g id="Node000031" class="node">
<title>Node31</title>
<g id="a_Node000031"><a xlink:href="mcp2515_8c.html#ac3d500cb17c7da9f83aeb38c96e78a05" target="_top" xlink:title="Obtiene el estado de error de modulo can.">
<polygon fill="white" stroke="#666666" points="853.12,-77.8 733.62,-77.8 733.62,-57.8 853.12,-57.8 853.12,-77.8"/>
<text text-anchor="middle" x="793.38" y="-64.3" font-family="Helvetica,sans-Serif" font-size="10.00">mcp2515_getErrorFlags</text>
</a>
</g>
</g>
<!-- Node28&#45;&gt;Node31 -->
<g id="edge36_Node000028_Node000031" class="edge">
<title>Node28&#45;&gt;Node31</title>
<g id="a_edge36_Node000028_Node000031"><a xlink:title=" ">
<path fill="none" stroke="#63b8ff" d="M973.99,-312.33C958.99,-258.05 917.43,-117.48 881.25,-86.8 873.36,-80.11 863.65,-75.62 853.61,-72.63"/>
<polygon fill="#63b8ff" stroke="#63b8ff" points="970.58,-313.16 976.59,-321.89 977.34,-311.32 970.58,-313.16"/>
</a>
</g>
</g>
<!-- Node33 -->
<g id="Node000033" class="node">
<title>Node33</title>
<g id="a_Node000033"><a xlink:href="mcp2515_8c.html#a32b8237325cc18003a9482d90b3831e8" target="_top" xlink:title="Obtiene las interrupciones habilitadas desde el modulo can.">
<polygon fill="white" stroke="#666666" points="860.62,-343.8 726.12,-343.8 726.12,-323.8 860.62,-323.8 860.62,-343.8"/>
<text text-anchor="middle" x="793.38" y="-330.3" font-family="Helvetica,sans-Serif" font-size="10.00">mcp2515_getInterruptMask</text>
</a>
</g>
</g>
<!-- Node28&#45;&gt;Node33 -->
<g id="edge39_Node000028_Node000033" class="edge">
<title>Node28&#45;&gt;Node33</title>
<g id="a_edge39_Node000028_Node000033"><a xlink:title=" ">
<path fill="none" stroke="#63b8ff" d="M911.01,-333.8C894.68,-333.8 877.29,-333.8 861.06,-333.8"/>
<polygon fill="#63b8ff" stroke="#63b8ff" points="910.6,-337.3 920.6,-333.8 910.6,-330.3 910.6,-337.3"/>
</a>
</g>
</g>
<!-- Node34 -->
<g id="Node000034" class="node">
<title>Node34</title>
<g id="a_Node000034"><a xlink:href="mcp2515_8c.html#a7af7b4fa57705edc5690d743269bb412" target="_top" xlink:title="Obtiene las interrupciones del modulo can. Desde el registro de interrupt flags.">
<polygon fill="white" stroke="#666666" points="851.25,-305.8 735.5,-305.8 735.5,-285.8 851.25,-285.8 851.25,-305.8"/>
<text text-anchor="middle" x="793.38" y="-292.3" font-family="Helvetica,sans-Serif" font-size="10.00">mcp2515_getInterrupts</text>
</a>
</g>
</g>
<!-- Node28&#45;&gt;Node34 -->
<g id="edge40_Node000028_Node000034" class="edge">
<title>Node28&#45;&gt;Node34</title>
<g id="a_edge40_Node000028_Node000034"><a xlink:title=" ">
<path fill="none" stroke="#63b8ff" d="M917.37,-321.01C893.95,-316.21 867.62,-310.81 845.35,-306.25"/>
<polygon fill="#63b8ff" stroke="#63b8ff" points="916.62,-324.43 927.12,-323.01 918.03,-317.57 916.62,-324.43"/>
</a>
</g>
</g>
<!-- Node31&#45;&gt;Node9 -->
<g id="edge38_Node000031_Node000009" class="edge">
<title>Node31&#45;&gt;Node9</title>
<g id="a_edge38_Node000031_Node000009"><a xlink:title=" ">
<path fill="none" stroke="#63b8ff" d="M727.63,-80.45C702.91,-85.29 675.01,-90.74 651.45,-95.35"/>
<polygon fill="#63b8ff" stroke="#63b8ff" points="728.12,-83.93 737.26,-78.57 726.78,-77.06 728.12,-83.93"/>
</a>
</g>
</g>
<!-- Node32 -->
<g id="Node000032" class="node">
<title>Node32</title>
<g id="a_Node000032"><a xlink:href="mcp2515_8c.html#a8ceef1324ef15325f4a5826d5b58273b" target="_top" xlink:title="Chequea los errores informados desde el modulo.">
<polygon fill="white" stroke="#666666" points="651.12,-77.8 542.88,-77.8 542.88,-57.8 651.12,-57.8 651.12,-77.8"/>
<text text-anchor="middle" x="597" y="-64.3" font-family="Helvetica,sans-Serif" font-size="10.00">mcp2515_checkError</text>
</a>
</g>
</g>
<!-- Node31&#45;&gt;Node32 -->
<g id="edge37_Node000031_Node000032" class="edge">
<title>Node31&#45;&gt;Node32</title>
<g id="a_edge37_Node000031_Node000032"><a xlink:title=" ">
<path fill="none" stroke="#63b8ff" d="M722.05,-67.8C698.8,-67.8 673.32,-67.8 651.54,-67.8"/>
<polygon fill="#63b8ff" stroke="#63b8ff" points="721.75,-71.3 731.75,-67.8 721.75,-64.3 721.75,-71.3"/>
</a>
</g>
</g>
<!-- Node35&#45;&gt;Node11 -->
<g id="edge47_Node000035_Node000011" class="edge">
<title>Node35&#45;&gt;Node11</title>
<g id="a_edge47_Node000035_Node000011"><a xlink:title=" ">
<path fill="none" stroke="#63b8ff" d="M908.47,-658.56C893.74,-660.79 878.25,-663.13 863.59,-665.34"/>
<polygon fill="#63b8ff" stroke="#63b8ff" points="908.7,-662.07 918.07,-657.11 907.66,-655.15 908.7,-662.07"/>
</a>
</g>
</g>
<!-- Node36&#45;&gt;Node12 -->
<g id="edge52_Node000036_Node000012" class="edge">
<title>Node36&#45;&gt;Node12</title>
<g id="a_edge52_Node000036_Node000012"><a xlink:title=" ">
<path fill="none" stroke="#63b8ff" d="M913.57,-127.08C795.3,-131.62 556.94,-143.11 524.5,-162.8 498.88,-178.34 508.64,-197.61 488.5,-219.8 423.27,-291.67 325.11,-355.85 285.62,-380.31"/>
<polygon fill="#63b8ff" stroke="#63b8ff" points="913.6,-130.58 923.46,-126.7 913.33,-123.58 913.6,-130.58"/>
</a>
</g>
</g>
<!-- Node36&#45;&gt;Node21 -->
<g id="edge53_Node000036_Node000021" class="edge">
<title>Node36&#45;&gt;Node21</title>
<g id="a_edge53_Node000036_Node000021"><a xlink:title=" ">
<path fill="none" stroke="#63b8ff" d="M962.91,-106C944.85,-87.38 914.28,-60.06 881.25,-48.8 731.18,2.37 663.2,28.02 524.5,-48.8 467.58,-80.32 440.2,-161.68 432.06,-190.5"/>
<polygon fill="#63b8ff" stroke="#63b8ff" points="960.3,-108.33 969.69,-113.23 965.4,-103.54 960.3,-108.33"/>
</a>
</g>
</g>
<!-- Node37 -->
<g id="Node000037" class="node">
<title>Node37</title>
<g id="a_Node000037"><a xlink:href="mcp2515_8c.html#a584ccc859e4ab5430492f526cd77c0ed" target="_top" xlink:title="Limpia las banderas de interrupcion.">
<polygon fill="white" stroke="#666666" points="855,-115.8 731.75,-115.8 731.75,-95.8 855,-95.8 855,-115.8"/>
<text text-anchor="middle" x="793.38" y="-102.3" font-family="Helvetica,sans-Serif" font-size="10.00">mcp2515_clearInterrupts</text>
</a>
</g>
</g>
<!-- Node36&#45;&gt;Node37 -->
<g id="edge50_Node000036_Node000037" class="edge">
<title>Node36&#45;&gt;Node37</title>
<g id="a_edge50_Node000036_Node000037"><a xlink:title=" ">
<path fill="none" stroke="#63b8ff" d="M913.41,-118C894.51,-116.06 874.01,-113.96 855.44,-112.06"/>
<polygon fill="#63b8ff" stroke="#63b8ff" points="912.82,-121.46 923.13,-118.99 913.54,-114.49 912.82,-121.46"/>
</a>
</g>
</g>
<!-- Node37&#45;&gt;Node9 -->
<g id="edge51_Node000037_Node000009" class="edge">
<title>Node37&#45;&gt;Node9</title>
<g id="a_edge51_Node000037_Node000009"><a xlink:title=" ">
<path fill="none" stroke="#63b8ff" d="M720.12,-105.8C700.04,-105.8 678.45,-105.8 659.09,-105.8"/>
<polygon fill="#63b8ff" stroke="#63b8ff" points="719.89,-109.3 729.89,-105.8 719.89,-102.3 719.89,-109.3"/>
</a>
</g>
</g>
<!-- Node38&#45;&gt;Node12 -->
<g id="edge55_Node000038_Node000012" class="edge">
<title>Node38&#45;&gt;Node12</title>
<g id="a_edge55_Node000038_Node000012"><a xlink:title=" ">
<path fill="none" stroke="#63b8ff" d="M951.86,-596.67C932.68,-606.64 906.25,-618.58 881.25,-623.8 725.92,-656.22 671.13,-670.45 524.5,-609.8 407.15,-561.26 304.62,-437.65 276.11,-401.12"/>
<polygon fill="#63b8ff" stroke="#63b8ff" points="953.49,-599.77 960.65,-591.95 950.18,-593.6 953.49,-599.77"/>
</a>
</g>
</g>
<!-- Node38&#45;&gt;Node15 -->
<g id="edge56_Node000038_Node000015" class="edge">
<title>Node38&#45;&gt;Node15</title>
<g id="a_edge56_Node000038_Node000015"><a xlink:title=" ">
<path fill="none" stroke="#63b8ff" d="M968.19,-560.77C952.14,-534.83 920.56,-490.19 881.25,-466.8 875.41,-463.32 869.01,-460.48 862.42,-458.16"/>
<polygon fill="#63b8ff" stroke="#63b8ff" points="965,-562.25 973.15,-569.02 971,-558.64 965,-562.25"/>
</a>
</g>
</g>
<!-- Node38&#45;&gt;Node22 -->
<g id="edge57_Node000038_Node000022" class="edge">
<title>Node38&#45;&gt;Node22</title>
<g id="a_edge57_Node000038_Node000022"><a xlink:title=" ">
<path fill="none" stroke="#63b8ff" d="M929.89,-593.88C842.33,-614.02 657.61,-643.64 524.5,-575.8 473.93,-550.02 443.35,-483.45 433.18,-457.94"/>
<polygon fill="#63b8ff" stroke="#63b8ff" points="930.69,-597.29 939.61,-591.59 929.08,-590.48 930.69,-597.29"/>
</a>
</g>
</g>
<!-- Node38&#45;&gt;Node23 -->
<g id="edge58_Node000038_Node000023" class="edge">
<title>Node38&#45;&gt;Node23</title>
<g id="a_edge58_Node000038_Node000023"><a xlink:title=" ">
<path fill="none" stroke="#63b8ff" d="M911.12,-579.23C791.34,-575.89 553.99,-566.36 524.5,-542.8 482.99,-509.63 525.98,-466.46 488.5,-428.8 485.08,-425.36 481.03,-422.54 476.69,-420.23"/>
<polygon fill="#63b8ff" stroke="#63b8ff" points="910.73,-582.72 920.82,-579.49 910.92,-575.72 910.73,-582.72"/>
</a>
</g>
</g>
</g>
</svg>
