<?xml version="1.0" encoding="UTF-8" standalone="no"?>
<!DOCTYPE svg PUBLIC "-//W3C//DTD SVG 1.1//EN"
 "http://www.w3.org/Graphics/SVG/1.1/DTD/svg11.dtd">
<!-- Generated by graphviz version 12.2.1 (20241206.2353)
 -->
<!-- Title: mcp2515_checkError Pages: 1 -->
<svg width="512pt" height="66pt"
 viewBox="0.00 0.00 512.25 66.00" xmlns="http://www.w3.org/2000/svg" xmlns:xlink="http://www.w3.org/1999/xlink">
<g id="graph0" class="graph" transform="scale(1 1) rotate(0) translate(4 62)">
<title>mcp2515_checkError</title>
<!-- Node1 -->
<g id="Node000001" class="node">
<title>Node1</title>
<g id="a_Node000001"><a xlink:title="Chequea los errores informados desde el modulo.">
<polygon fill="#999999" stroke="#666666" points="108.25,-39 0,-39 0,-19 108.25,-19 108.25,-39"/>
<text text-anchor="middle" x="54.12" y="-25.5" font-family="Helvetica,sans-Serif" font-size="10.00">mcp2515_checkError</text>
</a>
</g>
</g>
<!-- Node2 -->
<g id="Node000002" class="node">
<title>Node2</title>
<g id="a_Node000002"><a xlink:href="mcp2515_8c.html#ac3d500cb17c7da9f83aeb38c96e78a05" target="_top" xlink:title="Obtiene el estado de error de modulo can.">
<polygon fill="white" stroke="#666666" points="263.75,-39 144.25,-39 144.25,-19 263.75,-19 263.75,-39"/>
<text text-anchor="middle" x="204" y="-25.5" font-family="Helvetica,sans-Serif" font-size="10.00">mcp2515_getErrorFlags</text>
</a>
</g>
</g>
<!-- Node1&#45;&gt;Node2 -->
<g id="edge1_Node000001_Node000002" class="edge">
<title>Node1&#45;&gt;Node2</title>
<g id="a_edge1_Node000001_Node000002"><a xlink:title=" ">
<path fill="none" stroke="#63b8ff" d="M108.51,-29C116.33,-29 124.48,-29 132.57,-29"/>
<polygon fill="#63b8ff" stroke="#63b8ff" points="132.42,-32.5 142.42,-29 132.42,-25.5 132.42,-32.5"/>
</a>
</g>
</g>
<!-- Node3 -->
<g id="Node000003" class="node">
<title>Node3</title>
<g id="a_Node000003"><a xlink:href="mcp2515_8c.html#a1dcd2d88901952184ce8297e1c5c6bf6" target="_top" xlink:title="Lee un solo registro a la vez.">
<polygon fill="white" stroke="#666666" points="416.25,-39 299.75,-39 299.75,-19 416.25,-19 416.25,-39"/>
<text text-anchor="middle" x="358" y="-25.5" font-family="Helvetica,sans-Serif" font-size="10.00">mcp2515_readRegister</text>
</a>
</g>
</g>
<!-- Node2&#45;&gt;Node3 -->
<g id="edge2_Node000002_Node000003" class="edge">
<title>Node2&#45;&gt;Node3</title>
<g id="a_edge2_Node000002_Node000003"><a xlink:title=" ">
<path fill="none" stroke="#63b8ff" d="M264.2,-29C272.13,-29 280.32,-29 288.4,-29"/>
<polygon fill="#63b8ff" stroke="#63b8ff" points="288.19,-32.5 298.19,-29 288.19,-25.5 288.19,-32.5"/>
</a>
</g>
</g>
<!-- Node4 -->
<g id="Node000004" class="node">
<title>Node4</title>
<g id="a_Node000004"><a xlink:href="mcp2515_8c.html#ae85a49925cc5c6fd1b15522434dc51ce" target="_top" xlink:title="Finaliza la comunicacion spi.">
<polygon fill="white" stroke="#666666" points="502.38,-58 454.12,-58 454.12,-38 502.38,-38 502.38,-58"/>
<text text-anchor="middle" x="478.25" y="-44.5" font-family="Helvetica,sans-Serif" font-size="10.00">endSPI</text>
</a>
</g>
</g>
<!-- Node3&#45;&gt;Node4 -->
<g id="edge3_Node000003_Node000004" class="edge">
<title>Node3&#45;&gt;Node4</title>
<g id="a_edge3_Node000003_Node000004"><a xlink:title=" ">
<path fill="none" stroke="#63b8ff" d="M416.74,-38.28C425.56,-39.7 434.43,-41.12 442.55,-42.42"/>
<polygon fill="#63b8ff" stroke="#63b8ff" points="441.89,-45.86 452.32,-43.99 443,-38.95 441.89,-45.86"/>
</a>
</g>
</g>
<!-- Node5 -->
<g id="Node000005" class="node">
<title>Node5</title>
<g id="a_Node000005"><a xlink:href="mcp2515_8c.html#afea997d2aa89cc2831bff10e34198bd8" target="_top" xlink:title="Funciones privadas.">
<polygon fill="white" stroke="#666666" points="504.25,-20 452.25,-20 452.25,0 504.25,0 504.25,-20"/>
<text text-anchor="middle" x="478.25" y="-6.5" font-family="Helvetica,sans-Serif" font-size="10.00">startSPI</text>
</a>
</g>
</g>
<!-- Node3&#45;&gt;Node5 -->
<g id="edge4_Node000003_Node000005" class="edge">
<title>Node3&#45;&gt;Node5</title>
<g id="a_edge4_Node000003_Node000005"><a xlink:title=" ">
<path fill="none" stroke="#63b8ff" d="M416.74,-19.72C424.82,-18.42 432.93,-17.12 440.48,-15.91"/>
<polygon fill="#63b8ff" stroke="#63b8ff" points="440.97,-19.38 450.28,-14.33 439.85,-12.46 440.97,-19.38"/>
</a>
</g>
</g>
</g>
</svg>
