<?xml version="1.0" encoding="UTF-8" standalone="no"?>
<!DOCTYPE svg PUBLIC "-//W3C//DTD SVG 1.1//EN"
 "http://www.w3.org/Graphics/SVG/1.1/DTD/svg11.dtd">
<!-- Generated by graphviz version 12.2.1 (20241206.2353)
 -->
<!-- Title: mcp2515_clearTXInterrupts Pages: 1 -->
<svg width="395pt" height="66pt"
 viewBox="0.00 0.00 395.00 66.00" xmlns="http://www.w3.org/2000/svg" xmlns:xlink="http://www.w3.org/1999/xlink">
<g id="graph0" class="graph" transform="scale(1 1) rotate(0) translate(4 62)">
<title>mcp2515_clearTXInterrupts</title>
<!-- Node1 -->
<g id="Node000001" class="node">
<title>Node1</title>
<g id="a_Node000001"><a xlink:title="Limpia las banderas de interrupcion de tx.">
<polygon fill="#999999" stroke="#666666" points="136,-39 0,-39 0,-19 136,-19 136,-39"/>
<text text-anchor="middle" x="68" y="-25.5" font-family="Helvetica,sans-Serif" font-size="10.00">mcp2515_clearTXInterrupts</text>
</a>
</g>
</g>
<!-- Node2 -->
<g id="Node000002" class="node">
<title>Node2</title>
<g id="a_Node000002"><a xlink:href="mcp2515_8c.html#ac3bc690a1b8ef1495f5fbb57eab28eaf" target="_top" xlink:title="Modifica un registro en particular.">
<polygon fill="white" stroke="#666666" points="299,-39 172,-39 172,-19 299,-19 299,-39"/>
<text text-anchor="middle" x="235.5" y="-25.5" font-family="Helvetica,sans-Serif" font-size="10.00">mcp2515_modifyRegister</text>
</a>
</g>
</g>
<!-- Node1&#45;&gt;Node2 -->
<g id="edge1_Node000001_Node000002" class="edge">
<title>Node1&#45;&gt;Node2</title>
<g id="a_edge1_Node000001_Node000002"><a xlink:title=" ">
<path fill="none" stroke="#63b8ff" d="M136.32,-29C144.13,-29 152.14,-29 160.04,-29"/>
<polygon fill="#63b8ff" stroke="#63b8ff" points="160,-32.5 170,-29 160,-25.5 160,-32.5"/>
</a>
</g>
</g>
<!-- Node3 -->
<g id="Node000003" class="node">
<title>Node3</title>
<g id="a_Node000003"><a xlink:href="mcp2515_8c.html#ae85a49925cc5c6fd1b15522434dc51ce" target="_top" xlink:title="Finaliza la comunicacion spi.">
<polygon fill="white" stroke="#666666" points="385.12,-58 336.88,-58 336.88,-38 385.12,-38 385.12,-58"/>
<text text-anchor="middle" x="361" y="-44.5" font-family="Helvetica,sans-Serif" font-size="10.00">endSPI</text>
</a>
</g>
</g>
<!-- Node2&#45;&gt;Node3 -->
<g id="edge2_Node000002_Node000003" class="edge">
<title>Node2&#45;&gt;Node3</title>
<g id="a_edge2_Node000002_Node000003"><a xlink:title=" ">
<path fill="none" stroke="#63b8ff" d="M299.34,-38.67C308.22,-40.03 317.08,-41.4 325.17,-42.64"/>
<polygon fill="#63b8ff" stroke="#63b8ff" points="324.48,-46.08 334.9,-44.14 325.54,-39.16 324.48,-46.08"/>
</a>
</g>
</g>
<!-- Node4 -->
<g id="Node000004" class="node">
<title>Node4</title>
<g id="a_Node000004"><a xlink:href="mcp2515_8c.html#afea997d2aa89cc2831bff10e34198bd8" target="_top" xlink:title="Funciones privadas.">
<polygon fill="white" stroke="#666666" points="387,-20 335,-20 335,0 387,0 387,-20"/>
<text text-anchor="middle" x="361" y="-6.5" font-family="Helvetica,sans-Serif" font-size="10.00">startSPI</text>
</a>
</g>
</g>
<!-- Node2&#45;&gt;Node4 -->
<g id="edge3_Node000002_Node000004" class="edge">
<title>Node2&#45;&gt;Node4</title>
<g id="a_edge3_Node000002_Node000004"><a xlink:title=" ">
<path fill="none" stroke="#63b8ff" d="M299.34,-19.33C307.55,-18.07 315.73,-16.81 323.31,-15.64"/>
<polygon fill="#63b8ff" stroke="#63b8ff" points="323.79,-19.11 333.15,-14.13 322.73,-12.19 323.79,-19.11"/>
</a>
</g>
</g>
</g>
</svg>
