<?xml version="1.0" encoding="UTF-8" standalone="no"?>
<!DOCTYPE svg PUBLIC "-//W3C//DTD SVG 1.1//EN"
 "http://www.w3.org/Graphics/SVG/1.1/DTD/svg11.dtd">
<!-- Generated by graphviz version 12.2.1 (20241206.2353)
 -->
<!-- Title: mcp2515_sendMessageWithBufferId Pages: 1 -->
<svg width="435pt" height="142pt"
 viewBox="0.00 0.00 434.75 142.00" xmlns="http://www.w3.org/2000/svg" xmlns:xlink="http://www.w3.org/1999/xlink">

<svg id="main" version="1.1" xmlns="http://www.w3.org/2000/svg" xmlns:xlink="http://www.w3.org/1999/xlink" xml:space="preserve">

<style type="text/css"><![CDATA[
.node, .edge {opacity: 0.7;}
.node.selected, .edge.selected {opacity: 1;}
.edge:hover path { stroke: red; }
.edge:hover polygon { stroke: red; fill: red; }
]]></style>
<script type="application/ecmascript" xlink:href="svg.min.js"/>
<svg id="graph" class="graph">
<g id="graph0" class="graph" transform="scale(1 1) rotate(0) translate(4 138)">
<title>mcp2515_sendMessageWithBufferId</title>
<!-- Node1 -->
<g id="Node000001" class="node">
<title>Node1</title>
<g id="a_Node000001"><a xlink:title="Envio de mensaje con el buffer.">
<polygon fill="#999999" stroke="#666666" points="175.75,-77 0,-77 0,-57 175.75,-57 175.75,-77"/>
<text text-anchor="middle" x="87.88" y="-63.5" font-family="Helvetica,sans-Serif" font-size="10.00">mcp2515_sendMessageWithBufferId</text>
</a>
</g>
</g>
<!-- Node2 -->
<g id="Node000002" class="node">
<title>Node2</title>
<g id="a_Node000002"><a xlink:href="mcp2515_8c.html#ac3bc690a1b8ef1495f5fbb57eab28eaf" target="_top" xlink:title="Modifica un registro en particular.">
<polygon fill="white" stroke="#666666" points="338.75,-134 211.75,-134 211.75,-114 338.75,-114 338.75,-134"/>
<text text-anchor="middle" x="275.25" y="-120.5" font-family="Helvetica,sans-Serif" font-size="10.00">mcp2515_modifyRegister</text>
</a>
</g>
</g>
<!-- Node1&#45;&gt;Node2 -->
<g id="edge1_Node000001_Node000002" class="edge">
<title>Node1&#45;&gt;Node2</title>
<g id="a_edge1_Node000001_Node000002"><a xlink:title=" ">
<path fill="none" stroke="#63b8ff" d="M122.5,-77.45C147.19,-85.1 181.54,-95.74 211.75,-105 217.3,-106.7 223.13,-108.48 228.9,-110.24"/>
<polygon fill="#63b8ff" stroke="#63b8ff" points="227.82,-113.57 238.41,-113.14 229.86,-106.88 227.82,-113.57"/>
</a>
</g>
</g>
<!-- Node5 -->
<g id="Node000005" class="node">
<title>Node5</title>
<g id="a_Node000005"><a xlink:href="mcp2515_8c.html#aed2f12d8207c7b34f82733dbccdb3c76" target="_top" xlink:title="Configura el id para una accion en particular.">
<polygon fill="white" stroke="#666666" points="326,-20 224.5,-20 224.5,0 326,0 326,-20"/>
<text text-anchor="middle" x="275.25" y="-6.5" font-family="Helvetica,sans-Serif" font-size="10.00">mcp2515_prepareId</text>
</a>
</g>
</g>
<!-- Node1&#45;&gt;Node5 -->
<g id="edge4_Node000001_Node000005" class="edge">
<title>Node1&#45;&gt;Node5</title>
<g id="a_edge4_Node000001_Node000005"><a xlink:title=" ">
<path fill="none" stroke="#63b8ff" d="M122.5,-56.55C147.19,-48.9 181.54,-38.26 211.75,-29 217.3,-27.3 223.13,-25.52 228.9,-23.76"/>
<polygon fill="#63b8ff" stroke="#63b8ff" points="229.86,-27.12 238.41,-20.86 227.82,-20.43 229.86,-27.12"/>
</a>
</g>
</g>
<!-- Node6 -->
<g id="Node000006" class="node">
<title>Node6</title>
<g id="a_Node000006"><a xlink:href="mcp2515_8c.html#a1dcd2d88901952184ce8297e1c5c6bf6" target="_top" xlink:title="Lee un solo registro a la vez.">
<polygon fill="white" stroke="#666666" points="333.5,-96 217,-96 217,-76 333.5,-76 333.5,-96"/>
<text text-anchor="middle" x="275.25" y="-82.5" font-family="Helvetica,sans-Serif" font-size="10.00">mcp2515_readRegister</text>
</a>
</g>
</g>
<!-- Node1&#45;&gt;Node6 -->
<g id="edge5_Node000001_Node000006" class="edge">
<title>Node1&#45;&gt;Node6</title>
<g id="a_edge5_Node000001_Node000006"><a xlink:title=" ">
<path fill="none" stroke="#63b8ff" d="M176.13,-75.94C185.88,-76.94 195.71,-77.95 205.18,-78.92"/>
<polygon fill="#63b8ff" stroke="#63b8ff" points="204.73,-82.39 215.03,-79.93 205.44,-75.43 204.73,-82.39"/>
</a>
</g>
</g>
<!-- Node7 -->
<g id="Node000007" class="node">
<title>Node7</title>
<g id="a_Node000007"><a xlink:href="mcp2515_8c.html#a06105d6f139b5a81ffc4650b634f9cfe" target="_top" xlink:title="Setea multiples registros.">
<polygon fill="white" stroke="#666666" points="333.5,-58 217,-58 217,-38 333.5,-38 333.5,-58"/>
<text text-anchor="middle" x="275.25" y="-44.5" font-family="Helvetica,sans-Serif" font-size="10.00">mcp2515_setRegisters</text>
</a>
</g>
</g>
<!-- Node1&#45;&gt;Node7 -->
<g id="edge8_Node000001_Node000007" class="edge">
<title>Node1&#45;&gt;Node7</title>
<g id="a_edge8_Node000001_Node000007"><a xlink:title=" ">
<path fill="none" stroke="#63b8ff" d="M176.13,-58.06C185.88,-57.06 195.71,-56.05 205.18,-55.08"/>
<polygon fill="#63b8ff" stroke="#63b8ff" points="205.44,-58.57 215.03,-54.07 204.73,-51.61 205.44,-58.57"/>
</a>
</g>
</g>
<!-- Node3 -->
<g id="Node000003" class="node">
<title>Node3</title>
<g id="a_Node000003"><a xlink:href="mcp2515_8c.html#ae85a49925cc5c6fd1b15522434dc51ce" target="_top" xlink:title="Finaliza la comunicacion spi.">
<polygon fill="white" stroke="#666666" points="424.88,-115 376.62,-115 376.62,-95 424.88,-95 424.88,-115"/>
<text text-anchor="middle" x="400.75" y="-101.5" font-family="Helvetica,sans-Serif" font-size="10.00">endSPI</text>
</a>
</g>
</g>
<!-- Node2&#45;&gt;Node3 -->
<g id="edge2_Node000002_Node000003" class="edge">
<title>Node2&#45;&gt;Node3</title>
<g id="a_edge2_Node000002_Node000003"><a xlink:title=" ">
<path fill="none" stroke="#63b8ff" d="M339.09,-114.33C347.97,-112.97 356.83,-111.6 364.92,-110.36"/>
<polygon fill="#63b8ff" stroke="#63b8ff" points="365.29,-113.84 374.65,-108.86 364.23,-106.92 365.29,-113.84"/>
</a>
</g>
</g>
<!-- Node4 -->
<g id="Node000004" class="node">
<title>Node4</title>
<g id="a_Node000004"><a xlink:href="mcp2515_8c.html#afea997d2aa89cc2831bff10e34198bd8" target="_top" xlink:title="Funciones privadas.">
<polygon fill="white" stroke="#666666" points="426.75,-77 374.75,-77 374.75,-57 426.75,-57 426.75,-77"/>
<text text-anchor="middle" x="400.75" y="-63.5" font-family="Helvetica,sans-Serif" font-size="10.00">startSPI</text>
</a>
</g>
</g>
<!-- Node2&#45;&gt;Node4 -->
<g id="edge3_Node000002_Node000004" class="edge">
<title>Node2&#45;&gt;Node4</title>
<g id="a_edge3_Node000002_Node000004"><a xlink:title=" ">
<path fill="none" stroke="#63b8ff" d="M316.17,-113.57C323.8,-111.11 331.62,-108.23 338.75,-105 351.8,-99.08 365.42,-90.82 376.47,-83.52"/>
<polygon fill="#63b8ff" stroke="#63b8ff" points="378.25,-86.54 384.55,-78.02 374.31,-80.75 378.25,-86.54"/>
</a>
</g>
</g>
<!-- Node6&#45;&gt;Node3 -->
<g id="edge6_Node000006_Node000003" class="edge">
<title>Node6&#45;&gt;Node3</title>
<g id="a_edge6_Node000006_Node000003"><a xlink:title=" ">
<path fill="none" stroke="#63b8ff" d="M333.66,-94.83C344.41,-96.49 355.33,-98.17 365.12,-99.67"/>
<polygon fill="#63b8ff" stroke="#63b8ff" points="364.5,-103.12 374.92,-101.18 365.56,-96.2 364.5,-103.12"/>
</a>
</g>
</g>
<!-- Node6&#45;&gt;Node4 -->
<g id="edge7_Node000006_Node000004" class="edge">
<title>Node6&#45;&gt;Node4</title>
<g id="a_edge7_Node000006_Node000004"><a xlink:title=" ">
<path fill="none" stroke="#63b8ff" d="M333.66,-77.17C343.76,-75.61 354.01,-74.04 363.34,-72.6"/>
<polygon fill="#63b8ff" stroke="#63b8ff" points="363.72,-76.09 373.07,-71.11 362.65,-69.17 363.72,-76.09"/>
</a>
</g>
</g>
<!-- Node7&#45;&gt;Node3 -->
<g id="edge9_Node000007_Node000003" class="edge">
<title>Node7&#45;&gt;Node3</title>
<g id="a_edge9_Node000007_Node000003"><a xlink:title=" ">
<path fill="none" stroke="#63b8ff" d="M316.17,-58.43C323.8,-60.89 331.62,-63.77 338.75,-67 351.8,-72.92 365.42,-81.18 376.47,-88.48"/>
<polygon fill="#63b8ff" stroke="#63b8ff" points="374.31,-91.25 384.55,-93.98 378.25,-85.46 374.31,-91.25"/>
</a>
</g>
</g>
<!-- Node7&#45;&gt;Node4 -->
<g id="edge10_Node000007_Node000004" class="edge">
<title>Node7&#45;&gt;Node4</title>
<g id="a_edge10_Node000007_Node000004"><a xlink:title=" ">
<path fill="none" stroke="#63b8ff" d="M333.66,-56.83C343.76,-58.39 354.01,-59.96 363.34,-61.4"/>
<polygon fill="#63b8ff" stroke="#63b8ff" points="362.65,-64.83 373.07,-62.89 363.72,-57.91 362.65,-64.83"/>
</a>
</g>
</g>
</g>
</svg>
</svg>

<style type='text/css'>
<![CDATA[
[data-mouse-over-selected='false'] { opacity: 0.7; }
[data-mouse-over-selected='true']  { opacity: 1.0; }
]]>
</style>
<script type="application/ecmascript"><![CDATA[
document.addEventListener('DOMContentLoaded', (event) => {
  highlightEdges();
  highlightAdjacentNodes();
});
]]></script>
</svg>
