<?xml version="1.0" encoding="UTF-8" standalone="no"?>
<!DOCTYPE svg PUBLIC "-//W3C//DTD SVG 1.1//EN"
 "http://www.w3.org/Graphics/SVG/1.1/DTD/svg11.dtd">
<!-- Generated by graphviz version 12.2.1 (20241206.2353)
 -->
<!-- Title: mcp2515_modifyRegister Pages: 1 -->
<svg width="1052pt" height="397pt"
 viewBox="0.00 0.00 1052.25 396.75" xmlns="http://www.w3.org/2000/svg" xmlns:xlink="http://www.w3.org/1999/xlink">
<g id="graph0" class="graph" transform="scale(1 1) rotate(0) translate(4 392.75)">
<title>mcp2515_modifyRegister</title>
<!-- Node1 -->
<g id="Node000001" class="node">
<title>Node1</title>
<g id="a_Node000001"><a xlink:title="Modifica un registro en particular.">
<polygon fill="#999999" stroke="#666666" points="1044.25,-236.75 917.25,-236.75 917.25,-216.75 1044.25,-216.75 1044.25,-236.75"/>
<text text-anchor="middle" x="980.75" y="-223.25" font-family="Helvetica,sans-Serif" font-size="10.00">mcp2515_modifyRegister</text>
</a>
</g>
</g>
<!-- Node2 -->
<g id="Node000002" class="node">
<title>Node2</title>
<g id="a_Node000002"><a xlink:href="mcp2515_8c.html#a29c3f045ae54f41059e8b85009cb1b87" target="_top" xlink:title="Limpia la bandera de errif.">
<polygon fill="white" stroke="#666666" points="849.75,-388.75 737,-388.75 737,-368.75 849.75,-368.75 849.75,-388.75"/>
<text text-anchor="middle" x="793.38" y="-375.25" font-family="Helvetica,sans-Serif" font-size="10.00">mcp2515_clearERRIF</text>
</a>
</g>
</g>
<!-- Node1&#45;&gt;Node2 -->
<g id="edge1_Node000001_Node000002" class="edge">
<title>Node1&#45;&gt;Node2</title>
<g id="a_edge1_Node000001_Node000002"><a xlink:title=" ">
<path fill="none" stroke="#63b8ff" d="M970.56,-247.09C956.04,-276.78 924.89,-331.51 881.25,-359.75 871.92,-365.79 860.96,-369.93 850.04,-372.77"/>
<polygon fill="#63b8ff" stroke="#63b8ff" points="973.55,-248.95 974.65,-238.41 967.22,-245.96 973.55,-248.95"/>
</a>
</g>
</g>
<!-- Node3 -->
<g id="Node000003" class="node">
<title>Node3</title>
<g id="a_Node000003"><a xlink:href="mcp2515_8c.html#a8e585c2aec2c8e21b9d8a57e2a7be2ac" target="_top" xlink:title="Limpia la bandera de merr.">
<polygon fill="white" stroke="#666666" points="849.38,-350.75 737.38,-350.75 737.38,-330.75 849.38,-330.75 849.38,-350.75"/>
<text text-anchor="middle" x="793.38" y="-337.25" font-family="Helvetica,sans-Serif" font-size="10.00">mcp2515_clearMERR</text>
</a>
</g>
</g>
<!-- Node1&#45;&gt;Node3 -->
<g id="edge2_Node000001_Node000003" class="edge">
<title>Node1&#45;&gt;Node3</title>
<g id="a_edge2_Node000001_Node000003"><a xlink:title=" ">
<path fill="none" stroke="#63b8ff" d="M965.11,-246.28C947.63,-268.16 916.31,-302.99 881.25,-321.75 871.58,-326.92 860.6,-330.69 849.77,-333.43"/>
<polygon fill="#63b8ff" stroke="#63b8ff" points="967.83,-248.49 971.21,-238.44 962.31,-244.19 967.83,-248.49"/>
</a>
</g>
</g>
<!-- Node4 -->
<g id="Node000004" class="node">
<title>Node4</title>
<g id="a_Node000004"><a xlink:href="mcp2515_8c.html#ae96902bcbdb6e764a65cbe35f942dd7a" target="_top" xlink:title="Limpia la bandera de overflow de los buffer de rx.">
<polygon fill="white" stroke="#666666" points="867,-312.75 719.75,-312.75 719.75,-292.75 867,-292.75 867,-312.75"/>
<text text-anchor="middle" x="793.38" y="-299.25" font-family="Helvetica,sans-Serif" font-size="10.00">mcp2515_clearRXnOVRFlags</text>
</a>
</g>
</g>
<!-- Node1&#45;&gt;Node4 -->
<g id="edge3_Node000001_Node000004" class="edge">
<title>Node1&#45;&gt;Node4</title>
<g id="a_edge3_Node000001_Node000004"><a xlink:title=" ">
<path fill="none" stroke="#63b8ff" d="M955.64,-243.55C936.32,-256.3 908.11,-273.34 881.25,-283.75 872.61,-287.1 863.25,-289.92 853.98,-292.28"/>
<polygon fill="#63b8ff" stroke="#63b8ff" points="957.53,-246.5 963.87,-238.01 953.62,-240.69 957.53,-246.5"/>
</a>
</g>
</g>
<!-- Node6 -->
<g id="Node000006" class="node">
<title>Node6</title>
<g id="a_Node000006"><a xlink:href="mcp2515_8c.html#a71b19c089b2853a6f8615d64a3991e3d" target="_top" xlink:title="Limpia las banderas de interrupcion de tx.">
<polygon fill="white" stroke="#666666" points="861.38,-274.75 725.38,-274.75 725.38,-254.75 861.38,-254.75 861.38,-274.75"/>
<text text-anchor="middle" x="793.38" y="-261.25" font-family="Helvetica,sans-Serif" font-size="10.00">mcp2515_clearTXInterrupts</text>
</a>
</g>
</g>
<!-- Node1&#45;&gt;Node6 -->
<g id="edge5_Node000001_Node000006" class="edge">
<title>Node1&#45;&gt;Node6</title>
<g id="a_edge5_Node000001_Node000006"><a xlink:title=" ">
<path fill="none" stroke="#63b8ff" d="M917.37,-239.54C893.95,-244.34 867.62,-249.74 845.35,-254.3"/>
<polygon fill="#63b8ff" stroke="#63b8ff" points="918.03,-242.98 927.12,-237.54 916.62,-236.12 918.03,-242.98"/>
</a>
</g>
</g>
<!-- Node7 -->
<g id="Node000007" class="node">
<title>Node7</title>
<g id="a_Node000007"><a xlink:href="mcp2515_8c.html#a5a56a5809b74e255e306caa97853dd13" target="_top" xlink:title="Lee mensaje con el buffer indicado.">
<polygon fill="white" stroke="#666666" points="880.12,-236.75 706.62,-236.75 706.62,-216.75 880.12,-216.75 880.12,-236.75"/>
<text text-anchor="middle" x="793.38" y="-223.25" font-family="Helvetica,sans-Serif" font-size="10.00">mcp2515_readMessageWithBufferId</text>
</a>
</g>
</g>
<!-- Node1&#45;&gt;Node7 -->
<g id="edge6_Node000001_Node000007" class="edge">
<title>Node1&#45;&gt;Node7</title>
<g id="a_edge6_Node000001_Node000007"><a xlink:title=" ">
<path fill="none" stroke="#63b8ff" d="M905.49,-226.75C897.24,-226.75 888.79,-226.75 880.41,-226.75"/>
<polygon fill="#63b8ff" stroke="#63b8ff" points="905.48,-230.25 915.48,-226.75 905.48,-223.25 905.48,-230.25"/>
</a>
</g>
</g>
<!-- Node9 -->
<g id="Node000009" class="node">
<title>Node9</title>
<g id="a_Node000009"><a xlink:href="mcp2515_8c.html#a21cb40a7513567cb455ce296ef0bbe4b" target="_top" xlink:title="Resetea el modulo.">
<polygon fill="white" stroke="#666666" points="308.62,-65.75 225.88,-65.75 225.88,-45.75 308.62,-45.75 308.62,-65.75"/>
<text text-anchor="middle" x="267.25" y="-52.25" font-family="Helvetica,sans-Serif" font-size="10.00">mcp2515_reset</text>
</a>
</g>
</g>
<!-- Node1&#45;&gt;Node9 -->
<g id="edge8_Node000001_Node000009" class="edge">
<title>Node1&#45;&gt;Node9</title>
<g id="a_edge8_Node000001_Node000009"><a xlink:title=" ">
<path fill="none" stroke="#63b8ff" d="M969.64,-206.32C954.32,-177.35 922.58,-124.46 881.25,-93.75 800.99,-34.12 768.01,-34.89 669.5,-17.75 537.59,5.2 499.94,6.43 368.25,-17.75 339.75,-22.98 308.85,-35.95 289.06,-45.28"/>
<polygon fill="#63b8ff" stroke="#63b8ff" points="966.48,-207.84 974.16,-215.14 972.71,-204.64 966.48,-207.84"/>
</a>
</g>
</g>
<!-- Node12 -->
<g id="Node000012" class="node">
<title>Node12</title>
<g id="a_Node000012"><a xlink:href="mcp2515_8c.html#a4733cdbc41bfeb798df55ab500ba76ee" target="_top" xlink:title="Envio de mensaje con el buffer.">
<polygon fill="white" stroke="#666666" points="881.25,-198.75 705.5,-198.75 705.5,-178.75 881.25,-178.75 881.25,-198.75"/>
<text text-anchor="middle" x="793.38" y="-185.25" font-family="Helvetica,sans-Serif" font-size="10.00">mcp2515_sendMessageWithBufferId</text>
</a>
</g>
</g>
<!-- Node1&#45;&gt;Node12 -->
<g id="edge11_Node000001_Node000012" class="edge">
<title>Node1&#45;&gt;Node12</title>
<g id="a_edge11_Node000001_Node000012"><a xlink:title=" ">
<path fill="none" stroke="#63b8ff" d="M917.37,-213.96C893.95,-209.16 867.62,-203.77 845.35,-199.2"/>
<polygon fill="#63b8ff" stroke="#63b8ff" points="916.62,-217.38 927.12,-215.96 918.03,-210.53 916.62,-217.38"/>
</a>
</g>
</g>
<!-- Node15 -->
<g id="Node000015" class="node">
<title>Node15</title>
<g id="a_Node000015"><a xlink:href="mcp2515_8c.html#a0838ae4e7ae0ec6c7fe78138350c3b11" target="_top" xlink:title="Hay que ver que hace.">
<polygon fill="white" stroke="#666666" points="846,-122.75 740.75,-122.75 740.75,-102.75 846,-102.75 846,-122.75"/>
<text text-anchor="middle" x="793.38" y="-109.25" font-family="Helvetica,sans-Serif" font-size="10.00">mcp2515_setClkOut</text>
</a>
</g>
</g>
<!-- Node1&#45;&gt;Node15 -->
<g id="edge15_Node000001_Node000015" class="edge">
<title>Node1&#45;&gt;Node15</title>
<g id="a_edge15_Node000001_Node000015"><a xlink:title=" ">
<path fill="none" stroke="#63b8ff" d="M965.11,-207.22C947.63,-185.35 916.31,-150.51 881.25,-131.75 870.5,-126 858.11,-121.98 846.11,-119.19"/>
<polygon fill="#63b8ff" stroke="#63b8ff" points="962.31,-209.31 971.21,-215.06 967.83,-205.02 962.31,-209.31"/>
</a>
</g>
</g>
<!-- Node16 -->
<g id="Node000016" class="node">
<title>Node16</title>
<g id="a_Node000016"><a xlink:href="mcp2515_8c.html#aa8f4e44a2081362f25ff79e24d4bf6cb" target="_top" xlink:title="Seteado el modo de trabajo.">
<polygon fill="white" stroke="#666666" points="842.62,-160.75 744.12,-160.75 744.12,-140.75 842.62,-140.75 842.62,-160.75"/>
<text text-anchor="middle" x="793.38" y="-147.25" font-family="Helvetica,sans-Serif" font-size="10.00">mcp2515_setMode</text>
</a>
</g>
</g>
<!-- Node1&#45;&gt;Node16 -->
<g id="edge16_Node000001_Node000016" class="edge">
<title>Node1&#45;&gt;Node16</title>
<g id="a_edge16_Node000001_Node000016"><a xlink:title=" ">
<path fill="none" stroke="#63b8ff" d="M955.64,-209.95C936.32,-197.21 908.11,-180.17 881.25,-169.75 869.16,-165.06 855.65,-161.4 842.95,-158.61"/>
<polygon fill="#63b8ff" stroke="#63b8ff" points="953.62,-212.81 963.87,-215.49 957.53,-207 953.62,-212.81"/>
</a>
</g>
</g>
<!-- Node5 -->
<g id="Node000005" class="node">
<title>Node5</title>
<g id="a_Node000005"><a xlink:href="mcp2515_8c.html#aeb679de4c34c365123f989fab92b9b71" target="_top" xlink:title="Limpia la bandera de overflow de los buffers de rx.">
<polygon fill="white" stroke="#666666" points="658.62,-312.75 535.38,-312.75 535.38,-292.75 658.62,-292.75 658.62,-312.75"/>
<text text-anchor="middle" x="597" y="-299.25" font-family="Helvetica,sans-Serif" font-size="10.00">mcp2515_clearRXnOVR</text>
</a>
</g>
</g>
<!-- Node4&#45;&gt;Node5 -->
<g id="edge4_Node000004_Node000005" class="edge">
<title>Node4&#45;&gt;Node5</title>
<g id="a_edge4_Node000004_Node000005"><a xlink:title=" ">
<path fill="none" stroke="#63b8ff" d="M708.1,-302.75C691.57,-302.75 674.54,-302.75 658.95,-302.75"/>
<polygon fill="#63b8ff" stroke="#63b8ff" points="707.93,-306.25 717.93,-302.75 707.93,-299.25 707.93,-306.25"/>
</a>
</g>
</g>
<!-- Node8 -->
<g id="Node000008" class="node">
<title>Node8</title>
<g id="a_Node000008"><a xlink:href="mcp2515_8c.html#a98f361e58e9c16ec15a1469172a80547" target="_top" xlink:title="Lee mensajes tipo CAN.">
<polygon fill="white" stroke="#666666" points="656.75,-274.75 537.25,-274.75 537.25,-254.75 656.75,-254.75 656.75,-274.75"/>
<text text-anchor="middle" x="597" y="-261.25" font-family="Helvetica,sans-Serif" font-size="10.00">mcp2515_readMessage</text>
</a>
</g>
</g>
<!-- Node7&#45;&gt;Node8 -->
<g id="edge7_Node000007_Node000008" class="edge">
<title>Node7&#45;&gt;Node8</title>
<g id="a_edge7_Node000007_Node000008"><a xlink:title=" ">
<path fill="none" stroke="#63b8ff" d="M727.63,-239.41C702.91,-244.24 675.01,-249.69 651.45,-254.3"/>
<polygon fill="#63b8ff" stroke="#63b8ff" points="728.12,-242.88 737.26,-237.53 726.78,-236.01 728.12,-242.88"/>
</a>
</g>
</g>
<!-- Node10 -->
<g id="Node000010" class="node">
<title>Node10</title>
<g id="a_Node000010"><a xlink:href="main_8c.html#a3df11f7015b4a015c6b468941125de20" target="_top" xlink:title="Inicializacion de perifericos.">
<polygon fill="white" stroke="#666666" points="159.12,-171.75 80.12,-171.75 80.12,-151.75 159.12,-151.75 159.12,-171.75"/>
<text text-anchor="middle" x="119.62" y="-158.25" font-family="Helvetica,sans-Serif" font-size="10.00">perifericos_init</text>
</a>
</g>
</g>
<!-- Node9&#45;&gt;Node10 -->
<g id="edge9_Node000009_Node000010" class="edge">
<title>Node9&#45;&gt;Node10</title>
<g id="a_edge9_Node000009_Node000010"><a xlink:title=" ">
<path fill="none" stroke="#63b8ff" d="M242.94,-72.72C212.4,-94.95 159.77,-133.26 134.7,-151.51"/>
<polygon fill="#63b8ff" stroke="#63b8ff" points="244.77,-75.71 250.8,-67 240.65,-70.05 244.77,-75.71"/>
</a>
</g>
</g>
<!-- Node11 -->
<g id="Node000011" class="node">
<title>Node11</title>
<g id="a_Node000011"><a xlink:href="main_8c.html#a840291bc02cba5474a4cb46a9b9566fe" target="_top" xlink:title="Main.">
<polygon fill="white" stroke="#666666" points="37,-190.75 0,-190.75 0,-170.75 37,-170.75 37,-190.75"/>
<text text-anchor="middle" x="18.5" y="-177.25" font-family="Helvetica,sans-Serif" font-size="10.00">main</text>
</a>
</g>
</g>
<!-- Node10&#45;&gt;Node11 -->
<g id="edge10_Node000010_Node000011" class="edge">
<title>Node10&#45;&gt;Node11</title>
<g id="a_edge10_Node000010_Node000011"><a xlink:title=" ">
<path fill="none" stroke="#63b8ff" d="M68.59,-171.34C57.37,-173.49 46.19,-175.64 37.33,-177.33"/>
<polygon fill="#63b8ff" stroke="#63b8ff" points="69.08,-174.81 78.25,-169.49 67.77,-167.94 69.08,-174.81"/>
</a>
</g>
</g>
<!-- Node13 -->
<g id="Node000013" class="node">
<title>Node13</title>
<g id="a_Node000013"><a xlink:href="mcp2515_8c.html#a4139b924c04d5aa72c132ccd16f05437" target="_top" xlink:title="Envio de mensaje.">
<polygon fill="white" stroke="#666666" points="657.88,-236.75 536.12,-236.75 536.12,-216.75 657.88,-216.75 657.88,-236.75"/>
<text text-anchor="middle" x="597" y="-223.25" font-family="Helvetica,sans-Serif" font-size="10.00">mcp2515_sendMessage</text>
</a>
</g>
</g>
<!-- Node12&#45;&gt;Node13 -->
<g id="edge12_Node000012_Node000013" class="edge">
<title>Node12&#45;&gt;Node13</title>
<g id="a_edge12_Node000012_Node000013"><a xlink:title=" ">
<path fill="none" stroke="#63b8ff" d="M727.63,-201.41C702.91,-206.24 675.01,-211.69 651.45,-216.3"/>
<polygon fill="#63b8ff" stroke="#63b8ff" points="728.12,-204.88 737.26,-199.53 726.78,-198.01 728.12,-204.88"/>
</a>
</g>
</g>
<!-- Node14 -->
<g id="Node000014" class="node">
<title>Node14</title>
<g id="a_Node000014"><a xlink:href="main_8c.html#ae3697afe652e8273e37aac8f55c48276" target="_top" xlink:title="Escritura de mensajes tipo CAN.">
<polygon fill="white" stroke="#666666" points="166.25,-222.75 73,-222.75 73,-202.75 166.25,-202.75 166.25,-222.75"/>
<text text-anchor="middle" x="119.62" y="-209.25" font-family="Helvetica,sans-Serif" font-size="10.00">canmsg_escritura</text>
</a>
</g>
</g>
<!-- Node13&#45;&gt;Node14 -->
<g id="edge13_Node000013_Node000014" class="edge">
<title>Node13&#45;&gt;Node14</title>
<g id="a_edge13_Node000013_Node000014"><a xlink:title=" ">
<path fill="none" stroke="#63b8ff" d="M524.41,-224.64C425.41,-221.73 249.55,-216.55 166.49,-214.1"/>
<polygon fill="#63b8ff" stroke="#63b8ff" points="524.18,-228.14 534.28,-224.93 524.39,-221.14 524.18,-228.14"/>
</a>
</g>
</g>
<!-- Node14&#45;&gt;Node11 -->
<g id="edge14_Node000014_Node000011" class="edge">
<title>Node14&#45;&gt;Node11</title>
<g id="a_edge14_Node000014_Node000011"><a xlink:title=" ">
<path fill="none" stroke="#63b8ff" d="M75.58,-198.86C62.11,-194.51 47.98,-189.95 37.28,-186.49"/>
<polygon fill="#63b8ff" stroke="#63b8ff" points="74.14,-202.07 84.73,-201.81 76.29,-195.4 74.14,-202.07"/>
</a>
</g>
</g>
<!-- Node17 -->
<g id="Node000017" class="node">
<title>Node17</title>
<g id="a_Node000017"><a xlink:href="mcp2515_8c.html#a0a1c3cc8b486dbd55ff9d2d011694fa6" target="_top" xlink:title="Setea el modo de configuracion.">
<polygon fill="white" stroke="#666666" points="660.5,-46.75 533.5,-46.75 533.5,-26.75 660.5,-26.75 660.5,-46.75"/>
<text text-anchor="middle" x="597" y="-33.25" font-family="Helvetica,sans-Serif" font-size="10.00">mcp2515_setConfigMode</text>
</a>
</g>
</g>
<!-- Node16&#45;&gt;Node17 -->
<g id="edge17_Node000016_Node000017" class="edge">
<title>Node16&#45;&gt;Node17</title>
<g id="a_edge17_Node000016_Node000017"><a xlink:title=" ">
<path fill="none" stroke="#63b8ff" d="M732.75,-145.29C722.93,-142.35 713.4,-138.03 705.5,-131.75 676.25,-108.49 698.23,-79.66 669.5,-55.75 665.35,-52.3 660.64,-49.47 655.67,-47.15"/>
<polygon fill="#63b8ff" stroke="#63b8ff" points="731.86,-148.67 742.41,-147.69 733.55,-141.88 731.86,-148.67"/>
</a>
</g>
</g>
<!-- Node21 -->
<g id="Node000021" class="node">
<title>Node21</title>
<g id="a_Node000021"><a xlink:href="mcp2515_8c.html#a24629fc99e83c9f097a0d24629dcae79" target="_top" xlink:title="Setea el modo de solo escucha.">
<polygon fill="white" stroke="#666666" points="669.5,-160.75 524.5,-160.75 524.5,-140.75 669.5,-140.75 669.5,-160.75"/>
<text text-anchor="middle" x="597" y="-147.25" font-family="Helvetica,sans-Serif" font-size="10.00">mcp2515_setListenOnlyMode</text>
</a>
</g>
</g>
<!-- Node16&#45;&gt;Node21 -->
<g id="edge24_Node000016_Node000021" class="edge">
<title>Node16&#45;&gt;Node21</title>
<g id="a_edge24_Node000016_Node000021"><a xlink:title=" ">
<path fill="none" stroke="#63b8ff" d="M732.47,-150.75C712.65,-150.75 690.39,-150.75 669.78,-150.75"/>
<polygon fill="#63b8ff" stroke="#63b8ff" points="732.31,-154.25 742.31,-150.75 732.31,-147.25 732.31,-154.25"/>
</a>
</g>
</g>
<!-- Node22 -->
<g id="Node000022" class="node">
<title>Node22</title>
<g id="a_Node000022"><a xlink:href="mcp2515_8c.html#a4d44b1c2e0ad790988f8821b12fc8c80" target="_top" xlink:title="Setea el modo de loopback.">
<polygon fill="white" stroke="#666666" points="667.25,-122.75 526.75,-122.75 526.75,-102.75 667.25,-102.75 667.25,-122.75"/>
<text text-anchor="middle" x="597" y="-109.25" font-family="Helvetica,sans-Serif" font-size="10.00">mcp2515_setLoopbackMode</text>
</a>
</g>
</g>
<!-- Node16&#45;&gt;Node22 -->
<g id="edge25_Node000016_Node000022" class="edge">
<title>Node16&#45;&gt;Node22</title>
<g id="a_edge25_Node000016_Node000022"><a xlink:title=" ">
<path fill="none" stroke="#63b8ff" d="M732.62,-139.07C706.69,-134 676.56,-128.11 651.39,-123.19"/>
<polygon fill="#63b8ff" stroke="#63b8ff" points="731.86,-142.49 742.34,-140.97 733.2,-135.62 731.86,-142.49"/>
</a>
</g>
</g>
<!-- Node23 -->
<g id="Node000023" class="node">
<title>Node23</title>
<g id="a_Node000023"><a xlink:href="mcp2515_8c.html#ab5403fd588f8558b6b3031e9cee0b35e" target="_top" xlink:title="Setea el modo normal de trabajo.">
<polygon fill="white" stroke="#666666" points="332.25,-193.75 202.25,-193.75 202.25,-173.75 332.25,-173.75 332.25,-193.75"/>
<text text-anchor="middle" x="267.25" y="-180.25" font-family="Helvetica,sans-Serif" font-size="10.00">mcp2515_setNormalMode</text>
</a>
</g>
</g>
<!-- Node16&#45;&gt;Node23 -->
<g id="edge26_Node000016_Node000023" class="edge">
<title>Node16&#45;&gt;Node23</title>
<g id="a_edge26_Node000016_Node000023"><a xlink:title=" ">
<path fill="none" stroke="#63b8ff" d="M732.66,-161.44C712.64,-164.63 690.17,-167.8 669.5,-169.75 551.01,-180.94 412.07,-183.43 332.68,-183.85"/>
<polygon fill="#63b8ff" stroke="#63b8ff" points="733.01,-164.93 742.31,-159.86 731.88,-158.02 733.01,-164.93"/>
</a>
</g>
</g>
<!-- Node24 -->
<g id="Node000024" class="node">
<title>Node24</title>
<g id="a_Node000024"><a xlink:href="mcp2515_8c.html#a9eeb6e5089676520f1f243d43b25bd0b" target="_top" xlink:title="Setea el modo sleep.">
<polygon fill="white" stroke="#666666" points="658.62,-84.75 535.38,-84.75 535.38,-64.75 658.62,-64.75 658.62,-84.75"/>
<text text-anchor="middle" x="597" y="-71.25" font-family="Helvetica,sans-Serif" font-size="10.00">mcp2515_setSleepMode</text>
</a>
</g>
</g>
<!-- Node16&#45;&gt;Node24 -->
<g id="edge28_Node000016_Node000024" class="edge">
<title>Node16&#45;&gt;Node24</title>
<g id="a_edge28_Node000016_Node000024"><a xlink:title=" ">
<path fill="none" stroke="#63b8ff" d="M732.92,-142.73C723.39,-140.06 713.91,-136.5 705.5,-131.75 685.24,-120.32 689.5,-105.63 669.5,-93.75 663.76,-90.34 657.4,-87.53 650.91,-85.22"/>
<polygon fill="#63b8ff" stroke="#63b8ff" points="732.06,-146.12 742.6,-145.11 733.73,-139.32 732.06,-146.12"/>
</a>
</g>
</g>
<!-- Node18 -->
<g id="Node000018" class="node">
<title>Node18</title>
<g id="a_Node000018"><a xlink:href="mcp2515_8c.html#a376a8574dcdafeeac264e1b652333d58" target="_top" xlink:title="Setea el baud rate.">
<polygon fill="white" stroke="#666666" points="318.75,-150.75 215.75,-150.75 215.75,-130.75 318.75,-130.75 318.75,-150.75"/>
<text text-anchor="middle" x="267.25" y="-137.25" font-family="Helvetica,sans-Serif" font-size="10.00">mcp2515_setBitrate</text>
</a>
</g>
</g>
<!-- Node17&#45;&gt;Node18 -->
<g id="edge18_Node000017_Node000018" class="edge">
<title>Node17&#45;&gt;Node18</title>
<g id="a_edge18_Node000017_Node000018"><a xlink:title=" ">
<path fill="none" stroke="#63b8ff" d="M532.64,-51.47C529.83,-52.78 527.1,-54.21 524.5,-55.75 504.5,-67.63 508.79,-82.37 488.5,-93.75 435.48,-123.5 365.61,-134.45 318.92,-138.46"/>
<polygon fill="#63b8ff" stroke="#63b8ff" points="533.75,-54.8 541.69,-47.79 531.11,-48.32 533.75,-54.8"/>
</a>
</g>
</g>
<!-- Node19 -->
<g id="Node000019" class="node">
<title>Node19</title>
<g id="a_Node000019"><a xlink:href="mcp2515_8c.html#adb0e9467c52bdc0cef5bb689dd3b996f" target="_top" xlink:title="Se configura el filtro.">
<polygon fill="white" stroke="#666666" points="476.5,-46.75 380.25,-46.75 380.25,-26.75 476.5,-26.75 476.5,-46.75"/>
<text text-anchor="middle" x="428.38" y="-33.25" font-family="Helvetica,sans-Serif" font-size="10.00">mcp2515_setFilter</text>
</a>
</g>
</g>
<!-- Node17&#45;&gt;Node19 -->
<g id="edge20_Node000017_Node000019" class="edge">
<title>Node17&#45;&gt;Node19</title>
<g id="a_edge20_Node000017_Node000019"><a xlink:title=" ">
<path fill="none" stroke="#63b8ff" d="M521.52,-36.75C506.35,-36.75 490.79,-36.75 476.87,-36.75"/>
<polygon fill="#63b8ff" stroke="#63b8ff" points="521.49,-40.25 531.49,-36.75 521.49,-33.25 521.49,-40.25"/>
</a>
</g>
</g>
<!-- Node20 -->
<g id="Node000020" class="node">
<title>Node20</title>
<g id="a_Node000020"><a xlink:href="mcp2515_8c.html#a34318296cf509afa4e66aeffdbeb0f6d" target="_top" xlink:title="Setea el filtro y la mascara. Se configuran dichos datos en los registros del propio modulo.">
<polygon fill="white" stroke="#666666" points="488.5,-84.75 368.25,-84.75 368.25,-64.75 488.5,-64.75 488.5,-84.75"/>
<text text-anchor="middle" x="428.38" y="-71.25" font-family="Helvetica,sans-Serif" font-size="10.00">mcp2515_setFilterMask</text>
</a>
</g>
</g>
<!-- Node17&#45;&gt;Node20 -->
<g id="edge22_Node000017_Node000020" class="edge">
<title>Node17&#45;&gt;Node20</title>
<g id="a_edge22_Node000017_Node000020"><a xlink:title=" ">
<path fill="none" stroke="#63b8ff" d="M539.07,-49.74C518.23,-54.49 494.94,-59.8 475.2,-64.3"/>
<polygon fill="#63b8ff" stroke="#63b8ff" points="539.58,-53.21 548.55,-47.57 538.02,-46.38 539.58,-53.21"/>
</a>
</g>
</g>
<!-- Node18&#45;&gt;Node10 -->
<g id="edge19_Node000018_Node000010" class="edge">
<title>Node18&#45;&gt;Node10</title>
<g id="a_edge19_Node000018_Node000010"><a xlink:title=" ">
<path fill="none" stroke="#63b8ff" d="M204.36,-149.68C189.09,-151.88 173.17,-154.17 159.36,-156.16"/>
<polygon fill="#63b8ff" stroke="#63b8ff" points="204.42,-153.2 213.82,-148.31 203.42,-146.27 204.42,-153.2"/>
</a>
</g>
</g>
<!-- Node19&#45;&gt;Node9 -->
<g id="edge21_Node000019_Node000009" class="edge">
<title>Node19&#45;&gt;Node9</title>
<g id="a_edge21_Node000019_Node000009"><a xlink:title=" ">
<path fill="none" stroke="#63b8ff" d="M368.91,-43.73C348.98,-46.11 327.14,-48.72 308.92,-50.9"/>
<polygon fill="#63b8ff" stroke="#63b8ff" points="369.05,-47.24 378.56,-42.58 368.22,-40.29 369.05,-47.24"/>
</a>
</g>
</g>
<!-- Node20&#45;&gt;Node9 -->
<g id="edge23_Node000020_Node000009" class="edge">
<title>Node20&#45;&gt;Node9</title>
<g id="a_edge23_Node000020_Node000009"><a xlink:title=" ">
<path fill="none" stroke="#63b8ff" d="M356.83,-66.33C340.36,-64.36 323.36,-62.33 308.71,-60.58"/>
<polygon fill="#63b8ff" stroke="#63b8ff" points="356.28,-69.79 366.62,-67.5 357.11,-62.84 356.28,-69.79"/>
</a>
</g>
</g>
<!-- Node23&#45;&gt;Node10 -->
<g id="edge27_Node000023_Node000010" class="edge">
<title>Node23&#45;&gt;Node10</title>
<g id="a_edge27_Node000023_Node000010"><a xlink:title=" ">
<path fill="none" stroke="#63b8ff" d="M190.71,-172.34C179.9,-170.71 169.18,-169.09 159.49,-167.62"/>
<polygon fill="#63b8ff" stroke="#63b8ff" points="190.05,-175.78 200.46,-173.81 191.09,-168.86 190.05,-175.78"/>
</a>
</g>
</g>
</g>
</svg>
