<?xml version="1.0" encoding="UTF-8" standalone="no"?>
<!DOCTYPE svg PUBLIC "-//W3C//DTD SVG 1.1//EN"
 "http://www.w3.org/Graphics/SVG/1.1/DTD/svg11.dtd">
<!-- Generated by graphviz version 12.2.1 (20241206.2353)
 -->
<!-- Title: mcp2515_setMode Pages: 1 -->
<svg width="358pt" height="66pt"
 viewBox="0.00 0.00 357.50 66.00" xmlns="http://www.w3.org/2000/svg" xmlns:xlink="http://www.w3.org/1999/xlink">
<g id="graph0" class="graph" transform="scale(1 1) rotate(0) translate(4 62)">
<title>mcp2515_setMode</title>
<!-- Node1 -->
<g id="Node000001" class="node">
<title>Node1</title>
<g id="a_Node000001"><a xlink:title="Seteado el modo de trabajo.">
<polygon fill="#999999" stroke="#666666" points="98.5,-39 0,-39 0,-19 98.5,-19 98.5,-39"/>
<text text-anchor="middle" x="49.25" y="-25.5" font-family="Helvetica,sans-Serif" font-size="10.00">mcp2515_setMode</text>
</a>
</g>
</g>
<!-- Node2 -->
<g id="Node000002" class="node">
<title>Node2</title>
<g id="a_Node000002"><a xlink:href="mcp2515_8c.html#ac3bc690a1b8ef1495f5fbb57eab28eaf" target="_top" xlink:title="Modifica un registro en particular.">
<polygon fill="white" stroke="#666666" points="261.5,-58 134.5,-58 134.5,-38 261.5,-38 261.5,-58"/>
<text text-anchor="middle" x="198" y="-44.5" font-family="Helvetica,sans-Serif" font-size="10.00">mcp2515_modifyRegister</text>
</a>
</g>
</g>
<!-- Node1&#45;&gt;Node2 -->
<g id="edge1_Node000001_Node000002" class="edge">
<title>Node1&#45;&gt;Node2</title>
<g id="a_edge1_Node000001_Node000002"><a xlink:title=" ">
<path fill="none" stroke="#63b8ff" d="M98.71,-35.27C106.51,-36.28 114.75,-37.35 122.99,-38.42"/>
<polygon fill="#63b8ff" stroke="#63b8ff" points="122.33,-41.86 132.7,-39.67 123.23,-34.92 122.33,-41.86"/>
</a>
</g>
</g>
<!-- Node5 -->
<g id="Node000005" class="node">
<title>Node5</title>
<g id="a_Node000005"><a xlink:href="mcp2515_8c.html#a1dcd2d88901952184ce8297e1c5c6bf6" target="_top" xlink:title="Lee un solo registro a la vez.">
<polygon fill="white" stroke="#666666" points="256.25,-20 139.75,-20 139.75,0 256.25,0 256.25,-20"/>
<text text-anchor="middle" x="198" y="-6.5" font-family="Helvetica,sans-Serif" font-size="10.00">mcp2515_readRegister</text>
</a>
</g>
</g>
<!-- Node1&#45;&gt;Node5 -->
<g id="edge4_Node000001_Node000005" class="edge">
<title>Node1&#45;&gt;Node5</title>
<g id="a_edge4_Node000001_Node000005"><a xlink:title=" ">
<path fill="none" stroke="#63b8ff" d="M98.71,-22.73C108.17,-21.5 118.26,-20.19 128.24,-18.9"/>
<polygon fill="#63b8ff" stroke="#63b8ff" points="128.44,-22.41 137.91,-17.65 127.54,-15.46 128.44,-22.41"/>
</a>
</g>
</g>
<!-- Node3 -->
<g id="Node000003" class="node">
<title>Node3</title>
<g id="a_Node000003"><a xlink:href="mcp2515_8c.html#ae85a49925cc5c6fd1b15522434dc51ce" target="_top" xlink:title="Finaliza la comunicacion spi.">
<polygon fill="white" stroke="#666666" points="347.62,-58 299.38,-58 299.38,-38 347.62,-38 347.62,-58"/>
<text text-anchor="middle" x="323.5" y="-44.5" font-family="Helvetica,sans-Serif" font-size="10.00">endSPI</text>
</a>
</g>
</g>
<!-- Node2&#45;&gt;Node3 -->
<g id="edge2_Node000002_Node000003" class="edge">
<title>Node2&#45;&gt;Node3</title>
<g id="a_edge2_Node000002_Node000003"><a xlink:title=" ">
<path fill="none" stroke="#63b8ff" d="M261.84,-48C270.62,-48 279.38,-48 287.39,-48"/>
<polygon fill="#63b8ff" stroke="#63b8ff" points="287.38,-51.5 297.38,-48 287.38,-44.5 287.38,-51.5"/>
</a>
</g>
</g>
<!-- Node4 -->
<g id="Node000004" class="node">
<title>Node4</title>
<g id="a_Node000004"><a xlink:href="mcp2515_8c.html#afea997d2aa89cc2831bff10e34198bd8" target="_top" xlink:title="Funciones privadas.">
<polygon fill="white" stroke="#666666" points="349.5,-20 297.5,-20 297.5,0 349.5,0 349.5,-20"/>
<text text-anchor="middle" x="323.5" y="-6.5" font-family="Helvetica,sans-Serif" font-size="10.00">startSPI</text>
</a>
</g>
</g>
<!-- Node2&#45;&gt;Node4 -->
<g id="edge3_Node000002_Node000004" class="edge">
<title>Node2&#45;&gt;Node4</title>
<g id="a_edge3_Node000002_Node000004"><a xlink:title=" ">
<path fill="none" stroke="#63b8ff" d="M233.4,-37.59C242.54,-34.81 252.39,-31.8 261.5,-29 269.59,-26.51 278.28,-23.82 286.49,-21.26"/>
<polygon fill="#63b8ff" stroke="#63b8ff" points="287.33,-24.66 295.84,-18.35 285.25,-17.98 287.33,-24.66"/>
</a>
</g>
</g>
<!-- Node5&#45;&gt;Node3 -->
<g id="edge5_Node000005_Node000003" class="edge">
<title>Node5&#45;&gt;Node3</title>
<g id="a_edge5_Node000005_Node000003"><a xlink:title=" ">
<path fill="none" stroke="#63b8ff" d="M233.4,-20.41C242.54,-23.19 252.39,-26.2 261.5,-29 270.12,-31.65 279.43,-34.54 288.11,-37.24"/>
<polygon fill="#63b8ff" stroke="#63b8ff" points="287.01,-40.57 297.6,-40.2 289.1,-33.89 287.01,-40.57"/>
</a>
</g>
</g>
<!-- Node5&#45;&gt;Node4 -->
<g id="edge6_Node000005_Node000004" class="edge">
<title>Node5&#45;&gt;Node4</title>
<g id="a_edge6_Node000005_Node000004"><a xlink:title=" ">
<path fill="none" stroke="#63b8ff" d="M256.41,-10C266.51,-10 276.76,-10 286.09,-10"/>
<polygon fill="#63b8ff" stroke="#63b8ff" points="285.8,-13.5 295.8,-10 285.8,-6.5 285.8,-13.5"/>
</a>
</g>
</g>
</g>
</svg>
