<?xml version="1.0" encoding="UTF-8" standalone="no"?>
<!DOCTYPE svg PUBLIC "-//W3C//DTD SVG 1.1//EN"
 "http://www.w3.org/Graphics/SVG/1.1/DTD/svg11.dtd">
<!-- Generated by graphviz version 12.2.1 (20241206.2353)
 -->
<!-- Title: mcp2515_setFilter Pages: 1 -->
<svg width="653pt" height="104pt"
 viewBox="0.00 0.00 652.75 104.00" xmlns="http://www.w3.org/2000/svg" xmlns:xlink="http://www.w3.org/1999/xlink">
<g id="graph0" class="graph" transform="scale(1 1) rotate(0) translate(4 100)">
<title>mcp2515_setFilter</title>
<!-- Node1 -->
<g id="Node000001" class="node">
<title>Node1</title>
<g id="a_Node000001"><a xlink:title="Se configura el filtro.">
<polygon fill="#999999" stroke="#666666" points="96.25,-58 0,-58 0,-38 96.25,-38 96.25,-58"/>
<text text-anchor="middle" x="48.12" y="-44.5" font-family="Helvetica,sans-Serif" font-size="10.00">mcp2515_setFilter</text>
</a>
</g>
</g>
<!-- Node2 -->
<g id="Node000002" class="node">
<title>Node2</title>
<g id="a_Node000002"><a xlink:href="mcp2515_8c.html#aed2f12d8207c7b34f82733dbccdb3c76" target="_top" xlink:title="Configura el id para una accion en particular.">
<polygon fill="white" stroke="#666666" points="246.5,-96 145,-96 145,-76 246.5,-76 246.5,-96"/>
<text text-anchor="middle" x="195.75" y="-82.5" font-family="Helvetica,sans-Serif" font-size="10.00">mcp2515_prepareId</text>
</a>
</g>
</g>
<!-- Node1&#45;&gt;Node2 -->
<g id="edge1_Node000001_Node000002" class="edge">
<title>Node1&#45;&gt;Node2</title>
<g id="a_edge1_Node000001_Node000002"><a xlink:title=" ">
<path fill="none" stroke="#63b8ff" d="M89.3,-58.48C106.1,-62.87 125.81,-68.01 143.62,-72.66"/>
<polygon fill="#63b8ff" stroke="#63b8ff" points="142.68,-76.03 153.24,-75.17 144.45,-69.26 142.68,-76.03"/>
</a>
</g>
</g>
<!-- Node3 -->
<g id="Node000003" class="node">
<title>Node3</title>
<g id="a_Node000003"><a xlink:href="mcp2515_8c.html#a0a1c3cc8b486dbd55ff9d2d011694fa6" target="_top" xlink:title="Setea el modo de configuracion.">
<polygon fill="white" stroke="#666666" points="259.25,-58 132.25,-58 132.25,-38 259.25,-38 259.25,-58"/>
<text text-anchor="middle" x="195.75" y="-44.5" font-family="Helvetica,sans-Serif" font-size="10.00">mcp2515_setConfigMode</text>
</a>
</g>
</g>
<!-- Node1&#45;&gt;Node3 -->
<g id="edge2_Node000001_Node000003" class="edge">
<title>Node1&#45;&gt;Node3</title>
<g id="a_edge2_Node000001_Node000003"><a xlink:title=" ">
<path fill="none" stroke="#63b8ff" d="M96.41,-48C104.08,-48 112.19,-48 120.33,-48"/>
<polygon fill="#63b8ff" stroke="#63b8ff" points="120.3,-51.5 130.3,-48 120.3,-44.5 120.3,-51.5"/>
</a>
</g>
</g>
<!-- Node9 -->
<g id="Node000009" class="node">
<title>Node9</title>
<g id="a_Node000009"><a xlink:href="mcp2515_8c.html#a06105d6f139b5a81ffc4650b634f9cfe" target="_top" xlink:title="Setea multiples registros.">
<polygon fill="white" stroke="#666666" points="551.5,-20 435,-20 435,0 551.5,0 551.5,-20"/>
<text text-anchor="middle" x="493.25" y="-6.5" font-family="Helvetica,sans-Serif" font-size="10.00">mcp2515_setRegisters</text>
</a>
</g>
</g>
<!-- Node1&#45;&gt;Node9 -->
<g id="edge10_Node000001_Node000009" class="edge">
<title>Node1&#45;&gt;Node9</title>
<g id="a_edge10_Node000001_Node000009"><a xlink:title=" ">
<path fill="none" stroke="#63b8ff" d="M88.61,-37.51C102.33,-34.26 117.88,-31.01 132.25,-29 232.86,-14.95 350.62,-11.08 423.32,-10.13"/>
<polygon fill="#63b8ff" stroke="#63b8ff" points="423.12,-13.63 433.08,-10.02 423.04,-6.63 423.12,-13.63"/>
</a>
</g>
</g>
<!-- Node4 -->
<g id="Node000004" class="node">
<title>Node4</title>
<g id="a_Node000004"><a xlink:href="mcp2515_8c.html#aa8f4e44a2081362f25ff79e24d4bf6cb" target="_top" xlink:title="Seteado el modo de trabajo.">
<polygon fill="white" stroke="#666666" points="393.75,-58 295.25,-58 295.25,-38 393.75,-38 393.75,-58"/>
<text text-anchor="middle" x="344.5" y="-44.5" font-family="Helvetica,sans-Serif" font-size="10.00">mcp2515_setMode</text>
</a>
</g>
</g>
<!-- Node3&#45;&gt;Node4 -->
<g id="edge3_Node000003_Node000004" class="edge">
<title>Node3&#45;&gt;Node4</title>
<g id="a_edge3_Node000003_Node000004"><a xlink:title=" ">
<path fill="none" stroke="#63b8ff" d="M259.41,-48C267.37,-48 275.49,-48 283.41,-48"/>
<polygon fill="#63b8ff" stroke="#63b8ff" points="283.29,-51.5 293.29,-48 283.29,-44.5 283.29,-51.5"/>
</a>
</g>
</g>
<!-- Node5 -->
<g id="Node000005" class="node">
<title>Node5</title>
<g id="a_Node000005"><a xlink:href="mcp2515_8c.html#ac3bc690a1b8ef1495f5fbb57eab28eaf" target="_top" xlink:title="Modifica un registro en particular.">
<polygon fill="white" stroke="#666666" points="556.75,-58 429.75,-58 429.75,-38 556.75,-38 556.75,-58"/>
<text text-anchor="middle" x="493.25" y="-44.5" font-family="Helvetica,sans-Serif" font-size="10.00">mcp2515_modifyRegister</text>
</a>
</g>
</g>
<!-- Node4&#45;&gt;Node5 -->
<g id="edge4_Node000004_Node000005" class="edge">
<title>Node4&#45;&gt;Node5</title>
<g id="a_edge4_Node000004_Node000005"><a xlink:title=" ">
<path fill="none" stroke="#63b8ff" d="M393.96,-48C401.68,-48 409.81,-48 417.96,-48"/>
<polygon fill="#63b8ff" stroke="#63b8ff" points="417.94,-51.5 427.94,-48 417.94,-44.5 417.94,-51.5"/>
</a>
</g>
</g>
<!-- Node8 -->
<g id="Node000008" class="node">
<title>Node8</title>
<g id="a_Node000008"><a xlink:href="mcp2515_8c.html#a1dcd2d88901952184ce8297e1c5c6bf6" target="_top" xlink:title="Lee un solo registro a la vez.">
<polygon fill="white" stroke="#666666" points="551.5,-96 435,-96 435,-76 551.5,-76 551.5,-96"/>
<text text-anchor="middle" x="493.25" y="-82.5" font-family="Helvetica,sans-Serif" font-size="10.00">mcp2515_readRegister</text>
</a>
</g>
</g>
<!-- Node4&#45;&gt;Node8 -->
<g id="edge7_Node000004_Node000008" class="edge">
<title>Node4&#45;&gt;Node8</title>
<g id="a_edge7_Node000004_Node000008"><a xlink:title=" ">
<path fill="none" stroke="#63b8ff" d="M385.99,-58.48C402.99,-62.89 422.96,-68.06 440.98,-72.72"/>
<polygon fill="#63b8ff" stroke="#63b8ff" points="439.87,-76.05 450.43,-75.17 441.63,-69.28 439.87,-76.05"/>
</a>
</g>
</g>
<!-- Node6 -->
<g id="Node000006" class="node">
<title>Node6</title>
<g id="a_Node000006"><a xlink:href="mcp2515_8c.html#ae85a49925cc5c6fd1b15522434dc51ce" target="_top" xlink:title="Finaliza la comunicacion spi.">
<polygon fill="white" stroke="#666666" points="642.88,-77 594.62,-77 594.62,-57 642.88,-57 642.88,-77"/>
<text text-anchor="middle" x="618.75" y="-63.5" font-family="Helvetica,sans-Serif" font-size="10.00">endSPI</text>
</a>
</g>
</g>
<!-- Node5&#45;&gt;Node6 -->
<g id="edge5_Node000005_Node000006" class="edge">
<title>Node5&#45;&gt;Node6</title>
<g id="a_edge5_Node000005_Node000006"><a xlink:title=" ">
<path fill="none" stroke="#63b8ff" d="M557.09,-57.67C565.97,-59.03 574.83,-60.4 582.92,-61.64"/>
<polygon fill="#63b8ff" stroke="#63b8ff" points="582.23,-65.08 592.65,-63.14 583.29,-58.16 582.23,-65.08"/>
</a>
</g>
</g>
<!-- Node7 -->
<g id="Node000007" class="node">
<title>Node7</title>
<g id="a_Node000007"><a xlink:href="mcp2515_8c.html#afea997d2aa89cc2831bff10e34198bd8" target="_top" xlink:title="Funciones privadas.">
<polygon fill="white" stroke="#666666" points="644.75,-39 592.75,-39 592.75,-19 644.75,-19 644.75,-39"/>
<text text-anchor="middle" x="618.75" y="-25.5" font-family="Helvetica,sans-Serif" font-size="10.00">startSPI</text>
</a>
</g>
</g>
<!-- Node5&#45;&gt;Node7 -->
<g id="edge6_Node000005_Node000007" class="edge">
<title>Node5&#45;&gt;Node7</title>
<g id="a_edge6_Node000005_Node000007"><a xlink:title=" ">
<path fill="none" stroke="#63b8ff" d="M557.09,-38.33C565.3,-37.07 573.48,-35.81 581.06,-34.64"/>
<polygon fill="#63b8ff" stroke="#63b8ff" points="581.54,-38.11 590.9,-33.13 580.48,-31.19 581.54,-38.11"/>
</a>
</g>
</g>
<!-- Node8&#45;&gt;Node6 -->
<g id="edge8_Node000008_Node000006" class="edge">
<title>Node8&#45;&gt;Node6</title>
<g id="a_edge8_Node000008_Node000006"><a xlink:title=" ">
<path fill="none" stroke="#63b8ff" d="M551.66,-77.17C562.41,-75.51 573.33,-73.83 583.12,-72.33"/>
<polygon fill="#63b8ff" stroke="#63b8ff" points="583.56,-75.8 592.92,-70.82 582.5,-68.88 583.56,-75.8"/>
</a>
</g>
</g>
<!-- Node8&#45;&gt;Node7 -->
<g id="edge9_Node000008_Node000007" class="edge">
<title>Node8&#45;&gt;Node7</title>
<g id="a_edge9_Node000008_Node000007"><a xlink:title=" ">
<path fill="none" stroke="#63b8ff" d="M534.17,-75.57C541.8,-73.11 549.62,-70.23 556.75,-67 569.8,-61.08 583.42,-52.82 594.47,-45.52"/>
<polygon fill="#63b8ff" stroke="#63b8ff" points="596.25,-48.54 602.55,-40.02 592.31,-42.75 596.25,-48.54"/>
</a>
</g>
</g>
<!-- Node9&#45;&gt;Node6 -->
<g id="edge11_Node000009_Node000006" class="edge">
<title>Node9&#45;&gt;Node6</title>
<g id="a_edge11_Node000009_Node000006"><a xlink:title=" ">
<path fill="none" stroke="#63b8ff" d="M534.17,-20.43C541.8,-22.89 549.62,-25.77 556.75,-29 569.8,-34.92 583.42,-43.18 594.47,-50.48"/>
<polygon fill="#63b8ff" stroke="#63b8ff" points="592.31,-53.25 602.55,-55.98 596.25,-47.46 592.31,-53.25"/>
</a>
</g>
</g>
<!-- Node9&#45;&gt;Node7 -->
<g id="edge12_Node000009_Node000007" class="edge">
<title>Node9&#45;&gt;Node7</title>
<g id="a_edge12_Node000009_Node000007"><a xlink:title=" ">
<path fill="none" stroke="#63b8ff" d="M551.66,-18.83C561.76,-20.39 572.01,-21.96 581.34,-23.4"/>
<polygon fill="#63b8ff" stroke="#63b8ff" points="580.65,-26.83 591.07,-24.89 581.72,-19.91 580.65,-26.83"/>
</a>
</g>
</g>
</g>
</svg>
