<?xml version="1.0" encoding="UTF-8" standalone="no"?>
<!DOCTYPE svg PUBLIC "-//W3C//DTD SVG 1.1//EN"
 "http://www.w3.org/Graphics/SVG/1.1/DTD/svg11.dtd">
<!-- Generated by graphviz version 12.2.1 (20241206.2353)
 -->
<!-- Title: mcp2515_setListenOnlyMode Pages: 1 -->
<!--zoomable 66 -->

<svg id="main" version="1.1" xmlns="http://www.w3.org/2000/svg" xmlns:xlink="http://www.w3.org/1999/xlink" xml:space="preserve" onload="init(evt)">

<style type="text/css"><![CDATA[
.node, .edge {opacity: 0.7;}
.node.selected, .edge.selected {opacity: 1;}
.edge:hover path { stroke: red; }
.edge:hover polygon { stroke: red; fill: red; }
]]></style>

<defs>
  <circle id="rim" cx="0" cy="0" r="7"/>
  <circle id="rim2" cx="0" cy="0" r="3.5"/>
  <g id="zoomPlus">
    <use xlink:href="#rim" fill="#404040"><set attributeName="fill" to="#808080" begin="zoomplus.mouseover" end="zoomplus.mouseout"/></use>
    <path d="M-4,0h8M0,-4v8" fill="none" stroke="white" stroke-width="1.5" pointer-events="none"/>
  </g>
  <g id="zoomMin">
    <use xlink:href="#rim" fill="#404040"><set attributeName="fill" to="#808080" begin="zoomminus.mouseover" end="zoomminus.mouseout"/></use>
    <path d="M-4,0h8" fill="none" stroke="white" stroke-width="1.5" pointer-events="none"/>
  </g>
  <g id="arrowUp" transform="translate(30 24)">
    <use xlink:href="#rim"/>
    <path pointer-events="none" fill="none" stroke="white" stroke-width="1.5" d="M0,-3.0v7 M-2.5,-0.5L0,-3.0L2.5,-0.5"/>
  </g>
  <g id="arrowRight" transform="rotate(90) translate(36 -43)">
    <use xlink:href="#rim"/>
    <path pointer-events="none" fill="none" stroke="white" stroke-width="1.5" d="M0,-3.0v7 M-2.5,-0.5L0,-3.0L2.5,-0.5"/>
  </g>
  <g id="arrowDown" transform="rotate(180) translate(-30 -48)">
    <use xlink:href="#rim"/>
    <path pointer-events="none" fill="none" stroke="white" stroke-width="1.5" d="M0,-3.0v7 M-2.5,-0.5L0,-3.0L2.5,-0.5"/>
  </g>
  <g id="arrowLeft" transform="rotate(270) translate(-36 17)">
    <use xlink:href="#rim"/>
    <path pointer-events="none" fill="none" stroke="white" stroke-width="1.5" d="M0,-3.0v7 M-2.5,-0.5L0,-3.0L2.5,-0.5"/>
  </g>
  <g id="resetDef">
    <use xlink:href="#rim2" fill="#404040"><set attributeName="fill" to="#808080" begin="reset.mouseover" end="reset.mouseout"/></use>
  </g>
</defs>
<script type="application/ecmascript">
var viewWidth = 539;
var viewHeight = 66;
var sectionId = 'dynsection-46';
</script>
<script type="application/ecmascript" xlink:href="svg.min.js"/>
<svg id="graph" class="graph">
<g id="viewport">
<title>mcp2515_setListenOnlyMode</title>
<!-- Node1 -->
<g id="Node000001" class="node">
<title>Node1</title>
<g id="a_Node000001"><a xlink:title="Setea el modo de solo escucha.">
<polygon fill="#999999" stroke="#666666" points="145,-39 0,-39 0,-19 145,-19 145,-39"/>
<text text-anchor="middle" x="72.5" y="-25.5" font-family="Helvetica,sans-Serif" font-size="10.00">mcp2515_setListenOnlyMode</text>
</a>
</g>
</g>
<!-- Node2 -->
<g id="Node000002" class="node">
<title>Node2</title>
<g id="a_Node000002"><a xlink:href="mcp2515_8c.html#aa8f4e44a2081362f25ff79e24d4bf6cb" target="_top" xlink:title="Seteado el modo de trabajo.">
<polygon fill="white" stroke="#666666" points="279.5,-39 181,-39 181,-19 279.5,-19 279.5,-39"/>
<text text-anchor="middle" x="230.25" y="-25.5" font-family="Helvetica,sans-Serif" font-size="10.00">mcp2515_setMode</text>
</a>
</g>
</g>
<!-- Node1&#45;&gt;Node2 -->
<g id="edge1_Node000001_Node000002" class="edge">
<title>Node1&#45;&gt;Node2</title>
<g id="a_edge1_Node000001_Node000002"><a xlink:title=" ">
<path fill="none" stroke="#63b8ff" d="M145.45,-29C153.48,-29 161.6,-29 169.46,-29"/>
<polygon fill="#63b8ff" stroke="#63b8ff" points="169.23,-32.5 179.23,-29 169.23,-25.5 169.23,-32.5"/>
</a>
</g>
</g>
<!-- Node3 -->
<g id="Node000003" class="node">
<title>Node3</title>
<g id="a_Node000003"><a xlink:href="mcp2515_8c.html#ac3bc690a1b8ef1495f5fbb57eab28eaf" target="_top" xlink:title="Modifica un registro en particular.">
<polygon fill="white" stroke="#666666" points="442.5,-58 315.5,-58 315.5,-38 442.5,-38 442.5,-58"/>
<text text-anchor="middle" x="379" y="-44.5" font-family="Helvetica,sans-Serif" font-size="10.00">mcp2515_modifyRegister</text>
</a>
</g>
</g>
<!-- Node2&#45;&gt;Node3 -->
<g id="edge2_Node000002_Node000003" class="edge">
<title>Node2&#45;&gt;Node3</title>
<g id="a_edge2_Node000002_Node000003"><a xlink:title=" ">
<path fill="none" stroke="#63b8ff" d="M279.71,-35.27C287.51,-36.28 295.75,-37.35 303.99,-38.42"/>
<polygon fill="#63b8ff" stroke="#63b8ff" points="303.33,-41.86 313.7,-39.67 304.23,-34.92 303.33,-41.86"/>
</a>
</g>
</g>
<!-- Node6 -->
<g id="Node000006" class="node">
<title>Node6</title>
<g id="a_Node000006"><a xlink:href="mcp2515_8c.html#a1dcd2d88901952184ce8297e1c5c6bf6" target="_top" xlink:title="Lee un solo registro a la vez.">
<polygon fill="white" stroke="#666666" points="437.25,-20 320.75,-20 320.75,0 437.25,0 437.25,-20"/>
<text text-anchor="middle" x="379" y="-6.5" font-family="Helvetica,sans-Serif" font-size="10.00">mcp2515_readRegister</text>
</a>
</g>
</g>
<!-- Node2&#45;&gt;Node6 -->
<g id="edge5_Node000002_Node000006" class="edge">
<title>Node2&#45;&gt;Node6</title>
<g id="a_edge5_Node000002_Node000006"><a xlink:title=" ">
<path fill="none" stroke="#63b8ff" d="M279.71,-22.73C289.17,-21.5 299.26,-20.19 309.24,-18.9"/>
<polygon fill="#63b8ff" stroke="#63b8ff" points="309.44,-22.41 318.91,-17.65 308.54,-15.46 309.44,-22.41"/>
</a>
</g>
</g>
<!-- Node4 -->
<g id="Node000004" class="node">
<title>Node4</title>
<g id="a_Node000004"><a xlink:href="mcp2515_8c.html#ae85a49925cc5c6fd1b15522434dc51ce" target="_top" xlink:title="Finaliza la comunicacion spi.">
<polygon fill="white" stroke="#666666" points="528.62,-58 480.38,-58 480.38,-38 528.62,-38 528.62,-58"/>
<text text-anchor="middle" x="504.5" y="-44.5" font-family="Helvetica,sans-Serif" font-size="10.00">endSPI</text>
</a>
</g>
</g>
<!-- Node3&#45;&gt;Node4 -->
<g id="edge3_Node000003_Node000004" class="edge">
<title>Node3&#45;&gt;Node4</title>
<g id="a_edge3_Node000003_Node000004"><a xlink:title=" ">
<path fill="none" stroke="#63b8ff" d="M442.84,-48C451.62,-48 460.38,-48 468.39,-48"/>
<polygon fill="#63b8ff" stroke="#63b8ff" points="468.38,-51.5 478.38,-48 468.38,-44.5 468.38,-51.5"/>
</a>
</g>
</g>
<!-- Node5 -->
<g id="Node000005" class="node">
<title>Node5</title>
<g id="a_Node000005"><a xlink:href="mcp2515_8c.html#afea997d2aa89cc2831bff10e34198bd8" target="_top" xlink:title="Funciones privadas.">
<polygon fill="white" stroke="#666666" points="530.5,-20 478.5,-20 478.5,0 530.5,0 530.5,-20"/>
<text text-anchor="middle" x="504.5" y="-6.5" font-family="Helvetica,sans-Serif" font-size="10.00">startSPI</text>
</a>
</g>
</g>
<!-- Node3&#45;&gt;Node5 -->
<g id="edge4_Node000003_Node000005" class="edge">
<title>Node3&#45;&gt;Node5</title>
<g id="a_edge4_Node000003_Node000005"><a xlink:title=" ">
<path fill="none" stroke="#63b8ff" d="M414.4,-37.59C423.54,-34.81 433.39,-31.8 442.5,-29 450.59,-26.51 459.28,-23.82 467.49,-21.26"/>
<polygon fill="#63b8ff" stroke="#63b8ff" points="468.33,-24.66 476.84,-18.35 466.25,-17.98 468.33,-24.66"/>
</a>
</g>
</g>
<!-- Node6&#45;&gt;Node4 -->
<g id="edge6_Node000006_Node000004" class="edge">
<title>Node6&#45;&gt;Node4</title>
<g id="a_edge6_Node000006_Node000004"><a xlink:title=" ">
<path fill="none" stroke="#63b8ff" d="M414.4,-20.41C423.54,-23.19 433.39,-26.2 442.5,-29 451.12,-31.65 460.43,-34.54 469.11,-37.24"/>
<polygon fill="#63b8ff" stroke="#63b8ff" points="468.01,-40.57 478.6,-40.2 470.1,-33.89 468.01,-40.57"/>
</a>
</g>
</g>
<!-- Node6&#45;&gt;Node5 -->
<g id="edge7_Node000006_Node000005" class="edge">
<title>Node6&#45;&gt;Node5</title>
<g id="a_edge7_Node000006_Node000005"><a xlink:title=" ">
<path fill="none" stroke="#63b8ff" d="M437.41,-10C447.51,-10 457.76,-10 467.09,-10"/>
<polygon fill="#63b8ff" stroke="#63b8ff" points="466.8,-13.5 476.8,-10 466.8,-6.5 466.8,-13.5"/>
</a>
</g>
</g>
</g>
</svg>

<g id="navigator" transform="translate(0 0)" fill="#404254">
  <rect fill="#f2f5e9" fill-opacity="0.5" stroke="#606060" stroke-width=".5" x="0" y="0" width="60" height="60"/>
  <use id="zoomplus" xlink:href="#zoomPlus" x="17" y="9" onmousedown="handleZoom(evt,'in')"/>
  <use id="zoomminus" xlink:href="#zoomMin" x="42" y="9" onmousedown="handleZoom(evt,'out')"/>
  <use id="reset" xlink:href="#resetDef" x="30" y="36" onmousedown="handleReset()"/>
   <use id="arrowup" xlink:href="#arrowUp" x="0" y="0" onmousedown="handlePan(0,-1)"/>
  <use id="arrowright" xlink:href="#arrowRight" x="0" y="0" onmousedown="handlePan(1,0)"/>
  <use id="arrowdown" xlink:href="#arrowDown" x="0" y="0" onmousedown="handlePan(0,1)"/>
  <use id="arrowleft" xlink:href="#arrowLeft" x="0" y="0" onmousedown="handlePan(-1,0)"/>
</g>
<svg viewBox="0 0 15 15" width="100%" height="30px" preserveAspectRatio="xMaxYMin meet">
 <g id="arrow_out" transform="scale(0.3 0.3)">
  <a xlink:href="mcp2515_8c_a24629fc99e83c9f097a0d24629dcae79_cgraph_org.svg" target="_base">
   <rect id="button" ry="5" rx="5" y="6" x="6" height="38" width="38"
        fill="#f2f5e9" fill-opacity="0.5" stroke="#606060" stroke-width="1.0"/>
   <path id="arrow"
     d="M 11.500037,31.436501 C 11.940474,20.09759 22.043105,11.32322 32.158766,21.979434 L 37.068811,17.246167 C 37.068811,17.246167 37.088388,32 37.088388,32 L 22.160133,31.978069 C 22.160133,31.978069 26.997745,27.140456 26.997745,27.140456 C 18.528582,18.264221 13.291696,25.230495 11.500037,31.436501 z"
     style="fill:#404040;"/>
  </a>
 </g>
</svg>

<style type='text/css'>
<![CDATA[
[data-mouse-over-selected='false'] { opacity: 0.7; }
[data-mouse-over-selected='true']  { opacity: 1.0; }
]]>
</style>
<script type="application/ecmascript"><![CDATA[
document.addEventListener('DOMContentLoaded', (event) => {
  highlightEdges();
  highlightAdjacentNodes();
});
]]></script>
</svg>
