<?xml version="1.0" encoding="UTF-8" standalone="no"?>
<!DOCTYPE svg PUBLIC "-//W3C//DTD SVG 1.1//EN"
 "http://www.w3.org/Graphics/SVG/1.1/DTD/svg11.dtd">
<!-- Generated by graphviz version 12.2.1 (20241206.2353)
 -->
<!-- Title: mcp2515_setBitrate Pages: 1 -->
<svg width="660pt" height="104pt"
 viewBox="0.00 0.00 659.50 104.00" xmlns="http://www.w3.org/2000/svg" xmlns:xlink="http://www.w3.org/1999/xlink">
<g id="graph0" class="graph" transform="scale(1 1) rotate(0) translate(4 100)">
<title>mcp2515_setBitrate</title>
<!-- Node1 -->
<g id="Node000001" class="node">
<title>Node1</title>
<g id="a_Node000001"><a xlink:title="Setea el baud rate.">
<polygon fill="#999999" stroke="#666666" points="103,-39 0,-39 0,-19 103,-19 103,-39"/>
<text text-anchor="middle" x="51.5" y="-25.5" font-family="Helvetica,sans-Serif" font-size="10.00">mcp2515_setBitrate</text>
</a>
</g>
</g>
<!-- Node2 -->
<g id="Node000002" class="node">
<title>Node2</title>
<g id="a_Node000002"><a xlink:href="mcp2515_8c.html#a0a1c3cc8b486dbd55ff9d2d011694fa6" target="_top" xlink:title="Setea el modo de configuracion.">
<polygon fill="white" stroke="#666666" points="266,-58 139,-58 139,-38 266,-38 266,-58"/>
<text text-anchor="middle" x="202.5" y="-44.5" font-family="Helvetica,sans-Serif" font-size="10.00">mcp2515_setConfigMode</text>
</a>
</g>
</g>
<!-- Node1&#45;&gt;Node2 -->
<g id="edge1_Node000001_Node000002" class="edge">
<title>Node1&#45;&gt;Node2</title>
<g id="a_edge1_Node000001_Node000002"><a xlink:title=" ">
<path fill="none" stroke="#63b8ff" d="M103.36,-35.49C111.19,-36.48 119.4,-37.53 127.6,-38.58"/>
<polygon fill="#63b8ff" stroke="#63b8ff" points="126.88,-42.01 137.24,-39.81 127.76,-35.07 126.88,-42.01"/>
</a>
</g>
</g>
<!-- Node8 -->
<g id="Node000008" class="node">
<title>Node8</title>
<g id="a_Node000008"><a xlink:href="mcp2515_8c.html#aa1ab73089d5c9bfb753aaa1b3b3f8d28" target="_top" xlink:title="Setea un registro.">
<polygon fill="white" stroke="#666666" points="555.62,-20 444.38,-20 444.38,0 555.62,0 555.62,-20"/>
<text text-anchor="middle" x="500" y="-6.5" font-family="Helvetica,sans-Serif" font-size="10.00">mcp2515_setRegister</text>
</a>
</g>
</g>
<!-- Node1&#45;&gt;Node8 -->
<g id="edge9_Node000001_Node000008" class="edge">
<title>Node1&#45;&gt;Node8</title>
<g id="a_edge9_Node000001_Node000008"><a xlink:title=" ">
<path fill="none" stroke="#63b8ff" d="M103.28,-26.84C184.3,-23.39 342.81,-16.65 432.67,-12.82"/>
<polygon fill="#63b8ff" stroke="#63b8ff" points="432.73,-16.32 442.57,-12.4 432.43,-9.33 432.73,-16.32"/>
</a>
</g>
</g>
<!-- Node3 -->
<g id="Node000003" class="node">
<title>Node3</title>
<g id="a_Node000003"><a xlink:href="mcp2515_8c.html#aa8f4e44a2081362f25ff79e24d4bf6cb" target="_top" xlink:title="Seteado el modo de trabajo.">
<polygon fill="white" stroke="#666666" points="400.5,-58 302,-58 302,-38 400.5,-38 400.5,-58"/>
<text text-anchor="middle" x="351.25" y="-44.5" font-family="Helvetica,sans-Serif" font-size="10.00">mcp2515_setMode</text>
</a>
</g>
</g>
<!-- Node2&#45;&gt;Node3 -->
<g id="edge2_Node000002_Node000003" class="edge">
<title>Node2&#45;&gt;Node3</title>
<g id="a_edge2_Node000002_Node000003"><a xlink:title=" ">
<path fill="none" stroke="#63b8ff" d="M266.16,-48C274.12,-48 282.24,-48 290.16,-48"/>
<polygon fill="#63b8ff" stroke="#63b8ff" points="290.04,-51.5 300.04,-48 290.04,-44.5 290.04,-51.5"/>
</a>
</g>
</g>
<!-- Node4 -->
<g id="Node000004" class="node">
<title>Node4</title>
<g id="a_Node000004"><a xlink:href="mcp2515_8c.html#ac3bc690a1b8ef1495f5fbb57eab28eaf" target="_top" xlink:title="Modifica un registro en particular.">
<polygon fill="white" stroke="#666666" points="563.5,-58 436.5,-58 436.5,-38 563.5,-38 563.5,-58"/>
<text text-anchor="middle" x="500" y="-44.5" font-family="Helvetica,sans-Serif" font-size="10.00">mcp2515_modifyRegister</text>
</a>
</g>
</g>
<!-- Node3&#45;&gt;Node4 -->
<g id="edge3_Node000003_Node000004" class="edge">
<title>Node3&#45;&gt;Node4</title>
<g id="a_edge3_Node000003_Node000004"><a xlink:title=" ">
<path fill="none" stroke="#63b8ff" d="M400.71,-48C408.43,-48 416.56,-48 424.71,-48"/>
<polygon fill="#63b8ff" stroke="#63b8ff" points="424.69,-51.5 434.69,-48 424.69,-44.5 424.69,-51.5"/>
</a>
</g>
</g>
<!-- Node7 -->
<g id="Node000007" class="node">
<title>Node7</title>
<g id="a_Node000007"><a xlink:href="mcp2515_8c.html#a1dcd2d88901952184ce8297e1c5c6bf6" target="_top" xlink:title="Lee un solo registro a la vez.">
<polygon fill="white" stroke="#666666" points="558.25,-96 441.75,-96 441.75,-76 558.25,-76 558.25,-96"/>
<text text-anchor="middle" x="500" y="-82.5" font-family="Helvetica,sans-Serif" font-size="10.00">mcp2515_readRegister</text>
</a>
</g>
</g>
<!-- Node3&#45;&gt;Node7 -->
<g id="edge6_Node000003_Node000007" class="edge">
<title>Node3&#45;&gt;Node7</title>
<g id="a_edge6_Node000003_Node000007"><a xlink:title=" ">
<path fill="none" stroke="#63b8ff" d="M392.74,-58.48C409.74,-62.89 429.71,-68.06 447.73,-72.72"/>
<polygon fill="#63b8ff" stroke="#63b8ff" points="446.62,-76.05 457.18,-75.17 448.38,-69.28 446.62,-76.05"/>
</a>
</g>
</g>
<!-- Node5 -->
<g id="Node000005" class="node">
<title>Node5</title>
<g id="a_Node000005"><a xlink:href="mcp2515_8c.html#ae85a49925cc5c6fd1b15522434dc51ce" target="_top" xlink:title="Finaliza la comunicacion spi.">
<polygon fill="white" stroke="#666666" points="649.62,-77 601.38,-77 601.38,-57 649.62,-57 649.62,-77"/>
<text text-anchor="middle" x="625.5" y="-63.5" font-family="Helvetica,sans-Serif" font-size="10.00">endSPI</text>
</a>
</g>
</g>
<!-- Node4&#45;&gt;Node5 -->
<g id="edge4_Node000004_Node000005" class="edge">
<title>Node4&#45;&gt;Node5</title>
<g id="a_edge4_Node000004_Node000005"><a xlink:title=" ">
<path fill="none" stroke="#63b8ff" d="M563.84,-57.67C572.72,-59.03 581.58,-60.4 589.67,-61.64"/>
<polygon fill="#63b8ff" stroke="#63b8ff" points="588.98,-65.08 599.4,-63.14 590.04,-58.16 588.98,-65.08"/>
</a>
</g>
</g>
<!-- Node6 -->
<g id="Node000006" class="node">
<title>Node6</title>
<g id="a_Node000006"><a xlink:href="mcp2515_8c.html#afea997d2aa89cc2831bff10e34198bd8" target="_top" xlink:title="Funciones privadas.">
<polygon fill="white" stroke="#666666" points="651.5,-39 599.5,-39 599.5,-19 651.5,-19 651.5,-39"/>
<text text-anchor="middle" x="625.5" y="-25.5" font-family="Helvetica,sans-Serif" font-size="10.00">startSPI</text>
</a>
</g>
</g>
<!-- Node4&#45;&gt;Node6 -->
<g id="edge5_Node000004_Node000006" class="edge">
<title>Node4&#45;&gt;Node6</title>
<g id="a_edge5_Node000004_Node000006"><a xlink:title=" ">
<path fill="none" stroke="#63b8ff" d="M563.84,-38.33C572.05,-37.07 580.23,-35.81 587.81,-34.64"/>
<polygon fill="#63b8ff" stroke="#63b8ff" points="588.29,-38.11 597.65,-33.13 587.23,-31.19 588.29,-38.11"/>
</a>
</g>
</g>
<!-- Node7&#45;&gt;Node5 -->
<g id="edge7_Node000007_Node000005" class="edge">
<title>Node7&#45;&gt;Node5</title>
<g id="a_edge7_Node000007_Node000005"><a xlink:title=" ">
<path fill="none" stroke="#63b8ff" d="M558.41,-77.17C569.16,-75.51 580.08,-73.83 589.87,-72.33"/>
<polygon fill="#63b8ff" stroke="#63b8ff" points="590.31,-75.8 599.67,-70.82 589.25,-68.88 590.31,-75.8"/>
</a>
</g>
</g>
<!-- Node7&#45;&gt;Node6 -->
<g id="edge8_Node000007_Node000006" class="edge">
<title>Node7&#45;&gt;Node6</title>
<g id="a_edge8_Node000007_Node000006"><a xlink:title=" ">
<path fill="none" stroke="#63b8ff" d="M540.92,-75.57C548.55,-73.11 556.37,-70.23 563.5,-67 576.55,-61.08 590.17,-52.82 601.22,-45.52"/>
<polygon fill="#63b8ff" stroke="#63b8ff" points="603,-48.54 609.3,-40.02 599.06,-42.75 603,-48.54"/>
</a>
</g>
</g>
<!-- Node8&#45;&gt;Node5 -->
<g id="edge10_Node000008_Node000005" class="edge">
<title>Node8&#45;&gt;Node5</title>
<g id="a_edge10_Node000008_Node000005"><a xlink:title=" ">
<path fill="none" stroke="#63b8ff" d="M540.92,-20.43C548.55,-22.89 556.37,-25.77 563.5,-29 576.55,-34.92 590.17,-43.18 601.22,-50.48"/>
<polygon fill="#63b8ff" stroke="#63b8ff" points="599.06,-53.25 609.3,-55.98 603,-47.46 599.06,-53.25"/>
</a>
</g>
</g>
<!-- Node8&#45;&gt;Node6 -->
<g id="edge11_Node000008_Node000006" class="edge">
<title>Node8&#45;&gt;Node6</title>
<g id="a_edge11_Node000008_Node000006"><a xlink:title=" ">
<path fill="none" stroke="#63b8ff" d="M555.89,-18.44C566.72,-20.11 577.84,-21.82 587.89,-23.37"/>
<polygon fill="#63b8ff" stroke="#63b8ff" points="587.2,-26.8 597.62,-24.86 588.27,-19.88 587.2,-26.8"/>
</a>
</g>
</g>
</g>
</svg>
