<?xml version="1.0" encoding="UTF-8" standalone="no"?>
<!DOCTYPE svg PUBLIC "-//W3C//DTD SVG 1.1//EN"
 "http://www.w3.org/Graphics/SVG/1.1/DTD/svg11.dtd">
<!-- Generated by graphviz version 12.2.1 (20241206.2353)
 -->
<!-- Title: mcp2515_getStatus Pages: 1 -->
<svg width="270pt" height="66pt"
 viewBox="0.00 0.00 270.25 66.00" xmlns="http://www.w3.org/2000/svg" xmlns:xlink="http://www.w3.org/1999/xlink">
<g id="graph0" class="graph" transform="scale(1 1) rotate(0) translate(4 62)">
<title>mcp2515_getStatus</title>
<!-- Node1 -->
<g id="Node000001" class="node">
<title>Node1</title>
<g id="a_Node000001"><a xlink:title="Obtiene los estados solicitados de lectura.">
<polygon fill="#999999" stroke="#666666" points="262.25,-39 159.25,-39 159.25,-19 262.25,-19 262.25,-39"/>
<text text-anchor="middle" x="210.75" y="-25.5" font-family="Helvetica,sans-Serif" font-size="10.00">mcp2515_getStatus</text>
</a>
</g>
</g>
<!-- Node2 -->
<g id="Node000002" class="node">
<title>Node2</title>
<g id="a_Node000002"><a xlink:href="mcp2515_8c.html#a679684df91e2a18e578e81c7be7af67f" target="_top" xlink:title="Chequea la recepcion de los datos.">
<polygon fill="white" stroke="#666666" points="123.25,-58 0,-58 0,-38 123.25,-38 123.25,-58"/>
<text text-anchor="middle" x="61.62" y="-44.5" font-family="Helvetica,sans-Serif" font-size="10.00">mcp2515_checkReceive</text>
</a>
</g>
</g>
<!-- Node1&#45;&gt;Node2 -->
<g id="edge1_Node000001_Node000002" class="edge">
<title>Node1&#45;&gt;Node2</title>
<g id="a_edge1_Node000001_Node000002"><a xlink:title=" ">
<path fill="none" stroke="#63b8ff" d="M147.88,-36.99C139.82,-38.03 131.56,-39.1 123.51,-40.14"/>
<polygon fill="#63b8ff" stroke="#63b8ff" points="148.15,-40.48 157.62,-35.73 147.25,-33.54 148.15,-40.48"/>
</a>
</g>
</g>
<!-- Node3 -->
<g id="Node000003" class="node">
<title>Node3</title>
<g id="a_Node000003"><a xlink:href="mcp2515_8c.html#a98f361e58e9c16ec15a1469172a80547" target="_top" xlink:title="Lee mensajes tipo CAN.">
<polygon fill="white" stroke="#666666" points="121.38,-20 1.88,-20 1.88,0 121.38,0 121.38,-20"/>
<text text-anchor="middle" x="61.62" y="-6.5" font-family="Helvetica,sans-Serif" font-size="10.00">mcp2515_readMessage</text>
</a>
</g>
</g>
<!-- Node1&#45;&gt;Node3 -->
<g id="edge2_Node000001_Node000003" class="edge">
<title>Node1&#45;&gt;Node3</title>
<g id="a_edge2_Node000001_Node000003"><a xlink:title=" ">
<path fill="none" stroke="#63b8ff" d="M147.89,-21.01C139.22,-19.89 130.32,-18.74 121.71,-17.63"/>
<polygon fill="#63b8ff" stroke="#63b8ff" points="147.25,-24.46 157.62,-22.27 148.15,-17.52 147.25,-24.46"/>
</a>
</g>
</g>
</g>
</svg>
