<?xml version="1.0" encoding="UTF-8" standalone="no"?>
<!DOCTYPE svg PUBLIC "-//W3C//DTD SVG 1.1//EN"
 "http://www.w3.org/Graphics/SVG/1.1/DTD/svg11.dtd">
<!-- Generated by graphviz version 12.2.1 (20241206.2353)
 -->
<!-- Title: mcp2515_setRegisters Pages: 1 -->
<svg width="696pt" height="122pt"
 viewBox="0.00 0.00 696.25 122.32" xmlns="http://www.w3.org/2000/svg" xmlns:xlink="http://www.w3.org/1999/xlink">
<g id="graph0" class="graph" transform="scale(1 1) rotate(0) translate(4 118.32)">
<title>mcp2515_setRegisters</title>
<!-- Node1 -->
<g id="Node000001" class="node">
<title>Node1</title>
<g id="a_Node000001"><a xlink:title="Setea multiples registros.">
<polygon fill="#999999" stroke="#666666" points="688.25,-77 571.75,-77 571.75,-57 688.25,-57 688.25,-77"/>
<text text-anchor="middle" x="630" y="-63.5" font-family="Helvetica,sans-Serif" font-size="10.00">mcp2515_setRegisters</text>
</a>
</g>
</g>
<!-- Node2 -->
<g id="Node000002" class="node">
<title>Node2</title>
<g id="a_Node000002"><a xlink:href="mcp2515_8c.html#a21cb40a7513567cb455ce296ef0bbe4b" target="_top" xlink:title="Resetea el modulo.">
<polygon fill="white" stroke="#666666" points="304.5,-93 221.75,-93 221.75,-73 304.5,-73 304.5,-93"/>
<text text-anchor="middle" x="263.12" y="-79.5" font-family="Helvetica,sans-Serif" font-size="10.00">mcp2515_reset</text>
</a>
</g>
</g>
<!-- Node1&#45;&gt;Node2 -->
<g id="edge1_Node000001_Node000002" class="edge">
<title>Node1&#45;&gt;Node2</title>
<g id="a_edge1_Node000001_Node000002"><a xlink:title=" ">
<path fill="none" stroke="#63b8ff" d="M599.59,-82.42C581.68,-90.93 558.02,-100.64 535.75,-105 459.1,-120.02 437.61,-113.79 360,-105 340.15,-102.75 318.41,-97.96 300.67,-93.43"/>
<polygon fill="#63b8ff" stroke="#63b8ff" points="600.89,-85.68 608.32,-78.13 597.8,-79.4 600.89,-85.68"/>
</a>
</g>
</g>
<!-- Node5 -->
<g id="Node000005" class="node">
<title>Node5</title>
<g id="a_Node000005"><a xlink:href="mcp2515_8c.html#a4733cdbc41bfeb798df55ab500ba76ee" target="_top" xlink:title="Envio de mensaje con el buffer.">
<polygon fill="white" stroke="#666666" points="535.75,-20 360,-20 360,0 535.75,0 535.75,-20"/>
<text text-anchor="middle" x="447.88" y="-6.5" font-family="Helvetica,sans-Serif" font-size="10.00">mcp2515_sendMessageWithBufferId</text>
</a>
</g>
</g>
<!-- Node1&#45;&gt;Node5 -->
<g id="edge4_Node000001_Node000005" class="edge">
<title>Node1&#45;&gt;Node5</title>
<g id="a_edge4_Node000001_Node000005"><a xlink:title=" ">
<path fill="none" stroke="#63b8ff" d="M596.08,-51.97C578.46,-44.34 556.21,-35.36 535.75,-29 525.43,-25.79 514.26,-22.92 503.47,-20.44"/>
<polygon fill="#63b8ff" stroke="#63b8ff" points="594.46,-55.08 605.02,-55.9 597.28,-48.67 594.46,-55.08"/>
</a>
</g>
</g>
<!-- Node8 -->
<g id="Node000008" class="node">
<title>Node8</title>
<g id="a_Node000008"><a xlink:href="mcp2515_8c.html#adb0e9467c52bdc0cef5bb689dd3b996f" target="_top" xlink:title="Se configura el filtro.">
<polygon fill="white" stroke="#666666" points="496,-96 399.75,-96 399.75,-76 496,-76 496,-96"/>
<text text-anchor="middle" x="447.88" y="-82.5" font-family="Helvetica,sans-Serif" font-size="10.00">mcp2515_setFilter</text>
</a>
</g>
</g>
<!-- Node1&#45;&gt;Node8 -->
<g id="edge8_Node000001_Node000008" class="edge">
<title>Node1&#45;&gt;Node8</title>
<g id="a_edge8_Node000001_Node000008"><a xlink:title=" ">
<path fill="none" stroke="#63b8ff" d="M560.23,-74.25C538.95,-76.5 515.99,-78.92 496.48,-80.98"/>
<polygon fill="#63b8ff" stroke="#63b8ff" points="560.43,-77.75 570.01,-73.22 559.69,-70.79 560.43,-77.75"/>
</a>
</g>
</g>
<!-- Node9 -->
<g id="Node000009" class="node">
<title>Node9</title>
<g id="a_Node000009"><a xlink:href="mcp2515_8c.html#a34318296cf509afa4e66aeffdbeb0f6d" target="_top" xlink:title="Setea el filtro y la mascara. Se configuran dichos datos en los registros del propio modulo.">
<polygon fill="white" stroke="#666666" points="508,-58 387.75,-58 387.75,-38 508,-38 508,-58"/>
<text text-anchor="middle" x="447.88" y="-44.5" font-family="Helvetica,sans-Serif" font-size="10.00">mcp2515_setFilterMask</text>
</a>
</g>
</g>
<!-- Node1&#45;&gt;Node9 -->
<g id="edge10_Node000001_Node000009" class="edge">
<title>Node1&#45;&gt;Node9</title>
<g id="a_edge10_Node000001_Node000009"><a xlink:title=" ">
<path fill="none" stroke="#63b8ff" d="M560.42,-59.77C543.25,-57.95 524.98,-56.03 508.3,-54.27"/>
<polygon fill="#63b8ff" stroke="#63b8ff" points="559.69,-63.21 570.01,-60.78 560.43,-56.25 559.69,-63.21"/>
</a>
</g>
</g>
<!-- Node3 -->
<g id="Node000003" class="node">
<title>Node3</title>
<g id="a_Node000003"><a xlink:href="main_8c.html#a3df11f7015b4a015c6b468941125de20" target="_top" xlink:title="Inicializacion de perifericos.">
<polygon fill="white" stroke="#666666" points="159.12,-91 80.12,-91 80.12,-71 159.12,-71 159.12,-91"/>
<text text-anchor="middle" x="119.62" y="-77.5" font-family="Helvetica,sans-Serif" font-size="10.00">perifericos_init</text>
</a>
</g>
</g>
<!-- Node2&#45;&gt;Node3 -->
<g id="edge2_Node000002_Node000003" class="edge">
<title>Node2&#45;&gt;Node3</title>
<g id="a_edge2_Node000002_Node000003"><a xlink:title=" ">
<path fill="none" stroke="#63b8ff" d="M210.2,-82.27C193.34,-82.03 174.94,-81.77 159.23,-81.55"/>
<polygon fill="#63b8ff" stroke="#63b8ff" points="210.01,-85.76 220.06,-82.41 210.11,-78.76 210.01,-85.76"/>
</a>
</g>
</g>
<!-- Node4 -->
<g id="Node000004" class="node">
<title>Node4</title>
<g id="a_Node000004"><a xlink:href="main_8c.html#a840291bc02cba5474a4cb46a9b9566fe" target="_top" xlink:title="Main.">
<polygon fill="white" stroke="#666666" points="37,-67 0,-67 0,-47 37,-47 37,-67"/>
<text text-anchor="middle" x="18.5" y="-53.5" font-family="Helvetica,sans-Serif" font-size="10.00">main</text>
</a>
</g>
</g>
<!-- Node3&#45;&gt;Node4 -->
<g id="edge3_Node000003_Node000004" class="edge">
<title>Node3&#45;&gt;Node4</title>
<g id="a_edge3_Node000003_Node000004"><a xlink:title=" ">
<path fill="none" stroke="#63b8ff" d="M68.59,-68.89C57.37,-66.17 46.19,-63.46 37.33,-61.32"/>
<polygon fill="#63b8ff" stroke="#63b8ff" points="67.72,-72.28 78.26,-71.23 69.37,-65.47 67.72,-72.28"/>
</a>
</g>
</g>
<!-- Node6 -->
<g id="Node000006" class="node">
<title>Node6</title>
<g id="a_Node000006"><a xlink:href="mcp2515_8c.html#a4139b924c04d5aa72c132ccd16f05437" target="_top" xlink:title="Envio de mensaje.">
<polygon fill="white" stroke="#666666" points="324,-39 202.25,-39 202.25,-19 324,-19 324,-39"/>
<text text-anchor="middle" x="263.12" y="-25.5" font-family="Helvetica,sans-Serif" font-size="10.00">mcp2515_sendMessage</text>
</a>
</g>
</g>
<!-- Node5&#45;&gt;Node6 -->
<g id="edge5_Node000005_Node000006" class="edge">
<title>Node5&#45;&gt;Node6</title>
<g id="a_edge5_Node000005_Node000006"><a xlink:title=" ">
<path fill="none" stroke="#63b8ff" d="M348.33,-20.25C340.14,-21.1 332.03,-21.94 324.27,-22.75"/>
<polygon fill="#63b8ff" stroke="#63b8ff" points="348.42,-23.75 358.01,-19.24 347.7,-16.79 348.42,-23.75"/>
</a>
</g>
</g>
<!-- Node7 -->
<g id="Node000007" class="node">
<title>Node7</title>
<g id="a_Node000007"><a xlink:href="main_8c.html#ae3697afe652e8273e37aac8f55c48276" target="_top" xlink:title="Escritura de mensajes tipo CAN.">
<polygon fill="white" stroke="#666666" points="166.25,-48 73,-48 73,-28 166.25,-28 166.25,-48"/>
<text text-anchor="middle" x="119.62" y="-34.5" font-family="Helvetica,sans-Serif" font-size="10.00">canmsg_escritura</text>
</a>
</g>
</g>
<!-- Node6&#45;&gt;Node7 -->
<g id="edge6_Node000006_Node000007" class="edge">
<title>Node6&#45;&gt;Node7</title>
<g id="a_edge6_Node000006_Node000007"><a xlink:title=" ">
<path fill="none" stroke="#63b8ff" d="M190.88,-33.53C182.61,-34.06 174.35,-34.58 166.56,-35.08"/>
<polygon fill="#63b8ff" stroke="#63b8ff" points="190.85,-37.04 200.61,-32.91 190.4,-30.05 190.85,-37.04"/>
</a>
</g>
</g>
<!-- Node7&#45;&gt;Node4 -->
<g id="edge7_Node000007_Node000004" class="edge">
<title>Node7&#45;&gt;Node4</title>
<g id="a_edge7_Node000007_Node000004"><a xlink:title=" ">
<path fill="none" stroke="#63b8ff" d="M61.38,-48.97C52.64,-50.65 44.23,-52.26 37.26,-53.59"/>
<polygon fill="#63b8ff" stroke="#63b8ff" points="61.9,-52.44 71.06,-47.12 60.58,-45.56 61.9,-52.44"/>
</a>
</g>
</g>
<!-- Node8&#45;&gt;Node2 -->
<g id="edge9_Node000008_Node000002" class="edge">
<title>Node8&#45;&gt;Node2</title>
<g id="a_edge9_Node000008_Node000002"><a xlink:title=" ">
<path fill="none" stroke="#63b8ff" d="M388.02,-85.03C360.89,-84.59 329.37,-84.07 304.92,-83.67"/>
<polygon fill="#63b8ff" stroke="#63b8ff" points="387.77,-88.53 397.82,-85.19 387.88,-81.53 387.77,-88.53"/>
</a>
</g>
</g>
<!-- Node9&#45;&gt;Node2 -->
<g id="edge11_Node000009_Node000002" class="edge">
<title>Node9&#45;&gt;Node2</title>
<g id="a_edge11_Node000009_Node000002"><a xlink:title=" ">
<path fill="none" stroke="#63b8ff" d="M381.42,-60.54C355.89,-65.43 327.4,-70.88 304.9,-75.19"/>
<polygon fill="#63b8ff" stroke="#63b8ff" points="381.89,-64.01 391.05,-58.69 380.57,-57.13 381.89,-64.01"/>
</a>
</g>
</g>
</g>
</svg>
