<?xml version="1.0" encoding="UTF-8" standalone="no"?>
<!DOCTYPE svg PUBLIC "-//W3C//DTD SVG 1.1//EN"
 "http://www.w3.org/Graphics/SVG/1.1/DTD/svg11.dtd">
<!-- Generated by graphviz version 12.2.1 (20241206.2353)
 -->
<!-- Title: mcp2515_readRegister Pages: 1 -->
<svg width="1042pt" height="511pt"
 viewBox="0.00 0.00 1041.75 510.80" xmlns="http://www.w3.org/2000/svg" xmlns:xlink="http://www.w3.org/1999/xlink">
<g id="graph0" class="graph" transform="scale(1 1) rotate(0) translate(4 506.8)">
<title>mcp2515_readRegister</title>
<!-- Node1 -->
<g id="Node000001" class="node">
<title>Node1</title>
<g id="a_Node000001"><a xlink:title="Lee un solo registro a la vez.">
<polygon fill="#999999" stroke="#666666" points="1033.75,-331.8 917.25,-331.8 917.25,-311.8 1033.75,-311.8 1033.75,-331.8"/>
<text text-anchor="middle" x="975.5" y="-318.3" font-family="Helvetica,sans-Serif" font-size="10.00">mcp2515_readRegister</text>
</a>
</g>
</g>
<!-- Node2 -->
<g id="Node000002" class="node">
<title>Node2</title>
<g id="a_Node000002"><a xlink:href="mcp2515_8c.html#ab5e2dbab71fce64be2696e8901312f7e" target="_top" xlink:title="Chequa el contador de error de recepcion.">
<polygon fill="white" stroke="#666666" points="853.88,-502.8 732.88,-502.8 732.88,-482.8 853.88,-482.8 853.88,-502.8"/>
<text text-anchor="middle" x="793.38" y="-489.3" font-family="Helvetica,sans-Serif" font-size="10.00">mcp2515_errorCountRX</text>
</a>
</g>
</g>
<!-- Node1&#45;&gt;Node2 -->
<g id="edge1_Node000001_Node000002" class="edge">
<title>Node1&#45;&gt;Node2</title>
<g id="a_edge1_Node000001_Node000002"><a xlink:title=" ">
<path fill="none" stroke="#63b8ff" d="M967.61,-343.08C955.65,-376.46 927.77,-440.73 881.25,-473.8 873.2,-479.52 863.74,-483.57 854.08,-486.42"/>
<polygon fill="#63b8ff" stroke="#63b8ff" points="970.88,-344.32 970.81,-333.72 964.26,-342.05 970.88,-344.32"/>
</a>
</g>
</g>
<!-- Node3 -->
<g id="Node000003" class="node">
<title>Node3</title>
<g id="a_Node000003"><a xlink:href="mcp2515_8c.html#aab193cc15f237a1ca714ddd1338455c0" target="_top" xlink:title="Chequea el contador de error de transmision.">
<polygon fill="white" stroke="#666666" points="853.12,-464.8 733.62,-464.8 733.62,-444.8 853.12,-444.8 853.12,-464.8"/>
<text text-anchor="middle" x="793.38" y="-451.3" font-family="Helvetica,sans-Serif" font-size="10.00">mcp2515_errorCountTX</text>
</a>
</g>
</g>
<!-- Node1&#45;&gt;Node3 -->
<g id="edge2_Node000001_Node000003" class="edge">
<title>Node1&#45;&gt;Node3</title>
<g id="a_edge2_Node000001_Node000003"><a xlink:title=" ">
<path fill="none" stroke="#63b8ff" d="M963.63,-342.18C948.67,-368.16 919.2,-412.51 881.25,-435.8 872.83,-440.96 863.19,-444.73 853.46,-447.48"/>
<polygon fill="#63b8ff" stroke="#63b8ff" points="966.6,-344.04 968.4,-333.6 960.48,-340.64 966.6,-344.04"/>
</a>
</g>
</g>
<!-- Node4 -->
<g id="Node000004" class="node">
<title>Node4</title>
<g id="a_Node000004"><a xlink:href="mcp2515_8c.html#ac3d500cb17c7da9f83aeb38c96e78a05" target="_top" xlink:title="Obtiene el estado de error de modulo can.">
<polygon fill="white" stroke="#666666" points="853.12,-426.8 733.62,-426.8 733.62,-406.8 853.12,-406.8 853.12,-426.8"/>
<text text-anchor="middle" x="793.38" y="-413.3" font-family="Helvetica,sans-Serif" font-size="10.00">mcp2515_getErrorFlags</text>
</a>
</g>
</g>
<!-- Node1&#45;&gt;Node4 -->
<g id="edge3_Node000001_Node000004" class="edge">
<title>Node1&#45;&gt;Node4</title>
<g id="a_edge3_Node000001_Node000004"><a xlink:title=" ">
<path fill="none" stroke="#63b8ff" d="M957.36,-340.05C939.88,-357.55 911.15,-383.37 881.25,-397.8 872.63,-401.96 863.09,-405.22 853.58,-407.77"/>
<polygon fill="#63b8ff" stroke="#63b8ff" points="959.46,-342.91 963.93,-333.3 954.45,-338.02 959.46,-342.91"/>
</a>
</g>
</g>
<!-- Node7 -->
<g id="Node000007" class="node">
<title>Node7</title>
<g id="a_Node000007"><a xlink:href="mcp2515_8c.html#a32b8237325cc18003a9482d90b3831e8" target="_top" xlink:title="Obtiene las interrupciones habilitadas desde el modulo can.">
<polygon fill="white" stroke="#666666" points="860.62,-388.8 726.12,-388.8 726.12,-368.8 860.62,-368.8 860.62,-388.8"/>
<text text-anchor="middle" x="793.38" y="-375.3" font-family="Helvetica,sans-Serif" font-size="10.00">mcp2515_getInterruptMask</text>
</a>
</g>
</g>
<!-- Node1&#45;&gt;Node7 -->
<g id="edge6_Node000001_Node000007" class="edge">
<title>Node1&#45;&gt;Node7</title>
<g id="a_edge6_Node000001_Node000007"><a xlink:title=" ">
<path fill="none" stroke="#63b8ff" d="M941.58,-336.83C923.96,-344.46 901.71,-353.44 881.25,-359.8 870.93,-363 859.76,-365.87 848.97,-368.36"/>
<polygon fill="#63b8ff" stroke="#63b8ff" points="942.78,-340.12 950.52,-332.89 939.96,-333.72 942.78,-340.12"/>
</a>
</g>
</g>
<!-- Node8 -->
<g id="Node000008" class="node">
<title>Node8</title>
<g id="a_Node000008"><a xlink:href="mcp2515_8c.html#a7af7b4fa57705edc5690d743269bb412" target="_top" xlink:title="Obtiene las interrupciones del modulo can. Desde el registro de interrupt flags.">
<polygon fill="white" stroke="#666666" points="851.25,-350.8 735.5,-350.8 735.5,-330.8 851.25,-330.8 851.25,-350.8"/>
<text text-anchor="middle" x="793.38" y="-337.3" font-family="Helvetica,sans-Serif" font-size="10.00">mcp2515_getInterrupts</text>
</a>
</g>
</g>
<!-- Node1&#45;&gt;Node8 -->
<g id="edge7_Node000001_Node000008" class="edge">
<title>Node1&#45;&gt;Node8</title>
<g id="a_edge7_Node000001_Node000008"><a xlink:title=" ">
<path fill="none" stroke="#63b8ff" d="M905.77,-329.05C887.9,-330.93 868.84,-332.94 851.63,-334.76"/>
<polygon fill="#63b8ff" stroke="#63b8ff" points="905.93,-332.55 915.51,-328.02 905.19,-325.59 905.93,-332.55"/>
</a>
</g>
</g>
<!-- Node9 -->
<g id="Node000009" class="node">
<title>Node9</title>
<g id="a_Node000009"><a xlink:href="mcp2515_8c.html#a5a56a5809b74e255e306caa97853dd13" target="_top" xlink:title="Lee mensaje con el buffer indicado.">
<polygon fill="white" stroke="#666666" points="880.12,-312.8 706.62,-312.8 706.62,-292.8 880.12,-292.8 880.12,-312.8"/>
<text text-anchor="middle" x="793.38" y="-299.3" font-family="Helvetica,sans-Serif" font-size="10.00">mcp2515_readMessageWithBufferId</text>
</a>
</g>
</g>
<!-- Node1&#45;&gt;Node9 -->
<g id="edge8_Node000001_Node000009" class="edge">
<title>Node1&#45;&gt;Node9</title>
<g id="a_edge8_Node000001_Node000009"><a xlink:title=" ">
<path fill="none" stroke="#63b8ff" d="M905.61,-314.53C897.4,-313.66 888.94,-312.77 880.53,-311.88"/>
<polygon fill="#63b8ff" stroke="#63b8ff" points="905.19,-318 915.51,-315.57 905.93,-311.04 905.19,-318"/>
</a>
</g>
</g>
<!-- Node11 -->
<g id="Node000011" class="node">
<title>Node11</title>
<g id="a_Node000011"><a xlink:href="mcp2515_8c.html#a21cb40a7513567cb455ce296ef0bbe4b" target="_top" xlink:title="Resetea el modulo.">
<polygon fill="white" stroke="#666666" points="308.62,-151.8 225.88,-151.8 225.88,-131.8 308.62,-131.8 308.62,-151.8"/>
<text text-anchor="middle" x="267.25" y="-138.3" font-family="Helvetica,sans-Serif" font-size="10.00">mcp2515_reset</text>
</a>
</g>
</g>
<!-- Node1&#45;&gt;Node11 -->
<g id="edge10_Node000001_Node000011" class="edge">
<title>Node1&#45;&gt;Node11</title>
<g id="a_edge10_Node000001_Node000011"><a xlink:title=" ">
<path fill="none" stroke="#63b8ff" d="M964.54,-301.38C950.24,-274.59 921.15,-228.54 881.25,-207.8 779.83,-155.05 480.85,-189.53 368.25,-169.8 344.81,-165.69 318.95,-158.37 299.41,-152.25"/>
<polygon fill="#63b8ff" stroke="#63b8ff" points="961.39,-302.9 969.06,-310.21 967.62,-299.71 961.39,-302.9"/>
</a>
</g>
</g>
<!-- Node14 -->
<g id="Node000014" class="node">
<title>Node14</title>
<g id="a_Node000014"><a xlink:href="mcp2515_8c.html#a4139b924c04d5aa72c132ccd16f05437" target="_top" xlink:title="Envio de mensaje.">
<polygon fill="white" stroke="#666666" points="657.88,-236.8 536.12,-236.8 536.12,-216.8 657.88,-216.8 657.88,-236.8"/>
<text text-anchor="middle" x="597" y="-223.3" font-family="Helvetica,sans-Serif" font-size="10.00">mcp2515_sendMessage</text>
</a>
</g>
</g>
<!-- Node1&#45;&gt;Node14 -->
<g id="edge13_Node000001_Node000014" class="edge">
<title>Node1&#45;&gt;Node14</title>
<g id="a_edge13_Node000001_Node000014"><a xlink:title=" ">
<path fill="none" stroke="#63b8ff" d="M941.98,-306.78C924.31,-299.07 901.9,-290.02 881.25,-283.8 840.07,-271.38 726.94,-250.02 656.75,-237.27"/>
<polygon fill="#63b8ff" stroke="#63b8ff" points="940.37,-309.9 950.93,-310.76 943.21,-303.5 940.37,-309.9"/>
</a>
</g>
</g>
<!-- Node16 -->
<g id="Node000016" class="node">
<title>Node16</title>
<g id="a_Node000016"><a xlink:href="mcp2515_8c.html#a4733cdbc41bfeb798df55ab500ba76ee" target="_top" xlink:title="Envio de mensaje con el buffer.">
<polygon fill="white" stroke="#666666" points="881.25,-236.8 705.5,-236.8 705.5,-216.8 881.25,-216.8 881.25,-236.8"/>
<text text-anchor="middle" x="793.38" y="-223.3" font-family="Helvetica,sans-Serif" font-size="10.00">mcp2515_sendMessageWithBufferId</text>
</a>
</g>
</g>
<!-- Node1&#45;&gt;Node16 -->
<g id="edge16_Node000001_Node000016" class="edge">
<title>Node1&#45;&gt;Node16</title>
<g id="a_edge16_Node000001_Node000016"><a xlink:title=" ">
<path fill="none" stroke="#63b8ff" d="M955.3,-303.63C937.42,-287.62 909.35,-264.72 881.25,-250.8 869.89,-245.17 857.03,-240.7 844.74,-237.22"/>
<polygon fill="#63b8ff" stroke="#63b8ff" points="952.82,-306.1 962.56,-310.27 957.55,-300.94 952.82,-306.1"/>
</a>
</g>
</g>
<!-- Node17 -->
<g id="Node000017" class="node">
<title>Node17</title>
<g id="a_Node000017"><a xlink:href="mcp2515_8c.html#aa8f4e44a2081362f25ff79e24d4bf6cb" target="_top" xlink:title="Seteado el modo de trabajo.">
<polygon fill="white" stroke="#666666" points="842.62,-103.8 744.12,-103.8 744.12,-83.8 842.62,-83.8 842.62,-103.8"/>
<text text-anchor="middle" x="793.38" y="-90.3" font-family="Helvetica,sans-Serif" font-size="10.00">mcp2515_setMode</text>
</a>
</g>
</g>
<!-- Node1&#45;&gt;Node17 -->
<g id="edge18_Node000001_Node000017" class="edge">
<title>Node1&#45;&gt;Node17</title>
<g id="a_edge18_Node000001_Node000017"><a xlink:title=" ">
<path fill="none" stroke="#63b8ff" d="M963.91,-301.69C947.98,-272.33 916,-216.65 881.25,-174.8 857.94,-146.71 825.33,-118.74 807.43,-104.15"/>
<polygon fill="#63b8ff" stroke="#63b8ff" points="960.68,-303.07 968.49,-310.24 966.85,-299.77 960.68,-303.07"/>
</a>
</g>
</g>
<!-- Node5 -->
<g id="Node000005" class="node">
<title>Node5</title>
<g id="a_Node000005"><a xlink:href="mcp2515_8c.html#a8ceef1324ef15325f4a5826d5b58273b" target="_top" xlink:title="Chequea los errores informados desde el modulo.">
<polygon fill="white" stroke="#666666" points="651.12,-445.8 542.88,-445.8 542.88,-425.8 651.12,-425.8 651.12,-445.8"/>
<text text-anchor="middle" x="597" y="-432.3" font-family="Helvetica,sans-Serif" font-size="10.00">mcp2515_checkError</text>
</a>
</g>
</g>
<!-- Node4&#45;&gt;Node5 -->
<g id="edge4_Node000004_Node000005" class="edge">
<title>Node4&#45;&gt;Node5</title>
<g id="a_edge4_Node000004_Node000005"><a xlink:title=" ">
<path fill="none" stroke="#63b8ff" d="M722.05,-423.67C698.8,-425.94 673.32,-428.43 651.54,-430.56"/>
<polygon fill="#63b8ff" stroke="#63b8ff" points="722.15,-427.18 731.76,-422.72 721.46,-420.21 722.15,-427.18"/>
</a>
</g>
</g>
<!-- Node6 -->
<g id="Node000006" class="node">
<title>Node6</title>
<g id="a_Node000006"><a xlink:href="mcp2515_8c.html#aeb679de4c34c365123f989fab92b9b71" target="_top" xlink:title="Limpia la bandera de overflow de los buffers de rx.">
<polygon fill="white" stroke="#666666" points="658.62,-407.8 535.38,-407.8 535.38,-387.8 658.62,-387.8 658.62,-407.8"/>
<text text-anchor="middle" x="597" y="-394.3" font-family="Helvetica,sans-Serif" font-size="10.00">mcp2515_clearRXnOVR</text>
</a>
</g>
</g>
<!-- Node4&#45;&gt;Node6 -->
<g id="edge5_Node000004_Node000006" class="edge">
<title>Node4&#45;&gt;Node6</title>
<g id="a_edge5_Node000004_Node000006"><a xlink:title=" ">
<path fill="none" stroke="#63b8ff" d="M721.98,-409.92C701.31,-407.89 678.87,-405.7 658.85,-403.74"/>
<polygon fill="#63b8ff" stroke="#63b8ff" points="721.46,-413.38 731.76,-410.87 722.15,-406.41 721.46,-413.38"/>
</a>
</g>
</g>
<!-- Node10 -->
<g id="Node000010" class="node">
<title>Node10</title>
<g id="a_Node000010"><a xlink:href="mcp2515_8c.html#a98f361e58e9c16ec15a1469172a80547" target="_top" xlink:title="Lee mensajes tipo CAN.">
<polygon fill="white" stroke="#666666" points="656.75,-312.8 537.25,-312.8 537.25,-292.8 656.75,-292.8 656.75,-312.8"/>
<text text-anchor="middle" x="597" y="-299.3" font-family="Helvetica,sans-Serif" font-size="10.00">mcp2515_readMessage</text>
</a>
</g>
</g>
<!-- Node9&#45;&gt;Node10 -->
<g id="edge9_Node000009_Node000010" class="edge">
<title>Node9&#45;&gt;Node10</title>
<g id="a_edge9_Node000009_Node000010"><a xlink:title=" ">
<path fill="none" stroke="#63b8ff" d="M694.91,-302.8C681.95,-302.8 669,-302.8 656.98,-302.8"/>
<polygon fill="#63b8ff" stroke="#63b8ff" points="694.76,-306.3 704.76,-302.8 694.76,-299.3 694.76,-306.3"/>
</a>
</g>
</g>
<!-- Node12 -->
<g id="Node000012" class="node">
<title>Node12</title>
<g id="a_Node000012"><a xlink:href="main_8c.html#a3df11f7015b4a015c6b468941125de20" target="_top" xlink:title="Inicializacion de perifericos.">
<polygon fill="white" stroke="#666666" points="159.12,-127.8 80.12,-127.8 80.12,-107.8 159.12,-107.8 159.12,-127.8"/>
<text text-anchor="middle" x="119.62" y="-114.3" font-family="Helvetica,sans-Serif" font-size="10.00">perifericos_init</text>
</a>
</g>
</g>
<!-- Node11&#45;&gt;Node12 -->
<g id="edge11_Node000011_Node000012" class="edge">
<title>Node11&#45;&gt;Node12</title>
<g id="a_edge11_Node000011_Node000012"><a xlink:title=" ">
<path fill="none" stroke="#63b8ff" d="M214.41,-133.25C196.31,-130.27 176.33,-126.98 159.47,-124.2"/>
<polygon fill="#63b8ff" stroke="#63b8ff" points="213.76,-136.69 224.19,-134.86 214.89,-129.78 213.76,-136.69"/>
</a>
</g>
</g>
<!-- Node13 -->
<g id="Node000013" class="node">
<title>Node13</title>
<g id="a_Node000013"><a xlink:href="main_8c.html#a840291bc02cba5474a4cb46a9b9566fe" target="_top" xlink:title="Main.">
<polygon fill="white" stroke="#666666" points="37,-146.8 0,-146.8 0,-126.8 37,-126.8 37,-146.8"/>
<text text-anchor="middle" x="18.5" y="-133.3" font-family="Helvetica,sans-Serif" font-size="10.00">main</text>
</a>
</g>
</g>
<!-- Node12&#45;&gt;Node13 -->
<g id="edge12_Node000012_Node000013" class="edge">
<title>Node12&#45;&gt;Node13</title>
<g id="a_edge12_Node000012_Node000013"><a xlink:title=" ">
<path fill="none" stroke="#63b8ff" d="M68.59,-127.39C57.37,-129.54 46.19,-131.68 37.33,-133.38"/>
<polygon fill="#63b8ff" stroke="#63b8ff" points="69.08,-130.86 78.25,-125.54 67.77,-123.98 69.08,-130.86"/>
</a>
</g>
</g>
<!-- Node15 -->
<g id="Node000015" class="node">
<title>Node15</title>
<g id="a_Node000015"><a xlink:href="main_8c.html#ae3697afe652e8273e37aac8f55c48276" target="_top" xlink:title="Escritura de mensajes tipo CAN.">
<polygon fill="white" stroke="#666666" points="166.25,-200.8 73,-200.8 73,-180.8 166.25,-180.8 166.25,-200.8"/>
<text text-anchor="middle" x="119.62" y="-187.3" font-family="Helvetica,sans-Serif" font-size="10.00">canmsg_escritura</text>
</a>
</g>
</g>
<!-- Node14&#45;&gt;Node15 -->
<g id="edge14_Node000014_Node000015" class="edge">
<title>Node14&#45;&gt;Node15</title>
<g id="a_edge14_Node000014_Node000015"><a xlink:title=" ">
<path fill="none" stroke="#63b8ff" d="M524.41,-221.37C425.41,-213.88 249.55,-200.56 166.49,-194.27"/>
<polygon fill="#63b8ff" stroke="#63b8ff" points="524.05,-224.86 534.28,-222.12 524.58,-217.88 524.05,-224.86"/>
</a>
</g>
</g>
<!-- Node15&#45;&gt;Node13 -->
<g id="edge15_Node000015_Node000013" class="edge">
<title>Node15&#45;&gt;Node13</title>
<g id="a_edge15_Node000015_Node000013"><a xlink:title=" ">
<path fill="none" stroke="#63b8ff" d="M89.55,-174.95C72.59,-165.72 51.74,-154.36 37.22,-146.45"/>
<polygon fill="#63b8ff" stroke="#63b8ff" points="87.73,-177.95 98.18,-179.66 91.08,-171.8 87.73,-177.95"/>
</a>
</g>
</g>
<!-- Node16&#45;&gt;Node14 -->
<g id="edge17_Node000016_Node000014" class="edge">
<title>Node16&#45;&gt;Node14</title>
<g id="a_edge17_Node000016_Node000014"><a xlink:title=" ">
<path fill="none" stroke="#63b8ff" d="M693.96,-226.8C681.77,-226.8 669.61,-226.8 658.24,-226.8"/>
<polygon fill="#63b8ff" stroke="#63b8ff" points="693.62,-230.3 703.62,-226.8 693.62,-223.3 693.62,-230.3"/>
</a>
</g>
</g>
<!-- Node18 -->
<g id="Node000018" class="node">
<title>Node18</title>
<g id="a_Node000018"><a xlink:href="mcp2515_8c.html#a0a1c3cc8b486dbd55ff9d2d011694fa6" target="_top" xlink:title="Setea el modo de configuracion.">
<polygon fill="white" stroke="#666666" points="660.5,-160.8 533.5,-160.8 533.5,-140.8 660.5,-140.8 660.5,-160.8"/>
<text text-anchor="middle" x="597" y="-147.3" font-family="Helvetica,sans-Serif" font-size="10.00">mcp2515_setConfigMode</text>
</a>
</g>
</g>
<!-- Node17&#45;&gt;Node18 -->
<g id="edge19_Node000017_Node000018" class="edge">
<title>Node17&#45;&gt;Node18</title>
<g id="a_edge19_Node000017_Node000018"><a xlink:title=" ">
<path fill="none" stroke="#63b8ff" d="M749.22,-107.61C725.71,-115.01 696.09,-124.16 669.5,-131.8 659.5,-134.67 648.67,-137.63 638.54,-140.33"/>
<polygon fill="#63b8ff" stroke="#63b8ff" points="749.96,-111.04 758.44,-104.69 747.85,-104.37 749.96,-111.04"/>
</a>
</g>
</g>
<!-- Node22 -->
<g id="Node000022" class="node">
<title>Node22</title>
<g id="a_Node000022"><a xlink:href="mcp2515_8c.html#a24629fc99e83c9f097a0d24629dcae79" target="_top" xlink:title="Setea el modo de solo escucha.">
<polygon fill="white" stroke="#666666" points="669.5,-84.8 524.5,-84.8 524.5,-64.8 669.5,-64.8 669.5,-84.8"/>
<text text-anchor="middle" x="597" y="-71.3" font-family="Helvetica,sans-Serif" font-size="10.00">mcp2515_setListenOnlyMode</text>
</a>
</g>
</g>
<!-- Node17&#45;&gt;Node22 -->
<g id="edge26_Node000017_Node000022" class="edge">
<title>Node17&#45;&gt;Node22</title>
<g id="a_edge26_Node000017_Node000022"><a xlink:title=" ">
<path fill="none" stroke="#63b8ff" d="M732.47,-87.94C712.65,-86 690.39,-83.83 669.78,-81.81"/>
<polygon fill="#63b8ff" stroke="#63b8ff" points="732.03,-91.41 742.32,-88.9 732.71,-84.45 732.03,-91.41"/>
</a>
</g>
</g>
<!-- Node23 -->
<g id="Node000023" class="node">
<title>Node23</title>
<g id="a_Node000023"><a xlink:href="mcp2515_8c.html#a4d44b1c2e0ad790988f8821b12fc8c80" target="_top" xlink:title="Setea el modo de loopback.">
<polygon fill="white" stroke="#666666" points="667.25,-46.8 526.75,-46.8 526.75,-26.8 667.25,-26.8 667.25,-46.8"/>
<text text-anchor="middle" x="597" y="-33.3" font-family="Helvetica,sans-Serif" font-size="10.00">mcp2515_setLoopbackMode</text>
</a>
</g>
</g>
<!-- Node17&#45;&gt;Node23 -->
<g id="edge27_Node000017_Node000023" class="edge">
<title>Node17&#45;&gt;Node23</title>
<g id="a_edge27_Node000017_Node000023"><a xlink:title=" ">
<path fill="none" stroke="#63b8ff" d="M749.22,-79.98C725.71,-72.58 696.09,-63.44 669.5,-55.8 659.5,-52.92 648.67,-49.97 638.54,-47.27"/>
<polygon fill="#63b8ff" stroke="#63b8ff" points="747.85,-83.22 758.44,-82.9 749.96,-76.55 747.85,-83.22"/>
</a>
</g>
</g>
<!-- Node24 -->
<g id="Node000024" class="node">
<title>Node24</title>
<g id="a_Node000024"><a xlink:href="mcp2515_8c.html#ab5403fd588f8558b6b3031e9cee0b35e" target="_top" xlink:title="Setea el modo normal de trabajo.">
<polygon fill="white" stroke="#666666" points="332.25,-46.8 202.25,-46.8 202.25,-26.8 332.25,-26.8 332.25,-46.8"/>
<text text-anchor="middle" x="267.25" y="-33.3" font-family="Helvetica,sans-Serif" font-size="10.00">mcp2515_setNormalMode</text>
</a>
</g>
</g>
<!-- Node17&#45;&gt;Node24 -->
<g id="edge28_Node000017_Node000024" class="edge">
<title>Node17&#45;&gt;Node24</title>
<g id="a_edge28_Node000017_Node000024"><a xlink:title=" ">
<path fill="none" stroke="#63b8ff" d="M772.08,-76.23C749.03,-57.54 709.4,-29.14 669.5,-17.8 542.38,18.34 383.59,-9.43 309.68,-26.3"/>
<polygon fill="#63b8ff" stroke="#63b8ff" points="769.81,-78.89 779.74,-82.6 774.29,-73.51 769.81,-78.89"/>
</a>
</g>
</g>
<!-- Node25 -->
<g id="Node000025" class="node">
<title>Node25</title>
<g id="a_Node000025"><a xlink:href="mcp2515_8c.html#a9eeb6e5089676520f1f243d43b25bd0b" target="_top" xlink:title="Setea el modo sleep.">
<polygon fill="white" stroke="#666666" points="658.62,-122.8 535.38,-122.8 535.38,-102.8 658.62,-102.8 658.62,-122.8"/>
<text text-anchor="middle" x="597" y="-109.3" font-family="Helvetica,sans-Serif" font-size="10.00">mcp2515_setSleepMode</text>
</a>
</g>
</g>
<!-- Node17&#45;&gt;Node25 -->
<g id="edge30_Node000017_Node000025" class="edge">
<title>Node17&#45;&gt;Node25</title>
<g id="a_edge30_Node000017_Node000025"><a xlink:title=" ">
<path fill="none" stroke="#63b8ff" d="M732.63,-99.64C709.2,-101.93 682.34,-104.55 658.8,-106.85"/>
<polygon fill="#63b8ff" stroke="#63b8ff" points="732.71,-103.15 742.32,-98.69 732.03,-96.18 732.71,-103.15"/>
</a>
</g>
</g>
<!-- Node19 -->
<g id="Node000019" class="node">
<title>Node19</title>
<g id="a_Node000019"><a xlink:href="mcp2515_8c.html#a376a8574dcdafeeac264e1b652333d58" target="_top" xlink:title="Setea el baud rate.">
<polygon fill="white" stroke="#666666" points="318.75,-103.8 215.75,-103.8 215.75,-83.8 318.75,-83.8 318.75,-103.8"/>
<text text-anchor="middle" x="267.25" y="-90.3" font-family="Helvetica,sans-Serif" font-size="10.00">mcp2515_setBitrate</text>
</a>
</g>
</g>
<!-- Node18&#45;&gt;Node19 -->
<g id="edge20_Node000018_Node000019" class="edge">
<title>Node18&#45;&gt;Node19</title>
<g id="a_edge20_Node000018_Node000019"><a xlink:title=" ">
<path fill="none" stroke="#63b8ff" d="M532.64,-136.07C529.83,-134.76 527.1,-133.34 524.5,-131.8 504.5,-119.91 509.87,-102.99 488.5,-93.8 433,-69.92 362.11,-75.52 315.97,-83.3"/>
<polygon fill="#63b8ff" stroke="#63b8ff" points="531.11,-139.23 541.69,-139.76 533.75,-132.74 531.11,-139.23"/>
</a>
</g>
</g>
<!-- Node20 -->
<g id="Node000020" class="node">
<title>Node20</title>
<g id="a_Node000020"><a xlink:href="mcp2515_8c.html#adb0e9467c52bdc0cef5bb689dd3b996f" target="_top" xlink:title="Se configura el filtro.">
<polygon fill="white" stroke="#666666" points="476.5,-122.8 380.25,-122.8 380.25,-102.8 476.5,-102.8 476.5,-122.8"/>
<text text-anchor="middle" x="428.38" y="-109.3" font-family="Helvetica,sans-Serif" font-size="10.00">mcp2515_setFilter</text>
</a>
</g>
</g>
<!-- Node18&#45;&gt;Node20 -->
<g id="edge22_Node000018_Node000020" class="edge">
<title>Node18&#45;&gt;Node20</title>
<g id="a_edge22_Node000018_Node000020"><a xlink:title=" ">
<path fill="none" stroke="#63b8ff" d="M539.07,-137.81C518.23,-133.06 494.94,-127.75 475.2,-123.25"/>
<polygon fill="#63b8ff" stroke="#63b8ff" points="538.02,-141.16 548.55,-139.98 539.58,-134.34 538.02,-141.16"/>
</a>
</g>
</g>
<!-- Node21 -->
<g id="Node000021" class="node">
<title>Node21</title>
<g id="a_Node000021"><a xlink:href="mcp2515_8c.html#a34318296cf509afa4e66aeffdbeb0f6d" target="_top" xlink:title="Setea el filtro y la mascara. Se configuran dichos datos en los registros del propio modulo.">
<polygon fill="white" stroke="#666666" points="488.5,-160.8 368.25,-160.8 368.25,-140.8 488.5,-140.8 488.5,-160.8"/>
<text text-anchor="middle" x="428.38" y="-147.3" font-family="Helvetica,sans-Serif" font-size="10.00">mcp2515_setFilterMask</text>
</a>
</g>
</g>
<!-- Node18&#45;&gt;Node21 -->
<g id="edge24_Node000018_Node000021" class="edge">
<title>Node18&#45;&gt;Node21</title>
<g id="a_edge24_Node000018_Node000021"><a xlink:title=" ">
<path fill="none" stroke="#63b8ff" d="M521.67,-150.8C510.7,-150.8 499.51,-150.8 488.88,-150.8"/>
<polygon fill="#63b8ff" stroke="#63b8ff" points="521.49,-154.3 531.49,-150.8 521.49,-147.3 521.49,-154.3"/>
</a>
</g>
</g>
<!-- Node19&#45;&gt;Node12 -->
<g id="edge21_Node000019_Node000012" class="edge">
<title>Node19&#45;&gt;Node12</title>
<g id="a_edge21_Node000019_Node000012"><a xlink:title=" ">
<path fill="none" stroke="#63b8ff" d="M204.36,-104C189.09,-106.51 173.17,-109.14 159.36,-111.41"/>
<polygon fill="#63b8ff" stroke="#63b8ff" points="204.53,-107.52 213.82,-102.44 203.39,-100.61 204.53,-107.52"/>
</a>
</g>
</g>
<!-- Node20&#45;&gt;Node11 -->
<g id="edge23_Node000020_Node000011" class="edge">
<title>Node20&#45;&gt;Node11</title>
<g id="a_edge23_Node000020_Node000011"><a xlink:title=" ">
<path fill="none" stroke="#63b8ff" d="M368.91,-123.45C348.98,-127.08 327.14,-131.06 308.92,-134.38"/>
<polygon fill="#63b8ff" stroke="#63b8ff" points="369.36,-126.93 378.57,-121.69 368.11,-120.04 369.36,-126.93"/>
</a>
</g>
</g>
<!-- Node21&#45;&gt;Node11 -->
<g id="edge25_Node000021_Node000011" class="edge">
<title>Node21&#45;&gt;Node11</title>
<g id="a_edge25_Node000021_Node000011"><a xlink:title=" ">
<path fill="none" stroke="#63b8ff" d="M356.83,-146.81C340.36,-145.87 323.36,-144.91 308.71,-144.08"/>
<polygon fill="#63b8ff" stroke="#63b8ff" points="356.43,-150.29 366.61,-147.36 356.83,-143.3 356.43,-150.29"/>
</a>
</g>
</g>
<!-- Node24&#45;&gt;Node12 -->
<g id="edge29_Node000024_Node000012" class="edge">
<title>Node24&#45;&gt;Node12</title>
<g id="a_edge29_Node000024_Node000012"><a xlink:title=" ">
<path fill="none" stroke="#63b8ff" d="M237.52,-52.77C208.39,-68.98 164.16,-93.58 139.29,-107.41"/>
<polygon fill="#63b8ff" stroke="#63b8ff" points="239.15,-55.87 246.19,-47.96 235.75,-49.76 239.15,-55.87"/>
</a>
</g>
</g>
</g>
</svg>
