<?xml version="1.0" encoding="UTF-8" standalone="no"?>
<!DOCTYPE svg PUBLIC "-//W3C//DTD SVG 1.1//EN"
 "http://www.w3.org/Graphics/SVG/1.1/DTD/svg11.dtd">
<!-- Generated by graphviz version 12.2.1 (20241206.2353)
 -->
<!-- Title: mcp2515_sendMessageWithBufferId Pages: 1 -->
<svg width="544pt" height="28pt"
 viewBox="0.00 0.00 543.75 28.00" xmlns="http://www.w3.org/2000/svg" xmlns:xlink="http://www.w3.org/1999/xlink">
<g id="graph0" class="graph" transform="scale(1 1) rotate(0) translate(4 24)">
<title>mcp2515_sendMessageWithBufferId</title>
<!-- Node1 -->
<g id="Node000001" class="node">
<title>Node1</title>
<g id="a_Node000001"><a xlink:title="Envio de mensaje con el buffer.">
<polygon fill="#999999" stroke="#666666" points="535.75,-20 360,-20 360,0 535.75,0 535.75,-20"/>
<text text-anchor="middle" x="447.88" y="-6.5" font-family="Helvetica,sans-Serif" font-size="10.00">mcp2515_sendMessageWithBufferId</text>
</a>
</g>
</g>
<!-- Node2 -->
<g id="Node000002" class="node">
<title>Node2</title>
<g id="a_Node000002"><a xlink:href="mcp2515_8c.html#a4139b924c04d5aa72c132ccd16f05437" target="_top" xlink:title="Envio de mensaje.">
<polygon fill="white" stroke="#666666" points="324,-20 202.25,-20 202.25,0 324,0 324,-20"/>
<text text-anchor="middle" x="263.12" y="-6.5" font-family="Helvetica,sans-Serif" font-size="10.00">mcp2515_sendMessage</text>
</a>
</g>
</g>
<!-- Node1&#45;&gt;Node2 -->
<g id="edge1_Node000001_Node000002" class="edge">
<title>Node1&#45;&gt;Node2</title>
<g id="a_edge1_Node000001_Node000002"><a xlink:title=" ">
<path fill="none" stroke="#63b8ff" d="M348.05,-10C339.96,-10 331.94,-10 324.27,-10"/>
<polygon fill="#63b8ff" stroke="#63b8ff" points="348,-13.5 358,-10 348,-6.5 348,-13.5"/>
</a>
</g>
</g>
<!-- Node3 -->
<g id="Node000003" class="node">
<title>Node3</title>
<g id="a_Node000003"><a xlink:href="main_8c.html#ae3697afe652e8273e37aac8f55c48276" target="_top" xlink:title="Escritura de mensajes tipo CAN.">
<polygon fill="white" stroke="#666666" points="166.25,-20 73,-20 73,0 166.25,0 166.25,-20"/>
<text text-anchor="middle" x="119.62" y="-6.5" font-family="Helvetica,sans-Serif" font-size="10.00">canmsg_escritura</text>
</a>
</g>
</g>
<!-- Node2&#45;&gt;Node3 -->
<g id="edge2_Node000002_Node000003" class="edge">
<title>Node2&#45;&gt;Node3</title>
<g id="a_edge2_Node000002_Node000003"><a xlink:title=" ">
<path fill="none" stroke="#63b8ff" d="M190.88,-10C182.61,-10 174.35,-10 166.56,-10"/>
<polygon fill="#63b8ff" stroke="#63b8ff" points="190.6,-13.5 200.6,-10 190.6,-6.5 190.6,-13.5"/>
</a>
</g>
</g>
<!-- Node4 -->
<g id="Node000004" class="node">
<title>Node4</title>
<g id="a_Node000004"><a xlink:href="main_8c.html#a840291bc02cba5474a4cb46a9b9566fe" target="_top" xlink:title="Main.">
<polygon fill="white" stroke="#666666" points="37,-20 0,-20 0,0 37,0 37,-20"/>
<text text-anchor="middle" x="18.5" y="-6.5" font-family="Helvetica,sans-Serif" font-size="10.00">main</text>
</a>
</g>
</g>
<!-- Node3&#45;&gt;Node4 -->
<g id="edge3_Node000003_Node000004" class="edge">
<title>Node3&#45;&gt;Node4</title>
<g id="a_edge3_Node000003_Node000004"><a xlink:title=" ">
<path fill="none" stroke="#63b8ff" d="M61.09,-10C52.46,-10 44.15,-10 37.26,-10"/>
<polygon fill="#63b8ff" stroke="#63b8ff" points="61.03,-13.5 71.03,-10 61.03,-6.5 61.03,-13.5"/>
</a>
</g>
</g>
</g>
</svg>
