<?xml version="1.0" encoding="UTF-8" standalone="no"?>
<!DOCTYPE svg PUBLIC "-//W3C//DTD SVG 1.1//EN"
 "http://www.w3.org/Graphics/SVG/1.1/DTD/svg11.dtd">
<!-- Generated by graphviz version 12.2.1 (20241206.2353)
 -->
<!-- Title: mcp2515_readRegisters Pages: 1 -->
<svg width="495pt" height="28pt"
 viewBox="0.00 0.00 494.75 28.00" xmlns="http://www.w3.org/2000/svg" xmlns:xlink="http://www.w3.org/1999/xlink">
<g id="graph0" class="graph" transform="scale(1 1) rotate(0) translate(4 24)">
<title>mcp2515_readRegisters</title>
<!-- Node1 -->
<g id="Node000001" class="node">
<title>Node1</title>
<g id="a_Node000001"><a xlink:title="Lee multiples registros a la vez.">
<polygon fill="#999999" stroke="#666666" points="486.75,-20 365,-20 365,0 486.75,0 486.75,-20"/>
<text text-anchor="middle" x="425.88" y="-6.5" font-family="Helvetica,sans-Serif" font-size="10.00">mcp2515_readRegisters</text>
</a>
</g>
</g>
<!-- Node2 -->
<g id="Node000002" class="node">
<title>Node2</title>
<g id="a_Node000002"><a xlink:href="mcp2515_8c.html#a5a56a5809b74e255e306caa97853dd13" target="_top" xlink:title="Lee mensaje con el buffer indicado.">
<polygon fill="white" stroke="#666666" points="329,-20 155.5,-20 155.5,0 329,0 329,-20"/>
<text text-anchor="middle" x="242.25" y="-6.5" font-family="Helvetica,sans-Serif" font-size="10.00">mcp2515_readMessageWithBufferId</text>
</a>
</g>
</g>
<!-- Node1&#45;&gt;Node2 -->
<g id="edge1_Node000001_Node000002" class="edge">
<title>Node1&#45;&gt;Node2</title>
<g id="a_edge1_Node000001_Node000002"><a xlink:title=" ">
<path fill="none" stroke="#63b8ff" d="M353.26,-10C345.37,-10 337.28,-10 329.24,-10"/>
<polygon fill="#63b8ff" stroke="#63b8ff" points="353.14,-13.5 363.14,-10 353.14,-6.5 353.14,-13.5"/>
</a>
</g>
</g>
<!-- Node3 -->
<g id="Node000003" class="node">
<title>Node3</title>
<g id="a_Node000003"><a xlink:href="mcp2515_8c.html#a98f361e58e9c16ec15a1469172a80547" target="_top" xlink:title="Lee mensajes tipo CAN.">
<polygon fill="white" stroke="#666666" points="119.5,-20 0,-20 0,0 119.5,0 119.5,-20"/>
<text text-anchor="middle" x="59.75" y="-6.5" font-family="Helvetica,sans-Serif" font-size="10.00">mcp2515_readMessage</text>
</a>
</g>
</g>
<!-- Node2&#45;&gt;Node3 -->
<g id="edge2_Node000002_Node000003" class="edge">
<title>Node2&#45;&gt;Node3</title>
<g id="a_edge2_Node000002_Node000003"><a xlink:title=" ">
<path fill="none" stroke="#63b8ff" d="M143.99,-10C135.76,-10 127.62,-10 119.82,-10"/>
<polygon fill="#63b8ff" stroke="#63b8ff" points="143.72,-13.5 153.72,-10 143.72,-6.5 143.72,-13.5"/>
</a>
</g>
</g>
</g>
</svg>
