<?xml version="1.0" encoding="UTF-8" standalone="no"?>
<!DOCTYPE svg PUBLIC "-//W3C//DTD SVG 1.1//EN"
 "http://www.w3.org/Graphics/SVG/1.1/DTD/svg11.dtd">
<!-- Generated by graphviz version 12.2.1 (20241206.2353)
 -->
<!-- Title: mcp2515_setConfigMode Pages: 1 -->
<svg width="618pt" height="104pt"
 viewBox="0.00 0.00 618.25 104.00" xmlns="http://www.w3.org/2000/svg" xmlns:xlink="http://www.w3.org/1999/xlink">
<g id="graph0" class="graph" transform="scale(1 1) rotate(0) translate(4 100)">
<title>mcp2515_setConfigMode</title>
<!-- Node1 -->
<g id="Node000001" class="node">
<title>Node1</title>
<g id="a_Node000001"><a xlink:title="Setea el modo de configuracion.">
<polygon fill="#999999" stroke="#666666" points="610.25,-58 483.25,-58 483.25,-38 610.25,-38 610.25,-58"/>
<text text-anchor="middle" x="546.75" y="-44.5" font-family="Helvetica,sans-Serif" font-size="10.00">mcp2515_setConfigMode</text>
</a>
</g>
</g>
<!-- Node2 -->
<g id="Node000002" class="node">
<title>Node2</title>
<g id="a_Node000002"><a xlink:href="mcp2515_8c.html#a376a8574dcdafeeac264e1b652333d58" target="_top" xlink:title="Setea el baud rate.">
<polygon fill="white" stroke="#666666" points="291,-96 188,-96 188,-76 291,-76 291,-96"/>
<text text-anchor="middle" x="239.5" y="-82.5" font-family="Helvetica,sans-Serif" font-size="10.00">mcp2515_setBitrate</text>
</a>
</g>
</g>
<!-- Node1&#45;&gt;Node2 -->
<g id="edge1_Node000001_Node000002" class="edge">
<title>Node1&#45;&gt;Node2</title>
<g id="a_edge1_Node000001_Node000002"><a xlink:title=" ">
<path fill="none" stroke="#63b8ff" d="M485.27,-60.64C472.74,-62.99 459.59,-65.25 447.25,-67 394.25,-74.53 333.17,-79.72 291.22,-82.74"/>
<polygon fill="#63b8ff" stroke="#63b8ff" points="485.91,-64.08 495.07,-58.76 484.59,-57.21 485.91,-64.08"/>
</a>
</g>
</g>
<!-- Node5 -->
<g id="Node000005" class="node">
<title>Node5</title>
<g id="a_Node000005"><a xlink:href="mcp2515_8c.html#adb0e9467c52bdc0cef5bb689dd3b996f" target="_top" xlink:title="Se configura el filtro.">
<polygon fill="white" stroke="#666666" points="435.25,-58 339,-58 339,-38 435.25,-38 435.25,-58"/>
<text text-anchor="middle" x="387.12" y="-44.5" font-family="Helvetica,sans-Serif" font-size="10.00">mcp2515_setFilter</text>
</a>
</g>
</g>
<!-- Node1&#45;&gt;Node5 -->
<g id="edge4_Node000001_Node000005" class="edge">
<title>Node1&#45;&gt;Node5</title>
<g id="a_edge4_Node000001_Node000005"><a xlink:title=" ">
<path fill="none" stroke="#63b8ff" d="M471.78,-48C459.47,-48 447.01,-48 435.6,-48"/>
<polygon fill="#63b8ff" stroke="#63b8ff" points="471.49,-51.5 481.49,-48 471.49,-44.5 471.49,-51.5"/>
</a>
</g>
</g>
<!-- Node7 -->
<g id="Node000007" class="node">
<title>Node7</title>
<g id="a_Node000007"><a xlink:href="mcp2515_8c.html#a34318296cf509afa4e66aeffdbeb0f6d" target="_top" xlink:title="Setea el filtro y la mascara. Se configuran dichos datos en los registros del propio modulo.">
<polygon fill="white" stroke="#666666" points="447.25,-20 327,-20 327,0 447.25,0 447.25,-20"/>
<text text-anchor="middle" x="387.12" y="-6.5" font-family="Helvetica,sans-Serif" font-size="10.00">mcp2515_setFilterMask</text>
</a>
</g>
</g>
<!-- Node1&#45;&gt;Node7 -->
<g id="edge7_Node000001_Node000007" class="edge">
<title>Node1&#45;&gt;Node7</title>
<g id="a_edge7_Node000001_Node000007"><a xlink:title=" ">
<path fill="none" stroke="#63b8ff" d="M491.07,-34.82C471.57,-30.12 449.89,-24.89 431.47,-20.45"/>
<polygon fill="#63b8ff" stroke="#63b8ff" points="490.25,-38.22 500.79,-37.16 491.89,-31.41 490.25,-38.22"/>
</a>
</g>
</g>
<!-- Node3 -->
<g id="Node000003" class="node">
<title>Node3</title>
<g id="a_Node000003"><a xlink:href="main_8c.html#a3df11f7015b4a015c6b468941125de20" target="_top" xlink:title="Inicializacion de perifericos.">
<polygon fill="white" stroke="#666666" points="152,-77 73,-77 73,-57 152,-57 152,-77"/>
<text text-anchor="middle" x="112.5" y="-63.5" font-family="Helvetica,sans-Serif" font-size="10.00">perifericos_init</text>
</a>
</g>
</g>
<!-- Node2&#45;&gt;Node3 -->
<g id="edge2_Node000002_Node000003" class="edge">
<title>Node2&#45;&gt;Node3</title>
<g id="a_edge2_Node000002_Node000003"><a xlink:title=" ">
<path fill="none" stroke="#63b8ff" d="M176.52,-76.58C168.3,-75.33 160.08,-74.08 152.41,-72.91"/>
<polygon fill="#63b8ff" stroke="#63b8ff" points="175.75,-80 186.16,-78.04 176.8,-73.08 175.75,-80"/>
</a>
</g>
</g>
<!-- Node4 -->
<g id="Node000004" class="node">
<title>Node4</title>
<g id="a_Node000004"><a xlink:href="main_8c.html#a840291bc02cba5474a4cb46a9b9566fe" target="_top" xlink:title="Main.">
<polygon fill="white" stroke="#666666" points="37,-77 0,-77 0,-57 37,-57 37,-77"/>
<text text-anchor="middle" x="18.5" y="-63.5" font-family="Helvetica,sans-Serif" font-size="10.00">main</text>
</a>
</g>
</g>
<!-- Node3&#45;&gt;Node4 -->
<g id="edge3_Node000003_Node000004" class="edge">
<title>Node3&#45;&gt;Node4</title>
<g id="a_edge3_Node000003_Node000004"><a xlink:title=" ">
<path fill="none" stroke="#63b8ff" d="M61.34,-67C52.67,-67 44.2,-67 37.18,-67"/>
<polygon fill="#63b8ff" stroke="#63b8ff" points="61.24,-70.5 71.24,-67 61.24,-63.5 61.24,-70.5"/>
</a>
</g>
</g>
<!-- Node6 -->
<g id="Node000006" class="node">
<title>Node6</title>
<g id="a_Node000006"><a xlink:href="mcp2515_8c.html#a21cb40a7513567cb455ce296ef0bbe4b" target="_top" xlink:title="Resetea el modulo.">
<polygon fill="white" stroke="#666666" points="280.88,-58 198.12,-58 198.12,-38 280.88,-38 280.88,-58"/>
<text text-anchor="middle" x="239.5" y="-44.5" font-family="Helvetica,sans-Serif" font-size="10.00">mcp2515_reset</text>
</a>
</g>
</g>
<!-- Node5&#45;&gt;Node6 -->
<g id="edge5_Node000005_Node000006" class="edge">
<title>Node5&#45;&gt;Node6</title>
<g id="a_edge5_Node000005_Node000006"><a xlink:title=" ">
<path fill="none" stroke="#63b8ff" d="M327.7,-48C312.1,-48 295.59,-48 281.19,-48"/>
<polygon fill="#63b8ff" stroke="#63b8ff" points="327.33,-51.5 337.33,-48 327.33,-44.5 327.33,-51.5"/>
</a>
</g>
</g>
<!-- Node6&#45;&gt;Node3 -->
<g id="edge6_Node000006_Node000003" class="edge">
<title>Node6&#45;&gt;Node3</title>
<g id="a_edge6_Node000006_Node000003"><a xlink:title=" ">
<path fill="none" stroke="#63b8ff" d="M186.62,-55.89C175.09,-57.64 163.07,-59.47 152.18,-61.12"/>
<polygon fill="#63b8ff" stroke="#63b8ff" points="187.06,-59.36 196.42,-54.4 186.01,-52.44 187.06,-59.36"/>
</a>
</g>
</g>
<!-- Node7&#45;&gt;Node6 -->
<g id="edge8_Node000007_Node000006" class="edge">
<title>Node7&#45;&gt;Node6</title>
<g id="a_edge8_Node000007_Node000006"><a xlink:title=" ">
<path fill="none" stroke="#63b8ff" d="M334.85,-23.38C317.03,-28.03 297.32,-33.17 280.55,-37.55"/>
<polygon fill="#63b8ff" stroke="#63b8ff" points="335.69,-26.78 344.48,-20.87 333.92,-20 335.69,-26.78"/>
</a>
</g>
</g>
</g>
</svg>
