<?xml version="1.0" encoding="UTF-8" standalone="no"?>
<!DOCTYPE svg PUBLIC "-//W3C//DTD SVG 1.1//EN"
 "http://www.w3.org/Graphics/SVG/1.1/DTD/svg11.dtd">
<!-- Generated by graphviz version 12.2.1 (20241206.2353)
 -->
<!-- Title: MensajeCAN/source/mcp2515.h Pages: 1 -->
<svg width="188pt" height="84pt"
 viewBox="0.00 0.00 187.88 84.00" xmlns="http://www.w3.org/2000/svg" xmlns:xlink="http://www.w3.org/1999/xlink">
<g id="graph0" class="graph" transform="scale(1 1) rotate(0) translate(4 80)">
<title>MensajeCAN/source/mcp2515.h</title>
<!-- Node1 -->
<g id="Node000001" class="node">
<title>Node1</title>
<g id="a_Node000001"><a xlink:title="Liberia del modulo CAN MCP2515, utilizada para la placa de desarrollo KL46Z.">
<polygon fill="#999999" stroke="#666666" points="160.88,-76 3.12,-76 3.12,-56 160.88,-56 160.88,-76"/>
<text text-anchor="middle" x="82" y="-62.5" font-family="Helvetica,sans-Serif" font-size="10.00">MensajeCAN/source/mcp2515.h</text>
</a>
</g>
</g>
<!-- Node2 -->
<g id="Node000002" class="node">
<title>Node2</title>
<g id="a_Node000002"><a xlink:title=" ">
<polygon fill="#e0e0e0" stroke="#999999" points="40,-20 0,-20 0,0 40,0 40,-20"/>
<text text-anchor="middle" x="20" y="-6.5" font-family="Helvetica,sans-Serif" font-size="10.00">can.h</text>
</a>
</g>
</g>
<!-- Node1&#45;&gt;Node2 -->
<g id="edge1_Node000001_Node000002" class="edge">
<title>Node1&#45;&gt;Node2</title>
<g id="a_edge1_Node000001_Node000002"><a xlink:title=" ">
<path fill="none" stroke="#63b8ff" d="M71.2,-55.59C62.4,-47.93 49.75,-36.91 39.23,-27.75"/>
<polygon fill="#63b8ff" stroke="#63b8ff" points="41.66,-25.22 31.82,-21.29 37.06,-30.5 41.66,-25.22"/>
</a>
</g>
</g>
<!-- Node3 -->
<g id="Node000003" class="node">
<title>Node3</title>
<g id="a_Node000003"><a xlink:title=" ">
<polygon fill="#e0e0e0" stroke="#999999" points="106.12,-20 57.88,-20 57.88,0 106.12,0 106.12,-20"/>
<text text-anchor="middle" x="82" y="-6.5" font-family="Helvetica,sans-Serif" font-size="10.00">stdint.h</text>
</a>
</g>
</g>
<!-- Node1&#45;&gt;Node3 -->
<g id="edge2_Node000001_Node000003" class="edge">
<title>Node1&#45;&gt;Node3</title>
<g id="a_edge2_Node000001_Node000003"><a xlink:title=" ">
<path fill="none" stroke="#63b8ff" d="M82,-55.59C82,-49.01 82,-39.96 82,-31.73"/>
<polygon fill="#63b8ff" stroke="#63b8ff" points="85.5,-31.81 82,-21.81 78.5,-31.81 85.5,-31.81"/>
</a>
</g>
</g>
<!-- Node4 -->
<g id="Node000004" class="node">
<title>Node4</title>
<g id="a_Node000004"><a xlink:title=" ">
<polygon fill="#e0e0e0" stroke="#999999" points="179.88,-20 124.12,-20 124.12,0 179.88,0 179.88,-20"/>
<text text-anchor="middle" x="152" y="-6.5" font-family="Helvetica,sans-Serif" font-size="10.00">stdbool.h</text>
</a>
</g>
</g>
<!-- Node1&#45;&gt;Node4 -->
<g id="edge3_Node000001_Node000004" class="edge">
<title>Node1&#45;&gt;Node4</title>
<g id="a_edge3_Node000001_Node000004"><a xlink:title=" ">
<path fill="none" stroke="#63b8ff" d="M94.19,-55.59C104.33,-47.77 118.99,-36.46 131.01,-27.19"/>
<polygon fill="#63b8ff" stroke="#63b8ff" points="132.97,-30.1 138.75,-21.22 128.69,-24.56 132.97,-30.1"/>
</a>
</g>
</g>
</g>
</svg>
