<?xml version="1.0" encoding="UTF-8" standalone="no"?>
<!DOCTYPE svg PUBLIC "-//W3C//DTD SVG 1.1//EN"
 "http://www.w3.org/Graphics/SVG/1.1/DTD/svg11.dtd">
<!-- Generated by graphviz version 12.2.1 (20241206.2353)
 -->
<!-- Title: mcp2515_readMessageWithBufferId Pages: 1 -->
<svg width="433pt" height="104pt"
 viewBox="0.00 0.00 432.50 104.00" xmlns="http://www.w3.org/2000/svg" xmlns:xlink="http://www.w3.org/1999/xlink">
<g id="graph0" class="graph" transform="scale(1 1) rotate(0) translate(4 100)">
<title>mcp2515_readMessageWithBufferId</title>
<!-- Node1 -->
<g id="Node000001" class="node">
<title>Node1</title>
<g id="a_Node000001"><a xlink:title="Lee mensaje con el buffer indicado.">
<polygon fill="#999999" stroke="#666666" points="173.5,-58 0,-58 0,-38 173.5,-38 173.5,-58"/>
<text text-anchor="middle" x="86.75" y="-44.5" font-family="Helvetica,sans-Serif" font-size="10.00">mcp2515_readMessageWithBufferId</text>
</a>
</g>
</g>
<!-- Node2 -->
<g id="Node000002" class="node">
<title>Node2</title>
<g id="a_Node000002"><a xlink:href="mcp2515_8c.html#ac3bc690a1b8ef1495f5fbb57eab28eaf" target="_top" xlink:title="Modifica un registro en particular.">
<polygon fill="white" stroke="#666666" points="336.5,-96 209.5,-96 209.5,-76 336.5,-76 336.5,-96"/>
<text text-anchor="middle" x="273" y="-82.5" font-family="Helvetica,sans-Serif" font-size="10.00">mcp2515_modifyRegister</text>
</a>
</g>
</g>
<!-- Node1&#45;&gt;Node2 -->
<g id="edge1_Node000001_Node000002" class="edge">
<title>Node1&#45;&gt;Node2</title>
<g id="a_edge1_Node000001_Node000002"><a xlink:title=" ">
<path fill="none" stroke="#63b8ff" d="M138.58,-58.48C160.74,-63.05 186.91,-68.45 210.17,-73.25"/>
<polygon fill="#63b8ff" stroke="#63b8ff" points="209.35,-76.65 219.85,-75.24 210.76,-69.8 209.35,-76.65"/>
</a>
</g>
</g>
<!-- Node5 -->
<g id="Node000005" class="node">
<title>Node5</title>
<g id="a_Node000005"><a xlink:href="mcp2515_8c.html#a1dcd2d88901952184ce8297e1c5c6bf6" target="_top" xlink:title="Lee un solo registro a la vez.">
<polygon fill="white" stroke="#666666" points="331.25,-58 214.75,-58 214.75,-38 331.25,-38 331.25,-58"/>
<text text-anchor="middle" x="273" y="-44.5" font-family="Helvetica,sans-Serif" font-size="10.00">mcp2515_readRegister</text>
</a>
</g>
</g>
<!-- Node1&#45;&gt;Node5 -->
<g id="edge4_Node000001_Node000005" class="edge">
<title>Node1&#45;&gt;Node5</title>
<g id="a_edge4_Node000001_Node000005"><a xlink:title=" ">
<path fill="none" stroke="#63b8ff" d="M173.94,-48C183.66,-48 193.47,-48 202.94,-48"/>
<polygon fill="#63b8ff" stroke="#63b8ff" points="202.76,-51.5 212.76,-48 202.76,-44.5 202.76,-51.5"/>
</a>
</g>
</g>
<!-- Node6 -->
<g id="Node000006" class="node">
<title>Node6</title>
<g id="a_Node000006"><a xlink:href="mcp2515_8c.html#a560b6de316a626011c27ae51cafaac11" target="_top" xlink:title="Lee multiples registros a la vez.">
<polygon fill="white" stroke="#666666" points="333.88,-20 212.12,-20 212.12,0 333.88,0 333.88,-20"/>
<text text-anchor="middle" x="273" y="-6.5" font-family="Helvetica,sans-Serif" font-size="10.00">mcp2515_readRegisters</text>
</a>
</g>
</g>
<!-- Node1&#45;&gt;Node6 -->
<g id="edge7_Node000001_Node000006" class="edge">
<title>Node1&#45;&gt;Node6</title>
<g id="a_edge7_Node000001_Node000006"><a xlink:title=" ">
<path fill="none" stroke="#63b8ff" d="M138.58,-37.52C160.74,-32.95 186.91,-27.55 210.17,-22.75"/>
<polygon fill="#63b8ff" stroke="#63b8ff" points="210.76,-26.2 219.85,-20.76 209.35,-19.35 210.76,-26.2"/>
</a>
</g>
</g>
<!-- Node3 -->
<g id="Node000003" class="node">
<title>Node3</title>
<g id="a_Node000003"><a xlink:href="mcp2515_8c.html#ae85a49925cc5c6fd1b15522434dc51ce" target="_top" xlink:title="Finaliza la comunicacion spi.">
<polygon fill="white" stroke="#666666" points="422.62,-77 374.38,-77 374.38,-57 422.62,-57 422.62,-77"/>
<text text-anchor="middle" x="398.5" y="-63.5" font-family="Helvetica,sans-Serif" font-size="10.00">endSPI</text>
</a>
</g>
</g>
<!-- Node2&#45;&gt;Node3 -->
<g id="edge2_Node000002_Node000003" class="edge">
<title>Node2&#45;&gt;Node3</title>
<g id="a_edge2_Node000002_Node000003"><a xlink:title=" ">
<path fill="none" stroke="#63b8ff" d="M336.84,-76.33C345.72,-74.97 354.58,-73.6 362.67,-72.36"/>
<polygon fill="#63b8ff" stroke="#63b8ff" points="363.04,-75.84 372.4,-70.86 361.98,-68.92 363.04,-75.84"/>
</a>
</g>
</g>
<!-- Node4 -->
<g id="Node000004" class="node">
<title>Node4</title>
<g id="a_Node000004"><a xlink:href="mcp2515_8c.html#afea997d2aa89cc2831bff10e34198bd8" target="_top" xlink:title="Funciones privadas.">
<polygon fill="white" stroke="#666666" points="424.5,-39 372.5,-39 372.5,-19 424.5,-19 424.5,-39"/>
<text text-anchor="middle" x="398.5" y="-25.5" font-family="Helvetica,sans-Serif" font-size="10.00">startSPI</text>
</a>
</g>
</g>
<!-- Node2&#45;&gt;Node4 -->
<g id="edge3_Node000002_Node000004" class="edge">
<title>Node2&#45;&gt;Node4</title>
<g id="a_edge3_Node000002_Node000004"><a xlink:title=" ">
<path fill="none" stroke="#63b8ff" d="M313.92,-75.57C321.55,-73.11 329.37,-70.23 336.5,-67 349.55,-61.08 363.17,-52.82 374.22,-45.52"/>
<polygon fill="#63b8ff" stroke="#63b8ff" points="376,-48.54 382.3,-40.02 372.06,-42.75 376,-48.54"/>
</a>
</g>
</g>
<!-- Node5&#45;&gt;Node3 -->
<g id="edge5_Node000005_Node000003" class="edge">
<title>Node5&#45;&gt;Node3</title>
<g id="a_edge5_Node000005_Node000003"><a xlink:title=" ">
<path fill="none" stroke="#63b8ff" d="M331.41,-56.83C342.16,-58.49 353.08,-60.17 362.87,-61.67"/>
<polygon fill="#63b8ff" stroke="#63b8ff" points="362.25,-65.12 372.67,-63.18 363.31,-58.2 362.25,-65.12"/>
</a>
</g>
</g>
<!-- Node5&#45;&gt;Node4 -->
<g id="edge6_Node000005_Node000004" class="edge">
<title>Node5&#45;&gt;Node4</title>
<g id="a_edge6_Node000005_Node000004"><a xlink:title=" ">
<path fill="none" stroke="#63b8ff" d="M331.41,-39.17C341.51,-37.61 351.76,-36.04 361.09,-34.6"/>
<polygon fill="#63b8ff" stroke="#63b8ff" points="361.47,-38.09 370.82,-33.11 360.4,-31.17 361.47,-38.09"/>
</a>
</g>
</g>
<!-- Node6&#45;&gt;Node3 -->
<g id="edge8_Node000006_Node000003" class="edge">
<title>Node6&#45;&gt;Node3</title>
<g id="a_edge8_Node000006_Node000003"><a xlink:title=" ">
<path fill="none" stroke="#63b8ff" d="M313.92,-20.43C321.55,-22.89 329.37,-25.77 336.5,-29 349.55,-34.92 363.17,-43.18 374.22,-50.48"/>
<polygon fill="#63b8ff" stroke="#63b8ff" points="372.06,-53.25 382.3,-55.98 376,-47.46 372.06,-53.25"/>
</a>
</g>
</g>
<!-- Node6&#45;&gt;Node4 -->
<g id="edge9_Node000006_Node000004" class="edge">
<title>Node6&#45;&gt;Node4</title>
<g id="a_edge9_Node000006_Node000004"><a xlink:title=" ">
<path fill="none" stroke="#63b8ff" d="M334.3,-19.28C343.38,-20.67 352.49,-22.08 360.86,-23.36"/>
<polygon fill="#63b8ff" stroke="#63b8ff" points="360.21,-26.8 370.63,-24.87 361.27,-19.89 360.21,-26.8"/>
</a>
</g>
</g>
</g>
</svg>
