<?xml version="1.0" encoding="UTF-8" standalone="no"?>
<!DOCTYPE svg PUBLIC "-//W3C//DTD SVG 1.1//EN"
 "http://www.w3.org/Graphics/SVG/1.1/DTD/svg11.dtd">
<!-- Generated by graphviz version 12.2.1 (20241206.2353)
 -->
<!-- Title: mcp2515_setLoopbackMode Pages: 1 -->
<svg width="534pt" height="66pt"
 viewBox="0.00 0.00 534.00 66.00" xmlns="http://www.w3.org/2000/svg" xmlns:xlink="http://www.w3.org/1999/xlink">
<g id="graph0" class="graph" transform="scale(1 1) rotate(0) translate(4 62)">
<title>mcp2515_setLoopbackMode</title>
<!-- Node1 -->
<g id="Node000001" class="node">
<title>Node1</title>
<g id="a_Node000001"><a xlink:title="Setea el modo de loopback.">
<polygon fill="#999999" stroke="#666666" points="140.5,-39 0,-39 0,-19 140.5,-19 140.5,-39"/>
<text text-anchor="middle" x="70.25" y="-25.5" font-family="Helvetica,sans-Serif" font-size="10.00">mcp2515_setLoopbackMode</text>
</a>
</g>
</g>
<!-- Node2 -->
<g id="Node000002" class="node">
<title>Node2</title>
<g id="a_Node000002"><a xlink:href="mcp2515_8c.html#aa8f4e44a2081362f25ff79e24d4bf6cb" target="_top" xlink:title="Seteado el modo de trabajo.">
<polygon fill="white" stroke="#666666" points="275,-39 176.5,-39 176.5,-19 275,-19 275,-39"/>
<text text-anchor="middle" x="225.75" y="-25.5" font-family="Helvetica,sans-Serif" font-size="10.00">mcp2515_setMode</text>
</a>
</g>
</g>
<!-- Node1&#45;&gt;Node2 -->
<g id="edge1_Node000001_Node000002" class="edge">
<title>Node1&#45;&gt;Node2</title>
<g id="a_edge1_Node000001_Node000002"><a xlink:title=" ">
<path fill="none" stroke="#63b8ff" d="M140.81,-29C148.81,-29 156.91,-29 164.76,-29"/>
<polygon fill="#63b8ff" stroke="#63b8ff" points="164.54,-32.5 174.54,-29 164.54,-25.5 164.54,-32.5"/>
</a>
</g>
</g>
<!-- Node3 -->
<g id="Node000003" class="node">
<title>Node3</title>
<g id="a_Node000003"><a xlink:href="mcp2515_8c.html#ac3bc690a1b8ef1495f5fbb57eab28eaf" target="_top" xlink:title="Modifica un registro en particular.">
<polygon fill="white" stroke="#666666" points="438,-58 311,-58 311,-38 438,-38 438,-58"/>
<text text-anchor="middle" x="374.5" y="-44.5" font-family="Helvetica,sans-Serif" font-size="10.00">mcp2515_modifyRegister</text>
</a>
</g>
</g>
<!-- Node2&#45;&gt;Node3 -->
<g id="edge2_Node000002_Node000003" class="edge">
<title>Node2&#45;&gt;Node3</title>
<g id="a_edge2_Node000002_Node000003"><a xlink:title=" ">
<path fill="none" stroke="#63b8ff" d="M275.21,-35.27C283.01,-36.28 291.25,-37.35 299.49,-38.42"/>
<polygon fill="#63b8ff" stroke="#63b8ff" points="298.83,-41.86 309.2,-39.67 299.73,-34.92 298.83,-41.86"/>
</a>
</g>
</g>
<!-- Node6 -->
<g id="Node000006" class="node">
<title>Node6</title>
<g id="a_Node000006"><a xlink:href="mcp2515_8c.html#a1dcd2d88901952184ce8297e1c5c6bf6" target="_top" xlink:title="Lee un solo registro a la vez.">
<polygon fill="white" stroke="#666666" points="432.75,-20 316.25,-20 316.25,0 432.75,0 432.75,-20"/>
<text text-anchor="middle" x="374.5" y="-6.5" font-family="Helvetica,sans-Serif" font-size="10.00">mcp2515_readRegister</text>
</a>
</g>
</g>
<!-- Node2&#45;&gt;Node6 -->
<g id="edge5_Node000002_Node000006" class="edge">
<title>Node2&#45;&gt;Node6</title>
<g id="a_edge5_Node000002_Node000006"><a xlink:title=" ">
<path fill="none" stroke="#63b8ff" d="M275.21,-22.73C284.67,-21.5 294.76,-20.19 304.74,-18.9"/>
<polygon fill="#63b8ff" stroke="#63b8ff" points="304.94,-22.41 314.41,-17.65 304.04,-15.46 304.94,-22.41"/>
</a>
</g>
</g>
<!-- Node4 -->
<g id="Node000004" class="node">
<title>Node4</title>
<g id="a_Node000004"><a xlink:href="mcp2515_8c.html#ae85a49925cc5c6fd1b15522434dc51ce" target="_top" xlink:title="Finaliza la comunicacion spi.">
<polygon fill="white" stroke="#666666" points="524.12,-58 475.88,-58 475.88,-38 524.12,-38 524.12,-58"/>
<text text-anchor="middle" x="500" y="-44.5" font-family="Helvetica,sans-Serif" font-size="10.00">endSPI</text>
</a>
</g>
</g>
<!-- Node3&#45;&gt;Node4 -->
<g id="edge3_Node000003_Node000004" class="edge">
<title>Node3&#45;&gt;Node4</title>
<g id="a_edge3_Node000003_Node000004"><a xlink:title=" ">
<path fill="none" stroke="#63b8ff" d="M438.34,-48C447.12,-48 455.88,-48 463.89,-48"/>
<polygon fill="#63b8ff" stroke="#63b8ff" points="463.88,-51.5 473.88,-48 463.88,-44.5 463.88,-51.5"/>
</a>
</g>
</g>
<!-- Node5 -->
<g id="Node000005" class="node">
<title>Node5</title>
<g id="a_Node000005"><a xlink:href="mcp2515_8c.html#afea997d2aa89cc2831bff10e34198bd8" target="_top" xlink:title="Funciones privadas.">
<polygon fill="white" stroke="#666666" points="526,-20 474,-20 474,0 526,0 526,-20"/>
<text text-anchor="middle" x="500" y="-6.5" font-family="Helvetica,sans-Serif" font-size="10.00">startSPI</text>
</a>
</g>
</g>
<!-- Node3&#45;&gt;Node5 -->
<g id="edge4_Node000003_Node000005" class="edge">
<title>Node3&#45;&gt;Node5</title>
<g id="a_edge4_Node000003_Node000005"><a xlink:title=" ">
<path fill="none" stroke="#63b8ff" d="M409.9,-37.59C419.04,-34.81 428.89,-31.8 438,-29 446.09,-26.51 454.78,-23.82 462.99,-21.26"/>
<polygon fill="#63b8ff" stroke="#63b8ff" points="463.83,-24.66 472.34,-18.35 461.75,-17.98 463.83,-24.66"/>
</a>
</g>
</g>
<!-- Node6&#45;&gt;Node4 -->
<g id="edge6_Node000006_Node000004" class="edge">
<title>Node6&#45;&gt;Node4</title>
<g id="a_edge6_Node000006_Node000004"><a xlink:title=" ">
<path fill="none" stroke="#63b8ff" d="M409.9,-20.41C419.04,-23.19 428.89,-26.2 438,-29 446.62,-31.65 455.93,-34.54 464.61,-37.24"/>
<polygon fill="#63b8ff" stroke="#63b8ff" points="463.51,-40.57 474.1,-40.2 465.6,-33.89 463.51,-40.57"/>
</a>
</g>
</g>
<!-- Node6&#45;&gt;Node5 -->
<g id="edge7_Node000006_Node000005" class="edge">
<title>Node6&#45;&gt;Node5</title>
<g id="a_edge7_Node000006_Node000005"><a xlink:title=" ">
<path fill="none" stroke="#63b8ff" d="M432.91,-10C443.01,-10 453.26,-10 462.59,-10"/>
<polygon fill="#63b8ff" stroke="#63b8ff" points="462.3,-13.5 472.3,-10 462.3,-6.5 462.3,-13.5"/>
</a>
</g>
</g>
</g>
</svg>
