<?xml version="1.0" encoding="UTF-8" standalone="no"?>
<!DOCTYPE svg PUBLIC "-//W3C//DTD SVG 1.1//EN"
 "http://www.w3.org/Graphics/SVG/1.1/DTD/svg11.dtd">
<!-- Generated by graphviz version 12.2.1 (20241206.2353)
 -->
<!-- Title: mcp2515_reset Pages: 1 -->
<svg width="796pt" height="327pt"
 viewBox="0.00 0.00 795.50 326.96" xmlns="http://www.w3.org/2000/svg" xmlns:xlink="http://www.w3.org/1999/xlink">
<g id="graph0" class="graph" transform="scale(1 1) rotate(0) translate(4 322.96)">
<title>mcp2515_reset</title>
<!-- Node1 -->
<g id="Node000001" class="node">
<title>Node1</title>
<g id="a_Node000001"><a xlink:title="Resetea el modulo.">
<polygon fill="#999999" stroke="#666666" points="82.75,-172 0,-172 0,-152 82.75,-152 82.75,-172"/>
<text text-anchor="middle" x="41.38" y="-158.5" font-family="Helvetica,sans-Serif" font-size="10.00">mcp2515_reset</text>
</a>
</g>
</g>
<!-- Node2 -->
<g id="Node000002" class="node">
<title>Node2</title>
<g id="a_Node000002"><a xlink:href="mcp2515_8c.html#ae85a49925cc5c6fd1b15522434dc51ce" target="_top" xlink:title="Finaliza la comunicacion spi.">
<polygon fill="white" stroke="#666666" points="785.62,-248 737.38,-248 737.38,-228 785.62,-228 785.62,-248"/>
<text text-anchor="middle" x="761.5" y="-234.5" font-family="Helvetica,sans-Serif" font-size="10.00">endSPI</text>
</a>
</g>
</g>
<!-- Node1&#45;&gt;Node2 -->
<g id="edge1_Node000001_Node000002" class="edge">
<title>Node1&#45;&gt;Node2</title>
<g id="a_edge1_Node000001_Node000002"><a xlink:title=" ">
<path fill="none" stroke="#63b8ff" d="M47.47,-172.45C57.88,-192.69 83.64,-237.23 118.75,-260 202.77,-314.49 237.36,-314 337.5,-314 337.5,-314 337.5,-314 488.25,-314 582.52,-314 613.45,-333.49 699.5,-295 718.24,-286.62 734.91,-270.07 746.07,-256.95"/>
<polygon fill="#63b8ff" stroke="#63b8ff" points="748.65,-259.32 752.22,-249.35 743.21,-254.92 748.65,-259.32"/>
</a>
</g>
</g>
<!-- Node3 -->
<g id="Node000003" class="node">
<title>Node3</title>
<g id="a_Node000003"><a xlink:href="mcp2515_8c.html#a93c2df6a52fa046c073256f50d96b930" target="_top" xlink:title="Funciones publicas.">
<polygon fill="white" stroke="#666666" points="215.75,-20 142,-20 142,0 215.75,0 215.75,-20"/>
<text text-anchor="middle" x="178.88" y="-6.5" font-family="Helvetica,sans-Serif" font-size="10.00">mcp2515_init</text>
</a>
</g>
</g>
<!-- Node1&#45;&gt;Node3 -->
<g id="edge2_Node000001_Node000003" class="edge">
<title>Node1&#45;&gt;Node3</title>
<g id="a_edge2_Node000001_Node000003"><a xlink:title=" ">
<path fill="none" stroke="#63b8ff" d="M45.97,-151.5C54.71,-127.46 79.28,-67.87 118.75,-34 122.59,-30.71 126.94,-27.82 131.5,-25.31"/>
<polygon fill="#63b8ff" stroke="#63b8ff" points="132.85,-28.54 140.33,-21.04 129.8,-22.24 132.85,-28.54"/>
</a>
</g>
</g>
<!-- Node4 -->
<g id="Node000004" class="node">
<title>Node4</title>
<g id="a_Node000004"><a xlink:href="mcp2515_8c.html#ac3bc690a1b8ef1495f5fbb57eab28eaf" target="_top" xlink:title="Modifica un registro en particular.">
<polygon fill="white" stroke="#666666" points="699.5,-210 572.5,-210 572.5,-190 699.5,-190 699.5,-210"/>
<text text-anchor="middle" x="636" y="-196.5" font-family="Helvetica,sans-Serif" font-size="10.00">mcp2515_modifyRegister</text>
</a>
</g>
</g>
<!-- Node1&#45;&gt;Node4 -->
<g id="edge3_Node000001_Node000004" class="edge">
<title>Node1&#45;&gt;Node4</title>
<g id="a_edge3_Node000001_Node000004"><a xlink:title=" ">
<path fill="none" stroke="#63b8ff" d="M58.01,-172.43C72.94,-181.84 96.41,-195.2 118.75,-202 274.79,-249.49 469.87,-228.45 569.63,-212.31"/>
<polygon fill="#63b8ff" stroke="#63b8ff" points="569.94,-215.81 579.23,-210.72 568.8,-208.9 569.94,-215.81"/>
</a>
</g>
</g>
<!-- Node5 -->
<g id="Node000005" class="node">
<title>Node5</title>
<g id="a_Node000005"><a xlink:href="mcp2515_8c.html#afea997d2aa89cc2831bff10e34198bd8" target="_top" xlink:title="Funciones privadas.">
<polygon fill="white" stroke="#666666" points="787.5,-172 735.5,-172 735.5,-152 787.5,-152 787.5,-172"/>
<text text-anchor="middle" x="761.5" y="-158.5" font-family="Helvetica,sans-Serif" font-size="10.00">startSPI</text>
</a>
</g>
</g>
<!-- Node1&#45;&gt;Node5 -->
<g id="edge26_Node000001_Node000005" class="edge">
<title>Node1&#45;&gt;Node5</title>
<g id="a_edge26_Node000001_Node000005"><a xlink:title=" ">
<path fill="none" stroke="#63b8ff" d="M48.64,-151.6C60.08,-133.63 86.19,-97.08 118.75,-80 205.76,-34.36 239.24,-48 337.5,-48 337.5,-48 337.5,-48 488.25,-48 587.3,-48 611.15,-74.22 699.5,-119 713.44,-126.07 727.79,-136.03 739.07,-144.58"/>
<polygon fill="#63b8ff" stroke="#63b8ff" points="736.87,-147.3 746.91,-150.69 741.18,-141.78 736.87,-147.3"/>
</a>
</g>
</g>
<!-- Node6 -->
<g id="Node000006" class="node">
<title>Node6</title>
<g id="a_Node000006"><a xlink:href="mcp2515_8c.html#a1dcd2d88901952184ce8297e1c5c6bf6" target="_top" xlink:title="Lee un solo registro a la vez.">
<polygon fill="white" stroke="#666666" points="694.25,-172 577.75,-172 577.75,-152 694.25,-152 694.25,-172"/>
<text text-anchor="middle" x="636" y="-158.5" font-family="Helvetica,sans-Serif" font-size="10.00">mcp2515_readRegister</text>
</a>
</g>
</g>
<!-- Node1&#45;&gt;Node6 -->
<g id="edge6_Node000001_Node000006" class="edge">
<title>Node1&#45;&gt;Node6</title>
<g id="a_edge6_Node000001_Node000006"><a xlink:title=" ">
<path fill="none" stroke="#63b8ff" d="M51.54,-151.93C64.79,-138.21 90.8,-114.28 118.75,-105 291.33,-47.7 512.36,-116.05 598.42,-147.64"/>
<polygon fill="#63b8ff" stroke="#63b8ff" points="596.93,-150.82 607.53,-151.04 599.38,-144.26 596.93,-150.82"/>
</a>
</g>
</g>
<!-- Node7 -->
<g id="Node000007" class="node">
<title>Node7</title>
<g id="a_Node000007"><a xlink:href="mcp2515_8c.html#adb0e9467c52bdc0cef5bb689dd3b996f" target="_top" xlink:title="Se configura el filtro.">
<polygon fill="white" stroke="#666666" points="227,-134 130.75,-134 130.75,-114 227,-114 227,-134"/>
<text text-anchor="middle" x="178.88" y="-120.5" font-family="Helvetica,sans-Serif" font-size="10.00">mcp2515_setFilter</text>
</a>
</g>
</g>
<!-- Node1&#45;&gt;Node7 -->
<g id="edge9_Node000001_Node000007" class="edge">
<title>Node1&#45;&gt;Node7</title>
<g id="a_edge9_Node000001_Node000007"><a xlink:title=" ">
<path fill="none" stroke="#63b8ff" d="M79.76,-151.52C95.16,-147.2 113.2,-142.14 129.59,-137.54"/>
<polygon fill="#63b8ff" stroke="#63b8ff" points="130.47,-140.93 139.16,-134.86 128.58,-134.19 130.47,-140.93"/>
</a>
</g>
</g>
<!-- Node11 -->
<g id="Node000011" class="node">
<title>Node11</title>
<g id="a_Node000011"><a xlink:href="mcp2515_8c.html#a06105d6f139b5a81ffc4650b634f9cfe" target="_top" xlink:title="Setea multiples registros.">
<polygon fill="white" stroke="#666666" points="396.75,-210 280.25,-210 280.25,-190 396.75,-190 396.75,-210"/>
<text text-anchor="middle" x="338.5" y="-196.5" font-family="Helvetica,sans-Serif" font-size="10.00">mcp2515_setRegisters</text>
</a>
</g>
</g>
<!-- Node1&#45;&gt;Node11 -->
<g id="edge25_Node000001_Node000011" class="edge">
<title>Node1&#45;&gt;Node11</title>
<g id="a_edge25_Node000001_Node000011"><a xlink:title=" ">
<path fill="none" stroke="#63b8ff" d="M79.42,-172.46C91.84,-175.63 105.81,-178.84 118.75,-181 168.63,-189.32 225.55,-194.12 268.82,-196.81"/>
<polygon fill="#63b8ff" stroke="#63b8ff" points="268.38,-200.29 278.57,-197.39 268.79,-193.3 268.38,-200.29"/>
</a>
</g>
</g>
<!-- Node12 -->
<g id="Node000012" class="node">
<title>Node12</title>
<g id="a_Node000012"><a xlink:href="mcp2515_8c.html#a34318296cf509afa4e66aeffdbeb0f6d" target="_top" xlink:title="Setea el filtro y la mascara. Se configuran dichos datos en los registros del propio modulo.">
<polygon fill="white" stroke="#666666" points="239,-172 118.75,-172 118.75,-152 239,-152 239,-172"/>
<text text-anchor="middle" x="178.88" y="-158.5" font-family="Helvetica,sans-Serif" font-size="10.00">mcp2515_setFilterMask</text>
</a>
</g>
</g>
<!-- Node1&#45;&gt;Node12 -->
<g id="edge18_Node000001_Node000012" class="edge">
<title>Node1&#45;&gt;Node12</title>
<g id="a_edge18_Node000001_Node000012"><a xlink:title=" ">
<path fill="none" stroke="#63b8ff" d="M83.03,-162C90.69,-162 98.91,-162 107.19,-162"/>
<polygon fill="#63b8ff" stroke="#63b8ff" points="106.95,-165.5 116.95,-162 106.95,-158.5 106.95,-165.5"/>
</a>
</g>
</g>
<!-- Node13 -->
<g id="Node000013" class="node">
<title>Node13</title>
<g id="a_Node000013"><a xlink:href="mcp2515_8c.html#aa1ab73089d5c9bfb753aaa1b3b3f8d28" target="_top" xlink:title="Setea un registro.">
<polygon fill="white" stroke="#666666" points="691.62,-286 580.38,-286 580.38,-266 691.62,-266 691.62,-286"/>
<text text-anchor="middle" x="636" y="-272.5" font-family="Helvetica,sans-Serif" font-size="10.00">mcp2515_setRegister</text>
</a>
</g>
</g>
<!-- Node1&#45;&gt;Node13 -->
<g id="edge22_Node000001_Node000013" class="edge">
<title>Node1&#45;&gt;Node13</title>
<g id="a_edge22_Node000001_Node000013"><a xlink:title=" ">
<path fill="none" stroke="#63b8ff" d="M50.7,-172.44C63.51,-187.64 89.63,-215.43 118.75,-228 269.36,-292.98 467.13,-289.78 568.61,-282.53"/>
<polygon fill="#63b8ff" stroke="#63b8ff" points="568.69,-286.03 578.4,-281.79 568.17,-279.05 568.69,-286.03"/>
</a>
</g>
</g>
<!-- Node4&#45;&gt;Node2 -->
<g id="edge4_Node000004_Node000002" class="edge">
<title>Node4&#45;&gt;Node2</title>
<g id="a_edge4_Node000004_Node000002"><a xlink:title=" ">
<path fill="none" stroke="#63b8ff" d="M671.07,-210.48C688.29,-215.78 709.13,-222.19 726.36,-227.5"/>
<polygon fill="#63b8ff" stroke="#63b8ff" points="725.05,-230.75 735.64,-230.35 727.11,-224.06 725.05,-230.75"/>
</a>
</g>
</g>
<!-- Node4&#45;&gt;Node5 -->
<g id="edge5_Node000004_Node000005" class="edge">
<title>Node4&#45;&gt;Node5</title>
<g id="a_edge5_Node000004_Node000005"><a xlink:title=" ">
<path fill="none" stroke="#63b8ff" d="M671.4,-189.59C680.54,-186.81 690.39,-183.8 699.5,-181 707.59,-178.51 716.28,-175.82 724.49,-173.26"/>
<polygon fill="#63b8ff" stroke="#63b8ff" points="725.33,-176.66 733.84,-170.35 723.25,-169.98 725.33,-176.66"/>
</a>
</g>
</g>
<!-- Node6&#45;&gt;Node2 -->
<g id="edge7_Node000006_Node000002" class="edge">
<title>Node6&#45;&gt;Node2</title>
<g id="a_edge7_Node000006_Node000002"><a xlink:title=" ">
<path fill="none" stroke="#63b8ff" d="M680.77,-172.5C687.26,-174.84 693.7,-177.66 699.5,-181 716.88,-191.03 733.29,-206.87 744.71,-219.31"/>
<polygon fill="#63b8ff" stroke="#63b8ff" points="741.83,-221.34 751.08,-226.51 747.07,-216.7 741.83,-221.34"/>
</a>
</g>
</g>
<!-- Node6&#45;&gt;Node5 -->
<g id="edge8_Node000006_Node000005" class="edge">
<title>Node6&#45;&gt;Node5</title>
<g id="a_edge8_Node000006_Node000005"><a xlink:title=" ">
<path fill="none" stroke="#63b8ff" d="M694.41,-162C704.51,-162 714.76,-162 724.09,-162"/>
<polygon fill="#63b8ff" stroke="#63b8ff" points="723.8,-165.5 733.8,-162 723.8,-158.5 723.8,-165.5"/>
</a>
</g>
</g>
<!-- Node8 -->
<g id="Node000008" class="node">
<title>Node8</title>
<g id="a_Node000008"><a xlink:href="mcp2515_8c.html#aed2f12d8207c7b34f82733dbccdb3c76" target="_top" xlink:title="Configura el id para una accion en particular.">
<polygon fill="white" stroke="#666666" points="389.25,-172 287.75,-172 287.75,-152 389.25,-152 389.25,-172"/>
<text text-anchor="middle" x="338.5" y="-158.5" font-family="Helvetica,sans-Serif" font-size="10.00">mcp2515_prepareId</text>
</a>
</g>
</g>
<!-- Node7&#45;&gt;Node8 -->
<g id="edge10_Node000007_Node000008" class="edge">
<title>Node7&#45;&gt;Node8</title>
<g id="a_edge10_Node000007_Node000008"><a xlink:title=" ">
<path fill="none" stroke="#63b8ff" d="M223.36,-134.48C241.8,-138.93 263.48,-144.16 282.97,-148.85"/>
<polygon fill="#63b8ff" stroke="#63b8ff" points="282.14,-152.25 292.68,-151.2 283.78,-145.45 282.14,-152.25"/>
</a>
</g>
</g>
<!-- Node9 -->
<g id="Node000009" class="node">
<title>Node9</title>
<g id="a_Node000009"><a xlink:href="mcp2515_8c.html#a0a1c3cc8b486dbd55ff9d2d011694fa6" target="_top" xlink:title="Setea el modo de configuracion.">
<polygon fill="white" stroke="#666666" points="402,-134 275,-134 275,-114 402,-114 402,-134"/>
<text text-anchor="middle" x="338.5" y="-120.5" font-family="Helvetica,sans-Serif" font-size="10.00">mcp2515_setConfigMode</text>
</a>
</g>
</g>
<!-- Node7&#45;&gt;Node9 -->
<g id="edge11_Node000007_Node000009" class="edge">
<title>Node7&#45;&gt;Node9</title>
<g id="a_edge11_Node000007_Node000009"><a xlink:title=" ">
<path fill="none" stroke="#63b8ff" d="M227.17,-124C238.62,-124 251.14,-124 263.5,-124"/>
<polygon fill="#63b8ff" stroke="#63b8ff" points="263.26,-127.5 273.26,-124 263.26,-120.5 263.26,-127.5"/>
</a>
</g>
</g>
<!-- Node7&#45;&gt;Node11 -->
<g id="edge15_Node000007_Node000011" class="edge">
<title>Node7&#45;&gt;Node11</title>
<g id="a_edge15_Node000007_Node000011"><a xlink:title=" ">
<path fill="none" stroke="#63b8ff" d="M221.46,-134.42C227.57,-136.78 233.62,-139.61 239,-143 258.69,-155.39 255.21,-168.77 275,-181 277.41,-182.49 279.94,-183.87 282.54,-185.14"/>
<polygon fill="#63b8ff" stroke="#63b8ff" points="280.92,-188.25 291.49,-188.97 283.68,-181.82 280.92,-188.25"/>
</a>
</g>
</g>
<!-- Node10 -->
<g id="Node000010" class="node">
<title>Node10</title>
<g id="a_Node000010"><a xlink:href="mcp2515_8c.html#aa8f4e44a2081362f25ff79e24d4bf6cb" target="_top" xlink:title="Seteado el modo de trabajo.">
<polygon fill="white" stroke="#666666" points="536.5,-172 438,-172 438,-152 536.5,-152 536.5,-172"/>
<text text-anchor="middle" x="487.25" y="-158.5" font-family="Helvetica,sans-Serif" font-size="10.00">mcp2515_setMode</text>
</a>
</g>
</g>
<!-- Node9&#45;&gt;Node10 -->
<g id="edge12_Node000009_Node000010" class="edge">
<title>Node9&#45;&gt;Node10</title>
<g id="a_edge12_Node000009_Node000010"><a xlink:title=" ">
<path fill="none" stroke="#63b8ff" d="M379.99,-134.48C396.99,-138.89 416.96,-144.06 434.98,-148.72"/>
<polygon fill="#63b8ff" stroke="#63b8ff" points="433.87,-152.05 444.43,-151.17 435.63,-145.28 433.87,-152.05"/>
</a>
</g>
</g>
<!-- Node10&#45;&gt;Node4 -->
<g id="edge13_Node000010_Node000004" class="edge">
<title>Node10&#45;&gt;Node4</title>
<g id="a_edge13_Node000010_Node000004"><a xlink:title=" ">
<path fill="none" stroke="#63b8ff" d="M528.74,-172.48C545.74,-176.89 565.71,-182.06 583.73,-186.72"/>
<polygon fill="#63b8ff" stroke="#63b8ff" points="582.62,-190.05 593.18,-189.17 584.38,-183.28 582.62,-190.05"/>
</a>
</g>
</g>
<!-- Node10&#45;&gt;Node6 -->
<g id="edge14_Node000010_Node000006" class="edge">
<title>Node10&#45;&gt;Node6</title>
<g id="a_edge14_Node000010_Node000006"><a xlink:title=" ">
<path fill="none" stroke="#63b8ff" d="M536.71,-162C546.07,-162 556.04,-162 565.91,-162"/>
<polygon fill="#63b8ff" stroke="#63b8ff" points="565.9,-165.5 575.9,-162 565.9,-158.5 565.9,-165.5"/>
</a>
</g>
</g>
<!-- Node11&#45;&gt;Node2 -->
<g id="edge16_Node000011_Node000002" class="edge">
<title>Node11&#45;&gt;Node2</title>
<g id="a_edge16_Node000011_Node000002"><a xlink:title=" ">
<path fill="none" stroke="#63b8ff" d="M397.16,-205.2C486.11,-213.23 654.08,-228.39 726.19,-234.9"/>
<polygon fill="#63b8ff" stroke="#63b8ff" points="725.53,-238.36 735.81,-235.77 726.16,-231.39 725.53,-238.36"/>
</a>
</g>
</g>
<!-- Node11&#45;&gt;Node5 -->
<g id="edge17_Node000011_Node000005" class="edge">
<title>Node11&#45;&gt;Node5</title>
<g id="a_edge17_Node000011_Node000005"><a xlink:title=" ">
<path fill="none" stroke="#63b8ff" d="M384.12,-189.57C390.35,-187.23 396.5,-184.4 402,-181 421.79,-168.77 416.63,-152.19 438,-143 534.76,-101.38 663.13,-131.05 724.64,-149.81"/>
<polygon fill="#63b8ff" stroke="#63b8ff" points="723.29,-153.06 733.88,-152.72 725.39,-146.38 723.29,-153.06"/>
</a>
</g>
</g>
<!-- Node12&#45;&gt;Node8 -->
<g id="edge19_Node000012_Node000008" class="edge">
<title>Node12&#45;&gt;Node8</title>
<g id="a_edge19_Node000012_Node000008"><a xlink:title=" ">
<path fill="none" stroke="#63b8ff" d="M239.47,-162C251.42,-162 264.01,-162 276.03,-162"/>
<polygon fill="#63b8ff" stroke="#63b8ff" points="275.83,-165.5 285.83,-162 275.83,-158.5 275.83,-165.5"/>
</a>
</g>
</g>
<!-- Node12&#45;&gt;Node9 -->
<g id="edge20_Node000012_Node000009" class="edge">
<title>Node12&#45;&gt;Node9</title>
<g id="a_edge20_Node000012_Node000009"><a xlink:title=" ">
<path fill="none" stroke="#63b8ff" d="M223.36,-151.52C241.8,-147.07 263.48,-141.84 282.97,-137.15"/>
<polygon fill="#63b8ff" stroke="#63b8ff" points="283.78,-140.55 292.68,-134.8 282.14,-133.75 283.78,-140.55"/>
</a>
</g>
</g>
<!-- Node12&#45;&gt;Node11 -->
<g id="edge21_Node000012_Node000011" class="edge">
<title>Node12&#45;&gt;Node11</title>
<g id="a_edge21_Node000012_Node000011"><a xlink:title=" ">
<path fill="none" stroke="#63b8ff" d="M223.36,-172.48C241.8,-176.93 263.48,-182.16 282.97,-186.85"/>
<polygon fill="#63b8ff" stroke="#63b8ff" points="282.14,-190.25 292.68,-189.2 283.78,-183.45 282.14,-190.25"/>
</a>
</g>
</g>
<!-- Node13&#45;&gt;Node2 -->
<g id="edge23_Node000013_Node000002" class="edge">
<title>Node13&#45;&gt;Node2</title>
<g id="a_edge23_Node000013_Node000002"><a xlink:title=" ">
<path fill="none" stroke="#63b8ff" d="M671.07,-265.52C688.29,-260.22 709.13,-253.81 726.36,-248.5"/>
<polygon fill="#63b8ff" stroke="#63b8ff" points="727.11,-251.94 735.64,-245.65 725.05,-245.25 727.11,-251.94"/>
</a>
</g>
</g>
<!-- Node13&#45;&gt;Node5 -->
<g id="edge24_Node000013_Node000005" class="edge">
<title>Node13&#45;&gt;Node5</title>
<g id="a_edge24_Node000013_Node000005"><a xlink:title=" ">
<path fill="none" stroke="#63b8ff" d="M648.56,-265.54C661.13,-254.13 681.8,-235.34 699.5,-219 713.59,-205.99 729.4,-191.21 741.4,-179.96"/>
<polygon fill="#63b8ff" stroke="#63b8ff" points="743.74,-182.56 748.63,-173.17 738.95,-177.46 743.74,-182.56"/>
</a>
</g>
</g>
</g>
</svg>
