<?xml version="1.0" encoding="UTF-8" standalone="no"?>
<!DOCTYPE svg PUBLIC "-//W3C//DTD SVG 1.1//EN"
 "http://www.w3.org/Graphics/SVG/1.1/DTD/svg11.dtd">
<!-- Generated by graphviz version 12.2.1 (20241206.2353)
 -->
<!-- Title: mcp2515_modifyRegister Pages: 1 -->
<svg width="223pt" height="66pt"
 viewBox="0.00 0.00 223.00 66.00" xmlns="http://www.w3.org/2000/svg" xmlns:xlink="http://www.w3.org/1999/xlink">
<g id="graph0" class="graph" transform="scale(1 1) rotate(0) translate(4 62)">
<title>mcp2515_modifyRegister</title>
<!-- Node1 -->
<g id="Node000001" class="node">
<title>Node1</title>
<g id="a_Node000001"><a xlink:title="Modifica un registro en particular.">
<polygon fill="#999999" stroke="#666666" points="127,-39 0,-39 0,-19 127,-19 127,-39"/>
<text text-anchor="middle" x="63.5" y="-25.5" font-family="Helvetica,sans-Serif" font-size="10.00">mcp2515_modifyRegister</text>
</a>
</g>
</g>
<!-- Node2 -->
<g id="Node000002" class="node">
<title>Node2</title>
<g id="a_Node000002"><a xlink:href="mcp2515_8c.html#ae85a49925cc5c6fd1b15522434dc51ce" target="_top" xlink:title="Finaliza la comunicacion spi.">
<polygon fill="white" stroke="#666666" points="213.12,-58 164.88,-58 164.88,-38 213.12,-38 213.12,-58"/>
<text text-anchor="middle" x="189" y="-44.5" font-family="Helvetica,sans-Serif" font-size="10.00">endSPI</text>
</a>
</g>
</g>
<!-- Node1&#45;&gt;Node2 -->
<g id="edge1_Node000001_Node000002" class="edge">
<title>Node1&#45;&gt;Node2</title>
<g id="a_edge1_Node000001_Node000002"><a xlink:title=" ">
<path fill="none" stroke="#63b8ff" d="M127.34,-38.67C136.22,-40.03 145.08,-41.4 153.17,-42.64"/>
<polygon fill="#63b8ff" stroke="#63b8ff" points="152.48,-46.08 162.9,-44.14 153.54,-39.16 152.48,-46.08"/>
</a>
</g>
</g>
<!-- Node3 -->
<g id="Node000003" class="node">
<title>Node3</title>
<g id="a_Node000003"><a xlink:href="mcp2515_8c.html#afea997d2aa89cc2831bff10e34198bd8" target="_top" xlink:title="Funciones privadas.">
<polygon fill="white" stroke="#666666" points="215,-20 163,-20 163,0 215,0 215,-20"/>
<text text-anchor="middle" x="189" y="-6.5" font-family="Helvetica,sans-Serif" font-size="10.00">startSPI</text>
</a>
</g>
</g>
<!-- Node1&#45;&gt;Node3 -->
<g id="edge2_Node000001_Node000003" class="edge">
<title>Node1&#45;&gt;Node3</title>
<g id="a_edge2_Node000001_Node000003"><a xlink:title=" ">
<path fill="none" stroke="#63b8ff" d="M127.34,-19.33C135.55,-18.07 143.73,-16.81 151.31,-15.64"/>
<polygon fill="#63b8ff" stroke="#63b8ff" points="151.79,-19.11 161.15,-14.13 150.73,-12.19 151.79,-19.11"/>
</a>
</g>
</g>
</g>
</svg>
