<?xml version="1.0" encoding="UTF-8" standalone="no"?>
<!DOCTYPE svg PUBLIC "-//W3C//DTD SVG 1.1//EN"
 "http://www.w3.org/Graphics/SVG/1.1/DTD/svg11.dtd">
<!-- Generated by graphviz version 12.2.1 (20241206.2353)
 -->
<!-- Title: MensajeCAN/source/mcp2515.c Pages: 1 -->
<svg width="474pt" height="140pt"
 viewBox="0.00 0.00 474.12 140.00" xmlns="http://www.w3.org/2000/svg" xmlns:xlink="http://www.w3.org/1999/xlink">
<g id="graph0" class="graph" transform="scale(1 1) rotate(0) translate(4 136)">
<title>MensajeCAN/source/mcp2515.c</title>
<!-- Node1 -->
<g id="Node000001" class="node">
<title>Node1</title>
<g id="a_Node000001"><a xlink:title="Libreria para manipulacion del modulo can mcp2515.">
<polygon fill="#999999" stroke="#666666" points="334.88,-132 177.12,-132 177.12,-112 334.88,-112 334.88,-132"/>
<text text-anchor="middle" x="256" y="-118.5" font-family="Helvetica,sans-Serif" font-size="10.00">MensajeCAN/source/mcp2515.c</text>
</a>
</g>
</g>
<!-- Node2 -->
<g id="Node000002" class="node">
<title>Node2</title>
<g id="a_Node000002"><a xlink:href="mcp2515_8h.html" target="_top" xlink:title="Liberia del modulo CAN MCP2515, utilizada para la placa de desarrollo KL46Z.">
<polygon fill="white" stroke="#666666" points="114,-76 50,-76 50,-56 114,-56 114,-76"/>
<text text-anchor="middle" x="82" y="-62.5" font-family="Helvetica,sans-Serif" font-size="10.00">mcp2515.h</text>
</a>
</g>
</g>
<!-- Node1&#45;&gt;Node2 -->
<g id="edge1_Node000001_Node000002" class="edge">
<title>Node1&#45;&gt;Node2</title>
<g id="a_edge1_Node000001_Node000002"><a xlink:title=" ">
<path fill="none" stroke="#63b8ff" d="M225.69,-111.59C197.3,-102.78 154.63,-89.54 123.17,-79.78"/>
<polygon fill="#63b8ff" stroke="#63b8ff" points="124.58,-76.55 113.99,-76.93 122.5,-83.23 124.58,-76.55"/>
</a>
</g>
</g>
<!-- Node6 -->
<g id="Node000006" class="node">
<title>Node6</title>
<g id="a_Node000006"><a xlink:title=" ">
<polygon fill="#e0e0e0" stroke="#999999" points="169.5,-76 132.5,-76 132.5,-56 169.5,-56 169.5,-76"/>
<text text-anchor="middle" x="151" y="-62.5" font-family="Helvetica,sans-Serif" font-size="10.00">spi.h</text>
</a>
</g>
</g>
<!-- Node1&#45;&gt;Node6 -->
<g id="edge5_Node000001_Node000006" class="edge">
<title>Node1&#45;&gt;Node6</title>
<g id="a_edge5_Node000001_Node000006"><a xlink:title=" ">
<path fill="none" stroke="#63b8ff" d="M237.71,-111.59C221.7,-103.36 198.17,-91.26 179.66,-81.74"/>
<polygon fill="#63b8ff" stroke="#63b8ff" points="181.27,-78.63 170.78,-77.17 178.07,-84.86 181.27,-78.63"/>
</a>
</g>
</g>
<!-- Node7 -->
<g id="Node000007" class="node">
<title>Node7</title>
<g id="a_Node000007"><a xlink:title=" ">
<polygon fill="#e0e0e0" stroke="#999999" points="246,-76 188,-76 188,-56 246,-56 246,-76"/>
<text text-anchor="middle" x="217" y="-62.5" font-family="Helvetica,sans-Serif" font-size="10.00">fsl_gpio.h</text>
</a>
</g>
</g>
<!-- Node1&#45;&gt;Node7 -->
<g id="edge6_Node000001_Node000007" class="edge">
<title>Node1&#45;&gt;Node7</title>
<g id="a_edge6_Node000001_Node000007"><a xlink:title=" ">
<path fill="none" stroke="#63b8ff" d="M249.21,-111.59C244.01,-104.39 236.67,-94.23 230.31,-85.43"/>
<polygon fill="#63b8ff" stroke="#63b8ff" points="233.29,-83.58 224.6,-77.53 227.62,-87.68 233.29,-83.58"/>
</a>
</g>
</g>
<!-- Node8 -->
<g id="Node000008" class="node">
<title>Node8</title>
<g id="a_Node000008"><a xlink:title=" ">
<polygon fill="#e0e0e0" stroke="#999999" points="325.5,-76 264.5,-76 264.5,-56 325.5,-56 325.5,-76"/>
<text text-anchor="middle" x="295" y="-62.5" font-family="Helvetica,sans-Serif" font-size="10.00">pin_mux.h</text>
</a>
</g>
</g>
<!-- Node1&#45;&gt;Node8 -->
<g id="edge7_Node000001_Node000008" class="edge">
<title>Node1&#45;&gt;Node8</title>
<g id="a_edge7_Node000001_Node000008"><a xlink:title=" ">
<path fill="none" stroke="#63b8ff" d="M262.79,-111.59C267.99,-104.39 275.33,-94.23 281.69,-85.43"/>
<polygon fill="#63b8ff" stroke="#63b8ff" points="284.38,-87.68 287.4,-77.53 278.71,-83.58 284.38,-87.68"/>
</a>
</g>
</g>
<!-- Node9 -->
<g id="Node000009" class="node">
<title>Node9</title>
<g id="a_Node000009"><a xlink:title=" ">
<polygon fill="#e0e0e0" stroke="#999999" points="400.25,-76 343.75,-76 343.75,-56 400.25,-56 400.25,-76"/>
<text text-anchor="middle" x="372" y="-62.5" font-family="Helvetica,sans-Serif" font-size="10.00">fsl_port.h</text>
</a>
</g>
</g>
<!-- Node1&#45;&gt;Node9 -->
<g id="edge8_Node000001_Node000009" class="edge">
<title>Node1&#45;&gt;Node9</title>
<g id="a_edge8_Node000001_Node000009"><a xlink:title=" ">
<path fill="none" stroke="#63b8ff" d="M276.21,-111.59C294.23,-103.21 320.87,-90.8 341.48,-81.21"/>
<polygon fill="#63b8ff" stroke="#63b8ff" points="342.68,-84.51 350.26,-77.12 339.72,-78.17 342.68,-84.51"/>
</a>
</g>
</g>
<!-- Node10 -->
<g id="Node000010" class="node">
<title>Node10</title>
<g id="a_Node000010"><a xlink:title=" ">
<polygon fill="#e0e0e0" stroke="#999999" points="466.12,-76 417.88,-76 417.88,-56 466.12,-56 466.12,-76"/>
<text text-anchor="middle" x="442" y="-62.5" font-family="Helvetica,sans-Serif" font-size="10.00">string.h</text>
</a>
</g>
</g>
<!-- Node1&#45;&gt;Node10 -->
<g id="edge9_Node000001_Node000010" class="edge">
<title>Node1&#45;&gt;Node10</title>
<g id="a_edge9_Node000001_Node000010"><a xlink:title=" ">
<path fill="none" stroke="#63b8ff" d="M288.4,-111.59C321.41,-102.01 372.46,-87.19 406.54,-77.3"/>
<polygon fill="#63b8ff" stroke="#63b8ff" points="407.31,-80.72 415.94,-74.57 405.36,-73.99 407.31,-80.72"/>
</a>
</g>
</g>
<!-- Node3 -->
<g id="Node000003" class="node">
<title>Node3</title>
<g id="a_Node000003"><a xlink:title=" ">
<polygon fill="#e0e0e0" stroke="#999999" points="40,-20 0,-20 0,0 40,0 40,-20"/>
<text text-anchor="middle" x="20" y="-6.5" font-family="Helvetica,sans-Serif" font-size="10.00">can.h</text>
</a>
</g>
</g>
<!-- Node2&#45;&gt;Node3 -->
<g id="edge2_Node000002_Node000003" class="edge">
<title>Node2&#45;&gt;Node3</title>
<g id="a_edge2_Node000002_Node000003"><a xlink:title=" ">
<path fill="none" stroke="#63b8ff" d="M71.2,-55.59C62.4,-47.93 49.75,-36.91 39.23,-27.75"/>
<polygon fill="#63b8ff" stroke="#63b8ff" points="41.66,-25.22 31.82,-21.29 37.06,-30.5 41.66,-25.22"/>
</a>
</g>
</g>
<!-- Node4 -->
<g id="Node000004" class="node">
<title>Node4</title>
<g id="a_Node000004"><a xlink:title=" ">
<polygon fill="#e0e0e0" stroke="#999999" points="106.12,-20 57.88,-20 57.88,0 106.12,0 106.12,-20"/>
<text text-anchor="middle" x="82" y="-6.5" font-family="Helvetica,sans-Serif" font-size="10.00">stdint.h</text>
</a>
</g>
</g>
<!-- Node2&#45;&gt;Node4 -->
<g id="edge3_Node000002_Node000004" class="edge">
<title>Node2&#45;&gt;Node4</title>
<g id="a_edge3_Node000002_Node000004"><a xlink:title=" ">
<path fill="none" stroke="#63b8ff" d="M82,-55.59C82,-49.01 82,-39.96 82,-31.73"/>
<polygon fill="#63b8ff" stroke="#63b8ff" points="85.5,-31.81 82,-21.81 78.5,-31.81 85.5,-31.81"/>
</a>
</g>
</g>
<!-- Node5 -->
<g id="Node000005" class="node">
<title>Node5</title>
<g id="a_Node000005"><a xlink:title=" ">
<polygon fill="#e0e0e0" stroke="#999999" points="179.88,-20 124.12,-20 124.12,0 179.88,0 179.88,-20"/>
<text text-anchor="middle" x="152" y="-6.5" font-family="Helvetica,sans-Serif" font-size="10.00">stdbool.h</text>
</a>
</g>
</g>
<!-- Node2&#45;&gt;Node5 -->
<g id="edge4_Node000002_Node000005" class="edge">
<title>Node2&#45;&gt;Node5</title>
<g id="a_edge4_Node000002_Node000005"><a xlink:title=" ">
<path fill="none" stroke="#63b8ff" d="M94.19,-55.59C104.33,-47.77 118.99,-36.46 131.01,-27.19"/>
<polygon fill="#63b8ff" stroke="#63b8ff" points="132.97,-30.1 138.75,-21.22 128.69,-24.56 132.97,-30.1"/>
</a>
</g>
</g>
</g>
</svg>
