<?xml version="1.0" encoding="UTF-8" standalone="no"?>
<!DOCTYPE svg PUBLIC "-//W3C//DTD SVG 1.1//EN"
 "http://www.w3.org/Graphics/SVG/1.1/DTD/svg11.dtd">
<!-- Generated by graphviz version 12.2.1 (20241206.2353)
 -->
<!-- Title: mcp2515_clearRXnOVR Pages: 1 -->
<svg width="566pt" height="104pt"
 viewBox="0.00 0.00 565.50 104.00" xmlns="http://www.w3.org/2000/svg" xmlns:xlink="http://www.w3.org/1999/xlink">
<g id="graph0" class="graph" transform="scale(1 1) rotate(0) translate(4 100)">
<title>mcp2515_clearRXnOVR</title>
<!-- Node1 -->
<g id="Node000001" class="node">
<title>Node1</title>
<g id="a_Node000001"><a xlink:title="Limpia la bandera de overflow de los buffers de rx.">
<polygon fill="#999999" stroke="#666666" points="123.25,-58 0,-58 0,-38 123.25,-38 123.25,-58"/>
<text text-anchor="middle" x="61.62" y="-44.5" font-family="Helvetica,sans-Serif" font-size="10.00">mcp2515_clearRXnOVR</text>
</a>
</g>
</g>
<!-- Node2 -->
<g id="Node000002" class="node">
<title>Node2</title>
<g id="a_Node000002"><a xlink:href="mcp2515_8c.html#a584ccc859e4ab5430492f526cd77c0ed" target="_top" xlink:title="Limpia las banderas de interrupcion.">
<polygon fill="white" stroke="#666666" points="294.5,-96 171.25,-96 171.25,-76 294.5,-76 294.5,-96"/>
<text text-anchor="middle" x="232.88" y="-82.5" font-family="Helvetica,sans-Serif" font-size="10.00">mcp2515_clearInterrupts</text>
</a>
</g>
</g>
<!-- Node1&#45;&gt;Node2 -->
<g id="edge1_Node000001_Node000002" class="edge">
<title>Node1&#45;&gt;Node2</title>
<g id="a_edge1_Node000001_Node000002"><a xlink:title=" ">
<path fill="none" stroke="#63b8ff" d="M109.32,-58.48C129.39,-62.99 153.05,-68.3 174.21,-73.05"/>
<polygon fill="#63b8ff" stroke="#63b8ff" points="173.33,-76.44 183.85,-75.22 174.86,-69.61 173.33,-76.44"/>
</a>
</g>
</g>
<!-- Node6 -->
<g id="Node000006" class="node">
<title>Node6</title>
<g id="a_Node000006"><a xlink:href="mcp2515_8c.html#ae96902bcbdb6e764a65cbe35f942dd7a" target="_top" xlink:title="Limpia la bandera de overflow de los buffer de rx.">
<polygon fill="white" stroke="#666666" points="306.5,-58 159.25,-58 159.25,-38 306.5,-38 306.5,-58"/>
<text text-anchor="middle" x="232.88" y="-44.5" font-family="Helvetica,sans-Serif" font-size="10.00">mcp2515_clearRXnOVRFlags</text>
</a>
</g>
</g>
<!-- Node1&#45;&gt;Node6 -->
<g id="edge5_Node000001_Node000006" class="edge">
<title>Node1&#45;&gt;Node6</title>
<g id="a_edge5_Node000001_Node000006"><a xlink:title=" ">
<path fill="none" stroke="#63b8ff" d="M123.73,-48C131.52,-48 139.59,-48 147.66,-48"/>
<polygon fill="#63b8ff" stroke="#63b8ff" points="147.53,-51.5 157.53,-48 147.53,-44.5 147.53,-51.5"/>
</a>
</g>
</g>
<!-- Node8 -->
<g id="Node000008" class="node">
<title>Node8</title>
<g id="a_Node000008"><a xlink:href="mcp2515_8c.html#ac3d500cb17c7da9f83aeb38c96e78a05" target="_top" xlink:title="Obtiene el estado de error de modulo can.">
<polygon fill="white" stroke="#666666" points="292.62,-20 173.12,-20 173.12,0 292.62,0 292.62,-20"/>
<text text-anchor="middle" x="232.88" y="-6.5" font-family="Helvetica,sans-Serif" font-size="10.00">mcp2515_getErrorFlags</text>
</a>
</g>
</g>
<!-- Node1&#45;&gt;Node8 -->
<g id="edge9_Node000001_Node000008" class="edge">
<title>Node1&#45;&gt;Node8</title>
<g id="a_edge9_Node000001_Node000008"><a xlink:title=" ">
<path fill="none" stroke="#63b8ff" d="M109.32,-37.52C129.39,-33.01 153.05,-27.7 174.21,-22.95"/>
<polygon fill="#63b8ff" stroke="#63b8ff" points="174.86,-26.39 183.85,-20.78 173.33,-19.56 174.86,-26.39"/>
</a>
</g>
</g>
<!-- Node3 -->
<g id="Node000003" class="node">
<title>Node3</title>
<g id="a_Node000003"><a xlink:href="mcp2515_8c.html#aa1ab73089d5c9bfb753aaa1b3b3f8d28" target="_top" xlink:title="Setea un registro.">
<polygon fill="white" stroke="#666666" points="461.62,-96 350.38,-96 350.38,-76 461.62,-76 461.62,-96"/>
<text text-anchor="middle" x="406" y="-82.5" font-family="Helvetica,sans-Serif" font-size="10.00">mcp2515_setRegister</text>
</a>
</g>
</g>
<!-- Node2&#45;&gt;Node3 -->
<g id="edge2_Node000002_Node000003" class="edge">
<title>Node2&#45;&gt;Node3</title>
<g id="a_edge2_Node000002_Node000003"><a xlink:title=" ">
<path fill="none" stroke="#63b8ff" d="M294.69,-86C308.94,-86 324.19,-86 338.67,-86"/>
<polygon fill="#63b8ff" stroke="#63b8ff" points="338.57,-89.5 348.57,-86 338.57,-82.5 338.57,-89.5"/>
</a>
</g>
</g>
<!-- Node4 -->
<g id="Node000004" class="node">
<title>Node4</title>
<g id="a_Node000004"><a xlink:href="mcp2515_8c.html#ae85a49925cc5c6fd1b15522434dc51ce" target="_top" xlink:title="Finaliza la comunicacion spi.">
<polygon fill="white" stroke="#666666" points="555.62,-77 507.38,-77 507.38,-57 555.62,-57 555.62,-77"/>
<text text-anchor="middle" x="531.5" y="-63.5" font-family="Helvetica,sans-Serif" font-size="10.00">endSPI</text>
</a>
</g>
</g>
<!-- Node3&#45;&gt;Node4 -->
<g id="edge3_Node000003_Node000004" class="edge">
<title>Node3&#45;&gt;Node4</title>
<g id="a_edge3_Node000003_Node000004"><a xlink:title=" ">
<path fill="none" stroke="#63b8ff" d="M461.89,-77.56C473.4,-75.78 485.24,-73.96 495.77,-72.34"/>
<polygon fill="#63b8ff" stroke="#63b8ff" points="496.17,-75.82 505.52,-70.84 495.11,-68.9 496.17,-75.82"/>
</a>
</g>
</g>
<!-- Node5 -->
<g id="Node000005" class="node">
<title>Node5</title>
<g id="a_Node000005"><a xlink:href="mcp2515_8c.html#afea997d2aa89cc2831bff10e34198bd8" target="_top" xlink:title="Funciones privadas.">
<polygon fill="white" stroke="#666666" points="557.5,-39 505.5,-39 505.5,-19 557.5,-19 557.5,-39"/>
<text text-anchor="middle" x="531.5" y="-25.5" font-family="Helvetica,sans-Serif" font-size="10.00">startSPI</text>
</a>
</g>
</g>
<!-- Node3&#45;&gt;Node5 -->
<g id="edge4_Node000003_Node000005" class="edge">
<title>Node3&#45;&gt;Node5</title>
<g id="a_edge4_Node000003_Node000005"><a xlink:title=" ">
<path fill="none" stroke="#63b8ff" d="M446.92,-75.57C454.55,-73.11 462.37,-70.23 469.5,-67 482.55,-61.08 496.17,-52.82 507.22,-45.52"/>
<polygon fill="#63b8ff" stroke="#63b8ff" points="509,-48.54 515.3,-40.02 505.06,-42.75 509,-48.54"/>
</a>
</g>
</g>
<!-- Node7 -->
<g id="Node000007" class="node">
<title>Node7</title>
<g id="a_Node000007"><a xlink:href="mcp2515_8c.html#ac3bc690a1b8ef1495f5fbb57eab28eaf" target="_top" xlink:title="Modifica un registro en particular.">
<polygon fill="white" stroke="#666666" points="469.5,-58 342.5,-58 342.5,-38 469.5,-38 469.5,-58"/>
<text text-anchor="middle" x="406" y="-44.5" font-family="Helvetica,sans-Serif" font-size="10.00">mcp2515_modifyRegister</text>
</a>
</g>
</g>
<!-- Node6&#45;&gt;Node7 -->
<g id="edge6_Node000006_Node000007" class="edge">
<title>Node6&#45;&gt;Node7</title>
<g id="a_edge6_Node000006_Node000007"><a xlink:title=" ">
<path fill="none" stroke="#63b8ff" d="M306.94,-48C314.82,-48 322.83,-48 330.72,-48"/>
<polygon fill="#63b8ff" stroke="#63b8ff" points="330.64,-51.5 340.64,-48 330.64,-44.5 330.64,-51.5"/>
</a>
</g>
</g>
<!-- Node7&#45;&gt;Node4 -->
<g id="edge7_Node000007_Node000004" class="edge">
<title>Node7&#45;&gt;Node4</title>
<g id="a_edge7_Node000007_Node000004"><a xlink:title=" ">
<path fill="none" stroke="#63b8ff" d="M469.84,-57.67C478.72,-59.03 487.58,-60.4 495.67,-61.64"/>
<polygon fill="#63b8ff" stroke="#63b8ff" points="494.98,-65.08 505.4,-63.14 496.04,-58.16 494.98,-65.08"/>
</a>
</g>
</g>
<!-- Node7&#45;&gt;Node5 -->
<g id="edge8_Node000007_Node000005" class="edge">
<title>Node7&#45;&gt;Node5</title>
<g id="a_edge8_Node000007_Node000005"><a xlink:title=" ">
<path fill="none" stroke="#63b8ff" d="M469.84,-38.33C478.05,-37.07 486.23,-35.81 493.81,-34.64"/>
<polygon fill="#63b8ff" stroke="#63b8ff" points="494.29,-38.11 503.65,-33.13 493.23,-31.19 494.29,-38.11"/>
</a>
</g>
</g>
<!-- Node9 -->
<g id="Node000009" class="node">
<title>Node9</title>
<g id="a_Node000009"><a xlink:href="mcp2515_8c.html#a1dcd2d88901952184ce8297e1c5c6bf6" target="_top" xlink:title="Lee un solo registro a la vez.">
<polygon fill="white" stroke="#666666" points="464.25,-20 347.75,-20 347.75,0 464.25,0 464.25,-20"/>
<text text-anchor="middle" x="406" y="-6.5" font-family="Helvetica,sans-Serif" font-size="10.00">mcp2515_readRegister</text>
</a>
</g>
</g>
<!-- Node8&#45;&gt;Node9 -->
<g id="edge10_Node000008_Node000009" class="edge">
<title>Node8&#45;&gt;Node9</title>
<g id="a_edge10_Node000008_Node000009"><a xlink:title=" ">
<path fill="none" stroke="#63b8ff" d="M292.77,-10C306.73,-10 321.74,-10 336.1,-10"/>
<polygon fill="#63b8ff" stroke="#63b8ff" points="335.93,-13.5 345.93,-10 335.93,-6.5 335.93,-13.5"/>
</a>
</g>
</g>
<!-- Node9&#45;&gt;Node4 -->
<g id="edge11_Node000009_Node000004" class="edge">
<title>Node9&#45;&gt;Node4</title>
<g id="a_edge11_Node000009_Node000004"><a xlink:title=" ">
<path fill="none" stroke="#63b8ff" d="M446.92,-20.43C454.55,-22.89 462.37,-25.77 469.5,-29 482.55,-34.92 496.17,-43.18 507.22,-50.48"/>
<polygon fill="#63b8ff" stroke="#63b8ff" points="505.06,-53.25 515.3,-55.98 509,-47.46 505.06,-53.25"/>
</a>
</g>
</g>
<!-- Node9&#45;&gt;Node5 -->
<g id="edge12_Node000009_Node000005" class="edge">
<title>Node9&#45;&gt;Node5</title>
<g id="a_edge12_Node000009_Node000005"><a xlink:title=" ">
<path fill="none" stroke="#63b8ff" d="M464.41,-18.83C474.51,-20.39 484.76,-21.96 494.09,-23.4"/>
<polygon fill="#63b8ff" stroke="#63b8ff" points="493.4,-26.83 503.82,-24.89 494.47,-19.91 493.4,-26.83"/>
</a>
</g>
</g>
</g>
</svg>
