<?xml version="1.0" encoding="UTF-8" standalone="no"?>
<!DOCTYPE svg PUBLIC "-//W3C//DTD SVG 1.1//EN"
 "http://www.w3.org/Graphics/SVG/1.1/DTD/svg11.dtd">
<!-- Generated by graphviz version 12.2.1 (20241206.2353)
 -->
<!-- Title: mcp2515_setListenOnlyMode Pages: 1 -->
<svg width="539pt" height="66pt"
 viewBox="0.00 0.00 538.50 66.00" xmlns="http://www.w3.org/2000/svg" xmlns:xlink="http://www.w3.org/1999/xlink">
<g id="graph0" class="graph" transform="scale(1 1) rotate(0) translate(4 62)">
<title>mcp2515_setListenOnlyMode</title>
<!-- Node1 -->
<g id="Node000001" class="node">
<title>Node1</title>
<g id="a_Node000001"><a xlink:title="Setea el modo de solo escucha.">
<polygon fill="#999999" stroke="#666666" points="145,-39 0,-39 0,-19 145,-19 145,-39"/>
<text text-anchor="middle" x="72.5" y="-25.5" font-family="Helvetica,sans-Serif" font-size="10.00">mcp2515_setListenOnlyMode</text>
</a>
</g>
</g>
<!-- Node2 -->
<g id="Node000002" class="node">
<title>Node2</title>
<g id="a_Node000002"><a xlink:href="mcp2515_8c.html#aa8f4e44a2081362f25ff79e24d4bf6cb" target="_top" xlink:title="Seteado el modo de trabajo.">
<polygon fill="white" stroke="#666666" points="279.5,-39 181,-39 181,-19 279.5,-19 279.5,-39"/>
<text text-anchor="middle" x="230.25" y="-25.5" font-family="Helvetica,sans-Serif" font-size="10.00">mcp2515_setMode</text>
</a>
</g>
</g>
<!-- Node1&#45;&gt;Node2 -->
<g id="edge1_Node000001_Node000002" class="edge">
<title>Node1&#45;&gt;Node2</title>
<g id="a_edge1_Node000001_Node000002"><a xlink:title=" ">
<path fill="none" stroke="#63b8ff" d="M145.45,-29C153.48,-29 161.6,-29 169.46,-29"/>
<polygon fill="#63b8ff" stroke="#63b8ff" points="169.23,-32.5 179.23,-29 169.23,-25.5 169.23,-32.5"/>
</a>
</g>
</g>
<!-- Node3 -->
<g id="Node000003" class="node">
<title>Node3</title>
<g id="a_Node000003"><a xlink:href="mcp2515_8c.html#ac3bc690a1b8ef1495f5fbb57eab28eaf" target="_top" xlink:title="Modifica un registro en particular.">
<polygon fill="white" stroke="#666666" points="442.5,-58 315.5,-58 315.5,-38 442.5,-38 442.5,-58"/>
<text text-anchor="middle" x="379" y="-44.5" font-family="Helvetica,sans-Serif" font-size="10.00">mcp2515_modifyRegister</text>
</a>
</g>
</g>
<!-- Node2&#45;&gt;Node3 -->
<g id="edge2_Node000002_Node000003" class="edge">
<title>Node2&#45;&gt;Node3</title>
<g id="a_edge2_Node000002_Node000003"><a xlink:title=" ">
<path fill="none" stroke="#63b8ff" d="M279.71,-35.27C287.51,-36.28 295.75,-37.35 303.99,-38.42"/>
<polygon fill="#63b8ff" stroke="#63b8ff" points="303.33,-41.86 313.7,-39.67 304.23,-34.92 303.33,-41.86"/>
</a>
</g>
</g>
<!-- Node6 -->
<g id="Node000006" class="node">
<title>Node6</title>
<g id="a_Node000006"><a xlink:href="mcp2515_8c.html#a1dcd2d88901952184ce8297e1c5c6bf6" target="_top" xlink:title="Lee un solo registro a la vez.">
<polygon fill="white" stroke="#666666" points="437.25,-20 320.75,-20 320.75,0 437.25,0 437.25,-20"/>
<text text-anchor="middle" x="379" y="-6.5" font-family="Helvetica,sans-Serif" font-size="10.00">mcp2515_readRegister</text>
</a>
</g>
</g>
<!-- Node2&#45;&gt;Node6 -->
<g id="edge5_Node000002_Node000006" class="edge">
<title>Node2&#45;&gt;Node6</title>
<g id="a_edge5_Node000002_Node000006"><a xlink:title=" ">
<path fill="none" stroke="#63b8ff" d="M279.71,-22.73C289.17,-21.5 299.26,-20.19 309.24,-18.9"/>
<polygon fill="#63b8ff" stroke="#63b8ff" points="309.44,-22.41 318.91,-17.65 308.54,-15.46 309.44,-22.41"/>
</a>
</g>
</g>
<!-- Node4 -->
<g id="Node000004" class="node">
<title>Node4</title>
<g id="a_Node000004"><a xlink:href="mcp2515_8c.html#ae85a49925cc5c6fd1b15522434dc51ce" target="_top" xlink:title="Finaliza la comunicacion spi.">
<polygon fill="white" stroke="#666666" points="528.62,-58 480.38,-58 480.38,-38 528.62,-38 528.62,-58"/>
<text text-anchor="middle" x="504.5" y="-44.5" font-family="Helvetica,sans-Serif" font-size="10.00">endSPI</text>
</a>
</g>
</g>
<!-- Node3&#45;&gt;Node4 -->
<g id="edge3_Node000003_Node000004" class="edge">
<title>Node3&#45;&gt;Node4</title>
<g id="a_edge3_Node000003_Node000004"><a xlink:title=" ">
<path fill="none" stroke="#63b8ff" d="M442.84,-48C451.62,-48 460.38,-48 468.39,-48"/>
<polygon fill="#63b8ff" stroke="#63b8ff" points="468.38,-51.5 478.38,-48 468.38,-44.5 468.38,-51.5"/>
</a>
</g>
</g>
<!-- Node5 -->
<g id="Node000005" class="node">
<title>Node5</title>
<g id="a_Node000005"><a xlink:href="mcp2515_8c.html#afea997d2aa89cc2831bff10e34198bd8" target="_top" xlink:title="Funciones privadas.">
<polygon fill="white" stroke="#666666" points="530.5,-20 478.5,-20 478.5,0 530.5,0 530.5,-20"/>
<text text-anchor="middle" x="504.5" y="-6.5" font-family="Helvetica,sans-Serif" font-size="10.00">startSPI</text>
</a>
</g>
</g>
<!-- Node3&#45;&gt;Node5 -->
<g id="edge4_Node000003_Node000005" class="edge">
<title>Node3&#45;&gt;Node5</title>
<g id="a_edge4_Node000003_Node000005"><a xlink:title=" ">
<path fill="none" stroke="#63b8ff" d="M414.4,-37.59C423.54,-34.81 433.39,-31.8 442.5,-29 450.59,-26.51 459.28,-23.82 467.49,-21.26"/>
<polygon fill="#63b8ff" stroke="#63b8ff" points="468.33,-24.66 476.84,-18.35 466.25,-17.98 468.33,-24.66"/>
</a>
</g>
</g>
<!-- Node6&#45;&gt;Node4 -->
<g id="edge6_Node000006_Node000004" class="edge">
<title>Node6&#45;&gt;Node4</title>
<g id="a_edge6_Node000006_Node000004"><a xlink:title=" ">
<path fill="none" stroke="#63b8ff" d="M414.4,-20.41C423.54,-23.19 433.39,-26.2 442.5,-29 451.12,-31.65 460.43,-34.54 469.11,-37.24"/>
<polygon fill="#63b8ff" stroke="#63b8ff" points="468.01,-40.57 478.6,-40.2 470.1,-33.89 468.01,-40.57"/>
</a>
</g>
</g>
<!-- Node6&#45;&gt;Node5 -->
<g id="edge7_Node000006_Node000005" class="edge">
<title>Node6&#45;&gt;Node5</title>
<g id="a_edge7_Node000006_Node000005"><a xlink:title=" ">
<path fill="none" stroke="#63b8ff" d="M437.41,-10C447.51,-10 457.76,-10 467.09,-10"/>
<polygon fill="#63b8ff" stroke="#63b8ff" points="466.8,-13.5 476.8,-10 466.8,-6.5 466.8,-13.5"/>
</a>
</g>
</g>
</g>
</svg>
