<?xml version="1.0" encoding="UTF-8" standalone="no"?>
<!DOCTYPE svg PUBLIC "-//W3C//DTD SVG 1.1//EN"
 "http://www.w3.org/Graphics/SVG/1.1/DTD/svg11.dtd">
<!-- Generated by graphviz version 12.2.1 (20241206.2353)
 -->
<!-- Title: mcp2515_clearERRIF Pages: 1 -->
<svg width="372pt" height="66pt"
 viewBox="0.00 0.00 371.75 66.00" xmlns="http://www.w3.org/2000/svg" xmlns:xlink="http://www.w3.org/1999/xlink">
<g id="graph0" class="graph" transform="scale(1 1) rotate(0) translate(4 62)">
<title>mcp2515_clearERRIF</title>
<!-- Node1 -->
<g id="Node000001" class="node">
<title>Node1</title>
<g id="a_Node000001"><a xlink:title="Limpia la bandera de errif.">
<polygon fill="#999999" stroke="#666666" points="112.75,-39 0,-39 0,-19 112.75,-19 112.75,-39"/>
<text text-anchor="middle" x="56.38" y="-25.5" font-family="Helvetica,sans-Serif" font-size="10.00">mcp2515_clearERRIF</text>
</a>
</g>
</g>
<!-- Node2 -->
<g id="Node000002" class="node">
<title>Node2</title>
<g id="a_Node000002"><a xlink:href="mcp2515_8c.html#ac3bc690a1b8ef1495f5fbb57eab28eaf" target="_top" xlink:title="Modifica un registro en particular.">
<polygon fill="white" stroke="#666666" points="275.75,-39 148.75,-39 148.75,-19 275.75,-19 275.75,-39"/>
<text text-anchor="middle" x="212.25" y="-25.5" font-family="Helvetica,sans-Serif" font-size="10.00">mcp2515_modifyRegister</text>
</a>
</g>
</g>
<!-- Node1&#45;&gt;Node2 -->
<g id="edge1_Node000001_Node000002" class="edge">
<title>Node1&#45;&gt;Node2</title>
<g id="a_edge1_Node000001_Node000002"><a xlink:title=" ">
<path fill="none" stroke="#63b8ff" d="M112.93,-29C120.77,-29 128.93,-29 137.05,-29"/>
<polygon fill="#63b8ff" stroke="#63b8ff" points="136.96,-32.5 146.96,-29 136.96,-25.5 136.96,-32.5"/>
</a>
</g>
</g>
<!-- Node3 -->
<g id="Node000003" class="node">
<title>Node3</title>
<g id="a_Node000003"><a xlink:href="mcp2515_8c.html#ae85a49925cc5c6fd1b15522434dc51ce" target="_top" xlink:title="Finaliza la comunicacion spi.">
<polygon fill="white" stroke="#666666" points="361.88,-58 313.62,-58 313.62,-38 361.88,-38 361.88,-58"/>
<text text-anchor="middle" x="337.75" y="-44.5" font-family="Helvetica,sans-Serif" font-size="10.00">endSPI</text>
</a>
</g>
</g>
<!-- Node2&#45;&gt;Node3 -->
<g id="edge2_Node000002_Node000003" class="edge">
<title>Node2&#45;&gt;Node3</title>
<g id="a_edge2_Node000002_Node000003"><a xlink:title=" ">
<path fill="none" stroke="#63b8ff" d="M276.09,-38.67C284.97,-40.03 293.83,-41.4 301.92,-42.64"/>
<polygon fill="#63b8ff" stroke="#63b8ff" points="301.23,-46.08 311.65,-44.14 302.29,-39.16 301.23,-46.08"/>
</a>
</g>
</g>
<!-- Node4 -->
<g id="Node000004" class="node">
<title>Node4</title>
<g id="a_Node000004"><a xlink:href="mcp2515_8c.html#afea997d2aa89cc2831bff10e34198bd8" target="_top" xlink:title="Funciones privadas.">
<polygon fill="white" stroke="#666666" points="363.75,-20 311.75,-20 311.75,0 363.75,0 363.75,-20"/>
<text text-anchor="middle" x="337.75" y="-6.5" font-family="Helvetica,sans-Serif" font-size="10.00">startSPI</text>
</a>
</g>
</g>
<!-- Node2&#45;&gt;Node4 -->
<g id="edge3_Node000002_Node000004" class="edge">
<title>Node2&#45;&gt;Node4</title>
<g id="a_edge3_Node000002_Node000004"><a xlink:title=" ">
<path fill="none" stroke="#63b8ff" d="M276.09,-19.33C284.3,-18.07 292.48,-16.81 300.06,-15.64"/>
<polygon fill="#63b8ff" stroke="#63b8ff" points="300.54,-19.11 309.9,-14.13 299.48,-12.19 300.54,-19.11"/>
</a>
</g>
</g>
</g>
</svg>
