<?xml version="1.0" encoding="UTF-8" standalone="no"?>
<!DOCTYPE svg PUBLIC "-//W3C//DTD SVG 1.1//EN"
 "http://www.w3.org/Graphics/SVG/1.1/DTD/svg11.dtd">
<!-- Generated by graphviz version 12.2.1 (20241206.2353)
 -->
<!-- Title: mcp2515_setNormalMode Pages: 1 -->
<svg width="524pt" height="66pt"
 viewBox="0.00 0.00 523.50 66.00" xmlns="http://www.w3.org/2000/svg" xmlns:xlink="http://www.w3.org/1999/xlink">
<g id="graph0" class="graph" transform="scale(1 1) rotate(0) translate(4 62)">
<title>mcp2515_setNormalMode</title>
<!-- Node1 -->
<g id="Node000001" class="node">
<title>Node1</title>
<g id="a_Node000001"><a xlink:title="Setea el modo normal de trabajo.">
<polygon fill="#999999" stroke="#666666" points="130,-39 0,-39 0,-19 130,-19 130,-39"/>
<text text-anchor="middle" x="65" y="-25.5" font-family="Helvetica,sans-Serif" font-size="10.00">mcp2515_setNormalMode</text>
</a>
</g>
</g>
<!-- Node2 -->
<g id="Node000002" class="node">
<title>Node2</title>
<g id="a_Node000002"><a xlink:href="mcp2515_8c.html#aa8f4e44a2081362f25ff79e24d4bf6cb" target="_top" xlink:title="Seteado el modo de trabajo.">
<polygon fill="white" stroke="#666666" points="264.5,-39 166,-39 166,-19 264.5,-19 264.5,-39"/>
<text text-anchor="middle" x="215.25" y="-25.5" font-family="Helvetica,sans-Serif" font-size="10.00">mcp2515_setMode</text>
</a>
</g>
</g>
<!-- Node1&#45;&gt;Node2 -->
<g id="edge1_Node000001_Node000002" class="edge">
<title>Node1&#45;&gt;Node2</title>
<g id="a_edge1_Node000001_Node000002"><a xlink:title=" ">
<path fill="none" stroke="#63b8ff" d="M130.16,-29C138.15,-29 146.3,-29 154.23,-29"/>
<polygon fill="#63b8ff" stroke="#63b8ff" points="154.12,-32.5 164.12,-29 154.12,-25.5 154.12,-32.5"/>
</a>
</g>
</g>
<!-- Node3 -->
<g id="Node000003" class="node">
<title>Node3</title>
<g id="a_Node000003"><a xlink:href="mcp2515_8c.html#ac3bc690a1b8ef1495f5fbb57eab28eaf" target="_top" xlink:title="Modifica un registro en particular.">
<polygon fill="white" stroke="#666666" points="427.5,-58 300.5,-58 300.5,-38 427.5,-38 427.5,-58"/>
<text text-anchor="middle" x="364" y="-44.5" font-family="Helvetica,sans-Serif" font-size="10.00">mcp2515_modifyRegister</text>
</a>
</g>
</g>
<!-- Node2&#45;&gt;Node3 -->
<g id="edge2_Node000002_Node000003" class="edge">
<title>Node2&#45;&gt;Node3</title>
<g id="a_edge2_Node000002_Node000003"><a xlink:title=" ">
<path fill="none" stroke="#63b8ff" d="M264.71,-35.27C272.51,-36.28 280.75,-37.35 288.99,-38.42"/>
<polygon fill="#63b8ff" stroke="#63b8ff" points="288.33,-41.86 298.7,-39.67 289.23,-34.92 288.33,-41.86"/>
</a>
</g>
</g>
<!-- Node6 -->
<g id="Node000006" class="node">
<title>Node6</title>
<g id="a_Node000006"><a xlink:href="mcp2515_8c.html#a1dcd2d88901952184ce8297e1c5c6bf6" target="_top" xlink:title="Lee un solo registro a la vez.">
<polygon fill="white" stroke="#666666" points="422.25,-20 305.75,-20 305.75,0 422.25,0 422.25,-20"/>
<text text-anchor="middle" x="364" y="-6.5" font-family="Helvetica,sans-Serif" font-size="10.00">mcp2515_readRegister</text>
</a>
</g>
</g>
<!-- Node2&#45;&gt;Node6 -->
<g id="edge5_Node000002_Node000006" class="edge">
<title>Node2&#45;&gt;Node6</title>
<g id="a_edge5_Node000002_Node000006"><a xlink:title=" ">
<path fill="none" stroke="#63b8ff" d="M264.71,-22.73C274.17,-21.5 284.26,-20.19 294.24,-18.9"/>
<polygon fill="#63b8ff" stroke="#63b8ff" points="294.44,-22.41 303.91,-17.65 293.54,-15.46 294.44,-22.41"/>
</a>
</g>
</g>
<!-- Node4 -->
<g id="Node000004" class="node">
<title>Node4</title>
<g id="a_Node000004"><a xlink:href="mcp2515_8c.html#ae85a49925cc5c6fd1b15522434dc51ce" target="_top" xlink:title="Finaliza la comunicacion spi.">
<polygon fill="white" stroke="#666666" points="513.62,-58 465.38,-58 465.38,-38 513.62,-38 513.62,-58"/>
<text text-anchor="middle" x="489.5" y="-44.5" font-family="Helvetica,sans-Serif" font-size="10.00">endSPI</text>
</a>
</g>
</g>
<!-- Node3&#45;&gt;Node4 -->
<g id="edge3_Node000003_Node000004" class="edge">
<title>Node3&#45;&gt;Node4</title>
<g id="a_edge3_Node000003_Node000004"><a xlink:title=" ">
<path fill="none" stroke="#63b8ff" d="M427.84,-48C436.62,-48 445.38,-48 453.39,-48"/>
<polygon fill="#63b8ff" stroke="#63b8ff" points="453.38,-51.5 463.38,-48 453.38,-44.5 453.38,-51.5"/>
</a>
</g>
</g>
<!-- Node5 -->
<g id="Node000005" class="node">
<title>Node5</title>
<g id="a_Node000005"><a xlink:href="mcp2515_8c.html#afea997d2aa89cc2831bff10e34198bd8" target="_top" xlink:title="Funciones privadas.">
<polygon fill="white" stroke="#666666" points="515.5,-20 463.5,-20 463.5,0 515.5,0 515.5,-20"/>
<text text-anchor="middle" x="489.5" y="-6.5" font-family="Helvetica,sans-Serif" font-size="10.00">startSPI</text>
</a>
</g>
</g>
<!-- Node3&#45;&gt;Node5 -->
<g id="edge4_Node000003_Node000005" class="edge">
<title>Node3&#45;&gt;Node5</title>
<g id="a_edge4_Node000003_Node000005"><a xlink:title=" ">
<path fill="none" stroke="#63b8ff" d="M399.4,-37.59C408.54,-34.81 418.39,-31.8 427.5,-29 435.59,-26.51 444.28,-23.82 452.49,-21.26"/>
<polygon fill="#63b8ff" stroke="#63b8ff" points="453.33,-24.66 461.84,-18.35 451.25,-17.98 453.33,-24.66"/>
</a>
</g>
</g>
<!-- Node6&#45;&gt;Node4 -->
<g id="edge6_Node000006_Node000004" class="edge">
<title>Node6&#45;&gt;Node4</title>
<g id="a_edge6_Node000006_Node000004"><a xlink:title=" ">
<path fill="none" stroke="#63b8ff" d="M399.4,-20.41C408.54,-23.19 418.39,-26.2 427.5,-29 436.12,-31.65 445.43,-34.54 454.11,-37.24"/>
<polygon fill="#63b8ff" stroke="#63b8ff" points="453.01,-40.57 463.6,-40.2 455.1,-33.89 453.01,-40.57"/>
</a>
</g>
</g>
<!-- Node6&#45;&gt;Node5 -->
<g id="edge7_Node000006_Node000005" class="edge">
<title>Node6&#45;&gt;Node5</title>
<g id="a_edge7_Node000006_Node000005"><a xlink:title=" ">
<path fill="none" stroke="#63b8ff" d="M422.41,-10C432.51,-10 442.76,-10 452.09,-10"/>
<polygon fill="#63b8ff" stroke="#63b8ff" points="451.8,-13.5 461.8,-10 451.8,-6.5 451.8,-13.5"/>
</a>
</g>
</g>
</g>
</svg>
