<?xml version="1.0" encoding="UTF-8" standalone="no"?>
<!DOCTYPE svg PUBLIC "-//W3C//DTD SVG 1.1//EN"
 "http://www.w3.org/Graphics/SVG/1.1/DTD/svg11.dtd">
<!-- Generated by graphviz version 12.2.1 (20241206.2353)
 -->
<!-- Title: mcp2515_prepareId Pages: 1 -->
<svg width="681pt" height="104pt"
 viewBox="0.00 0.00 681.25 104.00" xmlns="http://www.w3.org/2000/svg" xmlns:xlink="http://www.w3.org/1999/xlink">
<g id="graph0" class="graph" transform="scale(1 1) rotate(0) translate(4 100)">
<title>mcp2515_prepareId</title>
<!-- Node1 -->
<g id="Node000001" class="node">
<title>Node1</title>
<g id="a_Node000001"><a xlink:title="Configura el id para una accion en particular.">
<polygon fill="#999999" stroke="#666666" points="673.25,-58 571.75,-58 571.75,-38 673.25,-38 673.25,-58"/>
<text text-anchor="middle" x="622.5" y="-44.5" font-family="Helvetica,sans-Serif" font-size="10.00">mcp2515_prepareId</text>
</a>
</g>
</g>
<!-- Node2 -->
<g id="Node000002" class="node">
<title>Node2</title>
<g id="a_Node000002"><a xlink:href="mcp2515_8c.html#a4733cdbc41bfeb798df55ab500ba76ee" target="_top" xlink:title="Envio de mensaje con el buffer.">
<polygon fill="white" stroke="#666666" points="535.75,-96 360,-96 360,-76 535.75,-76 535.75,-96"/>
<text text-anchor="middle" x="447.88" y="-82.5" font-family="Helvetica,sans-Serif" font-size="10.00">mcp2515_sendMessageWithBufferId</text>
</a>
</g>
</g>
<!-- Node1&#45;&gt;Node2 -->
<g id="edge1_Node000001_Node000002" class="edge">
<title>Node1&#45;&gt;Node2</title>
<g id="a_edge1_Node000001_Node000002"><a xlink:title=" ">
<path fill="none" stroke="#63b8ff" d="M563.26,-60.93C554.05,-62.96 544.64,-65.04 535.75,-67 523.08,-69.79 509.38,-72.79 496.68,-75.57"/>
<polygon fill="#63b8ff" stroke="#63b8ff" points="563.84,-64.38 572.85,-58.8 562.33,-57.55 563.84,-64.38"/>
</a>
</g>
</g>
<!-- Node6 -->
<g id="Node000006" class="node">
<title>Node6</title>
<g id="a_Node000006"><a xlink:href="mcp2515_8c.html#adb0e9467c52bdc0cef5bb689dd3b996f" target="_top" xlink:title="Se configura el filtro.">
<polygon fill="white" stroke="#666666" points="496,-58 399.75,-58 399.75,-38 496,-38 496,-58"/>
<text text-anchor="middle" x="447.88" y="-44.5" font-family="Helvetica,sans-Serif" font-size="10.00">mcp2515_setFilter</text>
</a>
</g>
</g>
<!-- Node1&#45;&gt;Node6 -->
<g id="edge5_Node000001_Node000006" class="edge">
<title>Node1&#45;&gt;Node6</title>
<g id="a_edge5_Node000001_Node000006"><a xlink:title=" ">
<path fill="none" stroke="#63b8ff" d="M560.17,-48C539.18,-48 516.04,-48 496.32,-48"/>
<polygon fill="#63b8ff" stroke="#63b8ff" points="560.06,-51.5 570.06,-48 560.06,-44.5 560.06,-51.5"/>
</a>
</g>
</g>
<!-- Node9 -->
<g id="Node000009" class="node">
<title>Node9</title>
<g id="a_Node000009"><a xlink:href="mcp2515_8c.html#a34318296cf509afa4e66aeffdbeb0f6d" target="_top" xlink:title="Setea el filtro y la mascara. Se configuran dichos datos en los registros del propio modulo.">
<polygon fill="white" stroke="#666666" points="508,-20 387.75,-20 387.75,0 508,0 508,-20"/>
<text text-anchor="middle" x="447.88" y="-6.5" font-family="Helvetica,sans-Serif" font-size="10.00">mcp2515_setFilterMask</text>
</a>
</g>
</g>
<!-- Node1&#45;&gt;Node9 -->
<g id="edge9_Node000001_Node000009" class="edge">
<title>Node1&#45;&gt;Node9</title>
<g id="a_edge9_Node000001_Node000009"><a xlink:title=" ">
<path fill="none" stroke="#63b8ff" d="M563.26,-35.07C554.05,-33.04 544.64,-30.96 535.75,-29 523.08,-26.21 509.38,-23.21 496.68,-20.43"/>
<polygon fill="#63b8ff" stroke="#63b8ff" points="562.33,-38.45 572.85,-37.2 563.84,-31.62 562.33,-38.45"/>
</a>
</g>
</g>
<!-- Node3 -->
<g id="Node000003" class="node">
<title>Node3</title>
<g id="a_Node000003"><a xlink:href="mcp2515_8c.html#a4139b924c04d5aa72c132ccd16f05437" target="_top" xlink:title="Envio de mensaje.">
<polygon fill="white" stroke="#666666" points="324,-96 202.25,-96 202.25,-76 324,-76 324,-96"/>
<text text-anchor="middle" x="263.12" y="-82.5" font-family="Helvetica,sans-Serif" font-size="10.00">mcp2515_sendMessage</text>
</a>
</g>
</g>
<!-- Node2&#45;&gt;Node3 -->
<g id="edge2_Node000002_Node000003" class="edge">
<title>Node2&#45;&gt;Node3</title>
<g id="a_edge2_Node000002_Node000003"><a xlink:title=" ">
<path fill="none" stroke="#63b8ff" d="M348.05,-86C339.96,-86 331.94,-86 324.27,-86"/>
<polygon fill="#63b8ff" stroke="#63b8ff" points="348,-89.5 358,-86 348,-82.5 348,-89.5"/>
</a>
</g>
</g>
<!-- Node4 -->
<g id="Node000004" class="node">
<title>Node4</title>
<g id="a_Node000004"><a xlink:href="main_8c.html#ae3697afe652e8273e37aac8f55c48276" target="_top" xlink:title="Escritura de mensajes tipo CAN.">
<polygon fill="white" stroke="#666666" points="166.25,-96 73,-96 73,-76 166.25,-76 166.25,-96"/>
<text text-anchor="middle" x="119.62" y="-82.5" font-family="Helvetica,sans-Serif" font-size="10.00">canmsg_escritura</text>
</a>
</g>
</g>
<!-- Node3&#45;&gt;Node4 -->
<g id="edge3_Node000003_Node000004" class="edge">
<title>Node3&#45;&gt;Node4</title>
<g id="a_edge3_Node000003_Node000004"><a xlink:title=" ">
<path fill="none" stroke="#63b8ff" d="M190.88,-86C182.61,-86 174.35,-86 166.56,-86"/>
<polygon fill="#63b8ff" stroke="#63b8ff" points="190.6,-89.5 200.6,-86 190.6,-82.5 190.6,-89.5"/>
</a>
</g>
</g>
<!-- Node5 -->
<g id="Node000005" class="node">
<title>Node5</title>
<g id="a_Node000005"><a xlink:href="main_8c.html#a840291bc02cba5474a4cb46a9b9566fe" target="_top" xlink:title="Main.">
<polygon fill="white" stroke="#666666" points="37,-77 0,-77 0,-57 37,-57 37,-77"/>
<text text-anchor="middle" x="18.5" y="-63.5" font-family="Helvetica,sans-Serif" font-size="10.00">main</text>
</a>
</g>
</g>
<!-- Node4&#45;&gt;Node5 -->
<g id="edge4_Node000004_Node000005" class="edge">
<title>Node4&#45;&gt;Node5</title>
<g id="a_edge4_Node000004_Node000005"><a xlink:title=" ">
<path fill="none" stroke="#63b8ff" d="M61.38,-75.03C52.64,-73.35 44.23,-71.74 37.26,-70.41"/>
<polygon fill="#63b8ff" stroke="#63b8ff" points="60.58,-78.44 71.06,-76.88 61.9,-71.56 60.58,-78.44"/>
</a>
</g>
</g>
<!-- Node7 -->
<g id="Node000007" class="node">
<title>Node7</title>
<g id="a_Node000007"><a xlink:href="mcp2515_8c.html#a21cb40a7513567cb455ce296ef0bbe4b" target="_top" xlink:title="Resetea el modulo.">
<polygon fill="white" stroke="#666666" points="304.5,-58 221.75,-58 221.75,-38 304.5,-38 304.5,-58"/>
<text text-anchor="middle" x="263.12" y="-44.5" font-family="Helvetica,sans-Serif" font-size="10.00">mcp2515_reset</text>
</a>
</g>
</g>
<!-- Node6&#45;&gt;Node7 -->
<g id="edge6_Node000006_Node000007" class="edge">
<title>Node6&#45;&gt;Node7</title>
<g id="a_edge6_Node000006_Node000007"><a xlink:title=" ">
<path fill="none" stroke="#63b8ff" d="M388.02,-48C360.89,-48 329.37,-48 304.92,-48"/>
<polygon fill="#63b8ff" stroke="#63b8ff" points="387.82,-51.5 397.82,-48 387.82,-44.5 387.82,-51.5"/>
</a>
</g>
</g>
<!-- Node8 -->
<g id="Node000008" class="node">
<title>Node8</title>
<g id="a_Node000008"><a xlink:href="main_8c.html#a3df11f7015b4a015c6b468941125de20" target="_top" xlink:title="Inicializacion de perifericos.">
<polygon fill="white" stroke="#666666" points="159.12,-58 80.12,-58 80.12,-38 159.12,-38 159.12,-58"/>
<text text-anchor="middle" x="119.62" y="-44.5" font-family="Helvetica,sans-Serif" font-size="10.00">perifericos_init</text>
</a>
</g>
</g>
<!-- Node7&#45;&gt;Node8 -->
<g id="edge7_Node000007_Node000008" class="edge">
<title>Node7&#45;&gt;Node8</title>
<g id="a_edge7_Node000007_Node000008"><a xlink:title=" ">
<path fill="none" stroke="#63b8ff" d="M210.2,-48C193.34,-48 174.94,-48 159.23,-48"/>
<polygon fill="#63b8ff" stroke="#63b8ff" points="210.06,-51.5 220.06,-48 210.06,-44.5 210.06,-51.5"/>
</a>
</g>
</g>
<!-- Node8&#45;&gt;Node5 -->
<g id="edge8_Node000008_Node000005" class="edge">
<title>Node8&#45;&gt;Node5</title>
<g id="a_edge8_Node000008_Node000005"><a xlink:title=" ">
<path fill="none" stroke="#63b8ff" d="M68.59,-57.59C57.37,-59.74 46.19,-61.88 37.33,-63.58"/>
<polygon fill="#63b8ff" stroke="#63b8ff" points="69.08,-61.06 78.25,-55.74 67.77,-54.18 69.08,-61.06"/>
</a>
</g>
</g>
<!-- Node9&#45;&gt;Node7 -->
<g id="edge10_Node000009_Node000007" class="edge">
<title>Node9&#45;&gt;Node7</title>
<g id="a_edge10_Node000009_Node000007"><a xlink:title=" ">
<path fill="none" stroke="#63b8ff" d="M385.35,-22.79C358.82,-28.31 328.52,-34.61 304.85,-39.53"/>
<polygon fill="#63b8ff" stroke="#63b8ff" points="385.89,-26.25 394.97,-20.79 384.47,-19.4 385.89,-26.25"/>
</a>
</g>
</g>
</g>
</svg>
